<svg width="56" height="56" viewBox="0 0 56 56" fill="none" xmlns="http://www.w3.org/2000/svg">
<path d="M40.6746 37.333L47.6624 47.0306C48.1128 47.6559 47.6155 48.5127 46.8376 48.4519L41.6305 48.0447L40.2831 52.9959C40.0817 53.7355 39.0924 53.9093 38.6421 53.2841L30.3333 41.7526L40.6746 37.333Z" fill="#E1A546"/>
<path d="M41.9999 39.0345C41.2368 39.6549 40.433 40.2301 39.5884 40.749C39.1785 41.0009 39.0581 41.5247 39.3385 41.9083L40.8967 44.0404C41.3722 44.691 41.3605 45.6054 40.7829 46.1734C40.443 46.5076 40.008 46.6663 39.5799 46.6663C39.0535 46.6663 38.5361 46.4281 38.2094 45.9807L36.1179 43.1189C35.9006 42.8216 35.5084 42.7078 35.1533 42.8285C34.0626 43.1992 32.9326 43.4886 31.7716 43.6917L30.3333 41.724L40.7562 37.333L41.9999 39.0345Z" fill="#CD8741"/>
<path d="M15.3255 37.333L8.33755 47.0306C7.88724 47.6559 8.38449 48.5127 9.16243 48.4519L14.3695 48.0447L15.7169 52.9959C15.9182 53.7355 16.9076 53.9093 17.3579 53.2841L25.6667 41.7526L15.3255 37.333Z" fill="#E1A546"/>
<path d="M14 39.0345C14.7631 39.6549 15.567 40.2301 16.4115 40.749C16.8214 41.0009 16.9418 41.5247 16.6615 41.9083L15.1032 44.0404C14.6278 44.691 14.6394 45.6054 15.217 46.1734C15.5569 46.5076 15.9919 46.6663 16.4201 46.6663C16.9464 46.6663 17.4638 46.4281 17.7905 45.9807L19.8821 43.1189C20.0993 42.8216 20.4915 42.7078 20.8466 42.8285C21.9373 43.1992 23.0673 43.4886 24.2283 43.6917L25.6667 41.724L15.2437 37.333L14 39.0345Z" fill="#CD8741"/>
<path d="M28.0001 41.9997C38.9537 41.9997 47.8334 33.12 47.8334 22.1663C47.8334 11.2127 38.9537 2.33301 28.0001 2.33301C17.0464 2.33301 8.16675 11.2127 8.16675 22.1663C8.16675 33.12 17.0464 41.9997 28.0001 41.9997Z" fill="#FFC850"/>
<path d="M39.5854 30.4823C28.5944 30.4823 19.6845 21.5724 19.6845 10.5814C19.6845 8.08637 20.1478 5.70071 20.9862 3.5C13.4927 6.35489 8.16675 13.6032 8.16675 22.0991C8.16675 33.09 17.0766 42 28.0676 42C36.5635 42 43.8119 36.6741 46.6667 29.1805C44.4661 30.019 42.0804 30.4823 39.5854 30.4823Z" fill="#EAB049"/>
<path d="M27.9999 37.3333C36.3762 37.3333 43.1666 30.543 43.1666 22.1667C43.1666 13.7903 36.3762 7 27.9999 7C19.6236 7 12.8333 13.7903 12.8333 22.1667C12.8333 30.543 19.6236 37.3333 27.9999 37.3333Z" fill="#FFDC64"/>
<path d="M39.2643 30.3356C28.5314 30.3356 19.8307 21.635 19.8307 10.9021C19.8307 10.3733 19.8579 9.85112 19.8993 9.33301C15.657 12.0257 12.8333 16.7527 12.8333 22.1494C12.8333 30.5351 19.6312 37.333 28.0169 37.333C33.4136 37.333 38.1405 34.5093 40.8333 30.267C40.3152 30.3085 39.7931 30.3356 39.2643 30.3356Z" fill="#FFC850"/>
<path d="M37.9025 18.7223L31.4919 17.8004L28.625 12.0515C28.3693 11.5388 27.6307 11.5388 27.375 12.0515L24.5081 17.8004L18.0975 18.7223C17.5258 18.8045 17.2976 19.4998 17.7112 19.8989L22.35 24.3737L21.2549 30.6924C21.1572 31.2559 21.7548 31.6856 22.2662 31.4196L27.9999 28.4363L33.7338 31.4196C34.2451 31.6856 34.8427 31.2559 34.7451 30.6924L33.65 24.3737L38.2887 19.8989C38.7025 19.4998 38.4741 18.8045 37.9025 18.7223Z" fill="#FFF8DC"/>
<path d="M21.19 18.667L18.106 19.0917C17.5262 19.1716 17.2947 19.8468 17.7142 20.2343L22.4186 24.5797L21.308 30.7158C21.209 31.2629 21.815 31.6803 22.3337 31.4219L28.1486 28.5249L33.9636 31.4219C34.4822 31.6803 35.0883 31.2629 34.9893 30.7158L34.8459 29.924C28.6271 28.4461 23.5666 24.2098 21.19 18.667Z" fill="#FFF082"/>
</svg>
