<svg width="48" height="48" viewBox="0 0 48 48" fill="none" xmlns="http://www.w3.org/2000/svg">
<path d="M41.3003 31.3418L41.1277 31.3751C40.3851 34.2776 38.9233 36.8953 36.9427 39.025C36.7738 39.2066 36.7974 39.4938 36.9936 39.6456L38.9665 41.173C39.1417 41.3087 39.3909 41.285 39.54 41.1211C41.7798 38.658 43.4419 35.6603 44.3127 32.3421L44.1536 32.208L41.3003 31.3418Z" fill="#97D729"/>
<path d="M43.2259 18.5671L43.1138 18.5166C43.1146 18.5185 43.1155 18.5204 43.1163 18.5223L40.182 19.6833C40.1806 19.6802 40.179 19.6771 40.1776 19.674L40.1394 19.7883C41.1272 21.9911 41.6775 24.4311 41.6775 26.9974C41.6775 28.5079 41.4859 29.9742 41.1276 31.3745L44.3127 32.3416C44.7606 30.6353 44.9997 28.8444 44.9997 26.9974C44.9997 24.0019 44.3651 21.15 43.2259 18.5671Z" fill="#8BC727"/>
<path d="M32.2005 7.67188L32.0525 7.80411L30.8467 10.5348L30.8601 10.7074C34.9823 12.4501 38.3114 15.7122 40.1396 19.789L43.226 18.5677C41.0727 13.686 37.1115 9.7685 32.2005 7.67188Z" fill="#FED402"/>
<path d="M18.495 37.3635H29.5049C33.2114 35.391 35.7352 31.4895 35.7352 26.9979C35.7352 20.5167 30.4811 15.2627 23.9999 15.2627C17.5187 15.2627 12.2646 20.5167 12.2646 26.9979C12.2646 31.4895 14.7885 35.3909 18.495 37.3635Z" fill="#D8ECFE"/>
<path d="M18.495 37.3636H21.1273C17.42 35.3915 14.8956 31.49 14.8956 26.998C14.8956 20.9615 19.4535 15.9906 25.3154 15.3365C24.8835 15.2884 24.4447 15.2627 23.9999 15.2627C17.5187 15.2627 12.2646 20.5167 12.2646 26.998C12.2646 31.4896 14.7885 35.391 18.495 37.3636Z" fill="#C4E2FF"/>
<path d="M23.974 5.99806C21.072 6.00151 18.3078 6.59385 15.7947 7.66165L15.7751 7.82046L17.0113 10.6208L17.1389 10.7061C19.2495 9.81389 21.568 9.32023 23.9997 9.32023C26.4315 9.32023 28.75 9.81389 30.8605 10.7061L32.2004 7.67141C29.6711 6.5918 26.8901 5.99454 23.974 5.99806Z" fill="#FAC600"/>
<path d="M30.557 42.0023H17.443C16.1447 42.0023 15.0825 40.9401 15.0825 39.6418C15.0825 38.3435 16.1447 37.2812 17.443 37.2812H30.5569C31.8552 37.2812 32.9174 38.3435 32.9174 39.6418C32.9174 40.9401 31.8552 42.0023 30.557 42.0023Z" fill="#9462FD"/>
<path d="M18.5916 39.6418C18.5916 38.3435 19.6538 37.2812 20.9521 37.2812H17.443C16.1447 37.2812 15.0825 38.3435 15.0825 39.6418C15.0825 40.9401 16.1447 42.0023 17.443 42.0023H20.9521C19.6538 42.0023 18.5916 40.9401 18.5916 39.6418Z" fill="#7F4FE5"/>
<path d="M19.5703 40.2568C19.9101 40.2568 20.1855 39.9814 20.1855 39.6416C20.1855 39.3018 19.9101 39.0264 19.5703 39.0264C19.2305 39.0264 18.9551 39.3018 18.9551 39.6416C18.9551 39.9814 19.2305 40.2568 19.5703 40.2568Z" fill="#FED402"/>
<path d="M21.7852 40.2568C22.1249 40.2568 22.4004 39.9814 22.4004 39.6416C22.4004 39.3018 22.1249 39.0264 21.7852 39.0264C21.4454 39.0264 21.1699 39.3018 21.1699 39.6416C21.1699 39.9814 21.4454 40.2568 21.7852 40.2568Z" fill="#FED402"/>
<path d="M24 40.2568C24.3398 40.2568 24.6152 39.9814 24.6152 39.6416C24.6152 39.3018 24.3398 39.0264 24 39.0264C23.6602 39.0264 23.3848 39.3018 23.3848 39.6416C23.3848 39.9814 23.6602 40.2568 24 40.2568Z" fill="#FED402"/>
<path d="M26.2148 40.2568C26.5546 40.2568 26.8301 39.9814 26.8301 39.6416C26.8301 39.3018 26.5546 39.0264 26.2148 39.0264C25.8751 39.0264 25.5996 39.3018 25.5996 39.6416C25.5996 39.9814 25.8751 40.2568 26.2148 40.2568Z" fill="#FED402"/>
<path d="M28.4297 40.2568C28.7695 40.2568 29.0449 39.9814 29.0449 39.6416C29.0449 39.3018 28.7695 39.0264 28.4297 39.0264C28.0899 39.0264 27.8145 39.3018 27.8145 39.6416C27.8145 39.9814 28.0899 40.2568 28.4297 40.2568Z" fill="#FED402"/>
<path d="M41.1864 12.447L28.1982 20.3397C29.7428 21.3171 30.9253 22.8166 31.4961 24.5884L41.4041 12.6996C41.5263 12.5529 41.3497 12.3479 41.1864 12.447Z" fill="#478CB1"/>
<path d="M41.1865 12.447L28.1982 20.3397C28.641 20.6199 29.0543 20.9427 29.4317 21.3029L39.1619 15.39L41.4041 12.6996C41.5263 12.5529 41.3496 12.3479 41.1865 12.447Z" fill="#266C8F"/>
<path d="M24 34.9535C28.3938 34.9535 31.9557 31.3916 31.9557 26.9978C31.9557 22.6039 28.3938 19.042 24 19.042C19.6061 19.042 16.0442 22.6039 16.0442 26.9978C16.0442 31.3916 19.6061 34.9535 24 34.9535Z" fill="#FED402"/>
<path d="M18.6761 26.9978C18.6761 23.0522 21.5484 19.7781 25.3159 19.1509C24.8878 19.0796 24.4483 19.042 24 19.042C19.6061 19.042 16.0442 22.6039 16.0442 26.9978C16.0442 31.3916 19.6061 34.9535 24 34.9535C24.4483 34.9535 24.8878 34.9159 25.3159 34.8446C21.5484 34.2174 18.6761 30.9433 18.6761 26.9978Z" fill="#FAC600"/>
<path d="M24.0001 31.5533C22.267 31.5533 20.8569 30.1433 20.8569 28.4102C20.8569 28.0704 21.1323 27.7949 21.4722 27.7949C21.812 27.7949 22.0874 28.0704 22.0874 28.4102C22.0874 29.4648 22.9454 30.3229 24.0001 30.3229C25.0548 30.3229 25.9128 29.4648 25.9128 28.4102C25.9128 28.0704 26.1882 27.7949 26.5281 27.7949C26.8679 27.7949 27.1433 28.0704 27.1433 28.4102C27.1433 30.1433 25.7333 31.5533 24.0001 31.5533Z" fill="#FB8801"/>
<path d="M22.3333 26.1448C21.9935 26.1448 21.7181 25.8693 21.7181 25.5295C21.7181 25.167 21.4231 24.8721 21.0605 24.8721C20.6981 24.8721 20.4031 25.167 20.4031 25.5295C20.4031 25.8693 20.1277 26.1448 19.7878 26.1448C19.448 26.1448 19.1726 25.8693 19.1726 25.5295C19.1726 24.4886 20.0195 23.6416 21.0605 23.6416C22.1016 23.6416 22.9486 24.4886 22.9486 25.5295C22.9486 25.8693 22.6731 26.1448 22.3333 26.1448Z" fill="#FB8801"/>
<path d="M28.2125 26.1448C27.8726 26.1448 27.5973 25.8693 27.5973 25.5295C27.5973 25.167 27.3023 24.8721 26.9398 24.8721C26.5772 24.8721 26.2822 25.167 26.2822 25.5295C26.2822 25.8693 26.0068 26.1448 25.667 26.1448C25.3271 26.1448 25.0518 25.8693 25.0518 25.5295C25.0518 24.4886 25.8987 23.6416 26.9398 23.6416C27.9808 23.6416 28.8277 24.4886 28.8277 25.5295C28.8277 25.8693 28.5523 26.1448 28.2125 26.1448Z" fill="#FB8801"/>
<path d="M15.7953 7.66211C10.8727 9.75406 6.91255 13.6705 4.76416 18.5634L4.80764 18.6688L7.75058 19.8333L7.86033 19.7885C9.68839 15.7118 13.0175 12.4498 17.1394 10.7071L15.7953 7.66211Z" fill="#FE9901"/>
<path d="M7.86025 19.7886L4.76407 18.5635C3.63049 21.1451 3 23.9975 3 26.9977C3 28.8447 3.23912 30.6356 3.68701 32.342L3.78659 32.3975L6.8032 31.4815L6.87202 31.3749C6.51379 29.9745 6.32217 28.5082 6.32217 26.9977C6.32217 24.4314 6.87243 21.9914 7.86025 19.7886Z" fill="#FD4755"/>
<path d="M6.87194 31.375C6.87194 31.3752 6.87203 31.3752 6.87203 31.3754L3.68701 32.3425C4.55802 35.661 6.22029 38.6591 8.46064 41.1224C8.60944 41.286 8.85865 41.3087 9.03346 41.1733L11.0062 39.6459C11.2024 39.4941 11.226 39.2069 11.0571 39.0253C9.07636 36.8954 7.61449 34.2777 6.87194 31.375Z" fill="#E41F2D"/>
</svg>
