<svg width="48" height="48" viewBox="0 0 48 48" fill="none" xmlns="http://www.w3.org/2000/svg">
<g clip-path="url(#clip0_400_1021)">
<path d="M6.99669 39.4171C5.78319 39.4171 4.79028 40.41 4.79028 41.6234C4.79028 41.6557 4.79131 41.6879 4.79272 41.72C4.79131 41.752 4.79028 41.7842 4.79028 41.8165C4.79028 43.03 5.7831 44.0228 6.9966 44.0228C7.9131 44.0228 8.49417 44.0228 9.40992 44.0228H14.4278C15.1882 44.0228 31.4272 44.0228 32.1122 44.0228C32.4873 44.0228 32.7914 43.7187 32.7914 43.3436V43.1505V39.6101V39.417C32.1013 39.4171 7.69251 39.4171 6.99669 39.4171Z" fill="#E4EAF8"/>
<path d="M32.1124 42.091C31.4235 42.091 15.1851 42.091 14.428 42.091H9.41001C8.49473 42.091 7.91357 42.091 6.99669 42.091C6.09144 42.091 5.30928 41.5383 4.9701 40.7539C4.8546 41.021 4.79028 41.3149 4.79028 41.6232C4.79028 41.6555 4.79131 41.6877 4.79272 41.7197C4.79131 41.7518 4.79028 41.7839 4.79028 41.8163C4.79028 43.0298 5.7831 44.0226 6.9966 44.0226C7.9131 44.0226 8.49417 44.0226 9.40992 44.0226H14.4278C15.1882 44.0226 31.4272 44.0226 32.1122 44.0226C32.4873 44.0226 32.7914 43.7185 32.7914 43.3434V43.1503V41.4118C32.7916 41.7868 32.4875 42.091 32.1124 42.091Z" fill="#D8DCE5"/>
<path d="M22.6625 10.4185C22.6625 9.94464 22.6948 9.47852 22.7561 9.02148H7.93832C6.19972 9.02148 4.79028 10.4309 4.79028 12.1695V41.8164C4.79028 40.6029 5.7831 39.6101 6.99669 39.6101H7.93832H32.7915V20.5474C27.0374 20.5474 22.6625 16.1726 22.6625 10.4185Z" fill="#707487"/>
<path d="M6.72201 11.494C6.72201 10.4914 7.19123 9.59902 7.92145 9.02246C6.19063 9.03155 4.79028 10.4372 4.79028 12.17V41.8169C4.79028 40.6964 5.63694 39.7648 6.72201 39.6284V11.494Z" fill="#5B5D6E"/>
<path d="M21.2913 17.7983H11.919C11.519 17.7983 11.1946 17.474 11.1946 17.074C11.1946 16.674 11.5189 16.3496 11.919 16.3496H21.2913C21.6913 16.3496 22.0157 16.6739 22.0157 17.074C22.0157 17.4741 21.6914 17.7983 21.2913 17.7983Z" fill="#959CB5"/>
<path d="M21.2913 20.8912H11.919C11.519 20.8912 11.1946 20.5669 11.1946 20.1668C11.1946 19.7667 11.5189 19.4424 11.919 19.4424H21.2913C21.6913 19.4424 22.0157 19.7667 22.0157 20.1668C22.0157 20.5669 21.6914 20.8912 21.2913 20.8912Z" fill="#959CB5"/>
<path d="M28.5392 23.9849H11.919C11.519 23.9849 11.1946 23.6607 11.1946 23.2605C11.1946 22.8604 11.5189 22.5361 11.919 22.5361H28.5392C28.9392 22.5361 29.2636 22.8604 29.2636 23.2605C29.2636 23.6607 28.9393 23.9849 28.5392 23.9849Z" fill="#959CB5"/>
<path d="M32.7913 20.8369C38.5452 20.8369 43.2097 16.1724 43.2097 10.4185C43.2097 4.6645 38.5452 0 32.7913 0C27.0373 0 22.3728 4.6645 22.3728 10.4185C22.3728 16.1724 27.0373 20.8369 32.7913 20.8369Z" fill="#FC932B"/>
<path d="M24.3045 10.4187C24.3045 4.99042 28.4562 0.532407 33.7574 0.0450001C33.4393 0.01575 33.1172 0 32.7915 0C27.0374 0 22.3728 4.66463 22.3728 10.4187C22.3728 16.1728 27.0374 20.8375 32.7915 20.8375C33.1173 20.8375 33.4393 20.8217 33.7574 20.7925C28.4563 20.3051 24.3045 15.8471 24.3045 10.4187Z" fill="#E57D1F"/>
<path d="M29.5422 14.422C29.3496 14.422 29.1573 14.3457 29.0148 14.1944L26.2248 11.2337C25.9618 10.9547 25.9618 10.5191 26.2248 10.2401L29.0148 7.27936C29.2892 6.98818 29.7477 6.97458 30.0389 7.24899C30.33 7.5234 30.3436 7.98183 30.0692 8.27302L27.7473 10.737L30.0692 13.2009C30.3436 13.4921 30.3299 13.9505 30.0389 14.2249C29.8989 14.3567 29.7203 14.422 29.5422 14.422Z" fill="#E4EAF8"/>
<path d="M36.2004 14.4221C36.0221 14.4221 35.8436 14.3568 35.7037 14.2249C35.4125 13.9505 35.3989 13.4921 35.6733 13.2009L37.9952 10.737L35.6733 8.27302C35.399 7.98183 35.4126 7.5234 35.7037 7.24899C35.9948 6.97458 36.4532 6.98818 36.7277 7.27936L39.5177 10.2401C39.7807 10.5191 39.7807 10.9547 39.5177 11.2337L36.7277 14.1944C36.5852 14.3457 36.3929 14.4221 36.2004 14.4221Z" fill="#E4EAF8"/>
<path d="M31.8986 14.4224C31.8236 14.4224 31.7474 14.4107 31.6723 14.386C31.2922 14.2612 31.0853 13.8517 31.2103 13.4717L33.156 7.55023C33.2809 7.17008 33.6905 6.96317 34.0704 7.08823C34.4505 7.21311 34.6574 7.62252 34.5324 8.00258L32.5866 13.924C32.4864 14.2289 32.203 14.4224 31.8986 14.4224Z" fill="#E4EAF8"/>
<path d="M14.428 47.6259V42.1894C14.428 41.9834 14.261 41.8164 14.055 41.8164H9.78319C9.57712 41.8164 9.41016 41.9835 9.41016 42.1894V47.6259C9.41016 47.9519 9.79894 48.1211 10.0374 47.8989L11.6648 46.3834C11.8081 46.25 12.0301 46.25 12.1733 46.3834L13.8008 47.8989C14.0393 48.1211 14.428 47.9519 14.428 47.6259Z" fill="#FF5050"/>
<path d="M11.3418 42.1894C11.3418 41.9834 11.5088 41.8164 11.7148 41.8164H9.78319C9.57713 41.8164 9.41016 41.9835 9.41016 42.1894V47.6259C9.41016 47.9519 9.79884 48.1211 10.0374 47.8989L11.3419 46.6842V42.1894H11.3418Z" fill="#F24646"/>
</g>
<defs>
<clipPath id="clip0_400_1021">
<rect width="48" height="48" fill="white"/>
</clipPath>
</defs>
</svg>
