<svg width="52" height="52" viewBox="0 0 52 52" fill="none" xmlns="http://www.w3.org/2000/svg">
<g clip-path="url(#clip0_400_1000)">
<path d="M38.5786 40.8664C38.6203 39.5834 37.5824 38.5178 36.3058 38.5178H36.301V38.517H36.491C37.7304 38.5158 38.7341 37.5101 38.7333 36.2707C38.7325 35.0313 37.7268 34.0339 36.4875 34.0347C35.454 34.0347 28.2482 34.0347 27.1501 34.0347C26.8898 34.0347 26.7053 33.7804 26.7863 33.5333L27.6047 31.0351C28.3014 28.909 28.1776 27.4613 28.1776 24.9711C28.1776 23.5063 26.9902 22.3193 25.5255 22.3193C24.1948 22.3193 23.0701 23.3048 22.8959 24.6239C22.7035 26.0835 22.5734 28.6789 20.1609 31.0021L18.4577 32.6414C17.5092 33.5551 16.2436 34.0653 14.9268 34.0653H12.6897V48.7863C13.2983 48.7859 14.521 48.7859 14.5218 48.7859C17.773 48.7839 17.4758 52.0034 21.5193 51.9998H35.2806C36.5184 51.9998 37.5217 50.9961 37.5217 49.7583C37.5217 48.5201 36.5184 47.5168 35.2806 47.5168H35.6754C36.8933 47.5168 37.9335 46.5694 37.974 45.3518C38.0164 44.0791 36.9973 43.0337 35.7341 43.0337H36.2792C37.4983 43.0337 38.5393 42.0851 38.5786 40.8664Z" fill="#FFCDBF"/>
<path d="M35.2807 49.3838H21.5194C17.4759 49.3878 17.7731 46.1679 14.5219 46.1699C14.5211 46.1699 13.2984 46.1703 12.6902 46.1707V48.7863C13.2984 48.786 14.5211 48.786 14.5219 48.786C17.7731 48.784 17.4759 52.0034 21.5194 51.9998H35.2807C36.5185 51.9998 37.5218 50.9961 37.5218 49.7583C37.5218 49.2696 37.3639 48.8185 37.0981 48.4503C36.6915 49.0149 36.0297 49.3838 35.2807 49.3838Z" fill="#FFBEAB"/>
<path d="M12.0535 32.7432H3.56393C2.92361 32.7432 2.4043 33.2625 2.4043 33.9028V49.2379C2.4043 49.8787 2.92322 50.398 3.56393 50.398H12.0535C12.6938 50.398 13.2132 49.8787 13.2132 49.2379V33.9028C13.2132 33.2625 12.6938 32.7432 12.0535 32.7432Z" fill="#54A0FF"/>
<path d="M5.54321 49.2383V33.9028C5.54321 33.2625 6.06253 32.7432 6.70325 32.7432H3.56393C2.92361 32.7432 2.4043 33.2625 2.4043 33.9028V49.2379C2.4043 49.8787 2.92322 50.398 3.56393 50.398H6.70285C6.06253 50.398 5.54321 49.8787 5.54321 49.2383Z" fill="#338DEF"/>
<path d="M14.6333 12.1429C14.9499 11.8402 14.7754 11.3137 14.3378 11.251L10.9573 10.7702C10.7835 10.7452 10.6335 10.6385 10.5558 10.4841L9.04384 7.48368C8.84825 7.09528 8.28291 7.09528 8.08693 7.48368L6.57539 10.4841C6.49763 10.6385 6.34727 10.7456 6.17351 10.7702L2.79338 11.251C2.35579 11.3133 2.18083 11.8402 2.49782 12.1429L4.94365 14.4784C5.06941 14.5982 5.12654 14.7712 5.09718 14.941L4.51954 18.2386C4.44496 18.6655 4.90239 18.9912 5.29396 18.7896L8.31743 17.2325C8.47255 17.1527 8.65861 17.1527 8.81373 17.2325L11.8372 18.7896C12.2288 18.9912 12.6862 18.6655 12.6116 18.2386L12.034 14.941C12.0042 14.7712 12.0618 14.5982 12.1875 14.4784L14.6333 12.1429Z" fill="#FECA57"/>
<path d="M8.78841 14.3371C8.81816 14.1677 8.76103 13.9947 8.63527 13.8745L6.18904 11.5389C5.94664 11.3076 5.99306 10.945 6.22435 10.7598C6.20769 10.7637 6.19103 10.7673 6.17357 10.7697L2.79345 11.2509C2.35586 11.3132 2.1813 11.8401 2.49788 12.1424L4.94371 14.4779C5.06948 14.5981 5.127 14.7711 5.09725 14.9405L4.52001 18.2385C4.44503 18.6654 4.90245 18.9911 5.29403 18.7896L8.27822 17.2526L8.78841 14.3371Z" fill="#F4B537"/>
<path d="M6.48486 10.6476L9.86499 10.1664C10.0332 10.1426 10.1788 10.041 10.2585 9.8946L9.04416 7.48368C8.84817 7.09528 8.28284 7.09528 8.08725 7.48368L6.57532 10.4841C6.54041 10.5532 6.49042 10.6123 6.43091 10.6591C6.44836 10.6547 6.46622 10.6504 6.48486 10.6476Z" fill="#F4B537"/>
<path d="M49.449 12.1429C49.7656 11.8402 49.5906 11.3137 49.153 11.251L45.7729 10.7702C45.5991 10.7452 45.4488 10.6385 45.371 10.4841L43.8595 7.48368C43.6639 7.09528 43.0981 7.09528 42.9026 7.48368L41.3906 10.4841C41.3129 10.6385 41.1629 10.7456 40.9891 10.7702L37.609 11.251C37.171 11.3133 36.9965 11.8402 37.3131 12.1429L39.7589 14.4784C39.8846 14.5982 39.9422 14.7712 39.9124 14.941L39.3352 18.2386C39.2602 18.6655 39.718 18.9912 40.1092 18.7896L43.1327 17.2325C43.2882 17.1527 43.4738 17.1527 43.6294 17.2325L46.6524 18.7896C47.044 18.9912 47.5014 18.6655 47.4269 18.2386L46.8492 14.941C46.8195 14.7712 46.877 14.5982 47.0028 14.4784L49.449 12.1429Z" fill="#FECA57"/>
<path d="M43.6041 14.3371C43.6339 14.1677 43.5764 13.9947 43.4506 13.8745L41.0048 11.5389C40.7624 11.3076 40.8088 10.945 41.0397 10.7598C41.023 10.7637 41.0063 10.7673 40.9893 10.7697L37.6092 11.2509C37.1716 11.3132 36.9966 11.8401 37.3132 12.1424L39.7594 14.4779C39.8852 14.5981 39.9423 14.7711 39.9126 14.9405L39.3353 18.2385C39.2607 18.6654 39.7182 18.9911 40.1097 18.7896L43.0939 17.2526L43.6041 14.3371Z" fill="#F4B537"/>
<path d="M41.3003 10.6476L44.6804 10.1664C44.849 10.1426 44.9946 10.041 45.074 9.8946L43.8596 7.48368C43.664 7.09528 43.0983 7.09528 42.9027 7.48368L41.3911 10.4841C41.3562 10.5532 41.3062 10.6123 41.2463 10.6591C41.2642 10.6547 41.2816 10.6504 41.3003 10.6476Z" fill="#F4B537"/>
<path d="M35.7845 8.00449C36.2967 7.51533 36.0138 6.66355 35.3065 6.56278L29.8407 5.7848C29.5599 5.74473 29.3167 5.57215 29.1913 5.32261L26.747 0.471016C26.4305 -0.157005 25.516 -0.157005 25.1998 0.471016L22.7556 5.32261C22.6298 5.57215 22.387 5.74473 22.1057 5.7848L16.6404 6.56278C15.9326 6.66355 15.6502 7.51533 16.1619 8.00449L20.1169 11.7806C20.3204 11.9749 20.4133 12.2546 20.3653 12.5288L19.4314 17.8608C19.3108 18.5511 20.0507 19.0776 20.6835 18.7519L25.5719 16.2342C25.8235 16.1049 26.1234 16.1049 26.3749 16.2342L31.2634 18.7519C31.8962 19.0776 32.6361 18.5511 32.5151 17.8608L31.5816 12.5288C31.5336 12.2546 31.6264 11.9749 31.8295 11.7806L35.7845 8.00449Z" fill="#FECA57"/>
<path d="M25.7973 5.18137C26.0782 5.1413 26.321 4.96833 26.4468 4.71918L27.6671 2.29716L26.7471 0.471016C26.4305 -0.157005 25.5161 -0.157005 25.1999 0.471016L22.7556 5.32261C22.685 5.46186 22.5775 5.57651 22.4478 5.65824L25.7973 5.18137Z" fill="#F4B537"/>
<path d="M23.1229 17.2572L24.0564 11.9248C24.1044 11.6506 24.0116 11.3709 23.8085 11.1769L19.8535 7.40048C19.4369 7.00296 19.5464 6.36542 19.982 6.08691L16.6404 6.56259C15.9326 6.66336 15.6502 7.51514 16.1619 8.0043L20.1169 11.7804C20.3204 11.9748 20.4133 12.2545 20.3653 12.5286L19.4314 17.8606C19.3108 18.5509 20.0503 19.0774 20.6835 18.7517L23.1158 17.4988C23.1067 17.4214 23.1083 17.3405 23.1229 17.2572Z" fill="#F4B537"/>
<path d="M31.6895 41.9876C31.6895 42.5656 32.158 43.0341 32.7356 43.0341H36.2792C37.4734 43.0341 38.4937 42.1237 38.5727 40.9414H32.736C32.158 40.9414 31.6895 41.4099 31.6895 41.9876Z" fill="#FFBEAB"/>
<path d="M31.6895 37.471C31.6895 38.049 32.158 38.5175 32.7356 38.5175H36.4907C37.6785 38.5164 38.6473 37.5924 38.7258 36.4248H32.7356C32.158 36.4248 31.6895 36.8933 31.6895 37.471Z" fill="#FFBEAB"/>
<path d="M37.9681 45.4248H32.7356C32.158 45.4248 31.6895 45.8933 31.6895 46.471C31.6895 47.049 32.158 47.5175 32.7356 47.5175H35.6754C36.8691 47.5175 37.8891 46.6071 37.9681 45.4248Z" fill="#FFBEAB"/>
</g>
<defs>
<clipPath id="clip0_400_1000">
<rect width="52" height="52" fill="white"/>
</clipPath>
</defs>
</svg>
