<svg width="125" height="126" viewBox="0 0 125 126" fill="none" xmlns="http://www.w3.org/2000/svg">
<path d="M115.969 45.28H110.104C106.82 45.28 104.157 42.6177 104.157 39.3333V27.5222H121.915V39.3333C121.915 42.6174 119.253 45.28 115.969 45.28Z" fill="#CC943A"/>
<path d="M114.933 43.3507H111.139C108.349 43.3507 106.087 41.0884 106.087 38.298V29.4514H119.986V38.298C119.986 41.0884 117.724 43.3507 114.933 43.3507Z" fill="#EFB348"/>
<path d="M115.217 34.5486C115.217 33.3442 114.241 32.3677 113.036 32.3677C111.832 32.3677 110.855 33.3442 110.855 34.5486C110.855 35.477 111.437 36.2681 112.254 36.5827L111.024 39.7837H115.049L113.818 36.5827C114.636 36.2681 115.217 35.4773 115.217 34.5486Z" fill="#051934"/>
<path d="M108.597 27.5222H106.381V21.6988C106.381 18.1851 103.938 15.3266 100.935 15.3266C97.9323 15.3266 95.489 18.1851 95.489 21.6988V27.5222H93.2731V21.6988C93.2731 16.963 96.7101 13.1104 100.935 13.1104C105.16 13.1104 108.597 16.963 108.597 21.6988V27.5222Z" fill="#A34D2F"/>
<path d="M83.4845 8.99427H49.0344C46.6417 8.99427 44.7023 7.05482 44.7023 4.66217C44.7023 2.26953 46.6417 0.330078 49.0344 0.330078H83.4845C85.8768 0.330078 87.8166 2.26953 87.8166 4.66217C87.8166 7.05482 85.8771 8.99427 83.4845 8.99427Z" fill="white"/>
<path d="M51.1794 6.34522L50.4523 5.78176C50.6832 5.52166 50.9241 5.27287 51.1746 5.03538C51.2741 4.93897 51.3366 4.87819 51.3623 4.85246C51.282 4.83974 51.0525 4.78659 50.6739 4.69358C50.4011 4.62629 50.2213 4.57653 50.1348 4.5443L50.4189 3.69699C50.8393 3.86719 51.215 4.05491 51.5455 4.26045C51.4683 3.73714 51.4299 3.31023 51.4299 2.97974H52.2868C52.2868 3.21411 52.2436 3.64412 52.1568 4.27006C52.2209 4.24434 52.3589 4.18185 52.571 4.08234C52.8599 3.95087 53.1262 3.83835 53.3702 3.74534L53.6255 4.61696C53.2693 4.69725 52.8568 4.77585 52.388 4.85275L52.9659 5.50272C53.0815 5.63418 53.1729 5.74189 53.2404 5.8253L52.5037 6.31157L51.8537 5.23781C51.6578 5.58442 51.433 5.95365 51.1794 6.34522Z" fill="#7DA5AF"/>
<path d="M58.5672 6.34522L57.8401 5.78176C58.0711 5.52166 58.3119 5.27287 58.5624 5.03538C58.6619 4.93897 58.7244 4.87819 58.7501 4.85246C58.6699 4.83974 58.4403 4.78659 58.0617 4.69358C57.7889 4.62629 57.6091 4.57653 57.5226 4.5443L57.8067 3.69699C58.2271 3.86719 58.6029 4.05491 58.9333 4.26045C58.8562 3.73714 58.8177 3.31023 58.8177 2.97974H59.6746C59.6746 3.21411 59.6314 3.64412 59.5446 4.27006C59.6088 4.24434 59.7467 4.18185 59.9588 4.08234C60.2477 3.95087 60.514 3.83835 60.758 3.74534L61.0133 4.61696C60.6571 4.69725 60.2446 4.77585 59.7758 4.85275L60.3537 5.50272C60.4694 5.63418 60.5607 5.74189 60.6282 5.8253L59.8915 6.31157L59.2415 5.23781C59.0456 5.58442 58.8208 5.95365 58.5672 6.34522Z" fill="#7DA5AF"/>
<path d="M65.9541 6.34522L65.2269 5.78176C65.4582 5.52166 65.6988 5.27287 65.9493 5.03538C66.0488 4.93897 66.1113 4.87819 66.137 4.85246C66.0567 4.83974 65.8271 4.78659 65.4486 4.69358C65.1757 4.62629 64.9959 4.57653 64.9094 4.5443L65.1936 3.69699C65.614 3.86719 65.9897 4.05491 66.3202 4.26045C66.2433 3.73714 66.2046 3.31023 66.2046 2.97974H67.0615C67.0615 3.21411 67.0182 3.64412 66.9314 4.27006C66.9956 4.24434 67.1336 4.18185 67.3456 4.08234C67.6345 3.95087 67.9009 3.83835 68.1449 3.74534L68.4001 4.61696C68.0439 4.69725 67.6314 4.77585 67.1627 4.85275L67.7406 5.50272C67.8562 5.63418 67.9475 5.74189 68.0151 5.8253L67.2783 6.31157L66.6283 5.23781C66.4321 5.58442 66.2077 5.95365 65.9541 6.34522Z" fill="#7DA5AF"/>
<path d="M73.3415 6.34522L72.6144 5.78176C72.8453 5.52166 73.0862 5.27287 73.3367 5.03538C73.4362 4.93897 73.4987 4.87819 73.5244 4.85246C73.4441 4.83974 73.2146 4.78659 72.836 4.69358C72.5632 4.62629 72.3834 4.57653 72.2969 4.5443L72.581 3.69699C73.0014 3.86719 73.3771 4.05491 73.7076 4.26045C73.6307 3.73714 73.592 3.31023 73.592 2.97974H74.4489C74.4489 3.21411 74.4057 3.64412 74.3189 4.27006C74.383 4.24434 74.521 4.18185 74.7331 4.08234C75.022 3.95087 75.2883 3.83835 75.5323 3.74534L75.7876 4.61696C75.4314 4.69725 75.0189 4.77585 74.5501 4.85275L75.128 5.50272C75.2436 5.63418 75.335 5.74189 75.4025 5.8253L74.6658 6.31157L74.0158 5.23781C73.8199 5.58442 73.5951 5.95365 73.3415 6.34522Z" fill="#7DA5AF"/>
<path d="M80.7293 6.34522L80.0021 5.78176C80.2331 5.52166 80.474 5.27287 80.7245 5.03538C80.824 4.93897 80.8864 4.87819 80.9122 4.85246C80.8319 4.83974 80.6023 4.78659 80.2238 4.69358C79.9509 4.62629 79.7711 4.57653 79.6843 4.5443L79.9685 3.69699C80.3889 3.86719 80.7646 4.05491 81.0951 4.26045C81.0179 3.73714 80.9795 3.31023 80.9795 2.97974H81.8364C81.8364 3.21411 81.7931 3.64412 81.7063 4.27006C81.7705 4.24434 81.9085 4.18185 82.1205 4.08234C82.4095 3.95087 82.6758 3.83835 82.9198 3.74534L83.1751 4.61696C82.8188 4.69725 82.4063 4.77585 81.9376 4.85275L82.5155 5.50272C82.6311 5.63418 82.7224 5.74189 82.79 5.8253L82.0532 6.31157L81.4033 5.23781C81.2076 5.58442 80.9829 5.95365 80.7293 6.34522Z" fill="#7DA5AF"/>
<path d="M18.5056 9.17933L9.14704 25.3887C8.75773 26.063 9.24429 26.9055 10.0229 26.9055H28.74C29.5186 26.9055 30.0049 26.0627 29.6159 25.3887L20.257 9.17933C19.8677 8.50533 18.8946 8.50533 18.5056 9.17933Z" fill="#FFCC00"/>
<path d="M21.2125 15.4648C21.2125 14.4532 20.3926 13.6333 19.381 13.6333C18.3694 13.6333 17.5496 14.4532 17.5496 15.4648C17.5496 16.0802 18.2275 18.8291 18.7585 20.8876C18.9244 21.531 19.8376 21.531 20.0036 20.8876C20.5345 18.8294 21.2125 16.0802 21.2125 15.4648Z" fill="white"/>
<path d="M19.381 25.0313C20.143 25.0313 20.7607 24.4136 20.7607 23.6516C20.7607 22.8897 20.143 22.272 19.381 22.272C18.619 22.272 18.0013 22.8897 18.0013 23.6516C18.0013 24.4136 18.619 25.0313 19.381 25.0313Z" fill="white"/>
<path d="M4.02727 50.7038C5.04392 51.0283 6.48748 51.8556 7.5129 51.3631C7.75971 51.2446 7.83096 50.8841 7.69667 50.6625C7.19795 49.8386 5.86041 49.6549 4.85648 49.4443C4.71936 48.2639 4.578 47.0937 4.31875 45.9292C4.19322 45.3655 3.35298 45.5122 3.33743 46.0621C3.29983 47.3911 3.40896 48.6959 3.50735 50.021C3.53138 50.3461 3.71232 50.6031 4.02727 50.7038Z" fill="#051934"/>
<path d="M8.29101 53.6889C9.03484 53.4095 8.88528 52.4251 8.10837 52.3394C6.92972 52.2097 5.73156 52.4698 4.5611 52.6097C3.48649 52.7384 2.39237 52.789 1.36299 53.1429C0.884634 53.3075 0.774939 54.1192 1.36299 54.2269C2.51422 54.4381 3.65471 54.3111 4.8147 54.2209C5.97809 54.1305 7.18954 54.1019 8.29101 53.6889Z" fill="#051934"/>
<path d="M8.04844 55.4056C7.36002 55.7429 6.65322 55.9646 5.91392 56.1582C5.46863 56.275 4.93741 56.3332 4.64479 56.7336C4.33776 57.1537 4.44067 57.7256 4.50428 58.2054C4.58825 58.8381 4.65695 59.5944 5.17715 60.0165C5.43782 60.228 5.88084 60.1847 5.97046 59.807C6.08835 59.3094 5.91194 58.9136 5.83928 58.4188C5.80931 58.215 5.87773 57.7748 5.78641 57.6108C5.82062 57.6038 5.85455 57.5958 5.88875 57.5891C6.82483 57.5249 7.85732 56.8721 8.61614 56.3762C9.22511 55.9778 8.697 55.0878 8.04844 55.4056Z" fill="#051934"/>
<path d="M17.7015 51.363C18.7306 51.8571 20.1685 51.0291 21.1872 50.7037C21.5047 50.6022 21.6831 50.3446 21.7071 50.0209C21.8055 48.6958 21.9146 47.391 21.877 46.062C21.8614 45.5175 21.0221 45.3603 20.8957 45.9291C20.6367 47.0936 20.4951 48.2635 20.358 49.4441C19.3546 49.6553 18.0145 49.8414 17.5178 50.6624C17.3832 50.8849 17.4544 51.2442 17.7015 51.363Z" fill="#051934"/>
<path d="M23.8517 53.143C22.8231 52.7896 21.7276 52.7387 20.6536 52.6098C19.4797 52.469 18.2883 52.2092 17.1063 52.3395C16.3348 52.4246 16.1747 53.4079 16.9237 53.6889C18.0249 54.1022 19.2366 54.1305 20.3997 54.221C21.5597 54.3112 22.7002 54.4381 23.8514 54.2269C24.4386 54.1192 24.33 53.3072 23.8517 53.143Z" fill="#051934"/>
<path d="M19.3007 56.1581C18.5614 55.9645 17.8543 55.7428 17.1662 55.4055C16.5185 55.0881 15.989 55.9775 16.5988 56.3761C17.3774 56.8853 18.3765 57.4914 19.3262 57.589C19.3635 57.5929 19.3935 57.5963 19.4203 57.6C19.4014 57.872 19.4152 58.1437 19.3757 58.4188C19.3027 58.9243 19.1246 59.3011 19.2445 59.8069C19.3341 60.1846 19.7771 60.2279 20.0378 60.0164C20.558 59.5946 20.6267 58.8383 20.7107 58.2053C20.7743 57.7255 20.8772 57.1536 20.5701 56.7335C20.2772 56.3331 19.746 56.2749 19.3007 56.1581ZM19.536 57.6187C19.56 57.6277 19.5699 57.6263 19.536 57.6187V57.6187Z" fill="#051934"/>
<path d="M12.7258 58.848C16.6104 58.848 19.7595 55.6989 19.7595 51.8143C19.7595 47.9296 16.6104 44.7805 12.7258 44.7805C8.84113 44.7805 5.69202 47.9296 5.69202 51.8143C5.69202 55.6989 8.84113 58.848 12.7258 58.848Z" fill="#E26944"/>
<path d="M12.8142 48.1265H18.7151C17.7449 46.5541 16.1718 45.3955 14.3194 44.9657C14.778 44.4229 15.1713 43.8456 15.5727 43.2587C15.9889 42.6497 15.05 41.9313 14.5527 42.4716C14.0599 43.0068 13.5804 43.5321 13.147 44.117C13.0127 44.298 12.8459 44.4896 12.6907 44.6918C12.5414 44.4085 12.2774 44.1566 12.0478 43.9146C11.6373 43.4823 11.1813 43.1023 10.6995 42.7523C10.1541 42.3557 9.44226 43.2666 9.97293 43.6941C10.3781 44.0203 10.7561 44.376 11.0981 44.7684C11.1442 44.8213 11.1895 44.8804 11.2347 44.942C9.33738 45.3519 7.72447 46.5252 6.73608 48.1268H11.9067C11.7453 49.8587 11.8109 51.6059 11.8109 53.3458C11.8109 55.0161 11.5686 56.9072 11.987 58.53C12.082 58.8987 12.6387 58.8989 12.7337 58.53C13.1532 56.9032 12.9098 55.0201 12.9098 53.3458C12.9101 51.6059 12.976 49.8585 12.8142 48.1265Z" fill="#051934"/>
<path opacity="0.36" d="M113.519 89.7131H26.9722C24.9189 91.371 23.7905 93.1753 23.7905 95.063C23.7905 103.172 44.5893 109.746 70.2457 109.746C95.9021 109.746 116.701 103.172 116.701 95.063C116.701 93.1753 115.573 91.371 113.519 89.7131Z" fill="#78B4EA"/>
<path opacity="0.36" d="M31.1855 119.132C35.2374 119.132 38.5221 117.84 38.5221 116.245C38.5221 114.651 35.2374 113.359 31.1855 113.359C27.1337 113.359 23.849 114.651 23.849 116.245C23.849 117.84 27.1337 119.132 31.1855 119.132Z" fill="#78B4EA"/>
<path opacity="0.36" d="M101.061 121.62C105.113 121.62 108.398 120.327 108.398 118.733C108.398 117.138 105.113 115.846 101.061 115.846C97.0095 115.846 93.7249 117.138 93.7249 118.733C93.7249 120.327 97.0095 121.62 101.061 121.62Z" fill="#78B4EA"/>
<path opacity="0.36" d="M116.701 115.591C120.753 115.591 124.038 114.299 124.038 112.704C124.038 111.11 120.753 109.817 116.701 109.817C112.649 109.817 109.365 111.11 109.365 112.704C109.365 114.299 112.649 115.591 116.701 115.591Z" fill="#78B4EA"/>
<path opacity="0.36" d="M115.045 125.33C119.097 125.33 122.381 124.038 122.381 122.443C122.381 120.849 119.097 119.556 115.045 119.556C110.993 119.556 107.708 120.849 107.708 122.443C107.708 124.038 110.993 125.33 115.045 125.33Z" fill="#78B4EA"/>
<path opacity="0.36" d="M20.4504 105.405C24.7824 105.405 28.2942 104.023 28.2942 102.319C28.2942 100.614 24.7824 99.2327 20.4504 99.2327C16.1185 99.2327 12.6067 100.614 12.6067 102.319C12.6067 104.023 16.1185 105.405 20.4504 105.405Z" fill="#78B4EA"/>
<path opacity="0.36" d="M101.022 114.251C105.159 114.251 108.512 112.789 108.512 110.985C108.512 109.182 105.159 107.719 101.022 107.719C96.8859 107.719 93.5326 109.182 93.5326 110.985C93.5326 112.789 96.8859 114.251 101.022 114.251Z" fill="#78B4EA"/>
<path opacity="0.36" d="M112.894 106.124C117.38 106.124 121.016 104.539 121.016 102.583C121.016 100.627 117.38 99.0415 112.894 99.0415C108.409 99.0415 104.773 100.627 104.773 102.583C104.773 104.539 108.409 106.124 112.894 106.124Z" fill="#78B4EA"/>
<path d="M49.787 102.664L31.9229 90.3574L79.9601 89.3948L98.142 102.279L49.787 102.664Z" fill="#C9C9C9"/>
<path d="M90.5831 47.5817C90.5149 47.4409 90.39 47.3674 90.248 47.3502C90.1313 47.1865 89.9221 47.1186 89.7304 47.1492C89.7024 47.1334 89.6738 47.1198 89.6439 47.1093C89.5559 46.759 89.0406 46.584 88.7771 46.9736C88.5068 47.3731 88.2365 47.7723 87.9665 48.1718C87.8814 48.2976 87.8678 48.4228 87.8992 48.5339C87.841 48.627 87.7878 48.7228 87.7276 48.8147C87.4064 49.2894 88.1689 49.7245 88.4918 49.2614C88.6371 49.053 88.772 48.8384 88.908 48.6244C89.0838 48.7002 89.3001 48.6835 89.4595 48.5404C89.6133 48.7132 89.8726 48.7819 90.0999 48.6507C90.1703 48.61 90.2322 48.5665 90.2876 48.5195C90.3037 48.5198 90.3193 48.5218 90.3357 48.5209C90.8876 48.4935 90.9698 47.8074 90.5831 47.5817Z" fill="#A34D2F"/>
<path d="M94.6926 41.3763C94.3502 41.1304 93.9468 40.9774 93.51 40.9087V37.1327V35.9003V34.0341V33.3839V32.8018L89.0165 33.8376V35.07L91.3412 34.534V36.4002L89.0165 36.9362V38.1686L91.3412 37.6326V41.2239C89.5474 41.9918 88.1901 43.8179 88.1901 45.5362C88.1901 46.4486 88.565 47.2207 89.2457 47.7098C89.719 48.0496 90.3048 48.2226 90.9418 48.2226C91.3565 48.2226 91.7925 48.1494 92.2329 48.0013C94.2041 47.338 95.7483 45.3827 95.7483 43.5499C95.7485 42.6378 95.3734 41.8657 94.6926 41.3763ZM91.7054 46.4322C91.108 46.6335 90.5496 46.6083 90.2121 46.3655C89.9692 46.1907 89.8457 45.9117 89.8457 45.536C89.8457 44.409 90.9389 43.089 92.2332 42.6536C92.501 42.5635 92.7608 42.5188 92.9966 42.5188C93.2866 42.5188 93.5402 42.5864 93.7265 42.7204C93.9694 42.8951 94.0929 43.1741 94.0929 43.5499C94.0929 44.6768 92.9997 45.9968 91.7054 46.4322Z" fill="#CEAF17"/>
<path d="M93.4866 43.3513C92.5096 42.3485 91.4448 43.3439 91.0222 44.3453C90.4876 45.6113 90.4975 47.1275 90.5574 48.5547C90.139 48.421 89.675 48.3718 89.1619 48.4427C88.8687 48.4832 88.6352 48.6454 88.4675 48.8677C87.4438 48.3367 86.2445 48.2689 85.4306 49.1509C84.8572 49.0311 84.2505 49.0667 83.6619 49.2977C82.0707 49.9225 81.4736 51.4837 81.3091 53.0573C81.1253 54.8121 83.6155 54.9046 84.1631 53.4378C84.1767 53.4415 84.1903 53.4452 84.2039 53.4491C84.2955 53.0429 84.4789 52.5535 84.6932 52.3426C84.7345 52.474 84.7438 52.6114 84.7184 52.7556C84.7682 52.9555 84.7696 53.1907 84.7532 53.433C84.7354 53.4997 84.7178 53.5667 84.6998 53.6337C83.7931 54.7018 83.369 56.0812 83.7012 57.4137C83.6483 57.8038 83.6803 58.1988 83.736 58.6059C83.6947 59.3263 83.7772 60.0588 83.9972 60.8074C84.1753 61.4141 84.5796 61.7297 85.0277 61.8119C85.618 62.1175 86.4772 61.983 86.9375 61.4127C87.1684 61.5507 87.4204 61.644 87.6706 61.674C88.5823 61.7825 89.2654 61.3251 89.6615 60.5697C90.1506 60.5847 90.6278 60.3712 90.8916 59.8439C91.1816 59.2644 91.2221 58.7348 91.405 58.1281C91.5947 57.4993 91.9916 56.9458 92.2848 56.3642C92.8177 55.3063 93.1804 54.193 93.179 53.0095C93.7221 51.5902 93.7713 50.0384 93.8768 48.5199C93.9729 47.1306 94.5672 44.4604 93.4866 43.3513Z" fill="#D5754B"/>
<path d="M84.1153 49.4027C84.2391 49.4027 84.2394 49.2102 84.1153 49.2102C83.9915 49.2102 83.9912 49.4027 84.1153 49.4027Z" fill="#A34D2F"/>
<path d="M90.7705 48.474C90.0699 48.1206 88.8319 47.9476 88.228 48.6041C87.3982 48.206 86.2832 48.2809 85.655 48.9914L85.6544 48.9925C84.4571 48.5882 83.072 49.0058 82.4088 50.1206C82.3392 50.2373 82.5018 50.3648 82.5976 50.2664C83.5538 49.286 85.0106 48.9642 86.1257 49.8998C87.2441 50.8384 86.9685 52.0886 86.9741 53.3659C86.9755 53.6961 87.4638 53.7671 87.5517 53.4442C87.9814 51.8697 87.6179 49.9857 86.0708 49.1695C86.8701 48.8644 87.7697 48.8005 88.4267 49.4799C89.1078 50.1839 89.2687 51.2096 89.5019 52.1199C89.5808 52.4273 90.0982 52.3741 90.069 52.043C89.9763 50.991 89.5729 49.6527 88.7191 48.9264C88.7787 48.8921 88.8387 48.8599 88.9003 48.8345C89.4635 48.6015 90.034 48.7644 90.5528 49.0581C91.916 49.8302 91.6393 51.2356 91.9327 52.5485C91.9833 52.775 92.3497 52.7809 92.3969 52.5485C92.706 51.021 92.2299 49.2105 90.7705 48.474Z" fill="#A34D2F"/>
<path d="M85.0898 53.2801C85.1022 53.1085 84.8362 53.0352 84.761 53.191C84.1288 54.4994 83.2128 55.4969 83.0276 56.9973C82.8696 58.2774 83.0723 59.8773 83.9977 60.838C84.1794 61.0268 84.5164 60.8335 84.4401 60.5804C83.9844 59.0676 83.4497 57.8844 83.8998 56.2622C84.1907 55.2147 85.0112 54.3773 85.0898 53.2801Z" fill="#A34D2F"/>
<path d="M66.2594 53.2853C66.2594 53.2853 72.0826 52.6904 74.8676 61.6506C77.6527 70.6108 80.5813 73.1734 80.5813 73.1734L83.2087 60.7089L91.8861 60.0154C91.8861 60.0154 93.1414 82.1019 85.8611 88.6819C78.5808 95.2622 67.3295 69.992 67.3295 69.992L66.2594 53.2853Z" fill="#E9DBC5"/>
<path d="M40.9547 50.9576C40.9547 50.9576 33.5669 50.2451 31.5039 60.0153C29.4409 69.7855 29.785 89.1342 30.1978 88.9968C30.6103 88.8591 67.3295 96.328 67.3295 96.328C67.3295 96.328 71.0401 72.4883 69.2892 62.4967C67.5384 52.5052 65.0691 52.3197 65.0691 52.3197L40.9547 50.9576Z" fill="#191717"/>
<path d="M68.6187 21.1016C67.2563 18.4291 64.8645 17.0296 62.8286 16.2979C62.7319 16.2566 62.6222 16.2165 62.4973 16.1778C62.4116 16.1512 62.3206 16.1243 62.227 16.0972C60.5114 15.5665 59.1796 15.5055 59.1773 15.5052C53.9515 14.9265 45.3563 16.0808 39.6867 27.0152C34.3574 37.2926 39.4291 46.3221 40.0305 49.5007C40.5119 52.0448 56.8502 65.9348 56.8502 65.9348C56.8502 65.9348 67.4157 54.5984 70.0798 47.9191C72.7438 41.2396 71.3175 26.3963 68.6187 21.1016ZM55.6538 60.9556L55.2608 59.3203C55.2608 59.3203 47.3195 38.3907 47.8496 32.2509C48.3797 26.1111 51.7607 22.4736 54.7734 20.8678C55.5169 20.4714 57.3023 19.8839 59.056 19.2419C58.7753 27.8515 58.101 48.3746 58.0467 48.5377C57.9941 48.6946 56.4089 56.9944 55.6538 60.9556Z" fill="#E9DBC5"/>
<path d="M47.9897 74.3613C48.176 75.0276 48.2385 75.7045 48.3151 76.3889C48.3615 76.8054 48.9891 76.8294 48.9832 76.3889C48.9733 75.6129 48.7132 74.8866 48.355 74.2072C48.2487 74.0056 47.9292 74.1447 47.9897 74.3613Z" fill="white"/>
<path d="M62.5007 77.8848C62.1649 78.1059 61.8839 78.3654 61.6481 78.6923C61.4759 78.9312 61.1298 79.4228 61.4092 79.6914C61.7323 80.0024 61.9506 79.4909 62.0546 79.2619C62.2302 78.8755 62.4566 78.5127 62.7428 78.1984C62.8889 78.0383 62.6989 77.7545 62.5007 77.8848Z" fill="white"/>
<path d="M52.882 59.5625C49.7904 58.1797 50.9015 64.8013 50.9058 65.935C50.9106 67.1563 50.6213 68.0975 49.7203 68.9383C49.1908 69.4325 48.5784 69.8051 48.1628 70.4152C47.3356 71.6292 47.3339 73.2254 47.6033 74.6139C47.7368 75.3017 48.7661 75.1103 48.7871 74.4536C48.8346 72.9713 48.6649 71.6004 49.8979 70.5176C50.677 69.8331 51.4378 69.275 51.8432 68.2818C52.2611 67.2584 52.2848 66.1261 52.185 65.0396C52.0991 64.103 51.2037 60.4895 52.7887 60.2761C53.1129 60.2323 53.1748 59.6934 52.882 59.5625Z" fill="#ED6D4A"/>
<path d="M58.5131 61.1422C59.2795 61.2578 60.0208 61.3704 60.5916 61.9621C61.3973 62.7972 61.1822 63.7424 60.9453 64.7613C60.6365 66.0898 60.4881 67.3442 60.8964 68.6769C61.094 69.3227 61.4143 69.9011 61.7736 70.4688C62.31 71.3164 62.5712 72.0645 62.6427 73.0828C62.7708 74.9058 62.628 76.4565 61.7406 78.0782C61.4361 78.6348 62.1774 79.2526 62.6379 78.7705C63.9005 77.4494 64.004 75.4873 63.9449 73.754C63.9144 72.8538 63.9028 71.8832 63.5658 71.0365C63.0682 69.7869 62.1474 68.9283 61.9486 67.5302C61.6829 65.6626 63.0108 63.778 62.0892 61.9822C61.4528 60.7424 59.8998 59.7914 58.5131 60.2991C58.1557 60.43 58.0432 61.0715 58.5131 61.1422Z" fill="#ED6D4A"/>
<path d="M55.5211 61.6507C55.6836 61.6464 55.6311 60.7776 55.8397 59.9792C56.6415 55.7758 57.9977 48.683 58.046 48.5379C58.0523 48.5187 58.0672 48.2196 58.089 47.6951C56.2929 46.1685 52.1022 45.4314 50.4562 45.1934C52.5955 52.2967 55.2604 59.3205 55.2604 59.3205L55.5211 61.6507Z" fill="#BA5F3F"/>
<path d="M57.3243 22.8894C53.8997 22.8894 50.8783 24.6109 49.0746 27.2348C48.4551 28.6744 48.0141 30.3416 47.8493 32.2511C47.5951 35.1942 49.2877 41.535 51.1189 47.3406C52.8245 48.6917 54.9791 49.5006 57.3243 49.5006C62.8497 49.5006 67.3291 45.0212 67.3291 39.4957V32.8945C67.3291 27.3688 62.85 22.8894 57.3243 22.8894Z" fill="#D5754B"/>
<path d="M63.8824 33.4979C59.9911 32.4829 56.0658 31.5884 52.0976 30.9288C50.775 30.7089 49.4474 30.5214 48.1169 30.3589V30.3592C48.0589 30.6535 48.0078 30.9549 47.9637 31.2625C47.9608 31.2825 47.9583 31.3032 47.9555 31.3232C47.9131 31.6263 47.8766 31.9348 47.8494 32.2514C47.8376 32.3902 47.8314 32.5392 47.8277 32.6927C47.8268 32.7241 47.826 32.7552 47.8257 32.7872C47.824 32.9395 47.8257 33.0976 47.8314 33.263C47.8322 33.2904 47.8339 33.3192 47.8353 33.3472C47.8421 33.5055 47.8517 33.669 47.8647 33.838C47.8664 33.8601 47.8675 33.8816 47.8695 33.9039C47.8845 34.0879 47.9037 34.2791 47.9261 34.475C47.9303 34.5115 47.9345 34.5482 47.9388 34.5852C47.9625 34.7865 47.9891 34.9924 48.0196 35.205C48.0205 35.2101 48.0213 35.2154 48.0219 35.2208C48.0527 35.4337 48.0878 35.6531 48.1251 35.8764C48.1302 35.9072 48.1353 35.9378 48.1404 35.9689C48.1788 36.1942 48.2201 36.4243 48.2648 36.659C48.2701 36.6878 48.2761 36.7169 48.2814 36.7461C48.3275 36.9869 48.3762 37.2312 48.4279 37.4806L48.4282 37.4811C51.2002 38.0217 53.9861 38.4885 56.7811 38.8927C60.2789 39.3985 63.7883 39.8138 67.3022 40.191C67.318 39.9611 67.3287 39.7302 67.3287 39.4963V34.4306C66.1823 34.1114 65.0342 33.7982 63.8824 33.4979Z" fill="#051934"/>
<path d="M55.1581 36.8438C54.7403 36.8438 54.4019 36.5051 54.4019 36.0872V34.4025C54.4019 33.9847 54.7406 33.6462 55.1581 33.6462C55.576 33.6462 55.9144 33.9849 55.9144 34.4025V36.0872C55.9144 36.5051 55.5757 36.8438 55.1581 36.8438Z" fill="white"/>
<path d="M62.7907 37.7937C62.3728 37.7937 62.0344 37.455 62.0344 37.0374V35.3527C62.0344 34.9349 62.3731 34.5964 62.7907 34.5964C63.2086 34.5964 63.547 34.9351 63.547 35.3527V37.0374C63.547 37.455 63.2086 37.7937 62.7907 37.7937Z" fill="white"/>
<path d="M59.3772 41.737C60.0348 41.4507 60.5756 40.9446 60.9211 40.3175C61.1673 39.87 60.4826 39.4694 60.2364 39.9172C59.9497 40.4382 59.5214 40.8154 58.9771 41.0523C58.7792 41.1385 58.7379 41.4246 58.8349 41.5948C58.9508 41.7987 59.1821 41.8221 59.3772 41.737Z" fill="#A34D2F"/>
<path d="M56.1955 30.2823C56.174 30.2625 56.1525 30.2425 56.1307 30.2229C56.1285 30.221 56.1268 30.219 56.1245 30.2173C56.0496 30.1404 55.9747 30.0635 55.8997 29.9866C55.8483 29.9337 55.7923 29.9021 55.7355 29.8845C55.6806 29.8401 55.6235 29.7983 55.5676 29.7548C55.4138 29.599 55.2568 29.446 55.0965 29.2962C54.8353 29.0522 54.3815 29.2886 54.4033 29.5933C54.3589 29.7225 54.3756 29.8715 54.4927 29.9883C54.6976 30.1927 54.9023 30.3971 55.1073 30.6015C55.5314 31.1248 55.9897 31.6131 56.5446 32.0168C56.7855 32.1921 57.0193 32.0312 57.0925 31.8079C57.2458 31.6662 57.2851 31.3858 57.131 31.2099C56.8398 30.878 56.526 30.5704 56.1955 30.2823Z" fill="#843723"/>
<path d="M64.9638 30.6947C64.4947 30.842 64.0387 31.0173 63.5897 31.2087C63.5496 31.2095 63.5075 31.2152 63.462 31.2313C63.0252 31.3874 62.6104 31.5731 62.2056 31.8007C62.1352 31.8403 62.0865 31.8954 62.0566 31.9573C61.8835 32.0354 61.7102 32.1131 61.5386 32.1954C61.1725 32.371 61.3534 32.8394 61.6757 32.916C61.7761 32.9635 61.8991 32.9706 62.0286 32.905C62.0529 32.8926 62.0772 32.881 62.1015 32.8685C62.1086 32.8671 62.1157 32.8657 62.1227 32.8643C62.1838 32.8521 62.2341 32.8298 62.2745 32.8004C62.2791 32.799 62.2833 32.799 62.2878 32.7976C63.1332 32.5157 63.9499 32.1711 64.7418 31.7628C64.7811 31.7425 64.8122 31.717 64.8388 31.689C64.89 31.6548 64.9287 31.6121 64.9567 31.5641C65.0607 31.5157 65.1648 31.4677 65.2688 31.4193C65.6776 31.2302 65.389 30.5613 64.9638 30.6947Z" fill="#843723"/>
<path d="M60.0523 43.4127C58.8078 43.7958 57.6684 43.9496 56.5627 43.1161C55.7479 42.5017 55.2198 41.6265 54.7021 40.7636C54.904 40.6581 55.1251 40.5815 55.3659 40.5431C55.8686 40.4625 55.6552 39.6983 55.155 39.7783C54.2515 39.9231 53.4582 40.5323 53.0853 41.368C52.8789 41.83 53.5622 42.234 53.77 41.7684C53.8531 41.5821 53.9586 41.4161 54.0804 41.268C54.7318 42.3471 55.4443 43.4432 56.5675 44.079C57.7756 44.7626 58.9901 44.5693 60.2629 44.1774C60.7495 44.0279 60.542 43.262 60.0523 43.4127Z" fill="#843723"/>
<path d="M66.8688 26.6031C66.3853 26.3925 65.8852 26.2486 65.376 26.1536C65.9564 25.7631 66.445 25.2698 66.7899 24.6566C68.0511 22.4152 66.3505 20.2275 64.0701 18.925C63.3625 18.521 62.6427 18.2442 61.9144 18.0718C59.7824 19.1215 55.9569 20.2371 54.7732 20.8681C52.4611 22.1008 49.9333 24.5319 48.6425 28.3709C49.0001 28.7286 49.4544 29.0234 49.9653 29.2168C51.1069 29.6488 52.4575 29.5976 53.6095 29.2208C54.0848 29.0653 54.6816 28.8515 54.9635 28.4809C55.1427 28.2451 55.1512 28.0048 55.156 27.7566C56.9993 28.8306 58.9501 29.8705 61.2172 30.2128C63.1988 30.5122 66.281 30.5057 67.9255 29.3822C69.4098 28.3684 68.2515 27.2061 66.8688 26.6031Z" fill="#541A0F"/>
<path d="M46.494 88.7639C40.8674 90.4071 42.3776 95.0493 42.3776 95.0493C42.3776 95.0493 44.314 96.5494 46.397 97.9489C48.4801 99.3483 51.2957 100.144 51.2957 100.144C51.2957 100.144 55.1277 100.134 59.831 98.9921C64.1761 97.9376 48.669 90.0808 46.494 88.7639Z" fill="#D5754B"/>
<path d="M47.9021 96.3686C48.6309 96.878 49.3561 97.3849 50.1053 97.8664C50.4694 98.1005 50.8381 98.3332 51.1864 98.5899C51.3702 98.7253 51.5432 98.8514 51.6795 99.036C51.714 99.0827 52.049 99.7804 51.9249 99.7965C51.4473 99.8582 51.3063 100.476 51.8075 100.642C52.2452 100.787 52.5856 100.5 52.7535 100.115C52.9986 99.5537 52.8177 98.9232 52.4422 98.4621C51.9659 97.8772 51.1977 97.4972 50.5582 97.1118C49.7703 96.6372 48.9512 96.2631 48.0983 95.9162C47.8139 95.8006 47.6866 96.2182 47.9021 96.3686Z" fill="#A34D2F"/>
<path d="M50.4841 94.6218C51.5703 95.4959 56.3966 97.914 53.9652 99.6635C53.6358 99.9004 53.7235 100.444 54.1835 100.449C56.0446 100.471 55.7426 98.1156 55.0449 97.1012C54.147 95.7962 52.3803 94.1861 50.6594 94.209C50.4609 94.2118 50.3111 94.4824 50.4841 94.6218Z" fill="#A34D2F"/>
<path d="M53.7071 94.5896C54.5957 95.2863 55.5549 95.8828 56.4667 96.5477C57.4537 97.2675 58.8449 99.0371 56.8987 99.5505C56.4723 99.663 56.5034 100.237 56.8987 100.364C58.4395 100.856 59.2554 98.8624 58.8246 97.6928C58.1704 95.917 55.6708 94.6827 53.9632 94.161C53.7243 94.0881 53.4984 94.4262 53.7071 94.5896Z" fill="#A34D2F"/>
<path d="M39.4805 63.3562C39.4805 63.3562 43.3312 50.1193 35.905 50.3944C28.4786 50.6695 21.74 77.4867 20.7773 82.4377C19.8147 87.3886 42.725 95.8959 42.725 95.8959L47.8244 88.6261L32.025 79.6735L39.4805 63.3562Z" fill="#E9DBC5"/>
<path d="M33.7684 79.5629C33.4461 78.9759 32.9661 78.5001 32.4023 78.1326C31.9528 76.9983 30.5652 75.9904 29.6133 75.4702C28.0652 74.6246 26.4217 74.5494 24.8119 75.2449C24.3316 75.4524 24.6737 76.2494 25.1681 76.0897C26.6801 75.6006 28.256 75.9206 29.5432 76.8414C29.7145 76.9641 29.8723 77.1072 30.0221 77.2613C29.7748 77.2254 29.5282 77.203 29.2871 77.1974C27.1616 77.1482 25.6462 78.2214 24.2821 79.7444C23.8323 80.2468 24.5255 80.9468 25.024 80.4862C26.2117 79.3887 27.411 78.4744 29.1039 78.5338C30.6407 78.5878 31.6958 79.3435 32.8072 80.3044C33.3223 80.75 34.1153 80.1947 33.7684 79.5629Z" fill="#191717"/>
<path d="M50.8534 102.404L98.142 102.279L107.594 70.6428L60.3052 70.7678L50.8534 102.404Z" fill="#DDDDDD"/>
<path d="M85.694 83.6606C86.1068 81.4186 84.5281 79.6013 82.1676 79.6013C79.8075 79.6013 77.5593 81.4186 77.1466 83.6606C76.8565 85.2365 77.5528 86.5994 78.8104 87.272L78.5155 88.8742H78.9941L79.2791 87.3263C79.2893 87.2706 79.345 87.2257 79.4035 87.2257C79.462 87.2257 79.501 87.2706 79.4909 87.3263L79.2059 88.8742H79.8822L80.1671 87.3263C80.1773 87.2706 80.233 87.2257 80.2915 87.2257C80.3501 87.2257 80.3891 87.2706 80.3789 87.3263L80.0939 88.8742H80.7702L81.0551 87.3263C81.0653 87.2706 81.121 87.2257 81.1795 87.2257C81.2381 87.2257 81.2771 87.2706 81.2669 87.3263L80.9819 88.8742H81.6582L81.9432 87.3263C81.9534 87.2706 82.009 87.2257 82.0676 87.2257C82.1261 87.2257 82.1651 87.2706 82.1549 87.3263L81.8699 88.8742H82.4054L82.7003 87.272C84.2058 86.5994 85.4039 85.2365 85.694 83.6606ZM79.3176 85.7312C78.6232 85.7312 78.1587 85.1966 78.2803 84.537C78.4018 83.8774 79.0628 83.3428 79.7572 83.3428C80.4515 83.3428 80.9161 83.8774 80.7945 84.537C80.6732 85.1966 80.0119 85.7312 79.3176 85.7312ZM80.3534 86.2995L81.1106 85.3433L81.5157 86.2995H80.3534ZM82.7611 85.7312C82.0667 85.7312 81.6025 85.1966 81.7238 84.537C81.8454 83.8774 82.5063 83.3428 83.2007 83.3428C83.8951 83.3428 84.3596 83.8774 84.238 84.537C84.1167 85.1966 83.4554 85.7312 82.7611 85.7312Z" fill="#442A21"/>
<path d="M85.2139 86.1937C85.0163 86.3207 84.8252 86.4691 84.6468 86.587C84.2558 86.8454 83.9199 87.1157 83.5665 87.4207C83.2931 87.6565 83.5204 87.9799 83.8362 87.8502C84.2702 87.6718 84.6598 87.4962 85.0706 87.2616C85.1645 87.2078 85.264 87.1561 85.3646 87.103C85.4223 87.1587 85.4947 87.1999 85.5849 87.2132C85.9764 87.2715 86.3174 87.4555 86.7104 87.4917C87.2549 87.5415 87.7403 86.7589 87.3747 86.4205C87.1664 86.2277 86.8786 86.1267 86.5732 86.0674C86.701 85.7092 86.8147 85.3487 86.7819 84.9961C86.7553 84.7086 86.3338 84.5574 86.0697 84.809C85.7652 85.0991 85.5851 85.427 85.4155 85.7716C85.3632 85.8613 85.314 85.9531 85.2685 86.049C85.2552 86.077 85.2465 86.1052 85.2383 86.1335C85.2346 86.1406 85.2315 86.1477 85.2278 86.155C85.2221 86.168 85.2193 86.181 85.2139 86.1937Z" fill="#442A21"/>
<path d="M86.4805 88.7428C86.0742 88.7787 85.6654 88.9627 85.2523 89.0212C85.1576 89.0345 85.0703 89.0761 84.9919 89.1321C84.9105 89.0786 84.8299 89.0266 84.7559 88.9729C84.4324 88.7391 84.1051 88.5621 83.7381 88.3843C83.4723 88.2554 83.1223 88.576 83.3101 88.8137C83.5521 89.1199 83.7864 89.3885 84.0833 89.6475C84.2198 89.7665 84.355 89.9149 84.5054 90.0419C84.506 90.0543 84.504 90.067 84.5057 90.0797C84.5065 90.0868 84.5074 90.0936 84.5082 90.1007C84.506 90.1289 84.5043 90.1575 84.5074 90.1858C84.5173 90.2822 84.5328 90.3741 84.5523 90.464C84.595 90.808 84.6547 91.1363 84.852 91.4258C85.0236 91.6774 85.5006 91.5261 85.6332 91.2386C85.7963 90.8846 85.8149 90.5256 85.8189 90.1674C86.146 90.1077 86.4711 90.0071 86.7502 89.8143C87.2376 89.4776 87.0467 88.6924 86.4805 88.7428Z" fill="#442A21"/>
<path d="M76.7159 86.5873C76.5794 86.4683 76.444 86.3198 76.2938 86.1929C76.2933 86.1804 76.2953 86.1677 76.2936 86.155C76.2927 86.1479 76.2919 86.1412 76.291 86.1341C76.2933 86.1058 76.295 86.0773 76.2919 86.049C76.282 85.9526 76.2664 85.8607 76.2469 85.7708C76.2042 85.4267 76.1446 85.0985 75.9472 84.809C75.7756 84.5574 75.2987 84.7086 75.1661 84.9961C75.003 85.3501 74.9843 85.7092 74.9803 86.0674C74.6532 86.127 74.3281 86.2277 74.0491 86.4205C73.5617 86.7569 73.7528 87.542 74.3191 87.4917C74.7253 87.4558 75.1341 87.2717 75.5472 87.2132C75.6419 87.1999 75.7293 87.1584 75.8076 87.1024C75.889 87.1558 75.9696 87.2079 76.0436 87.2613C76.3671 87.4951 76.6947 87.6721 77.0614 87.8499C77.3272 87.9788 77.6772 87.6582 77.4895 87.4205C77.2472 87.1148 77.0128 86.8463 76.7159 86.5873Z" fill="#442A21"/>
<path d="M76.9631 88.384C76.5292 88.5624 76.1396 88.738 75.7285 88.9727C75.6346 89.0264 75.5351 89.0781 75.4345 89.1313C75.3768 89.0756 75.3044 89.0343 75.2142 89.021C74.8227 88.9628 74.4817 88.7787 74.0887 88.7425C73.5442 88.6928 73.0588 89.4753 73.4243 89.8138C73.6327 90.0066 73.9205 90.1075 74.2259 90.1669C74.0981 90.5254 73.9844 90.8855 74.0172 91.2381C74.0438 91.5256 74.4653 91.6769 74.7294 91.4253C75.0339 91.1352 75.214 90.8072 75.3836 90.4626C75.4359 90.373 75.4851 90.2814 75.5306 90.1852C75.5439 90.1573 75.5527 90.129 75.5609 90.1007C75.5645 90.0936 75.5676 90.0866 75.5713 90.0792C75.5778 90.0665 75.5804 90.0535 75.5857 90.0405C75.7834 89.9136 75.9745 89.7651 76.1529 89.6472C76.5439 89.3891 76.8797 89.1186 77.2331 88.8135C77.5062 88.5777 77.2789 88.254 76.9631 88.384Z" fill="#442A21"/>
<path d="M25.548 99.5275C24.3507 98.899 22.5128 98.4961 20.4503 98.4961C18.3879 98.4961 16.55 98.899 15.3526 99.5275H13.9178V101.246C13.9178 102.765 16.8426 103.997 20.4503 103.997C24.0581 103.997 26.9828 102.765 26.9828 101.246V99.5275H25.548Z" fill="#CC943A"/>
<path d="M20.4506 102.278C24.0584 102.278 26.9831 101.047 26.9831 99.5274C26.9831 98.0083 24.0584 96.7769 20.4506 96.7769C16.8428 96.7769 13.9181 98.0083 13.9181 99.5274C13.9181 101.047 16.8428 102.278 20.4506 102.278Z" fill="#EFB348"/>
<path d="M25.1938 99.5275C25.1938 100.477 23.07 101.246 20.4504 101.246C17.8307 101.246 15.7069 100.477 15.7069 99.5275C15.7069 98.5781 17.8307 97.8086 20.4504 97.8086C23.0703 97.8086 25.1938 98.5781 25.1938 99.5275Z" fill="#CC943A"/>
<path d="M25.548 96.9791C24.3507 96.3506 22.5128 95.9478 20.4503 95.9478C18.3879 95.9478 16.55 96.3506 15.3526 96.9791H13.9178V98.698C13.9178 100.217 16.8426 101.449 20.4503 101.449C24.0581 101.449 26.9828 100.217 26.9828 98.698V96.9791H25.548Z" fill="#CC943A"/>
<path d="M20.4506 99.7297C24.0584 99.7297 26.9831 98.4982 26.9831 96.9791C26.9831 95.46 24.0584 94.2285 20.4506 94.2285C16.8428 94.2285 13.9181 95.46 13.9181 96.9791C13.9181 98.4982 16.8428 99.7297 20.4506 99.7297Z" fill="#EFB348"/>
<path d="M25.1938 96.979C25.1938 97.9283 23.07 98.6979 20.4504 98.6979C17.8307 98.6979 15.7069 97.9283 15.7069 96.979C15.7069 96.0296 17.8307 95.2598 20.4504 95.2598C23.0703 95.2598 25.1938 96.0296 25.1938 96.979Z" fill="#CC943A"/>
<path d="M25.548 94.4308C24.3507 93.8023 22.5128 93.3994 20.4503 93.3994C18.3879 93.3994 16.55 93.8023 15.3526 94.4308H13.9178V96.1497C13.9178 97.6687 16.8426 98.9003 20.4503 98.9003C24.0581 98.9003 26.9828 97.6687 26.9828 96.1497V94.4308H25.548Z" fill="#CC943A"/>
<path d="M20.4506 97.1813C24.0584 97.1813 26.9831 95.9498 26.9831 94.4307C26.9831 92.9116 24.0584 91.6802 20.4506 91.6802C16.8428 91.6802 13.9181 92.9116 13.9181 94.4307C13.9181 95.9498 16.8428 97.1813 20.4506 97.1813Z" fill="#EFB348"/>
<path d="M25.1938 94.4306C25.1938 95.38 23.07 96.1495 20.4504 96.1495C17.8307 96.1495 15.7069 95.38 15.7069 94.4306C15.7069 93.4812 17.8307 92.7117 20.4504 92.7117C23.0703 92.7114 25.1938 93.4809 25.1938 94.4306Z" fill="#CC943A"/>
<path d="M25.548 91.8819C24.3507 91.2535 22.5128 90.8506 20.4503 90.8506C18.3879 90.8506 16.55 91.2535 15.3526 91.8819H13.9178V93.6009C13.9178 95.1199 16.8426 96.3514 20.4503 96.3514C24.0581 96.3514 26.9828 95.1199 26.9828 93.6009V91.8819H25.548Z" fill="#CC943A"/>
<path d="M20.4506 94.6325C24.0584 94.6325 26.9831 93.401 26.9831 91.8819C26.9831 90.3628 24.0584 89.1313 20.4506 89.1313C16.8428 89.1313 13.9181 90.3628 13.9181 91.8819C13.9181 93.401 16.8428 94.6325 20.4506 94.6325Z" fill="#EFB348"/>
<path d="M25.1938 91.8821C25.1938 92.8314 23.07 93.601 20.4504 93.601C17.8307 93.601 15.7069 92.8314 15.7069 91.8821C15.7069 90.9327 17.8307 90.1628 20.4504 90.1628C23.0703 90.1631 25.1938 90.9327 25.1938 91.8821Z" fill="#CC943A"/>
<path d="M25.548 89.3336C24.3507 88.7051 22.5128 88.3022 20.4503 88.3022C18.3879 88.3022 16.55 88.7051 15.3526 89.3336H13.9178V91.0525C13.9178 92.5716 16.8426 93.8031 20.4503 93.8031C24.0581 93.8031 26.9828 92.5716 26.9828 91.0525V89.3336H25.548Z" fill="#CC943A"/>
<path d="M20.4506 92.0841C24.0584 92.0841 26.9831 90.8527 26.9831 89.3336C26.9831 87.8145 24.0584 86.583 20.4506 86.583C16.8428 86.583 13.9181 87.8145 13.9181 89.3336C13.9181 90.8527 16.8428 92.0841 20.4506 92.0841Z" fill="#EFB348"/>
<path d="M25.1938 89.3335C25.1938 90.2828 23.07 91.0524 20.4504 91.0524C17.8307 91.0524 15.7069 90.2828 15.7069 89.3335C15.7069 88.3841 17.8307 87.6143 20.4504 87.6143C23.0703 87.6143 25.1938 88.3841 25.1938 89.3335Z" fill="#CC943A"/>
<path d="M25.548 86.785C24.3507 86.1565 22.5128 85.7537 20.4503 85.7537C18.3879 85.7537 16.55 86.1565 15.3526 86.785H13.9178V88.5039C13.9178 90.023 16.8426 91.2545 20.4503 91.2545C24.0581 91.2545 26.9828 90.023 26.9828 88.5039V86.785H25.548Z" fill="#CC943A"/>
<path d="M20.4506 89.5356C24.0584 89.5356 26.9831 88.3041 26.9831 86.785C26.9831 85.2659 24.0584 84.0344 20.4506 84.0344C16.8428 84.0344 13.9181 85.2659 13.9181 86.785C13.9181 88.3041 16.8428 89.5356 20.4506 89.5356Z" fill="#EFB348"/>
<path d="M25.1938 86.7851C25.1938 87.7345 23.07 88.5041 20.4504 88.5041C17.8307 88.5041 15.7069 87.7345 15.7069 86.7851C15.7069 85.8358 17.8307 85.0659 20.4504 85.0659C23.0703 85.0659 25.1938 85.8355 25.1938 86.7851Z" fill="#CC943A"/>
<path d="M25.548 84.2364C24.3507 83.608 22.5128 83.2051 20.4503 83.2051C18.3879 83.2051 16.55 83.608 15.3526 84.2364H13.9178V85.9554C13.9178 87.4744 16.8426 88.7059 20.4503 88.7059C24.0581 88.7059 26.9828 87.4744 26.9828 85.9554V84.2364H25.548Z" fill="#CC943A"/>
<path d="M20.4506 86.987C24.0584 86.987 26.9831 85.7555 26.9831 84.2364C26.9831 82.7173 24.0584 81.4858 20.4506 81.4858C16.8428 81.4858 13.9181 82.7173 13.9181 84.2364C13.9181 85.7555 16.8428 86.987 20.4506 86.987Z" fill="#EFB348"/>
<path d="M25.1938 84.2363C25.1938 85.1857 23.07 85.9552 20.4504 85.9552C17.8307 85.9552 15.7069 85.1857 15.7069 84.2363C15.7069 83.2869 17.8307 82.5171 20.4504 82.5171C23.0703 82.5174 25.1938 83.2869 25.1938 84.2363Z" fill="#CC943A"/>
<path d="M25.548 81.6881C24.3507 81.0596 22.5128 80.6567 20.4503 80.6567C18.3879 80.6567 16.55 81.0596 15.3526 81.6881H13.9178V83.407C13.9178 84.9261 16.8426 86.1576 20.4503 86.1576C24.0581 86.1576 26.9828 84.9261 26.9828 83.407V81.6881H25.548Z" fill="#CC943A"/>
<path d="M20.4506 84.4386C24.0584 84.4386 26.9831 83.2072 26.9831 81.6881C26.9831 80.169 24.0584 78.9375 20.4506 78.9375C16.8428 78.9375 13.9181 80.169 13.9181 81.6881C13.9181 83.2072 16.8428 84.4386 20.4506 84.4386Z" fill="#EFB348"/>
<path d="M25.1938 81.6879C25.1938 82.6373 23.07 83.4069 20.4504 83.4069C17.8307 83.4069 15.7069 82.6373 15.7069 81.6879C15.7069 80.7385 17.8307 79.969 20.4504 79.969C23.0703 79.969 25.1938 80.7385 25.1938 81.6879Z" fill="#CC943A"/>
<path d="M25.5482 79.1395C24.3508 78.511 22.5129 78.1082 20.4505 78.1082C18.388 78.1082 16.5501 78.511 15.3528 79.1395H13.918V80.8584C13.918 82.3775 16.8427 83.609 20.4505 83.609C24.0582 83.609 26.983 82.3775 26.983 80.8584V79.1395H25.5482Z" fill="#CC943A"/>
<path d="M20.4507 81.89C24.0585 81.89 26.9832 80.6586 26.9832 79.1395C26.9832 77.6204 24.0585 76.3889 20.4507 76.3889C16.8429 76.3889 13.9182 77.6204 13.9182 79.1395C13.9182 80.6586 16.8429 81.89 20.4507 81.89Z" fill="#EFB348"/>
<path d="M25.1939 79.1396C25.1939 80.089 23.0701 80.8586 20.4505 80.8586C17.8308 80.8586 15.707 80.089 15.707 79.1396C15.707 78.1903 17.8308 77.4204 20.4505 77.4204C23.0704 77.4204 25.1939 78.1903 25.1939 79.1396Z" fill="#CC943A"/>
<path d="M36.2835 113.332C35.0865 112.703 33.2482 112.3 31.1858 112.3C29.1234 112.3 27.2854 112.703 26.0881 113.332H24.6533V115.051C24.6533 116.57 27.578 117.801 31.1858 117.801C34.7936 117.801 37.7183 116.57 37.7183 115.051V113.332H36.2835Z" fill="#C18733"/>
<path d="M31.1857 116.082C34.7935 116.082 37.7182 114.851 37.7182 113.332C37.7182 111.813 34.7935 110.581 31.1857 110.581C27.5779 110.581 24.6532 111.813 24.6532 113.332C24.6532 114.851 27.5779 116.082 31.1857 116.082Z" fill="#FCC670"/>
<path d="M35.9292 113.331C35.9292 114.281 33.8054 115.05 31.1857 115.05C28.566 115.05 26.4423 114.281 26.4423 113.331C26.4423 112.382 28.566 111.613 31.1857 111.613C33.8054 111.613 35.9292 112.382 35.9292 113.331Z" fill="#CC943A"/>
<path d="M36.2835 110.783C35.0865 110.155 33.2482 109.752 31.1858 109.752C29.1234 109.752 27.2854 110.155 26.0881 110.783H24.6533V112.502C24.6533 114.021 27.578 115.253 31.1858 115.253C34.7936 115.253 37.7183 114.021 37.7183 112.502V110.783H36.2835Z" fill="#C18733"/>
<path d="M31.1857 113.534C34.7935 113.534 37.7182 112.302 37.7182 110.783C37.7182 109.264 34.7935 108.032 31.1857 108.032C27.5779 108.032 24.6532 109.264 24.6532 110.783C24.6532 112.302 27.5779 113.534 31.1857 113.534Z" fill="#FCC670"/>
<path d="M35.9292 110.783C35.9292 111.733 33.8054 112.502 31.1857 112.502C28.566 112.502 26.4423 111.733 26.4423 110.783C26.4423 109.834 28.566 109.064 31.1857 109.064C33.8054 109.064 35.9292 109.834 35.9292 110.783Z" fill="#CC943A"/>
<path d="M36.2835 108.235C35.0865 107.606 33.2482 107.203 31.1858 107.203C29.1234 107.203 27.2854 107.606 26.0881 108.235H24.6533V109.954C24.6533 111.473 27.578 112.704 31.1858 112.704C34.7936 112.704 37.7183 111.473 37.7183 109.954V108.235H36.2835Z" fill="#C18733"/>
<path d="M31.1857 110.985C34.7935 110.985 37.7182 109.754 37.7182 108.235C37.7182 106.716 34.7935 105.484 31.1857 105.484C27.5779 105.484 24.6532 106.716 24.6532 108.235C24.6532 109.754 27.5779 110.985 31.1857 110.985Z" fill="#FCC670"/>
<path d="M35.9292 108.235C35.9292 109.184 33.8054 109.954 31.1857 109.954C28.566 109.954 26.4423 109.184 26.4423 108.235C26.4423 107.285 28.566 106.515 31.1857 106.515C33.8054 106.515 35.9292 107.285 35.9292 108.235Z" fill="#CC943A"/>
<path d="M36.2835 105.686C35.0865 105.058 33.2482 104.655 31.1858 104.655C29.1234 104.655 27.2854 105.058 26.0881 105.686H24.6533V107.405C24.6533 108.924 27.578 110.156 31.1858 110.156C34.7936 110.156 37.7183 108.924 37.7183 107.405V105.686H36.2835Z" fill="#C18733"/>
<path d="M31.1857 108.436C34.7935 108.436 37.7182 107.205 37.7182 105.686C37.7182 104.167 34.7935 102.935 31.1857 102.935C27.5779 102.935 24.6532 104.167 24.6532 105.686C24.6532 107.205 27.5779 108.436 31.1857 108.436Z" fill="#FCC670"/>
<path d="M35.9292 105.686C35.9292 106.636 33.8054 107.405 31.1857 107.405C28.566 107.405 26.4423 106.636 26.4423 105.686C26.4423 104.737 28.566 103.967 31.1857 103.967C33.8054 103.967 35.9292 104.737 35.9292 105.686Z" fill="#CC943A"/>
<path d="M36.2835 103.138C35.0865 102.509 33.2482 102.106 31.1858 102.106C29.1234 102.106 27.2854 102.509 26.0881 103.138H24.6533V104.856C24.6533 106.376 27.578 107.607 31.1858 107.607C34.7936 107.607 37.7183 106.376 37.7183 104.856V103.138H36.2835Z" fill="#C18733"/>
<path d="M31.1857 105.888C34.7935 105.888 37.7182 104.657 37.7182 103.138C37.7182 101.618 34.7935 100.387 31.1857 100.387C27.5779 100.387 24.6532 101.618 24.6532 103.138C24.6532 104.657 27.5779 105.888 31.1857 105.888Z" fill="#FCC670"/>
<path d="M35.9292 103.137C35.9292 104.087 33.8054 104.856 31.1857 104.856C28.566 104.856 26.4423 104.087 26.4423 103.137C26.4423 102.188 28.566 101.418 31.1857 101.418C33.8054 101.418 35.9292 102.188 35.9292 103.137Z" fill="#CC943A"/>
<path d="M36.2834 100.589C35.0864 99.9607 33.2481 99.5579 31.1857 99.5579C29.1233 99.5579 27.2853 99.9607 26.088 100.589H24.6532V102.308C24.6532 103.827 27.5779 105.059 31.1857 105.059C34.7935 105.059 37.7182 103.827 37.7182 102.308V100.589H36.2834Z" fill="#C18733"/>
<path d="M31.1856 103.34C34.7934 103.34 37.7181 102.108 37.7181 100.589C37.7181 99.0701 34.7934 97.8386 31.1856 97.8386C27.5778 97.8386 24.6531 99.0701 24.6531 100.589C24.6531 102.108 27.5778 103.34 31.1856 103.34Z" fill="#FCC670"/>
<path d="M35.929 100.589C35.929 101.538 33.8053 102.308 31.1856 102.308C28.5659 102.308 26.4421 101.538 26.4421 100.589C26.4421 99.6397 28.5659 98.8699 31.1856 98.8699C33.8053 98.8699 35.929 99.6397 35.929 100.589Z" fill="#CC943A"/>
<path d="M118.277 100.589C117.079 99.9607 115.241 99.5579 113.179 99.5579C111.117 99.5579 109.279 99.9607 108.081 100.589H106.646V102.308C106.646 103.827 109.571 105.059 113.179 105.059C116.787 105.059 119.711 103.827 119.711 102.308V100.589H118.277Z" fill="#CC943A"/>
<path d="M113.179 103.34C116.787 103.34 119.712 102.108 119.712 100.589C119.712 99.0701 116.787 97.8386 113.179 97.8386C109.571 97.8386 106.647 99.0701 106.647 100.589C106.647 102.108 109.571 103.34 113.179 103.34Z" fill="#EFB348"/>
<path d="M117.922 100.589C117.922 101.538 115.799 102.308 113.179 102.308C110.559 102.308 108.436 101.538 108.436 100.589C108.436 99.6397 110.559 98.8699 113.179 98.8699C115.799 98.8699 117.922 99.6397 117.922 100.589Z" fill="#CC943A"/>
<path d="M118.277 98.0406C117.079 97.4122 115.241 97.0093 113.179 97.0093C111.117 97.0093 109.279 97.4122 108.081 98.0406H106.646V99.7596C106.646 101.279 109.571 102.51 113.179 102.51C116.787 102.51 119.711 101.279 119.711 99.7596V98.0406H118.277Z" fill="#CC943A"/>
<path d="M113.179 100.791C116.787 100.791 119.712 99.5597 119.712 98.0406C119.712 96.5215 116.787 95.29 113.179 95.29C109.571 95.29 106.647 96.5215 106.647 98.0406C106.647 99.5597 109.571 100.791 113.179 100.791Z" fill="#EFB348"/>
<path d="M117.922 98.0407C117.922 98.9901 115.799 99.7597 113.179 99.7597C110.559 99.7597 108.436 98.9901 108.436 98.0407C108.436 97.0914 110.559 96.3215 113.179 96.3215C115.799 96.3215 117.922 97.0911 117.922 98.0407Z" fill="#CC943A"/>
<path d="M118.277 95.4921C117.079 94.8636 115.241 94.4607 113.179 94.4607C111.117 94.4607 109.279 94.8636 108.081 95.4921H106.646V97.211C106.646 98.73 109.571 99.9615 113.179 99.9615C116.787 99.9615 119.711 98.73 119.711 97.211V95.4921H118.277Z" fill="#CC943A"/>
<path d="M113.179 98.2426C116.787 98.2426 119.712 97.0111 119.712 95.492C119.712 93.9729 116.787 92.7415 113.179 92.7415C109.571 92.7415 106.647 93.9729 106.647 95.492C106.647 97.0111 109.571 98.2426 113.179 98.2426Z" fill="#EFB348"/>
<path d="M117.922 95.4919C117.922 96.4413 115.799 97.2108 113.179 97.2108C110.559 97.2108 108.436 96.4413 108.436 95.4919C108.436 94.5425 110.559 93.7729 113.179 93.7729C115.799 93.7729 117.922 94.5425 117.922 95.4919Z" fill="#CC943A"/>
<path d="M118.277 92.9435C117.079 92.315 115.241 91.9121 113.179 91.9121C111.117 91.9121 109.279 92.315 108.081 92.9435H106.646V94.6624C106.646 96.1814 109.571 97.413 113.179 97.413C116.787 97.413 119.711 96.1814 119.711 94.6624V92.9435H118.277Z" fill="#CC943A"/>
<path d="M113.179 95.694C116.787 95.694 119.712 94.4625 119.712 92.9434C119.712 91.4243 116.787 90.1929 113.179 90.1929C109.571 90.1929 106.647 91.4243 106.647 92.9434C106.647 94.4625 109.571 95.694 113.179 95.694Z" fill="#EFB348"/>
<path d="M117.922 92.9436C117.922 93.8929 115.799 94.6625 113.179 94.6625C110.559 94.6625 108.436 93.8929 108.436 92.9436C108.436 91.9942 110.559 91.2244 113.179 91.2244C115.799 91.2246 117.922 91.9942 117.922 92.9436Z" fill="#CC943A"/>
<path d="M118.277 90.3951C117.079 89.7666 115.241 89.3638 113.179 89.3638C111.117 89.3638 109.279 89.7666 108.081 90.3951H106.646V92.1141C106.646 93.6331 109.571 94.8646 113.179 94.8646C116.787 94.8646 119.711 93.6331 119.711 92.1141V90.3951H118.277Z" fill="#CC943A"/>
<path d="M113.179 93.1457C116.787 93.1457 119.712 91.9142 119.712 90.3951C119.712 88.876 116.787 87.6445 113.179 87.6445C109.571 87.6445 106.647 88.876 106.647 90.3951C106.647 91.9142 109.571 93.1457 113.179 93.1457Z" fill="#EFB348"/>
<path d="M117.922 90.395C117.922 91.3444 115.799 92.1139 113.179 92.1139C110.559 92.1139 108.436 91.3444 108.436 90.395C108.436 89.4456 110.559 88.6758 113.179 88.6758C115.799 88.6758 117.922 89.4456 117.922 90.395Z" fill="#CC943A"/>
<path d="M118.277 87.8465C117.079 87.2181 115.241 86.8152 113.179 86.8152C111.117 86.8152 109.279 87.2181 108.081 87.8465H106.646V89.5655C106.646 91.0845 109.571 92.316 113.179 92.316C116.787 92.316 119.711 91.0845 119.711 89.5655V87.8465H118.277Z" fill="#CC943A"/>
<path d="M113.179 90.5971C116.787 90.5971 119.712 89.3656 119.712 87.8465C119.712 86.3274 116.787 85.0959 113.179 85.0959C109.571 85.0959 106.647 86.3274 106.647 87.8465C106.647 89.3656 109.571 90.5971 113.179 90.5971Z" fill="#EFB348"/>
<path d="M117.922 87.8464C117.922 88.7958 115.799 89.5653 113.179 89.5653C110.559 89.5653 108.436 88.7958 108.436 87.8464C108.436 86.897 110.559 86.1272 113.179 86.1272C115.799 86.1275 117.922 86.897 117.922 87.8464Z" fill="#CC943A"/>
<path d="M118.277 85.298C117.079 84.6695 115.241 84.2666 113.179 84.2666C111.117 84.2666 109.279 84.6695 108.081 85.298H106.646V87.0169C106.646 88.5359 109.571 89.7675 113.179 89.7675C116.787 89.7675 119.711 88.5359 119.711 87.0169V85.298H118.277Z" fill="#CC943A"/>
<path d="M113.179 88.0485C116.787 88.0485 119.712 86.817 119.712 85.2979C119.712 83.7788 116.787 82.5474 113.179 82.5474C109.571 82.5474 106.647 83.7788 106.647 85.2979C106.647 86.817 109.571 88.0485 113.179 88.0485Z" fill="#EFB348"/>
<path d="M117.922 85.2981C117.922 86.2474 115.799 87.017 113.179 87.017C110.559 87.017 108.436 86.2474 108.436 85.2981C108.436 84.3487 110.559 83.5789 113.179 83.5789C115.799 83.5791 117.922 84.3487 117.922 85.2981Z" fill="#CC943A"/>
<path d="M118.277 82.7496C117.079 82.1211 115.241 81.7183 113.179 81.7183C111.117 81.7183 109.279 82.1211 108.081 82.7496H106.646V84.4685C106.646 85.9876 109.571 87.2191 113.179 87.2191C116.787 87.2191 119.711 85.9876 119.711 84.4685V82.7496H118.277Z" fill="#CC943A"/>
<path d="M113.179 85.5002C116.787 85.5002 119.712 84.2687 119.712 82.7496C119.712 81.2305 116.787 79.999 113.179 79.999C109.571 79.999 106.647 81.2305 106.647 82.7496C106.647 84.2687 109.571 85.5002 113.179 85.5002Z" fill="#EFB348"/>
<path d="M117.922 82.7494C117.922 83.6988 115.799 84.4684 113.179 84.4684C110.559 84.4684 108.436 83.6988 108.436 82.7494C108.436 81.8001 110.559 81.0305 113.179 81.0305C115.799 81.0302 117.922 81.8001 117.922 82.7494Z" fill="#CC943A"/>
<path d="M118.277 80.201C117.079 79.5725 115.242 79.1697 113.179 79.1697C111.117 79.1697 109.279 79.5725 108.081 80.201H106.647V81.92C106.647 83.439 109.571 84.6705 113.179 84.6705C116.787 84.6705 119.712 83.439 119.712 81.92V80.201H118.277Z" fill="#CC943A"/>
<path d="M113.179 82.9513C116.787 82.9513 119.712 81.7199 119.712 80.2008C119.712 78.6817 116.787 77.4502 113.179 77.4502C109.571 77.4502 106.647 78.6817 106.647 80.2008C106.647 81.7199 109.571 82.9513 113.179 82.9513Z" fill="#EFB348"/>
<path d="M113.179 81.9204C115.799 81.9204 117.923 81.1506 117.923 80.2011C117.923 79.2516 115.799 78.4819 113.179 78.4819C110.559 78.4819 108.436 79.2516 108.436 80.2011C108.436 81.1506 110.559 81.9204 113.179 81.9204Z" fill="#CC943A"/>
<path d="M106.159 116.382C104.962 115.753 103.124 115.35 101.061 115.35C98.999 115.35 97.161 115.753 95.9637 116.382H94.5289V118.101C94.5289 119.62 97.4536 120.851 101.061 120.851C104.669 120.851 107.594 119.62 107.594 118.101V116.382H106.159Z" fill="#CC943A"/>
<path d="M101.061 119.132C104.669 119.132 107.594 117.901 107.594 116.382C107.594 114.863 104.669 113.631 101.061 113.631C97.4536 113.631 94.5289 114.863 94.5289 116.382C94.5289 117.901 97.4536 119.132 101.061 119.132Z" fill="#EFB348"/>
<path d="M105.805 116.382C105.805 117.331 103.681 118.101 101.061 118.101C98.4418 118.101 96.318 117.331 96.318 116.382C96.318 115.432 98.4418 114.663 101.061 114.663C103.681 114.663 105.805 115.432 105.805 116.382Z" fill="#CC943A"/>
<path d="M106.159 108.447C104.962 107.819 103.124 107.416 101.061 107.416C98.999 107.416 97.161 107.819 95.9637 108.447H94.5289V110.167C94.5289 111.686 97.4536 112.917 101.061 112.917C104.669 112.917 107.594 111.686 107.594 110.167V108.447H106.159Z" fill="#C18733"/>
<path d="M101.061 111.198C104.669 111.198 107.594 109.966 107.594 108.447C107.594 106.928 104.669 105.697 101.061 105.697C97.4536 105.697 94.5289 106.928 94.5289 108.447C94.5289 109.966 97.4536 111.198 101.061 111.198Z" fill="#FCC670"/>
<path d="M101.061 110.166C103.681 110.166 105.805 109.397 105.805 108.447C105.805 107.498 103.681 106.728 101.061 106.728C98.4417 106.728 96.318 107.498 96.318 108.447C96.318 109.397 98.4417 110.166 101.061 110.166Z" fill="#CC943A"/>
<path d="M106.159 105.899C104.962 105.271 103.124 104.868 101.061 104.868C98.999 104.868 97.161 105.271 95.9637 105.899H94.5289V107.618C94.5289 109.137 97.4536 110.369 101.061 110.369C104.669 110.369 107.594 109.137 107.594 107.618V105.899H106.159Z" fill="#C18733"/>
<path d="M101.061 108.65C104.669 108.65 107.594 107.418 107.594 105.899C107.594 104.38 104.669 103.148 101.061 103.148C97.4536 103.148 94.5289 104.38 94.5289 105.899C94.5289 107.418 97.4536 108.65 101.061 108.65Z" fill="#FCC670"/>
<path d="M101.061 107.618C103.681 107.618 105.805 106.848 105.805 105.899C105.805 104.949 103.681 104.18 101.061 104.18C98.4417 104.18 96.318 104.949 96.318 105.899C96.318 106.848 98.4417 107.618 101.061 107.618Z" fill="#CC943A"/>
<path d="M106.159 103.35C104.962 102.722 103.124 102.319 101.061 102.319C98.999 102.319 97.161 102.722 95.9637 103.35H94.5289V105.07C94.5289 106.589 97.4536 107.82 101.061 107.82C104.669 107.82 107.594 106.589 107.594 105.07V103.35H106.159Z" fill="#C18733"/>
<path d="M101.061 106.101C104.669 106.101 107.594 104.87 107.594 103.35C107.594 101.831 104.669 100.6 101.061 100.6C97.4536 100.6 94.5289 101.831 94.5289 103.35C94.5289 104.87 97.4536 106.101 101.061 106.101Z" fill="#FCC670"/>
<path d="M101.061 105.07C103.681 105.07 105.805 104.3 105.805 103.35C105.805 102.401 103.681 101.631 101.061 101.631C98.4417 101.631 96.318 102.401 96.318 103.35C96.318 104.3 98.4417 105.07 101.061 105.07Z" fill="#CC943A"/>
<path d="M106.159 100.802C104.962 100.173 103.124 99.7705 101.061 99.7705C98.999 99.7705 97.161 100.173 95.9637 100.802H94.5289V102.521C94.5289 104.04 97.4536 105.272 101.061 105.272C104.669 105.272 107.594 104.04 107.594 102.521V100.802H106.159Z" fill="#C18733"/>
<path d="M101.061 103.552C104.669 103.552 107.594 102.321 107.594 100.802C107.594 99.2827 104.669 98.0513 101.061 98.0513C97.4536 98.0513 94.5289 99.2827 94.5289 100.802C94.5289 102.321 97.4536 103.552 101.061 103.552Z" fill="#FCC670"/>
<path d="M101.061 102.521C103.681 102.521 105.805 101.751 105.805 100.802C105.805 99.8522 103.681 99.0825 101.061 99.0825C98.4417 99.0825 96.318 99.8522 96.318 100.802C96.318 101.751 98.4417 102.521 101.061 102.521Z" fill="#CC943A"/>
<path d="M106.159 98.2533C104.962 97.6248 103.124 97.2219 101.061 97.2219C98.999 97.2219 97.161 97.6248 95.9637 98.2533H94.5289V99.9722C94.5289 101.491 97.4536 102.723 101.061 102.723C104.669 102.723 107.594 101.491 107.594 99.9722V98.2533H106.159Z" fill="#C18733"/>
<path d="M101.061 101.004C104.669 101.004 107.594 99.7724 107.594 98.2533C107.594 96.7342 104.669 95.5027 101.061 95.5027C97.4536 95.5027 94.5289 96.7342 94.5289 98.2533C94.5289 99.7724 97.4536 101.004 101.061 101.004Z" fill="#FCC670"/>
<path d="M101.061 99.9726C103.681 99.9726 105.805 99.2029 105.805 98.2534C105.805 97.3039 103.681 96.5342 101.061 96.5342C98.4417 96.5342 96.318 97.3039 96.318 98.2534C96.318 99.2029 98.4417 99.9726 101.061 99.9726Z" fill="#CC943A"/>
<path d="M106.159 95.7049C104.962 95.0765 103.124 94.6736 101.061 94.6736C98.999 94.6736 97.161 95.0765 95.9637 95.7049H94.5289V97.4242C94.5289 98.9432 97.4536 100.175 101.061 100.175C104.669 100.175 107.594 98.9432 107.594 97.4242V95.7049H106.159Z" fill="#C18733"/>
<path d="M101.061 98.4555C104.669 98.4555 107.594 97.224 107.594 95.7049C107.594 94.1858 104.669 92.9543 101.061 92.9543C97.4536 92.9543 94.5289 94.1858 94.5289 95.7049C94.5289 97.224 97.4536 98.4555 101.061 98.4555Z" fill="#FCC670"/>
<path d="M101.061 97.424C103.681 97.424 105.805 96.6543 105.805 95.7048C105.805 94.7553 103.681 93.9856 101.061 93.9856C98.4417 93.9856 96.318 94.7553 96.318 95.7048C96.318 96.6543 98.4417 97.424 101.061 97.424Z" fill="#CC943A"/>
<path d="M121.799 110.338C120.602 109.71 118.764 109.307 116.701 109.307C114.639 109.307 112.801 109.71 111.603 110.338H110.169V112.057C110.169 113.576 113.093 114.808 116.701 114.808C120.309 114.808 123.234 113.576 123.234 112.057V110.338H121.799Z" fill="#C18733"/>
<path d="M116.701 113.089C120.309 113.089 123.234 111.857 123.234 110.338C123.234 108.819 120.309 107.588 116.701 107.588C113.093 107.588 110.169 108.819 110.169 110.338C110.169 111.857 113.093 113.089 116.701 113.089Z" fill="#FCC670"/>
<path d="M121.444 110.338C121.444 111.288 119.321 112.057 116.701 112.057C114.081 112.057 111.957 111.288 111.957 110.338C111.957 109.389 114.081 108.619 116.701 108.619C119.321 108.619 121.444 109.389 121.444 110.338Z" fill="#CC943A"/>
<path d="M120.142 120.258C118.945 119.63 117.107 119.227 115.044 119.227C112.982 119.227 111.144 119.63 109.947 120.258H108.512V121.977C108.512 123.496 111.437 124.728 115.044 124.728C118.652 124.728 121.577 123.496 121.577 121.977V120.258H120.142Z" fill="#C18733"/>
<path d="M115.045 123.009C118.652 123.009 121.577 121.777 121.577 120.258C121.577 118.739 118.652 117.508 115.045 117.508C111.437 117.508 108.512 118.739 108.512 120.258C108.512 121.777 111.437 123.009 115.045 123.009Z" fill="#FCC670"/>
<path d="M115.045 121.977C117.664 121.977 119.788 121.208 119.788 120.258C119.788 119.309 117.664 118.539 115.045 118.539C112.425 118.539 110.301 119.309 110.301 120.258C110.301 121.208 112.425 121.977 115.045 121.977Z" fill="#CC943A"/>
<path d="M86.729 116.342L69.6147 116.938L62.7144 109.691L79.8287 109.095L86.729 116.342Z" fill="#C64720"/>
<path d="M78.8183 110.998C79.3682 111.576 79.1118 112.068 78.2452 112.098C77.379 112.129 76.2309 111.685 75.6807 111.107C75.1308 110.53 75.3872 110.037 76.2535 110.007C77.12 109.977 78.2681 110.421 78.8183 110.998Z" fill="#F24C3B"/>
<path d="M80.8666 110.927C81.4165 111.504 81.1601 111.997 80.2938 112.027C79.4276 112.057 78.2792 111.613 77.7293 111.036C77.1794 110.458 77.4358 109.966 78.3021 109.936C79.1683 109.906 80.3164 110.349 80.8666 110.927Z" fill="#EFA63C"/>
<path d="M85.3477 114.891L68.2336 115.487L66.9617 114.151L84.076 113.556L85.3477 114.891Z" fill="#EFBB75"/>
<path d="M70.9086 112.805L53.7945 113.401L46.8942 106.155L64.0082 105.559L70.9086 112.805Z" fill="#09385B"/>
<path d="M62.9979 107.462C63.5478 108.039 63.2914 108.532 62.4251 108.562C61.5589 108.592 60.4108 108.148 59.8606 107.571C59.3107 106.993 59.5672 106.501 60.4337 106.47C61.2999 106.44 62.448 106.884 62.9979 107.462Z" fill="#F24C3B"/>
<path d="M65.0462 107.39C65.5961 107.968 65.3396 108.46 64.4734 108.491C63.6071 108.521 62.459 108.077 61.9088 107.5C61.359 106.922 61.6154 106.429 62.4816 106.399C63.3482 106.369 64.4963 106.813 65.0462 107.39Z" fill="#EFA63C"/>
<path d="M69.5275 111.355L52.4132 111.951L51.1412 110.615L68.2556 110.019L69.5275 111.355Z" fill="#EFBB75"/>
</svg>
