<svg width="131" height="131" viewBox="0 0 131 131" fill="none" xmlns="http://www.w3.org/2000/svg">
<path d="M30.573 29.5293H30.7L31.8425 29.4023H32.8582C33.366 29.4023 33.8315 29.2119 34.2546 28.8311C34.6778 28.4502 34.8894 28.0059 34.8894 27.498C34.8894 26.9056 34.6778 26.4189 34.2546 26.0381C33.8315 25.6572 33.366 25.4245 32.8582 25.3398H31.8425C31.8425 25.3398 31.6309 25.3398 31.2078 25.3398C30.7846 25.3398 30.573 25.3398 30.573 25.3398C30.0652 25.4245 29.5997 25.6572 29.1765 26.0381C28.7533 26.4189 28.5417 26.9056 28.5417 27.498C28.5417 28.0059 28.7533 28.4502 29.1765 28.8311C29.5997 29.2119 30.0652 29.4023 30.573 29.4023V29.5293ZM41.7449 25.7207C41.1524 25.7207 40.6446 25.89 40.2214 26.2285C39.7983 26.5671 39.5444 27.0326 39.4597 27.625C39.4597 28.1328 39.6501 28.6195 40.031 29.085C40.4119 29.5505 40.8562 29.7832 41.364 29.7832C48.2195 30.291 52.2185 31.2432 53.3611 32.6396C54.5037 34.0361 55.075 35.1152 55.075 35.877V73.9629C55.075 76.4173 54.6095 78.7659 53.6785 81.0088C52.7475 83.2516 51.3933 85.2194 49.616 86.9121L29.4304 107.225C28.0763 108.579 26.3835 109.256 24.3523 109.256C22.321 109.256 20.6283 108.579 19.2742 107.225L17.3699 105.32C16.6928 104.643 16.185 103.86 15.8464 102.972C15.5079 102.083 15.3386 101.173 15.3386 100.242C15.3386 99.3112 15.5079 98.4225 15.8464 97.5762C16.185 96.7298 16.6928 95.9681 17.3699 95.291L37.4285 75.1055C37.767 74.8516 37.9786 74.513 38.0632 74.0898C38.1479 73.6667 38.1055 73.2858 37.9363 72.9473C37.767 72.5241 37.5131 72.2067 37.1746 71.9951C36.836 71.7835 36.4552 71.6777 36.032 71.6777H14.9578C13.1804 71.6777 11.6781 71.0641 10.4509 69.8369C9.22371 68.6097 8.61011 67.1074 8.61011 65.3301V35.877C8.61011 35.1152 9.16024 34.0573 10.2605 32.7031C11.3608 31.349 15.2963 30.3756 22.0671 29.7832C22.575 29.7832 23.0193 29.5716 23.4001 29.1484C23.781 28.7253 23.9291 28.2174 23.8445 27.625C23.8445 27.0326 23.6329 26.5671 23.2097 26.2285C22.7865 25.89 22.2787 25.7207 21.6863 25.7207C15.6772 26.2285 11.3184 27.2865 8.61011 28.8945C5.90177 30.5026 4.54761 32.8301 4.54761 35.877V65.3301C4.54761 68.2077 5.56323 70.6621 7.59448 72.6934C9.62573 74.7246 12.0802 75.7402 14.9578 75.7402H31.0808L14.45 92.3711C13.4343 93.4714 12.6514 94.6986 12.1013 96.0527C11.5512 97.4069 11.2761 98.8034 11.2761 100.242C11.2761 101.766 11.5512 103.204 12.1013 104.559C12.6514 105.913 13.4343 107.098 14.45 108.113L16.4812 110.145C17.4968 111.16 18.6817 111.943 20.0359 112.493C21.3901 113.043 22.8289 113.318 24.3523 113.318C25.8757 113.318 27.3145 113.043 28.6687 112.493C30.0229 111.943 31.2078 111.16 32.2234 110.145L52.5359 89.832C54.6518 87.7161 56.281 85.304 57.4236 82.5957C58.5662 79.8874 59.1375 77.0098 59.1375 73.9629V35.877C59.1375 32.8301 57.7621 30.5026 55.0115 28.8945C52.2608 27.2865 47.8386 26.2285 41.7449 25.7207ZM99.1277 25.3398C89.31 25.3398 82.3064 26.1439 78.1169 27.752C73.9275 29.36 71.8328 32.0684 71.8328 35.877V65.3301C71.8328 68.2077 72.8695 70.6621 74.9431 72.6934C77.0167 74.7246 79.4923 75.7402 82.3699 75.7402H98.4929L81.8621 92.3711C80.7618 93.4714 79.9366 94.6986 79.3865 96.0527C78.8363 97.4069 78.5613 98.8034 78.5613 100.242C78.5613 101.766 78.8363 103.204 79.3865 104.559C79.9366 105.913 80.7618 107.098 81.8621 108.113L83.7664 110.145C84.8666 111.16 86.0938 111.964 87.448 112.557C88.8022 113.149 90.1986 113.445 91.6375 113.445C93.1609 113.445 94.5997 113.149 95.9539 112.557C97.308 111.964 98.4929 111.16 99.5085 110.145L119.821 89.832C121.937 87.7161 123.566 85.304 124.709 82.5957C125.851 79.8874 126.423 77.0098 126.423 73.9629V35.877C126.423 32.0684 124.328 29.3812 120.138 27.8154C115.949 26.2497 108.945 25.4668 99.1277 25.4668V25.3398ZM122.36 73.9629C122.36 76.4173 121.895 78.7659 120.964 81.0088C120.033 83.2516 118.721 85.2194 117.028 86.9121L96.7156 107.225C95.3614 108.579 93.6899 109.256 91.7009 109.256C89.712 109.256 88.0404 108.579 86.6863 107.225L84.655 105.32C83.9779 104.643 83.4701 103.882 83.1316 103.035C82.7931 102.189 82.6238 101.258 82.6238 100.242C82.6238 99.3112 82.7931 98.4225 83.1316 97.5762C83.4701 96.7298 83.9779 95.9681 84.655 95.291L104.841 75.1055C105.094 74.8516 105.264 74.513 105.348 74.0898C105.433 73.6667 105.391 73.2858 105.221 72.9473C105.052 72.5241 104.798 72.2067 104.46 71.9951C104.121 71.7835 103.74 71.6777 103.317 71.6777H82.3699C80.5925 71.6777 79.0691 71.0641 77.7996 69.8369C76.53 68.6097 75.8953 67.1074 75.8953 65.3301V35.877C75.8953 34.8613 76.8686 33.5283 78.8152 31.8779C80.7618 30.2275 87.5326 29.4023 99.1277 29.4023C110.723 29.4023 117.494 30.2275 119.44 31.8779C121.387 33.5283 122.36 34.8613 122.36 35.877V73.9629Z" fill="#353233"/>
</svg>
