<svg width="159" height="126" viewBox="0 0 159 126" fill="none" xmlns="http://www.w3.org/2000/svg">
<g opacity="0.3">
<path d="M79.5001 125.33C122.896 125.33 158.075 123.478 158.075 121.193C158.075 118.909 122.896 117.057 79.5001 117.057C36.1043 117.057 0.925049 118.909 0.925049 121.193C0.925049 123.478 36.1043 125.33 79.5001 125.33Z" fill="#4D0D4F"/>
</g>
<path d="M137.041 118.531H37.0605C35.0373 118.531 33.3972 116.891 33.3972 114.868C33.3972 112.845 35.0373 111.205 37.0605 111.205H137.041C139.064 111.205 140.704 112.845 140.704 114.868C140.704 116.891 139.064 118.531 137.041 118.531Z" fill="#D6671D"/>
<path d="M94.278 83.864H34.6479V114.868H94.278V83.864Z" fill="#474651"/>
<path d="M94.1965 118.531H37.0605C35.0373 118.531 33.3972 116.891 33.3972 114.868C33.3972 112.845 35.0373 111.205 37.0605 111.205H94.1965C96.2196 111.205 97.8597 112.845 97.8597 114.868C97.8597 116.891 96.2196 118.531 94.1965 118.531Z" fill="#D6671D"/>
<g opacity="0.3">
<path d="M94.1965 118.531H37.0605C35.0373 118.531 33.3972 116.891 33.3972 114.868C33.3972 112.845 35.0373 111.205 37.0605 111.205H94.1965C96.2196 111.205 97.8597 112.845 97.8597 114.868C97.8597 116.891 96.2196 118.531 94.1965 118.531Z" fill="#4D0D4F"/>
</g>
<g opacity="0.33">
<path d="M137.041 111.205H37.0604C35.3489 111.205 33.9157 112.38 33.5134 113.966C34.0313 113.686 34.624 113.527 35.2541 113.527H135.235C137.258 113.527 138.898 115.167 138.898 117.19C138.898 117.502 138.855 117.803 138.782 118.092C139.926 117.472 140.704 116.261 140.704 114.868C140.704 112.845 139.064 111.205 137.041 111.205Z" fill="white"/>
</g>
<path d="M94.1964 119.603H37.0604C34.4491 119.603 32.325 117.479 32.325 114.868C32.325 112.257 34.4492 110.132 37.0604 110.132H94.1964C96.8075 110.132 98.9317 112.257 98.9317 114.868C98.9317 117.479 96.8075 119.603 94.1964 119.603ZM37.0604 112.277C35.6317 112.277 34.4692 113.439 34.4692 114.868C34.4692 116.296 35.6316 117.459 37.0604 117.459H94.1964C95.6251 117.459 96.7875 116.296 96.7875 114.868C96.7875 113.439 95.6251 112.277 94.1964 112.277H37.0604Z" fill="#4D0D4F"/>
<path d="M49.7035 93.0633C49.5799 92.9934 49.4539 92.9263 49.3255 92.8619C49.1041 91.8019 48.4821 90.6849 47.3355 89.5283C42.9002 85.0547 40.1475 79.8377 40.1475 79.8377C35.8588 78.4975 19.3695 84.6681 14.7234 97.4449C10.0773 110.222 15.4382 115.136 28.8404 112.634C42.2427 110.132 57.6105 97.5342 49.7035 93.0633Z" fill="#62616D"/>
<path d="M49.7035 93.0633C49.5799 92.9934 49.4539 92.9263 49.3255 92.8619C49.1041 91.8019 48.4821 90.6849 47.3355 89.5283C42.9002 85.0547 40.1475 79.8377 40.1475 79.8377C35.8588 78.4975 19.3695 84.6681 14.7234 97.4449C10.0773 110.222 15.4382 115.136 28.8404 112.634C42.2427 110.132 57.6105 97.5342 49.7035 93.0633Z" fill="#62616D"/>
<g opacity="0.6">
<path d="M16.9767 99.5141C20.67 89.3578 30.2132 82.4662 38.226 79.1145C32.542 79.0736 18.4219 85.231 14.1785 96.9001C11.7195 103.662 12.0653 108.221 14.9213 110.645C14.6905 107.673 15.3571 103.968 16.9767 99.5141Z" fill="white"/>
</g>
<path d="M23.6809 95.2526C25.9546 94.0473 28.3507 93.1318 30.8009 92.3673C33.2526 91.6086 35.7738 91.0398 38.3522 90.7266C40.927 90.4203 43.5667 90.2919 46.2435 90.7345C47.5764 90.9627 48.9261 91.3462 50.1933 92.0317C50.8383 92.3747 51.4789 92.8514 52.0081 93.489C52.2649 93.8148 52.5022 94.1725 52.6668 94.5723C52.8318 94.9683 52.9508 95.389 52.9957 95.8086C53.091 96.6494 52.9628 97.4568 52.7336 98.1707C52.5061 98.8909 52.1869 99.5416 51.8255 100.143C51.1002 101.347 50.2221 102.38 49.2913 103.335C47.4157 105.23 45.3077 106.8 43.1036 108.192C40.8941 109.577 38.5717 110.769 36.1567 111.756C33.7444 112.74 31.2203 113.523 28.6244 113.976C27.3438 114.208 26.0436 114.38 24.7247 114.475C23.4062 114.568 22.0666 114.584 20.7082 114.449C19.3534 114.307 17.9665 114.03 16.6332 113.426C16.3035 113.264 15.9709 113.112 15.6567 112.906C15.3329 112.723 15.0345 112.488 14.7343 112.259C14.1582 111.767 13.6177 111.209 13.2074 110.562C12.7982 109.921 12.4605 109.231 12.2557 108.522C12.1301 108.17 12.0693 107.813 11.9865 107.457C11.924 107.102 11.8765 106.745 11.8412 106.391C11.7245 104.976 11.8431 103.602 12.0699 102.276C12.302 100.952 12.6346 99.6654 13.0436 98.4187C13.139 98.1035 13.2552 97.7989 13.3601 97.4885L13.5217 97.0251L13.7078 96.5573C13.8359 96.2471 13.9502 95.9302 14.0909 95.6258L14.5199 94.716C15.1274 93.5224 15.8132 92.3709 16.5975 91.2949C17.387 90.2236 18.2466 89.2113 19.163 88.2587C20.0903 87.3174 21.0701 86.4348 22.0931 85.6101C23.1173 84.7866 24.1934 84.0349 25.2976 83.3318C26.402 82.6285 27.545 81.9889 28.7204 81.4136C29.895 80.8368 31.0996 80.3194 32.3376 79.8762C33.5763 79.434 34.849 79.0723 36.1703 78.8247C36.4971 78.7552 36.8397 78.7198 37.1734 78.6668C37.5188 78.6374 37.8531 78.5879 38.2104 78.584C38.914 78.5589 39.6367 78.5632 40.4674 78.8142C41.0341 78.9854 41.3548 79.5836 41.1837 80.1504C41.0133 80.7142 40.4205 81.0345 39.8564 80.8694L39.8278 80.861C39.4394 80.7471 38.8735 80.7244 38.317 80.7647C38.0403 80.7708 37.7471 80.8223 37.4621 80.8507C37.1717 80.9047 36.8832 80.9375 36.5914 81.0067C35.4263 81.2472 34.2633 81.6098 33.1215 82.0323C30.839 82.8879 28.6314 84.0002 26.5816 85.3381C25.5572 86.0075 24.5611 86.7202 23.6194 87.4958C22.6791 88.2724 21.7842 89.0983 20.9426 89.9716C20.1127 90.8552 19.3414 91.7867 18.6383 92.7629C17.9429 93.7445 17.3283 94.7748 16.7926 95.8414L16.4147 96.6518C16.2903 96.9226 16.1923 97.2038 16.0792 97.4789L15.915 97.8943L15.7659 98.3287C15.6695 98.6188 15.5603 98.9067 15.4742 99.1985C15.0977 100.36 14.8026 101.536 14.6025 102.707C14.406 103.877 14.3192 105.048 14.4159 106.159C14.445 106.435 14.4843 106.707 14.5294 106.975C14.5934 107.235 14.6335 107.506 14.7255 107.751C14.8686 108.262 15.1027 108.717 15.3689 109.144C15.6354 109.572 15.9916 109.928 16.372 110.261C16.5779 110.413 16.7734 110.576 17.0046 110.703C17.2187 110.849 17.4655 110.956 17.7028 111.077C18.6804 111.523 19.8099 111.764 20.9687 111.884C22.1316 112.002 23.3347 111.992 24.5419 111.907C25.75 111.822 26.9657 111.663 28.1779 111.444C30.5784 111.042 32.9277 110.331 35.2111 109.417C37.4918 108.502 39.7019 107.386 41.7937 106.093C43.8812 104.798 45.8633 103.321 47.5737 101.63C48.4209 100.784 49.1992 99.8767 49.7934 98.9143C50.3863 97.9623 50.7719 96.9161 50.6805 96.0717C50.6354 95.6515 50.4831 95.2827 50.2123 94.9384C49.9344 94.5988 49.5552 94.284 49.0846 94.03C48.1259 93.4958 47.0131 93.1518 45.8556 92.9411C43.5286 92.5235 41.0474 92.5969 38.5983 92.863C33.6804 93.416 28.782 94.5453 23.8144 95.6049L23.8093 95.6059C23.7069 95.6278 23.6061 95.5624 23.5843 95.46C23.5662 95.375 23.608 95.2913 23.6809 95.2526Z" fill="#4D0D4F"/>
<path d="M76.4183 101.622C76.4183 101.622 45.7719 101.465 38.8027 75.8672C31.8336 50.269 48.9884 36.5094 59.7102 38.2964C70.432 40.0833 91.4725 45.5336 95.8287 62.5097C100.185 79.4859 99.1351 100.617 76.4183 101.622Z" fill="#62616D"/>
<g opacity="0.33">
<path d="M95.8286 62.5098C91.4724 45.5336 70.4319 40.0834 59.7101 38.2964C55.3871 37.5759 50.0199 39.3861 45.6084 43.4778C49.6036 40.7711 53.9848 39.6556 57.6527 40.2669C60.141 40.6816 63.1567 41.2837 66.3956 42.1611C65.7333 42.4907 65.2994 42.95 65.2117 43.507C64.985 44.9449 67.1321 46.4779 70.0072 46.931C72.7683 47.3661 75.1906 46.6454 75.5797 45.3141C84.5128 49.1386 93.0771 55.4294 95.738 65.7987C96.8417 70.0999 97.6143 74.6536 97.8218 79.1055C98.0416 73.6703 97.2073 67.8824 95.8286 62.5098Z" fill="white"/>
</g>
<path d="M76.4181 102.694C76.4164 102.694 76.4146 102.694 76.4128 102.694C76.092 102.692 68.4582 102.616 59.8434 99.3464C48.345 94.9818 40.7116 86.9603 37.7681 76.1489C35.9283 69.3911 35.6184 63.0379 36.847 57.2659C37.9102 52.2706 40.1561 47.7677 43.3417 44.2442C48.0013 39.0902 54.4948 36.3404 59.8864 37.2389C71.8112 39.2264 92.4727 45.1175 96.8673 62.2433C99.9602 74.2962 98.2397 87.0123 92.4842 94.6388C88.6412 99.7311 83.0956 102.516 76.4468 102.694C76.4373 102.694 76.4277 102.694 76.4181 102.694ZM57.7729 39.2119C53.4678 39.2119 48.6034 41.6219 44.9323 45.6822C38.4673 52.833 36.6102 63.7325 39.8373 75.5857C42.6324 85.8521 49.6194 93.1719 60.6044 97.3415C68.684 100.408 76.0286 100.545 76.4088 100.549C82.4588 100.383 87.2911 97.9602 90.7724 93.347C96.1501 86.2211 97.7271 74.2213 94.7903 62.7762C90.6976 46.8274 70.9444 41.2557 59.5339 39.3541C58.9611 39.2586 58.3722 39.2119 57.7729 39.2119Z" fill="#4D0D4F"/>
<path d="M67.1527 62.3365C61.563 64.4315 57.611 69.406 56.876 75.33C56.3786 79.3382 56.5853 84.2217 59.0401 88.5994C64.401 98.1597 86.8274 96.5929 91.2277 90.565C96.1195 83.8639 95.6728 68.6748 90.2225 64.2073C86.0399 60.7789 76.3847 58.8766 67.1527 62.3365Z" fill="#FCD8C5"/>
<path d="M67.1527 62.3365C61.563 64.4315 57.611 69.406 56.876 75.33C56.3786 79.3382 56.5853 84.2217 59.0401 88.5994C64.401 98.1597 86.8274 96.5929 91.2277 90.565C96.1195 83.8639 95.6728 68.6748 90.2225 64.2073C86.0399 60.7789 76.3847 58.8766 67.1527 62.3365Z" fill="#FCD8C5"/>
<path d="M108.025 74.7056H139.996C133.134 62.2978 119.916 53.8945 104.733 53.8945C82.4927 53.8945 64.4631 71.9241 64.4631 94.1647C64.4631 98.0958 65.0289 101.894 66.0791 105.486H83.8093L108.025 74.7056Z" fill="url(#paint0_radial_14_3327)"/>
<path opacity="0.7" d="M152.398 74.753L102.337 45.8518L37.3096 47.4001L64.4044 106.143L133.303 106.235L152.398 74.753Z" fill="url(#paint1_linear_14_3327)"/>
<g opacity="0.6">
<path d="M90.2224 64.2074C87.3326 61.8387 81.83 60.1996 75.66 60.5531C80.4286 60.8324 84.5149 62.2783 86.8684 64.2074C92.3187 68.6748 92.7653 83.864 87.8735 90.5651C85.8839 93.2907 80.2088 95.1039 74.0923 95.389C81.3818 95.7314 88.8769 93.7853 91.2276 90.5651C96.1194 83.864 95.6727 68.6748 90.2224 64.2074Z" fill="white"/>
</g>
<g opacity="0.3">
<path d="M66.1706 87.5123C64.1291 84.1874 63.9573 80.4782 64.3709 77.4339C64.9821 72.9344 68.2687 69.1562 72.9173 67.565C80.5949 64.9371 88.6246 66.382 92.103 68.9859C92.7921 69.5017 93.3836 70.2079 93.8793 71.0488C93.1669 68.102 91.9448 65.6191 90.2226 64.2074C86.0399 60.779 76.3847 58.8765 67.1527 62.3365C61.563 64.4315 57.6109 69.406 56.876 75.33C56.3786 79.3382 56.5853 84.2217 59.0401 88.5994C64.401 98.1596 86.8274 96.5929 91.2277 90.565C91.3018 90.4636 91.3745 90.36 91.446 90.2548C85.739 93.7355 70.1895 94.0579 66.1706 87.5123Z" fill="#4D0D4F"/>
</g>
<path d="M93.1159 90.096C98.4836 86.7955 83.8894 98.9638 77.2083 98.9638C71.6369 98.9638 66.629 96.5059 63.1731 92.5966C63.1731 92.5966 76.4421 100.349 93.1159 90.096Z" fill="#4D0D4F"/>
<path d="M75.7198 96.4993C74.9968 96.4995 74.2839 96.4784 73.5859 96.4367C66.1024 95.9889 60.4599 93.3235 58.105 89.124C55.9203 85.2278 55.1488 80.5426 55.8119 75.1981C56.5952 68.8868 60.7965 63.5739 66.7765 61.3327C76.4178 57.719 86.4025 59.6898 90.9024 63.3783C93.6832 65.6576 95.4673 70.5672 95.6751 76.5112C95.8793 82.3555 94.5406 87.8457 92.0939 91.1973C89.4705 94.7909 82.2371 96.4992 75.7198 96.4993ZM77.368 61.581C74.1989 61.581 70.8066 62.1123 67.529 63.3407C62.2989 65.3008 58.6246 69.9456 57.9401 75.4622C57.3344 80.343 58.0192 84.5867 59.9753 88.0752C61.9661 91.6255 66.9737 93.893 73.7139 94.2962C80.947 94.7304 88.2599 92.8125 90.3619 89.9331C92.5025 87.0007 93.7173 81.8864 93.5321 76.5862C93.3482 71.3284 91.8197 66.9029 89.5431 65.0368C87.0156 62.9652 82.4827 61.581 77.368 61.581Z" fill="#4D0D4F"/>
<path d="M82.0472 74.7058H81.0197H78.2946H60.6484H56.7617V77.2076H60.6806C60.9588 79.7449 63.1074 81.7197 65.7188 81.7197H73.224C75.8355 81.7197 77.9841 79.7449 78.2623 77.2076H81.0519C81.3302 79.7449 83.4787 81.7197 86.0901 81.7197H91.0489C93.8493 81.7197 96.1194 79.4495 96.1194 76.6492V74.7058H82.0472Z" fill="#4D0D4F"/>
<path d="M73.5449 90.1385C73.9438 89.5642 74.4418 89.1445 74.9989 88.778C75.5557 88.4204 76.1656 88.1331 76.808 87.9545C77.4487 87.7786 78.1144 87.6607 78.7776 87.6942C79.4396 87.7083 80.0939 87.8421 80.7001 88.0947C80.9082 88.1815 81.0066 88.4205 80.9197 88.6286C80.866 88.7574 80.7539 88.8442 80.627 88.871L80.58 88.8805C80.2741 88.9428 79.9814 88.9525 79.6917 88.9856C79.4026 89.0296 79.1173 89.0369 78.8369 89.0859L78.4166 89.1357C78.2784 89.163 78.1395 89.1813 78.0012 89.2038C77.8613 89.2169 77.7255 89.2504 77.5881 89.2766C77.4516 89.3057 77.3111 89.3205 77.1771 89.3605C76.6298 89.48 76.0954 89.6551 75.5636 89.8576C75.0361 90.0585 74.5002 90.3195 74.009 90.5894L73.9702 90.6108C73.8122 90.6976 73.6137 90.6399 73.5269 90.4819C73.4652 90.3698 73.4767 90.237 73.5449 90.1385Z" fill="#4D0D4F"/>
<g opacity="0.33">
<path d="M73.8888 75.8672L68.9299 81.1276H71.4987L76.4575 75.8672H73.8888Z" fill="white"/>
</g>
<g opacity="0.33">
<path d="M70.8341 75.8672L65.5737 81.1276H67.0256L72.286 75.8672H70.8341Z" fill="white"/>
</g>
<g opacity="0.33">
<path d="M92.6907 75.8672L87.7319 81.1276H90.3006L95.2594 75.8672H92.6907Z" fill="white"/>
</g>
<g opacity="0.33">
<path d="M89.6359 75.8672L84.3755 81.1276H85.8274L91.0877 75.8672H89.6359Z" fill="white"/>
</g>
<path d="M48.0723 94.1166C48.0723 94.1166 52.7178 89.8273 62.5911 92.2399C72.4644 94.6527 74.8656 100.751 72.6933 103.498C70.5211 106.246 69.6499 100.148 65.0932 99.0083C60.5364 97.8692 63.2838 103.734 55.41 104.202C47.5362 104.671 44.0517 97.3331 48.0723 94.1166Z" fill="#FCD8C5"/>
<path d="M54.7019 105.296C49.969 105.296 46.8175 102.637 45.7565 99.8774C44.8027 97.3966 45.4243 94.8789 47.3783 93.299C47.8672 92.8669 52.8527 88.7565 62.8457 91.1985C71.2619 93.255 73.5583 97.5151 74.155 99.2512C74.7834 101.079 74.5572 102.87 73.5345 104.163C72.9442 104.91 72.317 105.273 71.617 105.275C71.6156 105.275 71.6143 105.275 71.6129 105.275C70.46 105.275 69.6933 104.313 68.8056 103.199C67.7988 101.936 66.6578 100.505 64.8332 100.049C63.5308 99.723 63.3599 100.003 62.6421 101.185C61.7227 102.697 60.3334 104.984 55.4738 105.273C55.2123 105.288 54.9544 105.296 54.7019 105.296ZM56.7988 92.569C51.4758 92.569 48.9303 94.787 48.7947 94.909C48.7793 94.9228 48.7583 94.941 48.7423 94.9539C47.5061 95.9428 47.1382 97.4956 47.758 99.1079C48.5954 101.286 51.2688 103.376 55.3466 103.132C59.0845 102.91 59.9615 101.467 60.8096 100.071C61.5709 98.8183 62.5173 97.259 65.3534 97.9683C67.8822 98.6005 69.3851 100.486 70.4824 101.863C70.8473 102.32 71.3349 102.932 71.599 103.101C71.6512 103.06 71.7364 102.98 71.8524 102.833C72.4134 102.124 72.5135 101.072 72.1272 99.9483C71.751 98.8536 69.933 95.1377 62.3367 93.2816C60.2354 92.768 58.3924 92.569 56.7988 92.569Z" fill="#4D0D4F"/>
<path d="M64.1775 95.4287C64.1775 95.4287 69.2703 100.081 66.0538 104.593C62.8372 109.105 52.3835 109.194 53.5003 106.335C54.6172 103.476 57.0296 104.816 57.2529 102.225" fill="#FCD8C5"/>
<path d="M57.0859 109.344C55.6901 109.344 54.4614 109.118 53.6314 108.669C52.5142 108.065 52.0814 107.021 52.5017 105.945C53.2119 104.127 54.4328 103.578 55.2408 103.216C55.9558 102.895 56.1257 102.818 56.1848 102.133C56.2356 101.543 56.7533 101.105 57.3451 101.157C57.935 101.208 58.3721 101.727 58.3212 102.317C58.1539 104.258 56.9778 104.786 56.1192 105.172C55.4393 105.477 54.9009 105.719 54.5106 106.696C54.7367 106.883 55.567 107.199 57.0971 107.199C57.1069 107.199 57.1167 107.199 57.1267 107.199C59.9908 107.191 63.677 106.08 65.1808 103.97C67.7584 100.355 63.6856 97.0391 63.511 96.8998C63.0491 96.5311 62.9714 95.8573 63.3388 95.3943C63.7062 94.9311 64.3776 94.8522 64.8419 95.2185C66.8806 96.828 69.94 100.988 66.9269 105.215C64.9571 107.978 60.5186 109.343 57.0859 109.344Z" fill="#4D0D4F"/>
<path d="M55.3496 109.194C54.7595 109.194 54.2801 108.717 54.2776 108.126C54.2751 107.534 54.753 107.052 55.3452 107.05C57.5021 107.04 59.0571 106.479 59.9667 105.38C61.3215 103.743 60.895 101.343 60.8905 101.32C60.7826 100.739 61.1642 100.178 61.7442 100.068C62.3249 99.9582 62.8839 100.335 62.9964 100.915C63.0231 101.052 63.6257 104.302 61.6336 106.729C60.3006 108.352 58.188 109.182 55.3543 109.194C55.3527 109.194 55.3511 109.194 55.3496 109.194Z" fill="#4D0D4F"/>
<path d="M128.16 105.486H79.606L103.822 74.7058H152.376L128.16 105.486Z" fill="#AAAAAA"/>
<path d="M128.16 106.558H79.6059C79.1953 106.558 78.8208 106.324 78.6415 105.955C78.4621 105.585 78.5093 105.146 78.7632 104.823L102.979 74.043C103.182 73.7846 103.493 73.6338 103.822 73.6338H152.375C152.786 73.6338 153.16 73.8681 153.34 74.2376C153.519 74.6069 153.472 75.0462 153.218 75.3688L129.002 106.149C128.799 106.408 128.488 106.558 128.16 106.558ZM81.8136 104.414H127.639L150.168 75.778H104.343L81.8136 104.414Z" fill="#4D0D4F"/>
<path d="M132.363 105.486H83.8093L108.025 74.7058H156.579L132.363 105.486Z" fill="#AAAAAA"/>
<g opacity="0.33">
<path d="M120.68 86.4851C120.83 86.8904 120.916 87.3269 120.916 87.7845C120.916 89.8509 119.241 91.5261 117.175 91.5261C116.855 91.5261 116.546 91.4817 116.25 91.4063C116.779 92.8312 118.146 93.8486 119.755 93.8486C121.822 93.8486 123.497 92.1733 123.497 90.1069C123.497 88.3602 122.298 86.8973 120.68 86.4851Z" fill="white"/>
</g>
<path d="M121.454 86.4851C121.604 86.8904 121.691 87.3269 121.691 87.7845C121.691 89.8509 120.016 91.5261 117.949 91.5261C117.629 91.5261 117.321 91.4817 117.024 91.4063C117.553 92.8312 118.921 93.8486 120.529 93.8486C122.596 93.8486 124.271 92.1733 124.271 90.1069C124.271 88.3602 123.073 86.8973 121.454 86.4851Z" fill="#4D0D4F"/>
<g opacity="0.33">
<path d="M108.025 74.7058L148.659 76.5708C149.984 76.6316 150.686 78.1653 149.866 79.208L129.192 105.486H132.363L156.579 74.7058H108.025Z" fill="white"/>
</g>
<path d="M84.0666 106.389C83.8712 106.389 83.6744 106.326 83.5088 106.196C83.1168 105.888 83.049 105.32 83.3573 104.928L107.573 74.1473C107.882 73.7552 108.449 73.6875 108.842 73.9958C109.233 74.3043 109.301 74.8721 108.993 75.2641L84.7771 106.045C84.5989 106.271 84.3341 106.389 84.0666 106.389Z" fill="#4D0D4F"/>
<path d="M132.363 106.558H84.1173C83.5251 106.558 83.0452 106.078 83.0452 105.486C83.0452 104.894 83.5251 104.414 84.1173 104.414H131.842L154.371 75.7778H108.742C108.15 75.7778 107.67 75.2979 107.67 74.7057C107.67 74.1135 108.15 73.6335 108.742 73.6335H156.579C156.989 73.6335 157.364 73.8679 157.543 74.2373C157.723 74.6066 157.675 75.046 157.421 75.3685L133.206 106.149C133.002 106.407 132.692 106.558 132.363 106.558Z" fill="#4D0D4F"/>
<g opacity="0.3">
<path d="M102.687 90.9672C104.439 83.6743 108.171 78.3846 111.901 74.7058H108.025H103.822L79.606 105.486H83.8093H128.16H132.363L136.273 100.517C123.11 102.557 99.8615 102.724 102.687 90.9672Z" fill="#4D0D4F"/>
</g>
<g opacity="0.3">
<path d="M64.1775 96.06C64.1775 96.06 67.0812 99.969 61.9438 101.119C61.9438 101.119 60.1568 103.977 57.1636 101.85C54.1704 99.7232 46.6109 95.5055 55.3495 91.561C55.3495 91.561 51.2972 91.9023 49.5081 93.1653L46.7992 92.5307C46.7992 92.5307 42.9573 93.5136 41.8851 99.3658C40.8129 105.218 18.5555 112.903 13.3782 107.765C13.3782 107.765 16.187 118.5 35.9605 110.474H48.3145C48.3145 110.474 45.6382 106.804 50.7529 105.486H71.8167C71.8167 105.486 73.3803 98.4277 64.1775 96.06Z" fill="#4D0D4F"/>
</g>
<g opacity="0.3">
<path d="M23.7476 95.4287C23.7476 95.4287 29.5455 93.2002 34.2473 92.4701C34.2473 92.4701 25.1548 88.5654 23.7476 95.4287Z" fill="#4D0D4F"/>
</g>
<g opacity="0.3">
<path d="M37.186 64.699C37.186 64.699 37.817 78.7042 52.5273 81.4516C52.5273 81.4516 51.3646 77.2746 51.8629 74.7058C51.8629 74.7058 52.907 80.9826 57.861 83.8641C57.861 83.8641 58.1459 89.6934 62.5913 92.2401C62.5913 92.2401 54.2276 90.4717 49.5083 93.1654C49.5083 93.1654 38.1605 85.3385 37.186 64.699Z" fill="#4D0D4F"/>
</g>
<g opacity="0.3">
<path d="M96.7652 66.6692C96.7652 66.6692 95.8068 70.6405 93.6177 71.1319C93.6177 71.1319 96.0455 80.4011 92.2852 89.3698L95.259 85.5898C95.259 85.5898 99.1897 74.9789 96.7652 66.6692Z" fill="#4D0D4F"/>
</g>
<g opacity="0.3">
<path d="M89.2991 93.1653C89.2991 93.1653 81.9802 96.7301 78.2276 96.9982C74.475 97.2662 71.1233 95.725 71.1233 95.725C71.1233 95.725 75.2567 100.706 71.8168 105.486H79.6059L89.2991 93.1653Z" fill="#4D0D4F"/>
</g>
<path d="M131.903 111.204H50.1946C48.6156 111.204 47.3354 109.924 47.3354 108.345C47.3354 106.766 48.6155 105.486 50.1946 105.486H131.903V111.204Z" fill="#AAAAAA"/>
<g opacity="0.3">
<path d="M131.903 111.204H50.1946C48.6156 111.204 47.3354 109.924 47.3354 108.345C47.3354 106.766 48.6155 105.486 50.1946 105.486H131.903V111.204Z" fill="#4D0D4F"/>
</g>
<g opacity="0.33">
<path d="M131.903 105.486H129.424V111.204H131.903V105.486Z" fill="white"/>
</g>
<path d="M131.904 112.277H50.1946C48.0269 112.277 46.2634 110.513 46.2634 108.345C46.2634 106.178 48.0269 104.414 50.1946 104.414H131.904C132.496 104.414 132.976 104.894 132.976 105.486V111.204C132.976 111.797 132.496 112.277 131.904 112.277ZM50.1946 106.558C49.2093 106.558 48.4077 107.36 48.4077 108.345C48.4077 109.331 49.2093 110.132 50.1946 110.132H130.831V106.558L50.1946 106.558Z" fill="#4D0D4F"/>
<path d="M80.64 112.277C80.0478 112.277 79.5679 111.797 79.5679 111.204V105.486C79.5679 104.894 80.0478 104.414 80.64 104.414C81.2322 104.414 81.7121 104.894 81.7121 105.486V111.204C81.7121 111.797 81.2322 112.277 80.64 112.277Z" fill="#4D0D4F"/>
<path d="M52.1131 74.717C52.1311 76.2215 52.2981 77.7451 52.5561 79.2325C52.8155 80.7228 53.1901 82.1884 53.687 83.6003C54.1886 85.0098 54.8199 86.365 55.6108 87.601C56.0016 88.2222 56.4477 88.8003 56.9161 89.3511C57.3905 89.898 57.9135 90.3926 58.4579 90.8537L58.4768 90.8697C58.8573 91.192 58.9045 91.7616 58.5823 92.142C58.2601 92.5225 57.6905 92.5696 57.3099 92.2474C57.2947 92.2345 57.2782 92.2194 57.264 92.2056C56.6764 91.6341 56.1261 91.0304 55.6397 90.3821C55.1596 89.7305 54.7151 89.0571 54.3375 88.3514C53.5728 86.9452 53.0081 85.4575 52.5878 83.9456C52.1726 82.4313 51.895 80.8918 51.7374 79.346C51.5816 77.7979 51.5209 76.2545 51.6128 74.6946C51.6208 74.5566 51.7392 74.4513 51.8774 74.4594C52.009 74.4672 52.1109 74.5755 52.1128 74.7054L52.1131 74.717Z" fill="#4D0D4F"/>
<g opacity="0.3">
<path d="M50.1946 105.486C48.6156 105.486 47.3354 106.766 47.3354 108.345C47.3354 109.924 48.6155 111.204 50.1946 111.204H68.2385C67.3802 109.369 66.6561 107.459 66.0791 105.486H50.1946Z" fill="#4D0D4F"/>
</g>
<path d="M10.7307 118.445C13.6565 117.914 16.5823 117.773 19.5082 117.717C22.434 117.643 25.3597 117.682 28.2855 117.723L32.6743 117.755L37.063 117.757H45.8405H80.9501H116.06H133.615L138.003 117.756C139.466 117.757 140.929 117.709 142.392 117.688C143.855 117.665 145.318 117.7 146.781 117.786C148.244 117.888 149.707 118.059 151.17 118.445C151.36 118.495 151.473 118.69 151.423 118.88C151.389 119.008 151.289 119.101 151.17 119.133C149.707 119.52 148.244 119.69 146.781 119.792C145.318 119.879 143.855 119.913 142.392 119.891C140.929 119.869 139.466 119.822 138.003 119.822L133.615 119.821H116.06H80.9501H45.8405H37.063L32.6743 119.823L28.2855 119.856C25.3596 119.896 22.434 119.935 19.5081 119.861C16.5823 119.805 13.6565 119.664 10.7306 119.133C10.5406 119.099 10.4145 118.917 10.4491 118.727C10.4758 118.58 10.5917 118.471 10.7307 118.445Z" fill="#4D0D4F"/>
<path d="M120.461 20.112C111.752 20.8758 105.063 28.4075 105.327 37.1457C105.408 39.8417 106.127 42.3593 107.326 44.5681C107.183 47.1989 106.159 52.2429 105.584 54.9208C105.423 55.6668 106.168 56.2841 106.872 55.9891L115.999 52.1637C118.158 52.9897 120.523 53.3808 122.983 53.2239C131.848 52.6585 138.773 45.0772 138.524 36.1981C138.255 26.6304 130.002 19.2753 120.461 20.112Z" fill="#C8B28F"/>
<path d="M106.505 57.1331C106.044 57.1331 105.589 56.974 105.22 56.6678C104.641 56.1872 104.38 55.4318 104.538 54.696C105.1 52.0848 106.047 47.4173 106.24 44.8023C105.006 42.4339 104.34 39.8706 104.258 37.1781C103.975 27.828 111.052 19.8639 120.368 19.0467C125.279 18.6157 130.006 20.1812 133.68 23.4539C137.355 26.7268 139.455 31.2421 139.593 36.1682C139.722 40.7404 138.077 45.1376 134.961 48.5498C131.847 51.9611 127.617 54 123.052 54.2912C120.645 54.4445 118.284 54.1157 116.025 53.3128L107.285 56.9756C107.033 57.0813 106.768 57.1331 106.505 57.1331ZM120.555 21.1774C112.367 21.8956 106.148 28.8955 106.396 37.1134C106.471 39.5733 107.1 41.9098 108.266 44.0579C108.361 44.232 108.405 44.4288 108.394 44.6265C108.252 47.2437 107.281 52.0946 106.68 54.9103L115.586 51.1775C115.84 51.0711 116.125 51.0666 116.382 51.165C118.475 51.966 120.673 52.299 122.916 52.1568C131.165 51.6307 137.687 44.4853 137.455 36.2283C137.333 31.8974 135.487 27.928 132.258 25.0513C129.028 22.1746 124.871 20.7988 120.555 21.1774Z" fill="#4D0D4F"/>
<g opacity="0.5">
<path d="M108.031 54.3442C108.615 51.5084 109.342 47.6408 109.464 45.4037C109.475 45.206 109.43 45.0091 109.336 44.8351C108.169 42.6872 107.54 40.3506 107.465 37.8907C107.217 29.6727 113.436 22.6729 121.624 21.9546C125.193 21.6438 128.65 22.5313 131.566 24.4723C128.445 21.9931 124.571 20.8278 120.554 21.1776C112.366 21.8959 106.147 28.8957 106.396 37.1137C106.47 39.5736 107.1 41.9102 108.266 44.0581C108.361 44.2322 108.405 44.429 108.394 44.6267C108.252 47.243 107.281 52.0942 106.68 54.9105L108.031 54.3442Z" fill="white"/>
</g>
<path d="M115.528 52.7619L113.05 49.6663L116.608 51.416C117.046 51.6314 117.227 52.1614 117.011 52.5996C116.796 53.0378 116.266 53.2183 115.828 53.0028C115.708 52.9442 115.606 52.8588 115.528 52.7619Z" fill="#650000"/>
<g opacity="0.3">
<path d="M132.653 24.3572C132.653 24.3572 143.493 47.9472 114.87 51.2921C114.87 51.2921 126.509 58.4142 135.973 45.3081C135.973 45.3081 142.281 31.5927 132.653 24.3572Z" fill="#4D0D4F"/>
</g>
<g opacity="0.3">
<path d="M113.561 50.2148L105.415 56.1056L115.656 51.9808L113.561 50.2148Z" fill="#650000"/>
</g>
<path fill-rule="evenodd" clip-rule="evenodd" d="M127.075 41.2407L126.401 41.7814L126.321 43.4904C126.299 43.9503 125.888 44.3103 125.403 44.2976L125.399 44.2975C124.915 44.2849 124.534 43.9046 124.548 43.4449L124.572 42.722C124.576 42.5808 124.459 42.463 124.311 42.4593C124.162 42.4556 124.039 42.5673 124.035 42.7085L124.015 43.4313C124.003 43.8908 123.6 44.2505 123.116 44.2379C122.633 44.2252 122.246 43.8453 122.252 43.386L122.259 42.782C122.262 42.5757 122.088 42.4036 121.871 42.3981C121.655 42.3927 121.478 42.556 121.477 42.7622L121.473 43.3661C121.471 43.8252 121.077 44.1845 120.595 44.172C120.113 44.1594 119.719 43.7798 119.715 43.321L119.708 42.5993C119.707 42.4584 119.586 42.3409 119.439 42.3371C119.291 42.3334 119.173 42.445 119.175 42.5858L119.185 43.3073C119.191 43.7661 118.806 44.1251 118.325 44.1126L118.321 44.1125C117.84 44.1 117.44 43.7207 117.427 43.2623L117.379 41.559L116.723 40.9888C115.019 39.509 113.954 37.3712 113.828 35.09C113.568 30.3843 117.225 26.3466 122.019 26.4219C126.84 26.4977 130.477 30.6907 130.124 35.4303C129.953 37.7269 128.83 39.8333 127.075 41.2407Z" fill="#E9DBC5"/>
<path fill-rule="evenodd" clip-rule="evenodd" d="M118.774 33.1482C117.499 33.1417 116.518 34.1843 116.58 35.4598C116.642 36.7081 117.691 37.712 118.926 37.7212C120.162 37.7304 121.149 36.7393 121.127 35.4884C121.106 34.2101 120.051 33.1547 118.774 33.1482Z" fill="#FF0000"/>
<path fill-rule="evenodd" clip-rule="evenodd" d="M125.139 33.0835C123.854 33.077 122.807 34.1233 122.801 35.4036C122.795 36.6563 123.799 37.6637 125.043 37.673C126.289 37.6823 127.338 36.6878 127.384 35.4324C127.432 34.1494 126.426 33.0901 125.139 33.0835Z" fill="#FF0000"/>
<path d="M137.041 119.603H37.0604C34.4491 119.603 32.325 117.479 32.325 114.868C32.325 112.257 34.4492 110.132 37.0604 110.132H137.041C139.652 110.132 141.776 112.257 141.776 114.868C141.776 117.479 139.652 119.603 137.041 119.603ZM37.0604 112.277C35.6317 112.277 34.4692 113.439 34.4692 114.868C34.4692 116.296 35.6316 117.459 37.0604 117.459H137.041C138.47 117.459 139.632 116.296 139.632 114.868C139.632 113.439 138.47 112.277 137.041 112.277H37.0604Z" fill="#4D0D4F"/>
<defs>
<radialGradient id="paint0_radial_14_3327" cx="0" cy="0" r="1" gradientUnits="userSpaceOnUse" gradientTransform="translate(106.573 95.3898) scale(37.2439 37.2439)">
<stop stop-color="#0BA4C8"/>
<stop offset="0.1533" stop-color="#0EA5C9"/>
<stop offset="0.2847" stop-color="#19A9CB"/>
<stop offset="0.4081" stop-color="#2BB0CF"/>
<stop offset="0.5266" stop-color="#44B9D5"/>
<stop offset="0.6416" stop-color="#64C5DC"/>
<stop offset="0.754" stop-color="#8BD4E5"/>
<stop offset="0.8643" stop-color="#BAE5EF"/>
<stop offset="0.9703" stop-color="#EFF9FB"/>
<stop offset="1" stop-color="white"/>
</radialGradient>
<linearGradient id="paint1_linear_14_3327" x1="94.6976" y1="45.7687" x2="94.0371" y2="106.466" gradientUnits="userSpaceOnUse">
<stop stop-color="white"/>
<stop offset="0.0941" stop-color="#FFFCE5"/>
<stop offset="0.3308" stop-color="#FFF6A9"/>
<stop offset="0.5482" stop-color="#FFF17A"/>
<stop offset="0.7391" stop-color="#FFEE57"/>
<stop offset="0.8962" stop-color="#FFEC43"/>
<stop offset="1" stop-color="#FFEB3B"/>
</linearGradient>
</defs>
</svg>
