<svg width="100" height="126" viewBox="0 0 100 126" fill="none" xmlns="http://www.w3.org/2000/svg">
<path d="M88.1086 29.419H78.5905C78.2236 29.419 77.9265 29.1217 77.9265 28.7549C77.9265 28.3882 78.2237 28.0908 78.5905 28.0908H88.1086C88.4754 28.0908 88.7725 28.3882 88.7725 28.7549C88.7725 29.1216 88.4754 29.419 88.1086 29.419Z" fill="#C8B28F"/>
<path d="M69.4045 29.419H30.4331C30.0663 29.419 29.7692 29.1217 29.7692 28.7549C29.7692 28.3882 30.0663 28.0908 30.4331 28.0908H69.4045C69.7714 28.0908 70.0685 28.3882 70.0685 28.7549C70.0685 29.1216 69.7713 29.419 69.4045 29.419Z" fill="#C8B28F"/>
<path d="M24.2852 29.419H13.5128C13.146 29.419 12.8489 29.1217 12.8489 28.7549C12.8489 28.3882 13.146 28.0908 13.5128 28.0908H24.2852C24.652 28.0908 24.9492 28.3882 24.9492 28.7549C24.9492 29.1216 24.652 29.419 24.2852 29.419Z" fill="#C8B28F"/>
<path d="M88.1086 34.9529H79.9186C79.5517 34.9529 79.2546 34.6556 79.2546 34.2888C79.2546 33.9221 79.5518 33.6248 79.9186 33.6248H88.1086C88.4754 33.6248 88.7725 33.9221 88.7725 34.2888C88.7725 34.6556 88.4754 34.9529 88.1086 34.9529Z" fill="#C8B28F"/>
<path d="M74.9014 34.9529H25.9586C25.5918 34.9529 25.2947 34.6556 25.2947 34.2888C25.2947 33.9221 25.5918 33.6248 25.9586 33.6248H74.9014C75.2682 33.6248 75.5653 33.9221 75.5653 34.2888C75.5653 34.6556 75.2682 34.9529 74.9014 34.9529Z" fill="#C8B28F"/>
<path d="M19.1662 34.9529H13.5128C13.146 34.9529 12.8489 34.6556 12.8489 34.2888C12.8489 33.9221 13.146 33.6248 13.5128 33.6248H19.1662C19.533 33.6248 19.8302 33.9221 19.8302 34.2888C19.8302 34.6556 19.5331 34.9529 19.1662 34.9529Z" fill="#C8B28F"/>
<path d="M88.1086 40.4866H13.5128C13.146 40.4866 12.8489 40.1893 12.8489 39.8225C12.8489 39.4558 13.146 39.1584 13.5128 39.1584H88.1086C88.4755 39.1584 88.7726 39.4558 88.7726 39.8225C88.7726 40.1893 88.4754 40.4866 88.1086 40.4866Z" fill="#C8B28F"/>
<path d="M88.1086 46.0205H25.0232C24.6564 46.0205 24.3593 45.7232 24.3593 45.3565C24.3593 44.9898 24.6564 44.6924 25.0232 44.6924H88.1086C88.4754 44.6924 88.7725 44.9897 88.7725 45.3565C88.7725 45.7232 88.4754 46.0205 88.1086 46.0205Z" fill="#C8B28F"/>
<path d="M19.1662 46.0205H13.5128C13.146 46.0205 12.8489 45.7232 12.8489 45.3565C12.8489 44.9898 13.146 44.6924 13.5128 44.6924H19.1662C19.533 44.6924 19.8302 44.9897 19.8302 45.3565C19.8302 45.7232 19.5331 46.0205 19.1662 46.0205Z" fill="#C8B28F"/>
<path d="M88.1087 51.5542H83.3496C82.9828 51.5542 82.6857 51.2569 82.6857 50.8902C82.6857 50.5234 82.9828 50.2261 83.3496 50.2261H88.1087C88.4755 50.2261 88.7726 50.5234 88.7726 50.8902C88.7726 51.2569 88.4755 51.5542 88.1087 51.5542Z" fill="#C8B28F"/>
<path d="M78.5905 51.5542H13.5128C13.146 51.5542 12.8489 51.2569 12.8489 50.8902C12.8489 50.5234 13.146 50.2261 13.5128 50.2261H78.5905C78.9574 50.2261 79.2545 50.5234 79.2545 50.8902C79.2545 51.2569 78.9574 51.5542 78.5905 51.5542Z" fill="#C8B28F"/>
<path d="M88.1086 57.0882H13.5128C13.146 57.0882 12.8489 56.7909 12.8489 56.4241C12.8489 56.0574 13.146 55.76 13.5128 55.76H88.1086C88.4755 55.76 88.7726 56.0574 88.7726 56.4241C88.7726 56.7908 88.4754 57.0882 88.1086 57.0882Z" fill="#C8B28F"/>
<path d="M88.1087 62.6219H82.7376C82.3707 62.6219 82.0736 62.3245 82.0736 61.9578C82.0736 61.5911 82.3708 61.2937 82.7376 61.2937H88.1087C88.4755 61.2937 88.7726 61.5911 88.7726 61.9578C88.7726 62.3245 88.4755 62.6219 88.1087 62.6219Z" fill="#C8B28F"/>
<path d="M77.0999 62.6219H27.9746C27.6078 62.6219 27.3107 62.3245 27.3107 61.9578C27.3107 61.5911 27.6078 61.2937 27.9746 61.2937H77.0999C77.4667 61.2937 77.7638 61.5911 77.7638 61.9578C77.7638 62.3245 77.4667 62.6219 77.0999 62.6219Z" fill="#C8B28F"/>
<path d="M19.8582 62.6219H13.5128C13.146 62.6219 12.8489 62.3245 12.8489 61.9578C12.8489 61.5911 13.146 61.2937 13.5128 61.2937H19.8582C20.2251 61.2937 20.5222 61.5911 20.5222 61.9578C20.5222 62.3245 20.225 62.6219 19.8582 62.6219Z" fill="#C8B28F"/>
<path d="M88.1087 68.1558H76.126C75.7591 68.1558 75.462 67.8585 75.462 67.4917C75.462 67.125 75.7592 66.8276 76.126 66.8276H88.1087C88.4755 66.8276 88.7726 67.125 88.7726 67.4917C88.7726 67.8585 88.4755 68.1558 88.1087 68.1558Z" fill="#C8B28F"/>
<path d="M66.7851 68.1558H13.5128C13.146 68.1558 12.8489 67.8585 12.8489 67.4917C12.8489 67.125 13.146 66.8276 13.5128 66.8276H66.785C67.1519 66.8276 67.449 67.125 67.449 67.4917C67.449 67.8585 67.1519 68.1558 66.7851 68.1558Z" fill="#C8B28F"/>
<g opacity="0.3">
<path d="M3.11467 122.281C18.8569 126.346 81.1384 126.346 96.8807 122.281C98.3368 121.904 97.9816 120.218 96.4481 120.218H3.54725C2.01377 120.217 1.6585 121.904 3.11467 122.281Z" fill="#000072"/>
</g>
<path d="M7.52138 119.993C9.29125 119.647 11.0611 119.555 12.831 119.517C14.6007 119.469 16.3706 119.495 18.1405 119.521C19.9103 119.542 21.6801 119.547 23.4499 119.543H28.7595H49.9976H71.2357H81.8549L84.5096 119.543C85.3945 119.543 86.2794 119.512 87.1644 119.498C88.9342 119.49 90.704 119.51 92.4739 119.993C92.598 120.027 92.6712 120.155 92.6373 120.279C92.6149 120.361 92.5505 120.421 92.4739 120.442C90.704 120.925 88.9342 120.945 87.1644 120.937C86.2794 120.923 85.3945 120.892 84.5096 120.892L81.8549 120.892H71.2357H49.9976H28.7595H23.4499C21.6801 120.888 19.9103 120.894 18.1405 120.914C16.3706 120.94 14.6007 120.966 12.831 120.918C11.0611 120.88 9.29121 120.788 7.52138 120.442C7.39727 120.418 7.3164 120.298 7.34057 120.174C7.359 120.08 7.43276 120.01 7.52138 119.993Z" fill="#000072"/>
<path d="M71.8902 115.418L72.1697 115.385C79.9676 114.458 85.3051 107.061 83.7266 99.3684L80.7969 85.0907C79.46 78.5754 73.7259 73.8984 67.0748 73.8984H50.0281H50.5105H33.4638C26.8127 73.8984 21.0787 78.5754 19.7417 85.0907L16.812 99.3684C15.2336 107.061 20.571 114.458 28.3689 115.385L28.6485 115.418H71.8902Z" fill="#4D5A6A"/>
<path d="M71.8963 115.526H28.6484L28.3563 115.492C24.6096 115.046 21.1948 113.036 18.9872 109.976C16.7797 106.917 15.9486 103.043 16.7069 99.3471L19.6365 85.0693C20.9776 78.5346 26.7927 73.7915 33.4637 73.7915H67.0747C73.7457 73.7915 79.5606 78.5345 80.9017 85.0693L83.8315 99.3471C84.5898 103.043 83.7584 106.917 81.551 109.977C79.3434 113.036 75.9286 115.046 72.1821 115.492L71.8963 115.526ZM33.4638 74.0058C26.894 74.0058 21.167 78.6769 19.8466 85.1125L16.917 99.3902C16.1706 103.027 16.9884 106.84 19.1611 109.851C21.3335 112.862 24.6944 114.841 28.3814 115.279L28.6609 115.312L71.8837 115.311L72.157 115.279C75.8441 114.841 79.2047 112.862 81.3771 109.851C83.5498 106.84 84.3678 103.027 83.6214 99.3902L80.6916 85.1125C79.3712 78.6769 73.6444 74.0059 67.0747 74.0059L33.4638 74.0058Z" fill="#000072"/>
<g opacity="0.3">
<path d="M72.1697 115.387L71.8909 115.419H28.6485L28.3696 115.387C23.3803 114.794 19.3995 111.55 17.5892 107.279C19.5692 109.059 22.0999 110.269 24.9628 110.611L25.2417 110.644H68.4841L68.7629 110.611C76.5618 109.684 81.8997 102.287 80.3195 94.595L77.3915 80.3172C77.194 79.3574 76.9011 78.4395 76.5247 77.5681C78.6487 79.5062 80.1848 82.1043 80.7959 85.0904L83.7263 99.3682C85.3042 107.06 79.9663 114.459 72.1697 115.387Z" fill="#000072"/>
</g>
<g opacity="0.55">
<path d="M73.987 75.7229C72.3905 75.0931 70.6569 74.7515 68.8559 74.7515H35.2459C28.595 74.7515 22.8598 79.4272 21.5235 85.9432L18.5932 100.221C17.3894 106.089 20.2082 111.782 25.0744 114.566C19.1393 112.256 15.4676 105.919 16.8108 99.3682L19.7412 85.0904C21.0774 78.5766 26.8126 73.8987 33.4635 73.8987H67.0735C69.5693 73.8987 71.935 74.5563 73.987 75.7229Z" fill="white"/>
</g>
<path d="M71.89 116.116H28.6483C28.6209 116.116 28.5935 116.114 28.5663 116.111L28.2868 116.078C24.3764 115.613 20.8127 113.515 18.5088 110.322C16.2049 107.129 15.3375 103.085 16.1289 99.2285L19.0585 84.951C20.4555 78.1429 26.5138 73.2017 33.4637 73.2017H67.0747C74.0244 73.2017 80.0827 78.1429 81.4797 84.951L84.4094 99.2287C85.2008 103.086 84.3333 107.129 82.0294 110.322C79.7255 113.515 76.1617 115.613 72.2518 116.078L71.9723 116.111C71.9448 116.114 71.9174 116.116 71.89 116.116ZM28.6896 114.722H71.8488L72.0875 114.693C75.6107 114.274 78.8225 112.384 80.8987 109.506C82.9749 106.629 83.7567 102.985 83.0434 99.5088L80.1136 85.2311C78.8491 79.0687 73.3654 74.5959 67.0746 74.5959H33.4637C27.1727 74.5959 21.689 79.0687 20.4244 85.2311L17.4949 99.5088C16.7815 102.985 17.5631 106.629 19.6393 109.506C21.7157 112.384 24.9274 114.274 28.451 114.693L28.6896 114.722Z" fill="#000072"/>
<path d="M75.0955 63.3533C75.0537 63.5159 75.0095 63.6809 74.9653 63.8413C74.9305 63.9644 74.8956 64.0853 74.8608 64.2061C74.8468 64.2526 74.8352 64.2968 74.819 64.3432C74.7911 64.4432 74.7585 64.5431 74.7283 64.6407C74.6888 64.7685 74.647 64.894 74.6051 65.0195C74.5865 65.0752 74.568 65.131 74.5494 65.1845C74.489 65.3657 74.4262 65.5447 74.3588 65.7213C74.2891 65.9165 74.2147 66.1094 74.138 66.2999C74.0637 66.4928 73.9846 66.6834 73.9033 66.8739C73.8243 67.0621 73.7406 67.2527 73.6547 67.4386C73.5733 67.6198 73.4897 67.7988 73.4037 67.9778C73.3921 68.001 73.3805 68.0242 73.3689 68.0475C73.2898 68.2148 73.2062 68.3798 73.1202 68.5448C73.1179 68.5494 73.1156 68.5541 73.1132 68.5587C73.0203 68.7423 72.925 68.9212 72.8274 69.1025C72.7112 69.3163 72.5927 69.5278 72.4695 69.7369C72.3859 69.8833 72.2998 70.0274 72.2139 70.1715C72.2092 70.1761 72.2069 70.1808 72.2069 70.1831C72.1 70.3597 71.9908 70.534 71.8793 70.7083C71.6933 70.9988 71.5028 71.2869 71.3053 71.5728C71.2193 71.6982 71.131 71.8214 71.0426 71.9446C70.9683 72.0491 70.8939 72.1514 70.8172 72.256C70.7034 72.4117 70.5871 72.5651 70.471 72.7184C70.3571 72.8672 70.2432 73.0113 70.127 73.1577C70.062 73.239 69.9969 73.3204 69.9318 73.3993C69.89 73.4505 69.8482 73.5016 69.8064 73.5527C69.7273 73.6457 69.6507 73.7386 69.5716 73.8316C69.3578 74.0825 69.1394 74.3312 68.9163 74.5775C68.8094 74.6984 68.6979 74.8169 68.5863 74.9354C68.505 75.0214 68.4236 75.1097 68.3423 75.1956C68.2261 75.3165 68.1122 75.435 67.9937 75.5512C67.8264 75.7208 67.6544 75.8905 67.4824 76.0578C67.343 76.1926 67.2036 76.325 67.0618 76.4552C67.0409 76.4761 67.02 76.497 66.9991 76.5133C66.855 76.6504 66.7086 76.7828 66.5599 76.9153C66.2879 77.1593 66.0114 77.3964 65.7302 77.631C65.6605 77.6891 65.5908 77.7472 65.5187 77.8076C65.377 77.9238 65.2329 78.04 65.0865 78.1562C64.5799 78.5582 64.0617 78.9463 63.5318 79.3205C63.5225 79.3274 63.5109 79.3344 63.5016 79.3414C61.4357 80.7961 59.1886 81.8767 56.8554 82.5855C56.0467 82.8318 55.2264 83.034 54.3991 83.192C50.7344 83.8892 46.9372 83.7056 43.3421 82.6459C40.9253 81.9348 38.5992 80.8264 36.4636 79.3205C36.2962 79.202 36.1289 79.0812 35.9616 78.9603C35.9453 78.9464 35.9291 78.9348 35.9105 78.9231C35.7455 78.8 35.5805 78.6768 35.4178 78.5537C35.2482 78.4235 35.0785 78.2911 34.9089 78.1563H34.9066C34.7393 78.0215 34.5743 77.8867 34.4093 77.752C34.242 77.6148 34.0793 77.4754 33.9166 77.336C33.754 77.1966 33.5936 77.0571 33.4356 76.9153C33.2752 76.7713 33.1172 76.6295 32.9615 76.4831C32.8058 76.339 32.6524 76.1926 32.4991 76.0439C32.3457 75.8975 32.1946 75.7488 32.0459 75.5977C31.8972 75.4467 31.7485 75.2956 31.6021 75.1423C31.4557 74.9866 31.3092 74.8309 31.1628 74.6729C31.0234 74.5195 30.8863 74.3661 30.7492 74.2081C30.6423 74.0872 30.5354 73.9641 30.4308 73.8409C30.1264 73.4807 29.829 73.1135 29.5408 72.7394C29.4246 72.586 29.3061 72.4326 29.1945 72.277C29.1782 72.2584 29.1643 72.2374 29.1504 72.2188C29.0713 72.1143 28.9947 72.0074 28.9203 71.9005C28.7483 71.6588 28.581 71.4171 28.4184 71.1708C28.3277 71.036 28.2371 70.8989 28.1511 70.7618C28.0186 70.555 27.8885 70.3481 27.7607 70.1366C27.6724 69.9879 27.5817 69.8369 27.4935 69.6858C27.3726 69.4744 27.2541 69.2582 27.1356 69.0421C27.0496 68.8794 26.9636 68.7167 26.8799 68.5541C26.794 68.3891 26.7103 68.2218 26.6313 68.0544C26.6174 68.0312 26.6058 68.008 26.5964 67.9847C26.4198 67.6245 26.2548 67.2597 26.1014 66.8925C26.0921 66.8762 26.0852 66.8623 26.0805 66.846C26.0038 66.6648 25.9295 66.4835 25.8574 66.2999C25.7807 66.1093 25.7064 65.9164 25.6366 65.7213C25.5646 65.5284 25.4949 65.3332 25.4298 65.138C25.381 64.9939 25.3322 64.8475 25.2857 64.7011C25.2486 64.5849 25.2137 64.4687 25.1789 64.3525C25.1626 64.3014 25.1463 64.2479 25.1324 64.1968C25.0975 64.0829 25.065 63.9714 25.0348 63.8575C24.9883 63.6902 24.9441 63.5229 24.9 63.3532C23.1617 51.0832 34.3186 37.4758 45.4661 31.6406C48.3013 30.1556 51.6941 30.1556 54.5292 31.6406C54.7801 31.7707 55.0288 31.9101 55.2798 32.0542L55.2821 32.0565C66.1742 38.3171 76.7943 51.3599 75.0955 63.3533Z" fill="#4D5A6A"/>
<g opacity="0.4">
<path d="M54.2854 83.1678C54.6013 83.0858 54.9162 82.9992 55.2288 82.904C57.5619 82.1951 59.8091 81.1146 61.875 79.6599C61.8843 79.6529 61.896 79.6459 61.9053 79.6389C62.4351 79.2648 62.9533 78.8767 63.46 78.4747C63.6064 78.3585 63.7504 78.2423 63.8922 78.1261C63.9642 78.0658 64.0339 78.0077 64.1036 77.9495C64.3848 77.7148 64.6614 77.4777 64.9332 77.2338C65.082 77.1012 65.2284 76.9688 65.3725 76.8317C65.3933 76.8154 65.4142 76.7945 65.4352 76.7736C65.5769 76.6435 65.7164 76.5109 65.8558 76.3762C66.0277 76.2089 66.1996 76.0393 66.367 75.8696C66.4856 75.7534 66.5994 75.6348 66.7156 75.514C66.7969 75.4281 66.8783 75.3397 66.9596 75.2538C67.0711 75.1352 67.1827 75.0168 67.2896 74.8959C67.5127 74.6496 67.7311 74.4009 67.9449 74.15C68.0239 74.0571 68.1006 73.964 68.1797 73.8711C68.2214 73.8199 68.2633 73.7689 68.3052 73.7177C68.3702 73.6387 68.4352 73.5574 68.5003 73.4761C68.6165 73.3296 68.7303 73.1856 68.8442 73.0368C68.9604 72.8834 69.0766 72.73 69.1904 72.5743C69.2671 72.4699 69.3416 72.3675 69.4159 72.263C69.5042 72.1399 69.5924 72.0167 69.6785 71.8911C69.876 71.6053 70.0665 71.3172 70.2525 71.0267C70.3641 70.8524 70.4732 70.6781 70.5801 70.5015C70.5801 70.4992 70.5825 70.4945 70.5871 70.4899C70.673 70.3458 70.759 70.2017 70.8428 70.0553C70.9659 69.8462 71.0845 69.6347 71.2007 69.4209C71.2982 69.2396 71.3935 69.0608 71.4864 68.8772C71.4888 68.8725 71.4911 68.8679 71.4934 68.8632C71.5794 68.6982 71.663 68.5331 71.742 68.3659C71.7537 68.3426 71.7653 68.3194 71.7769 68.2962C71.8629 68.1173 71.9466 67.9383 72.0279 67.757C72.1139 67.5711 72.1976 67.3805 72.2766 67.1924C72.3579 67.0018 72.4369 66.8112 72.5113 66.6183C72.588 66.4278 72.6624 66.2349 72.7321 66.0398C72.7995 65.8631 72.8623 65.6841 72.9226 65.5029C72.9412 65.4495 72.9598 65.3936 72.9785 65.3378C73.0202 65.2124 73.0621 65.087 73.1016 64.9591C73.1318 64.8615 73.1643 64.7616 73.1922 64.6617C73.2085 64.6152 73.2201 64.571 73.2341 64.5245C73.2689 64.4038 73.3038 64.2829 73.3386 64.1597C73.3827 63.9993 73.4269 63.8343 73.4687 63.6716C75.1467 51.8253 64.806 38.9549 54.0559 32.6082C61.6182 39.4866 67.3402 49.1241 66.0603 58.1664C66.0184 58.3291 65.9743 58.4941 65.9301 58.6544C65.8953 58.7776 65.8604 58.8984 65.8255 59.0192C65.8115 59.0658 65.8 59.1099 65.7838 59.1564C65.7559 59.2563 65.7233 59.3562 65.6931 59.4538C65.6537 59.5817 65.6118 59.7072 65.5699 59.8326C65.5514 59.8884 65.5328 59.9441 65.5142 59.9977C65.4538 60.1789 65.3911 60.3578 65.3237 60.5344C65.2539 60.7297 65.1796 60.9225 65.1029 61.1131C65.0285 61.306 64.9494 61.4965 64.8682 61.687C64.7891 61.8753 64.7055 62.0659 64.6195 62.2518C64.5382 62.433 64.4545 62.6121 64.3685 62.7909C64.3569 62.8141 64.3454 62.8374 64.3337 62.8606C64.2547 63.0279 64.1711 63.193 64.0851 63.358C64.0827 63.3625 64.0804 63.3673 64.078 63.3718C63.9851 63.5554 63.8899 63.7344 63.7922 63.9157C63.676 64.1295 63.5575 64.341 63.4343 64.5501C63.3507 64.6965 63.2647 64.8406 63.1787 64.9847C63.1741 64.9892 63.1717 64.994 63.1717 64.9963C63.0648 65.1728 62.9556 65.3471 62.8441 65.5214C62.6581 65.8119 62.4677 66.1001 62.2701 66.3859C62.1841 66.5114 62.0958 66.6345 62.0075 66.7578C61.9331 66.8623 61.8588 66.9645 61.7821 67.0692C61.6681 67.2249 61.5519 67.3783 61.4357 67.5317C61.3219 67.6803 61.2081 67.8244 61.0919 67.9708C61.0268 68.0521 60.9618 68.1335 60.8966 68.2125C60.8548 68.2637 60.813 68.3147 60.7711 68.3659C60.6922 68.4589 60.6154 68.5518 60.5365 68.6448C60.3227 68.8957 60.1043 69.1444 59.8812 69.3908C59.7742 69.5116 59.6626 69.6301 59.5511 69.7486C59.4698 69.8345 59.3885 69.9229 59.3071 70.0088C59.191 70.1297 59.077 70.2482 58.9585 70.3644C58.7912 70.534 58.6193 70.7037 58.4472 70.871C58.3078 71.0058 58.1685 71.1383 58.0266 71.2685C58.0057 71.2893 57.9849 71.3102 57.964 71.3266C57.8198 71.4636 57.6735 71.5961 57.5247 71.7285C57.2527 71.9725 56.9763 72.2096 56.6951 72.4442C56.6254 72.5023 56.5556 72.5604 56.4837 72.6209C56.3418 72.7371 56.1978 72.8533 56.0513 72.9695C55.5448 73.3715 55.0266 73.7596 54.4967 74.1337C54.4874 74.1407 54.4758 74.1477 54.4665 74.1547C52.4005 75.6094 50.1534 76.69 47.8202 77.3988C47.0116 77.6451 46.1913 77.8472 45.3639 78.0053C45.4035 77.9977 45.4429 77.9888 45.4825 77.981C44.9814 78.1111 44.4771 78.2268 43.9697 78.3237C40.9377 78.9004 37.8154 78.8725 34.7917 78.2462C34.7565 78.2185 34.7213 78.1916 34.686 78.1638C34.8525 78.2959 35.0191 78.426 35.1854 78.5537C35.3481 78.6769 35.5131 78.8 35.6781 78.9233C35.6967 78.9349 35.7131 78.9464 35.7293 78.9604C35.8966 79.0813 36.0639 79.2021 36.2312 79.3207C38.3669 80.8265 40.693 81.935 43.1098 82.6462C46.7049 83.7058 50.502 83.8893 54.1667 83.1922C54.5992 83.1096 55.0295 83.0142 55.4576 82.9076C55.0688 83.004 54.6779 83.0907 54.2854 83.1678Z" fill="#000072"/>
</g>
<g opacity="0.55">
<path d="M59.2676 34.8015C58.4102 34.2205 57.5433 33.679 56.6765 33.1794L56.6742 33.1771C56.4233 33.033 56.1746 32.8936 55.9236 32.7635C53.0885 31.2785 49.6957 31.2785 46.8606 32.7635C35.713 38.5987 24.5562 52.2072 26.2944 64.4772C26.3386 64.6468 26.3828 64.8142 26.4292 64.9815C26.4594 65.0953 26.492 65.2069 26.5268 65.3207C26.5407 65.3719 26.557 65.4253 26.5733 65.4764C26.6081 65.5926 26.643 65.7088 26.6802 65.825C26.7267 65.9714 26.7755 66.1178 26.8242 66.2619C26.8893 66.4571 26.959 66.6523 27.0311 66.8452C27.1008 67.0404 27.1751 67.2333 27.2518 67.4239C27.3239 67.6074 27.3982 67.7887 27.4749 67.97C27.4795 67.9862 27.4865 68.0002 27.4958 68.0165C27.6492 68.3836 27.8142 68.7485 27.9908 69.1087C28.0001 69.1319 28.0117 69.1551 28.0257 69.1784C28.1047 69.3457 28.1883 69.513 28.2743 69.678C28.3579 69.8407 28.4439 70.0034 28.5299 70.166C28.6485 70.3821 28.767 70.5983 28.8878 70.8098C28.9761 70.9608 29.0668 71.1118 29.1551 71.2606C29.2828 71.472 29.413 71.6789 29.5455 71.8857C29.6314 72.0228 29.7221 72.1599 29.8127 72.2947C29.9754 72.5411 30.1427 72.7827 30.3147 73.0244C30.389 73.1313 30.4657 73.2382 30.5447 73.3428C30.5586 73.3614 30.5726 73.3823 30.5889 73.4009C30.7004 73.5566 30.8189 73.71 30.9351 73.8634C31.2233 74.2375 31.5207 74.6047 31.8252 74.9649C31.9298 75.088 32.0367 75.2112 32.1436 75.332C32.2807 75.4901 32.4178 75.6434 32.5572 75.7968C32.7036 75.9548 32.85 76.1105 32.9964 76.2662C33.1428 76.4196 33.2915 76.5706 33.4403 76.7217C33.589 76.8727 33.74 77.0214 33.8934 77.1678C34.0468 77.3165 34.2002 77.463 34.3559 77.6071C34.5116 77.7535 34.6696 77.8952 34.8299 78.0393C34.9879 78.1811 35.1483 78.3205 35.311 78.4599C35.4737 78.5994 35.6363 78.7388 35.8036 78.8759C35.9686 79.0107 36.1336 79.1455 36.3009 79.2802H36.3032C36.4729 79.415 36.6425 79.5475 36.8122 79.6776C36.9632 79.7915 37.1166 79.9053 37.2699 80.0215C37.0771 79.896 36.8865 79.7659 36.6959 79.6311C36.5286 79.5126 36.3613 79.3918 36.194 79.2709C36.1777 79.257 36.1614 79.2453 36.1428 79.2337C35.9779 79.1105 35.8129 78.9874 35.6502 78.8642C35.4806 78.7341 35.3109 78.6016 35.1413 78.4669H35.139C34.9717 78.3321 34.8067 78.1973 34.6417 78.0625C34.4744 77.9254 34.3117 77.786 34.149 77.6465C33.9863 77.5071 33.826 77.3677 33.668 77.2259C33.5076 77.0818 33.3496 76.9401 33.1939 76.7937C33.0382 76.6496 32.8848 76.5032 32.7314 76.3544C32.5781 76.208 32.427 76.0593 32.2783 75.9083C32.1295 75.7572 31.9808 75.6062 31.8344 75.4528C31.6881 75.2971 31.5416 75.1414 31.3952 74.9834C31.2558 74.83 31.1187 74.6767 30.9816 74.5187C30.8747 74.3978 30.7678 74.2746 30.6632 74.1515C30.3588 73.7913 30.0614 73.4241 29.7732 73.05C29.657 72.8966 29.5384 72.7432 29.4269 72.5875C29.4106 72.5689 29.3967 72.548 29.3827 72.5294C29.3037 72.4248 29.227 72.318 29.1527 72.211C28.9807 71.9694 28.8134 71.7277 28.6507 71.4813C28.5601 71.3466 28.4695 71.2094 28.3835 71.0723C28.251 70.8655 28.1209 70.6587 27.9931 70.4472C27.9048 70.2985 27.8141 70.1474 27.7258 69.9964C27.605 69.7849 27.4865 69.5688 27.368 69.3526C27.282 69.19 27.196 69.0273 27.1123 68.8646C27.0264 68.6996 26.9427 68.5323 26.8637 68.365C26.8497 68.3418 26.8381 68.3185 26.8288 68.2953C26.6522 67.9351 26.4872 67.5702 26.3338 67.2031C26.3245 67.1868 26.3175 67.1729 26.3129 67.1566C26.2362 66.9753 26.1618 66.7941 26.0898 66.6105C26.0131 66.4199 25.9387 66.227 25.8691 66.0318C25.797 65.8389 25.7273 65.6437 25.6622 65.4485C25.6134 65.3045 25.5646 65.1581 25.5182 65.0117C25.481 64.8955 25.4461 64.7793 25.4113 64.6631C25.395 64.612 25.3787 64.5585 25.3648 64.5074C25.3299 64.3935 25.2974 64.282 25.2672 64.1681C25.2207 64.0008 25.1766 63.8335 25.1324 63.6638C23.3942 51.3938 34.551 37.7853 45.6986 31.9501C48.5337 30.4652 51.9265 30.4652 54.7616 31.9501C55.0126 32.0803 55.2613 32.2197 55.5122 32.3638L55.5145 32.3661C56.7765 33.0911 58.0337 33.9068 59.2676 34.8015Z" fill="white"/>
</g>
<path d="M49.9977 84.2993C45.1125 84.2995 40.2283 82.8295 36.0618 79.8901C35.8917 79.7695 35.7224 79.6473 35.5533 79.5251C35.5445 79.5188 35.536 79.5122 35.5276 79.5055C35.5159 79.4979 35.5046 79.4898 35.4933 79.4816C35.3179 79.3505 35.1562 79.2297 34.9969 79.1092C34.8322 78.9828 34.6705 78.8565 34.5089 78.7285C34.4953 78.7192 34.4823 78.7094 34.4696 78.6991C34.3062 78.5675 34.145 78.4359 33.9837 78.3042C33.7962 78.1505 33.6294 78.0078 33.4631 77.8651C33.2963 77.7221 33.1319 77.5791 32.9701 77.4339L32.9473 77.4134C32.7905 77.2726 32.6363 77.1338 32.484 76.9906C32.3285 76.8467 32.1711 76.6966 32.0138 76.544C31.8593 76.3966 31.703 76.2428 31.5492 76.0866C31.3916 75.9266 31.2435 75.7761 31.0976 75.6231C30.9466 75.4626 30.7992 75.3058 30.6517 75.1465C30.504 74.984 30.3632 74.8267 30.2225 74.6647C30.1169 74.5452 30.0066 74.4183 29.899 74.2912C29.5799 73.9138 29.2738 73.5349 28.9884 73.1644L28.9116 73.0631C28.8205 72.9435 28.7295 72.8235 28.642 72.7022C28.6259 72.6821 28.6107 72.6616 28.596 72.6414C28.51 72.5274 28.428 72.413 28.3483 72.2986C28.1616 72.0365 27.993 71.7912 27.8368 71.5549C27.7452 71.4186 27.6504 71.2753 27.5606 71.132C27.4282 70.9254 27.2949 70.7133 27.1641 70.4966L27.0821 70.3589C27.0185 70.2522 26.9544 70.1448 26.8917 70.0372C26.7718 69.8274 26.6573 69.6191 26.543 69.4109L26.5246 69.3773C26.4319 69.2025 26.3447 69.0373 26.2599 68.8723C26.1758 68.7109 26.0921 68.5437 26.0126 68.3764C25.9933 68.3414 25.9758 68.306 25.9607 68.2706C25.773 67.8824 25.6125 67.5286 25.4706 67.1907C25.457 67.1637 25.4422 67.1312 25.4286 67.0938C25.353 66.9147 25.2796 66.7355 25.2084 66.5541C25.1308 66.3607 25.0529 66.1592 24.9801 65.9553C24.9088 65.7643 24.8364 65.5612 24.7685 65.3581C24.7194 65.2129 24.6692 65.0623 24.6212 64.9118C24.5833 64.7926 24.5473 64.6728 24.5112 64.5529C24.4953 64.5026 24.4764 64.4403 24.4601 64.3808C24.4283 64.2777 24.3933 64.1579 24.3609 64.0355C24.3157 63.8728 24.2705 63.702 24.2255 63.5287C24.2188 63.5031 24.2136 63.477 24.2098 63.4509C23.1573 56.0205 26.6579 49.1441 29.78 44.6839C33.7253 39.0475 39.3248 34.0682 45.1429 31.0228C48.183 29.4306 51.8127 29.4306 54.8527 31.0228C60.6708 34.0683 66.2705 39.0476 70.2157 44.6839C73.3378 49.1441 76.8384 56.0205 75.7858 63.4509C75.7821 63.4764 75.777 63.5018 75.7706 63.5268C75.7279 63.6932 75.6827 63.8619 75.6375 64.026L75.518 64.4421C75.5076 64.4781 75.4971 64.5136 75.485 64.5501C75.4641 64.6234 75.4412 64.6968 75.4184 64.7691L75.3944 64.8459C75.3563 64.9695 75.3161 65.0905 75.2761 65.2113L75.2669 65.2387C75.2468 65.2986 75.2273 65.3574 75.2077 65.4135C75.147 65.5955 75.0809 65.7837 75.0102 65.9694C74.9426 66.1594 74.8649 66.361 74.7846 66.5603C74.7113 66.7507 74.6291 66.9488 74.5447 67.1469C74.4637 67.3394 74.3767 67.5376 74.2874 67.7309C74.207 67.9103 74.1208 68.0948 74.0321 68.2795L73.9917 68.3601C73.9166 68.5202 73.8287 68.6935 73.7383 68.8667C73.6397 69.0621 73.5416 69.2461 73.4414 69.4325C73.3202 69.6557 73.1976 69.8741 73.0706 70.0902C72.989 70.2329 72.9007 70.3807 72.8125 70.5284C72.8115 70.53 72.8107 70.5316 72.8096 70.5332C72.8075 70.5367 72.8054 70.5403 72.8034 70.5438C72.6935 70.7253 72.5811 70.9046 72.4665 71.0837C72.262 71.4032 72.0697 71.6926 71.8789 71.9688C71.7917 72.0963 71.7004 72.2234 71.6094 72.3505C71.5343 72.4558 71.4583 72.5604 71.3799 72.6675C71.2635 72.8263 71.1453 72.9827 71.0269 73.139C70.9082 73.294 70.7919 73.4413 70.6728 73.591C70.6043 73.6768 70.5372 73.7607 70.4698 73.8422L70.1028 74.2829C69.8839 74.5397 69.6588 74.7959 69.433 75.0452C69.3304 75.1615 69.217 75.2822 69.1036 75.4028L68.8483 75.6748C68.7211 75.8073 68.6037 75.9293 68.4817 76.049C68.3195 76.2134 68.1442 76.3866 67.9686 76.5573C67.8267 76.6945 67.6863 76.828 67.5434 76.9592C67.5168 76.9855 67.4898 77.0108 67.463 77.0338C67.3189 77.1706 67.1724 77.3031 67.0234 77.4357C66.7346 77.6925 66.45 77.9381 66.1771 78.1657L65.9673 78.3412C65.8164 78.4649 65.6693 78.5835 65.5203 78.7019C65.0068 79.1095 64.473 79.509 63.9342 79.8897C63.93 79.8926 63.9162 79.9021 63.9084 79.9075C63.9065 79.9087 63.9046 79.9101 63.9027 79.9114C59.743 82.8368 54.8698 84.2992 49.9977 84.2993ZM36.3874 78.4076C36.5471 78.523 36.707 78.6383 36.8666 78.7513C44.7076 84.2835 55.2504 84.2915 63.101 78.7709V78.771C63.1118 78.7632 63.1235 78.7551 63.1304 78.7505C63.6477 78.3852 64.1602 78.0014 64.6534 77.6099C64.7967 77.4961 64.938 77.3822 65.0769 77.2683L65.2837 77.0956C65.5453 76.8771 65.8189 76.641 66.0966 76.394C66.2393 76.2671 66.3802 76.1398 66.5185 76.0081C66.5304 75.9966 66.543 75.9856 66.556 75.9749L66.5689 75.962C66.576 75.9549 66.5834 75.948 66.5907 75.9412C66.728 75.8152 66.863 75.6869 66.9979 75.5565C67.1649 75.3939 67.3335 75.2277 67.4972 75.0616C67.6179 74.9431 67.7257 74.8311 67.8353 74.7169L68.0793 74.4566C68.1915 74.3376 68.2948 74.2277 68.3938 74.1158C68.6161 73.8704 68.8318 73.6247 69.0411 73.3792L69.3912 72.959C69.4566 72.8793 69.5196 72.8007 69.5826 72.722C69.695 72.5805 69.8063 72.4397 69.9176 72.2944C70.0292 72.1469 70.1432 71.9965 70.2549 71.8437C70.3296 71.7418 70.4023 71.642 70.4749 71.5399C70.5617 71.4188 70.6471 71.2997 70.7304 71.1783C70.9135 70.9134 71.0968 70.6372 71.2922 70.3319C71.4004 70.163 71.5065 69.9938 71.6103 69.8223C71.612 69.8195 71.6136 69.8167 71.6153 69.8138C71.6992 69.6734 71.7829 69.5331 71.8645 69.3905C71.9877 69.1808 72.1024 68.9763 72.2148 68.7694C72.3083 68.5958 72.401 68.422 72.4912 68.2437C72.4925 68.2412 72.5006 68.2248 72.5021 68.2223C72.5837 68.0655 72.6632 67.9088 72.7384 67.7499L72.7813 67.6634C72.8587 67.5021 72.9399 67.3289 73.0183 67.1534C73.1046 66.9671 73.1849 66.7841 73.2608 66.6035C73.3402 66.4173 73.4161 66.2342 73.4875 66.049C73.5647 65.8571 73.6356 65.6729 73.7022 65.4866C73.7712 65.305 73.8309 65.1353 73.8882 64.9635L73.9527 64.7722C73.9899 64.6602 74.0271 64.5483 74.0623 64.4343L74.0881 64.3519C74.1084 64.287 74.1291 64.2214 74.1475 64.1558C74.1515 64.141 74.1561 64.1263 74.1613 64.1118C74.168 64.0923 74.1732 64.0734 74.1787 64.0543L74.2948 63.6507C74.3331 63.5112 74.3729 63.3635 74.4107 63.2169C75.1682 57.7795 73.2737 51.4837 69.0735 45.4834C65.2519 40.024 59.8331 35.2034 54.206 32.258C51.5711 30.8777 48.4248 30.8777 45.7898 32.258C40.1628 35.2034 34.7438 40.0239 30.9221 45.4834C26.7224 51.4834 24.8281 57.7789 25.5849 63.2162C25.6249 63.3688 25.6649 63.5198 25.7067 63.6707C25.7368 63.7845 25.7672 63.8876 25.7994 63.993C25.8166 64.0551 25.8304 64.0997 25.8438 64.1424C25.8804 64.2641 25.9143 64.3766 25.9501 64.4892C25.9955 64.6321 26.0432 64.7743 26.0905 64.9142C26.1539 65.1046 26.2209 65.292 26.2899 65.4771C26.36 65.6731 26.4311 65.8575 26.5044 66.0396C26.5764 66.2231 26.6486 66.3987 26.7229 66.5743C26.7241 66.5775 26.7256 66.5807 26.7268 66.5841C26.7333 66.5972 26.7394 66.6104 26.7448 66.6234C26.8819 66.9517 27.0388 67.2975 27.2243 67.6808C27.2287 67.69 27.2331 67.6993 27.237 67.7087C27.2458 67.7242 27.2542 67.74 27.2617 67.7561C27.3371 67.9153 27.4166 68.0746 27.4984 68.2316C27.5827 68.3955 27.6674 68.5557 27.752 68.716L27.7652 68.7399C27.8759 68.9413 27.9864 69.1426 28.0989 69.3398C28.1563 69.4377 28.2182 69.5417 28.2797 69.6449L28.3603 69.7803C28.4823 69.9822 28.6093 70.1838 28.7384 70.3856C28.824 70.5218 28.9104 70.6528 28.9971 70.7815C29.1473 71.0089 29.3072 71.2411 29.4884 71.4958C29.5618 71.6011 29.633 71.7006 29.7067 71.7978C29.7098 71.8021 29.724 71.8215 29.7272 71.826L29.7177 71.8156C29.7334 71.8333 29.7481 71.8517 29.7617 71.8707C29.8456 71.988 29.9337 72.1037 30.0216 72.2192L30.0967 72.3182C30.3658 72.6674 30.6585 73.0297 30.9634 73.3905C31.0643 73.5093 31.1679 73.6287 31.2715 73.7458C31.4096 73.9049 31.5433 74.0543 31.6791 74.2037C31.8197 74.3554 31.9649 74.5099 32.1102 74.6645C32.2474 74.8084 32.3906 74.9536 32.5337 75.0989C32.6867 75.2543 32.8325 75.3979 32.9807 75.5393C33.1343 75.6882 33.2837 75.8308 33.4354 75.9711C33.5842 76.1111 33.7307 76.2427 33.8794 76.3764L33.9018 76.3965C34.0556 76.5345 34.2121 76.6706 34.3707 76.8066C34.5293 76.9425 34.6881 77.0787 34.8514 77.2126C35.0127 77.3444 35.1615 77.4657 35.3111 77.5865C35.3218 77.594 35.3325 77.602 35.3427 77.6102C35.5093 77.7424 35.6756 77.8725 35.8424 78.0003C35.9941 78.1152 36.1515 78.2328 36.3088 78.3503C36.3364 78.3684 36.3621 78.3873 36.3874 78.4076ZM66.5721 75.962C66.5704 75.9634 66.5687 75.9647 66.567 75.9661C66.5687 75.9648 66.5704 75.9634 66.5721 75.962ZM26.7513 66.6556C26.7515 66.6559 26.7515 66.6562 26.7517 66.6565C26.7515 66.6562 26.7515 66.6559 26.7513 66.6556ZM26.7086 66.5497C26.7088 66.5499 26.7088 66.55 26.7091 66.5502C26.7088 66.55 26.7088 66.5498 26.7086 66.5497Z" fill="#000072"/>
<path d="M69.5267 66.8749C69.4839 67.0054 69.4372 67.1378 69.3888 67.2739C68.0966 70.5836 65.5626 72.3475 64.0281 70.3505L64.9436 65.855L65.5664 62.7989C67.9605 61.1637 71.1527 61.8983 69.5267 66.8749Z" fill="#FDBD91"/>
<path d="M65.5628 71.2761C64.9539 71.2761 64.4048 70.9774 63.962 70.4011L63.939 70.3711L65.4914 62.7493L65.5192 62.7303C66.8262 61.8376 68.2973 61.6829 69.1793 62.3447C69.7537 62.7755 70.5727 63.9404 69.6053 66.9007C69.5624 67.0319 69.5155 67.165 69.4668 67.3018C68.6032 69.514 67.179 71.0653 65.8379 71.2562C65.7451 71.2695 65.6532 71.2761 65.5628 71.2761ZM64.1171 70.3295C64.5831 70.9199 65.1681 71.1833 65.8145 71.0917C67.0973 70.909 68.47 69.3986 69.3112 67.2437C69.3586 67.1106 69.4051 66.979 69.4476 66.849C70.1407 64.728 70.0099 63.1756 69.0795 62.4775C68.2605 61.8628 66.8817 62.0129 65.6409 62.8487L64.1171 70.3295Z" fill="#000072"/>
<g opacity="0.3">
<path d="M69.5266 66.8749C69.4838 67.0054 69.4371 67.1378 69.3887 67.2739C68.0965 70.5835 65.5625 72.3474 64.028 70.3505L64.9435 65.855C65.1579 65.8382 65.2866 65.8289 65.2866 65.8289C66.217 68.7395 67.5688 68.9986 69.342 66.6045C69.342 66.6045 69.4091 66.7034 69.5266 66.8749Z" fill="#000072"/>
</g>
<path d="M65.566 71.7515C64.8104 71.7515 64.1163 71.3832 63.5844 70.6913C63.4854 70.5628 63.4474 70.3976 63.4798 70.2387L65.0181 62.6871C65.047 62.5445 65.1304 62.4189 65.2506 62.3368C66.744 61.317 68.4496 61.1756 69.4942 61.9857C70.195 62.529 71.1816 63.9631 69.9146 67.4641C68.9715 69.8802 67.4372 71.5087 65.9055 71.7271C65.7912 71.7435 65.678 71.7515 65.566 71.7515ZM64.6303 70.1956C64.9594 70.5406 65.3275 70.6792 65.7477 70.6197C66.846 70.463 68.0997 69.0367 68.8674 67.0704C69.6118 65.013 69.5923 63.4772 68.8089 62.87C68.1964 62.3952 67.0915 62.5111 66.0674 63.1403L64.6303 70.1956Z" fill="#000072"/>
<path d="M30.4738 66.8751C30.5167 67.0057 30.5633 67.1381 30.6118 67.2742C31.9039 70.5838 34.4379 72.3477 35.9725 70.3507L35.057 65.8552L34.4342 62.7991C32.04 61.1639 28.8478 61.8985 30.4738 66.8751Z" fill="#FDBD91"/>
<path d="M34.438 71.3093C34.346 71.3093 34.2524 71.3025 34.1576 71.289C32.805 71.0963 31.3706 69.5369 30.5036 67.3162C30.4534 67.1759 30.4065 67.0426 30.3632 66.9111V66.9109C29.3898 63.931 30.2197 62.7543 30.8012 62.318C31.6945 61.6478 33.1808 61.8022 34.4996 62.7029L34.5385 62.7295L36.097 70.3792L36.0646 70.4212C35.6151 71.0061 35.0574 71.3093 34.438 71.3093ZM30.5842 66.8388C30.6267 66.9684 30.6731 67.0998 30.7213 67.2349C31.557 69.3755 32.9193 70.8779 34.1905 71.059C34.8283 71.1495 35.3853 70.9016 35.848 70.321L34.3296 62.8686C33.1032 62.047 31.7455 61.8997 30.9408 62.504C30.0226 63.1929 29.896 64.7322 30.5842 66.8388Z" fill="#000072"/>
<g opacity="0.55">
<path d="M33.9048 71.1382C32.7208 70.7429 31.4995 69.3146 30.7238 67.3289C30.6754 67.1928 30.6287 67.0604 30.5858 66.9298C28.9599 61.9532 32.1521 61.2186 34.5462 62.8538L34.5574 62.9098C32.3926 62.0912 30.2092 63.2268 31.6114 67.5209C31.6542 67.6514 31.7009 67.7838 31.7493 67.9199C32.2994 69.3314 33.0769 70.4614 33.9048 71.1382Z" fill="white"/>
</g>
<path d="M34.4341 71.7516C34.3222 71.7516 34.209 71.7436 34.0947 71.7272C32.563 71.5089 31.0287 69.8804 30.0906 67.4773C28.8186 63.9632 29.8052 62.5291 30.506 61.9858C31.5508 61.1761 33.256 61.3171 34.7494 62.337C34.8696 62.419 34.953 62.5446 34.9819 62.6873L36.5204 70.2388C36.5528 70.3977 36.5147 70.5628 36.4158 70.6914C35.8838 71.3833 35.1898 71.7516 34.4341 71.7516ZM32.1619 62.5787C31.7812 62.5787 31.4444 62.674 31.1914 62.8701C30.4079 63.4773 30.3885 65.0131 31.1378 67.0836C31.9005 69.0368 33.1542 70.4631 34.2526 70.6198C34.6731 70.6794 35.0404 70.5407 35.37 70.1957L33.9326 63.1404C33.3316 62.7711 32.7026 62.5787 32.1619 62.5787Z" fill="#000072"/>
<path d="M65.2284 65.969V68.5533C65.2284 72.9985 63.1009 77.2143 59.437 79.7315C59.3848 79.7669 59.3326 79.8005 59.2822 79.8359C53.6941 83.5819 46.3774 83.5819 40.7892 79.8378C40.7389 79.8024 40.6867 79.7669 40.6345 79.7315C36.9687 77.2162 34.8412 73.0004 34.8412 68.5533V65.969C34.8412 65.969 34.8505 65.8031 34.8692 65.5047C35.0072 63.146 35.6318 52.5626 35.7325 52.2923C39.0589 43.3385 72.3157 45.5331 65.2284 65.969Z" fill="#FDBD91"/>
<path d="M50.034 82.776C46.7931 82.776 43.5526 81.8288 40.7247 79.9342C40.6776 79.901 40.6312 79.8694 40.5845 79.8377C36.9098 77.3164 34.7252 73.1017 34.7252 68.5531V65.9688C34.7254 65.9622 34.7349 65.796 34.7535 65.4973C34.9809 61.6068 35.521 52.5272 35.624 52.2515C36.497 49.9013 39.4571 48.1599 43.7449 47.474C47.8839 46.8119 52.7054 47.2607 56.6418 48.6742C60.5722 50.0856 69.2839 54.5974 65.3447 65.9883V68.553C65.3447 73.0994 63.1609 77.314 59.5029 79.827L59.4427 79.8674C59.4111 79.8884 59.3797 79.9093 59.3491 79.9308C56.5196 81.8276 53.2766 82.776 50.034 82.776ZM47.6682 47.4062C46.3392 47.4062 45.0293 47.5039 43.7818 47.7035C39.5789 48.3757 36.6849 50.0629 35.8419 52.3325C35.7613 52.6303 35.33 59.6186 34.9854 65.5113C34.9668 65.8094 34.9574 65.9751 34.9574 65.9754L34.9576 68.553C34.9576 73.0251 37.1045 77.168 40.7006 79.6354C40.7629 79.6779 40.8106 79.7103 40.8565 79.7426C46.4324 83.4784 53.6406 83.4775 59.2178 79.7392C59.248 79.718 59.2808 79.696 59.3141 79.674L59.3721 79.6351C62.9664 77.1658 65.1125 73.0228 65.1125 68.553L65.1188 65.9307C69.0061 54.722 60.4309 50.2817 56.5634 48.8929C53.8487 47.918 50.7091 47.4062 47.6682 47.4062Z" fill="#000072"/>
<g opacity="0.3">
<path d="M65.2287 65.9687V68.553C65.2287 72.9982 63.1012 77.2141 59.4373 79.7312C59.385 79.7667 59.3328 79.8002 59.2825 79.8357C53.6943 83.5816 46.3777 83.5816 40.7895 79.8376C40.7391 79.8021 40.6869 79.7667 40.6347 79.7313C40.5191 79.6511 40.4035 79.5691 40.2898 79.4852C45.5479 82.0415 51.8502 81.6611 56.797 78.344C56.8474 78.3086 56.8995 78.275 56.9517 78.2396C60.6156 75.7224 62.7431 71.5066 62.7431 67.0614L62.9642 63.8037C65.3695 56.8693 62.9072 52.7097 58.7678 49.7002C64.4008 52.4766 68.0796 57.7459 65.2287 65.9687Z" fill="#000072"/>
</g>
<g opacity="0.3">
<path d="M65.2287 65.9688V67.0185C63.558 64.5573 63.2354 57.841 63.2354 57.841C61.7748 59.4272 53.5714 61.2561 47.8142 58.1977C47.5036 58.0328 47.1629 58.3626 47.3188 58.6778C47.389 58.8198 47.4175 58.8678 47.4175 58.8678C46.6602 59.3365 43.0934 58.8797 41.1585 57.7538C40.6204 57.4406 39.9342 57.7798 39.8378 58.3949C39.4043 61.1612 38.027 63.087 35.0801 65.9688C35.0074 65.814 34.9365 65.6593 34.8694 65.5045C35.0074 63.1458 35.632 52.5624 35.7327 52.292C39.0592 43.3382 72.316 45.5329 65.2287 65.9688Z" fill="#000072"/>
</g>
<g opacity="0.55">
<path d="M56.3401 81.4038C51.2871 83.4754 45.4398 82.9533 40.7895 79.8376C40.7391 79.8021 40.6869 79.7667 40.6347 79.7313C36.9689 77.2159 34.8414 73.0001 34.8414 68.5531V65.9688C34.8414 65.9688 35.619 52.596 35.7327 52.292C36.432 50.4107 38.4513 49.0215 41.1419 48.1899C39.1188 49.0346 37.6328 50.2559 37.0529 51.8147C36.9391 52.1205 36.1616 65.4915 36.1616 65.4915V68.0758C36.1616 72.5228 38.2891 76.7387 41.9549 79.2559C42.0072 79.2894 42.0648 79.3179 42.1116 79.3603C45.7398 82.6454 51.6115 82.8899 56.3401 81.4038Z" fill="white"/>
</g>
<path d="M50.0353 83.2201C46.7084 83.2201 43.3819 82.2475 40.4791 80.3021C40.4256 80.2663 40.372 80.2298 40.3184 80.1932C36.5387 77.5997 34.2821 73.2481 34.2821 68.553V65.9688C34.2821 65.9579 34.2823 65.9472 34.283 65.9364C35.0652 52.4903 35.1731 52.1917 35.2085 52.0966C37.2556 46.5887 48.788 45.3824 56.7934 48.2577C60.6069 49.6275 63.4941 51.7996 65.1435 54.5393C67.0843 57.7636 67.3011 61.6402 65.788 66.0624V68.553C65.788 73.2469 63.532 77.598 59.7531 80.1922L59.5939 80.3003C56.6906 82.2467 53.3629 83.22 50.0353 83.2201ZM35.4008 65.985V68.553C35.4008 72.8792 37.4759 76.8858 40.9516 79.271C41.0014 79.3051 41.0512 79.3388 41.1014 79.3724C46.5297 83.0104 53.5436 83.0098 58.9702 79.3714L59.1194 79.2701C62.5947 76.8844 64.6692 72.8782 64.6692 68.553V65.9688C64.6692 65.9065 64.6797 65.8444 64.7 65.7856C68.458 54.9517 60.158 50.6551 56.415 49.3106C48.3025 46.3969 37.979 48.0105 36.2725 52.446C36.1689 53.1683 35.6975 60.8865 35.4008 65.985ZM36.2612 52.4753C36.26 52.4785 36.2585 52.4825 36.2574 52.4857C36.2585 52.4827 36.2597 52.4793 36.2612 52.4753Z" fill="#000072"/>
<path d="M65.0536 46.81C69.2489 52.1707 68.7268 61.4993 65.1934 66.3882C62.4897 64.8966 62.3107 57.841 62.3107 57.841C55.9115 59.5825 49.4358 58.5197 43.5641 53.461C43.4392 55.4487 45.1043 57.2928 45.1043 57.2928C44.3492 57.2704 43.6723 57.1604 43.0645 56.9776C40.9407 56.3418 39.6765 54.8036 38.9027 52.87C38.1569 59.5825 38.1103 61.0742 34.8416 65.9687C31.5786 58.9765 30.9782 50.3527 36.4172 47.774C28.8339 45.1636 31.6308 39.8793 38.1569 44.5725C34.9554 39.9726 38.9959 38.1994 39.835 43.2673C44.5542 34.6473 65.2866 37.6736 68.0966 47.4627L65.061 46.8119C65.0554 46.81 65.0536 46.81 65.0536 46.81Z" fill="#AC3D50"/>
<path d="M65.2271 66.5396L65.1371 66.4899C62.5928 65.0862 62.2415 59.0445 62.1994 57.9912C55.4018 59.7979 49.171 58.3573 43.6735 53.7075C43.6915 55.5311 45.1747 57.1975 45.1904 57.2149L45.3727 57.4168L45.1009 57.4089C44.3609 57.387 43.6645 57.2794 43.0307 57.089C41.1939 56.539 39.8616 55.3055 38.9693 53.3241L38.9285 53.6923C38.2651 59.7028 38.0869 61.3182 34.938 66.0333L34.8234 66.2048L34.7361 66.0179C31.4498 58.9752 30.9034 50.5293 36.1203 47.7924C33.0573 46.6803 31.8528 45.1826 31.7532 44.1329C31.7011 43.5846 31.9365 43.131 32.4161 42.8558C33.3151 42.3398 35.1638 42.432 37.7345 44.1392C36.6575 42.3771 36.6879 41.1018 37.0768 40.5173C37.3047 40.1748 37.6619 40.0267 38.053 40.1112C38.7075 40.2517 39.5155 41.0703 39.8919 42.9345C42.4873 38.6227 48.7484 37.6692 53.8184 38.2328C59.8595 38.9042 66.6517 42.0087 68.2081 47.4306L68.2615 47.6168L65.3361 46.9898C69.4067 52.496 68.6998 61.7345 65.2873 66.4564L65.2271 66.5396ZM62.4229 57.69L62.4267 57.8381C62.4286 57.9071 62.6303 64.6858 65.1602 66.2347C68.5237 61.4813 69.1577 52.243 64.962 46.8816L64.8149 46.6938L65.0988 46.7022L67.9288 47.3079C66.3004 42.1049 59.6865 39.1188 53.7927 38.4638C48.6911 37.8966 42.372 38.8753 39.9367 43.3231L39.7752 43.6182L39.7202 43.2862C39.3933 41.3122 38.5916 40.4645 38.0043 40.3384C37.7059 40.2747 37.4454 40.3833 37.2704 40.646C36.886 41.2238 36.9124 42.5813 38.252 44.5062L38.6393 45.0629L38.0888 44.6669C35.349 42.6969 33.3823 42.5685 32.5318 43.0573C32.1359 43.2846 31.9416 43.6587 31.9845 44.1109C32.0759 45.0716 33.3013 46.5787 36.4549 47.6643L36.7244 47.7571L36.4668 47.8791C31.1717 50.3895 31.6492 58.7223 34.8598 65.7315C37.8663 61.1961 38.0471 59.5587 38.6975 53.667L38.8383 52.3966L39.0106 52.8268C39.8721 54.9796 41.209 56.301 43.0975 56.8665C43.6367 57.0285 44.2239 57.1288 44.846 57.1652C44.4156 56.6244 43.3444 55.1016 43.448 53.4538L43.4627 53.2205L43.6397 53.3732C49.1583 58.1276 55.4295 59.5935 62.28 57.7289L62.4229 57.69Z" fill="#000072"/>
<g opacity="0.3">
<path d="M38.1264 51.7013C38.4044 52.2379 38.6581 52.8428 38.8261 53.5598C38.1492 59.6925 37.9945 61.2457 34.8415 65.9687C34.4723 65.1762 34.1367 64.3651 33.842 63.5429C36.431 59.5268 36.7337 57.2583 37.3318 51.8476C37.3778 51.4317 37.9338 51.3298 38.1264 51.7013Z" fill="#000072"/>
</g>
<g opacity="0.55">
<path d="M36.9242 43.7764C32.8184 42.0367 31.3323 45.0443 35.3318 47.3527C29.5591 44.8355 31.6176 40.7371 36.9242 43.7764Z" fill="white"/>
</g>
<g opacity="0.55">
<path d="M36.2865 47.8394C36.2903 47.8411 36.2941 47.8428 36.298 47.8445C36.8149 48.0731 36.9242 48.7514 36.4891 49.1122C32.7742 52.1924 32.9154 59.1229 35.3673 65.1651C35.2032 65.4224 35.0279 65.691 34.8414 65.9688C31.6045 59.0325 30.9873 50.4926 36.2865 47.8394Z" fill="white"/>
</g>
<g opacity="0.55">
<path d="M37.9013 44.4978L37.8887 44.4909C35.7221 41.1551 37.6934 39.2342 39.0098 40.7724C38.2827 40.8798 37.851 42.0042 38.6584 43.7833C38.8726 44.2552 38.3561 44.7464 37.9013 44.4978Z" fill="white"/>
</g>
<g opacity="0.55">
<path d="M63.9813 42.4283C60.4087 40.78 55.6242 39.678 51.2816 39.6575C50.6122 40.9422 48.356 40.8788 47.4069 39.9652C44.9643 40.4033 42.8965 41.3282 41.6062 42.8702C41.237 43.3121 40.5154 43.2822 40.2245 42.7844C40.2077 42.7583 40.1928 42.7303 40.1798 42.6987C44.2259 37.5393 57.8747 37.1142 63.9813 42.4283Z" fill="white"/>
</g>
<path d="M65.1928 66.9477C65.1011 66.9477 65.0082 66.9251 64.923 66.878C62.4562 65.517 61.9052 60.4916 61.7836 58.5541C55.415 60.0986 49.5448 58.8322 44.3023 54.7856C44.6813 55.9721 45.5087 56.906 45.52 56.9185C45.6694 57.0851 45.7056 57.3252 45.6112 57.5281C45.5192 57.726 45.3212 57.852 45.1042 57.852C45.0985 57.852 45.0929 57.852 45.0871 57.8518C42.5187 57.7729 40.5642 56.7359 39.2556 54.7632C38.6649 60.0383 38.3284 61.7545 35.3066 66.2793C35.1944 66.4471 35.0021 66.5412 34.7989 66.5265C34.5974 66.5111 34.4199 66.3883 34.3346 66.2053C31.128 59.3339 30.5094 51.1389 35.1335 47.8767C32.4888 46.7276 31.4145 45.2523 31.3119 44.1748C31.2435 43.4538 31.5655 42.833 32.1956 42.4714C33.042 41.985 34.5978 41.9495 36.6857 43.0109C36.2252 41.7581 36.3457 40.816 36.7079 40.2716C37.0373 39.7771 37.5757 39.5551 38.1461 39.6778C38.9677 39.8543 39.6494 40.6549 40.0711 41.8922C43.0289 38.094 48.9897 37.2507 53.8674 37.7923C60.0555 38.48 67.0213 41.6892 68.634 47.3082C68.6884 47.4971 68.6394 47.7007 68.5053 47.8443C68.3712 47.9881 68.1717 48.0505 67.979 48.0095L66.3148 47.6525C67.829 50.1365 68.6267 53.3215 68.5811 56.7833C68.5306 60.5849 67.4611 64.2052 65.6467 66.7159C65.538 66.8661 65.3673 66.9477 65.1928 66.9477ZM62.3103 57.2816C62.4294 57.2816 62.5468 57.3196 62.6445 57.3922C62.7822 57.4947 62.8652 57.6549 62.8697 57.8266C62.9147 59.5647 63.4001 64.081 65.0543 65.6002C68.1018 60.8781 68.5838 52.2286 64.613 47.1548C64.4677 46.9694 64.4544 46.713 64.5793 46.5134C64.704 46.3137 64.9396 46.2137 65.1709 46.2631L67.2354 46.7059C65.2969 42.1454 59.2069 39.5115 53.7437 38.9043C47.5113 38.2119 42.2451 40.0297 40.3255 43.5359C40.2107 43.7452 39.9761 43.8589 39.7411 43.8188C39.5059 43.7788 39.322 43.5941 39.283 43.3587C38.9717 41.4785 38.2496 40.8444 37.9114 40.7718C37.8283 40.7539 37.731 40.7538 37.6393 40.8915C37.409 41.2379 37.3165 42.386 38.6157 44.253C38.7714 44.4767 38.7432 44.7799 38.5492 44.9712C38.3546 45.1621 38.0509 45.1855 37.83 45.0267C35.426 43.2979 33.5476 42.9852 32.7524 43.4417C32.5059 43.5832 32.399 43.7883 32.4258 44.0689C32.5107 44.9641 33.8343 46.2934 36.5992 47.2452C36.8143 47.3192 36.963 47.516 36.9756 47.743C36.9882 47.9701 36.8622 48.1821 36.6567 48.2796C33.7311 49.6666 33.0126 52.8284 32.9251 55.2366C32.8213 58.0917 33.5491 61.5302 34.9356 64.8045C37.4561 60.875 37.6348 59.2565 38.2571 53.6183L38.3467 52.8081C38.3751 52.5532 38.5733 52.3502 38.8275 52.3156C39.0824 52.281 39.3268 52.4242 39.422 52.6623C40.3227 54.9148 41.8012 56.2148 43.9235 56.6089C43.4428 55.8148 42.9283 54.6574 43.0057 53.4261C43.0191 53.2141 43.1512 53.0279 43.347 52.9455C43.5425 52.8631 43.7682 52.8984 43.9291 53.0374C49.3296 57.6896 55.4638 59.1243 62.1637 57.3012C62.212 57.288 62.2613 57.2816 62.3103 57.2816Z" fill="#000072"/>
<path d="M62.3102 58.4006C62.0634 58.4006 61.8375 58.236 61.7705 57.9864C61.6901 57.688 61.8669 57.3811 62.1653 57.3009C62.8601 57.114 63.5626 56.8897 64.2533 56.634C64.5431 56.5269 64.8649 56.6747 64.9721 56.9644C65.0792 57.2541 64.9313 57.576 64.6416 57.6832C63.9189 57.9507 63.1836 58.1855 62.4558 58.3813C62.4072 58.3943 62.3583 58.4006 62.3102 58.4006Z" fill="#000072"/>
<g opacity="0.3">
<path d="M65.1932 66.3883C62.4896 64.8966 62.3106 57.841 62.3106 57.841C55.9113 59.5825 49.4356 58.5197 43.564 53.461C43.439 55.4487 45.1041 57.2928 45.1041 57.2928C44.349 57.2704 43.6721 57.1604 43.0643 56.9777C40.0026 51.9321 41.306 50.7424 45.7083 52.2938C57.9251 56.2355 66.8191 56.8527 65.0534 46.8101C69.2487 52.1708 68.7266 61.4993 65.1932 66.3883Z" fill="#000072"/>
</g>
<g opacity="0.2">
<path d="M62.0916 51.4721C62.0916 52.3194 60.4326 53.0064 58.3861 53.0064C56.3396 53.0064 54.6805 52.3194 54.6805 51.4721C54.6805 50.6247 56.3396 50.6028 58.3861 50.6028C60.4326 50.6027 62.0916 50.6247 62.0916 51.4721Z" fill="#FEFEFE"/>
</g>
<path d="M51.9955 76.3124C51.9955 76.3124 51.1931 76.8249 49.1022 76.8249C48.6486 76.8562 47.3505 76.7849 45.71 75.2871C45.71 75.2871 46.4678 77.4715 49.0533 77.4715C49.0533 77.4715 50.5244 77.6052 51.9955 76.3124Z" fill="#000072"/>
<path d="M40.1235 66.6052C40.2992 66.0346 40.7195 65.5599 41.2374 65.237C41.758 64.9144 42.3819 64.7493 43.0006 64.7558C43.6199 64.7601 44.235 64.9376 44.7498 65.2584C45.2625 65.5802 45.6832 66.0416 45.8797 66.6052C45.317 66.4119 44.8377 66.2574 44.3646 66.158C43.8947 66.0565 43.4417 66.0063 42.9892 66C42.5367 65.9954 42.0851 66.0354 41.6194 66.1344C41.1506 66.2312 40.677 66.3894 40.1235 66.6052Z" fill="#000072"/>
<path d="M60.1712 66.6052C59.6177 66.3894 59.1442 66.2312 58.6753 66.1344C58.2096 66.0354 57.7581 65.9954 57.3056 66C56.8531 66.0063 56.4 66.0565 55.9301 66.158C55.457 66.2574 54.9777 66.4119 54.415 66.6052C54.6115 66.0416 55.0322 65.5802 55.5449 65.2584C56.0598 64.9377 56.6749 64.7601 57.2942 64.7558C57.9128 64.7493 58.5367 64.9144 59.0574 65.237C59.5753 65.5599 59.9955 66.0346 60.1712 66.6052Z" fill="#000072"/>
<path d="M43.5641 72.549C44.6261 72.549 45.487 71.4133 45.487 70.0123C45.487 68.6113 44.6261 67.4756 43.5641 67.4756C42.502 67.4756 41.6411 68.6113 41.6411 70.0123C41.6411 71.4133 42.502 72.549 43.5641 72.549Z" fill="#000072"/>
<path d="M44.0555 70.2759C44.3763 70.2759 44.6365 69.8945 44.6365 69.4241C44.6365 68.9536 44.3763 68.5723 44.0555 68.5723C43.7346 68.5723 43.4745 68.9536 43.4745 69.4241C43.4745 69.8945 43.7346 70.2759 44.0555 70.2759Z" fill="white"/>
<path d="M44.0553 70.3922C43.6642 70.3922 43.358 69.9669 43.358 69.4241C43.358 68.8813 43.6642 68.4561 44.0553 68.4561C44.4462 68.4561 44.7523 68.8813 44.7523 69.4241C44.7523 69.9669 44.4462 70.3922 44.0553 70.3922ZM44.0553 68.6885C43.8033 68.6885 43.5903 69.0253 43.5903 69.424C43.5903 69.8228 43.8033 70.1597 44.0553 70.1597C44.3072 70.1597 44.52 69.8228 44.52 69.424C44.52 69.0253 44.3072 68.6885 44.0553 68.6885Z" fill="#000072"/>
<path d="M56.86 72.549C57.922 72.549 58.7829 71.4133 58.7829 70.0123C58.7829 68.6113 57.922 67.4756 56.86 67.4756C55.798 67.4756 54.937 68.6113 54.937 70.0123C54.937 71.4133 55.798 72.549 56.86 72.549Z" fill="#000072"/>
<path d="M56.3685 70.2759C56.6893 70.2759 56.9495 69.8945 56.9495 69.4241C56.9495 68.9536 56.6893 68.5723 56.3685 68.5723C56.0476 68.5723 55.7875 68.9536 55.7875 69.4241C55.7875 69.8945 56.0476 70.2759 56.3685 70.2759Z" fill="white"/>
<path d="M56.3688 70.3922C55.9777 70.3922 55.6715 69.9669 55.6715 69.4241C55.6715 68.8813 55.9777 68.4561 56.3688 68.4561C56.7596 68.4561 57.0658 68.8813 57.0658 69.4241C57.0658 69.9669 56.7596 70.3922 56.3688 70.3922ZM56.3688 68.6885C56.1168 68.6885 55.9038 69.0253 55.9038 69.424C55.9038 69.8228 56.1168 70.1597 56.3688 70.1597C56.6207 70.1597 56.8335 69.8228 56.8335 69.424C56.8335 69.0253 56.6207 68.6885 56.3688 68.6885Z" fill="#000072"/>
<path opacity="0.5" d="M72.8749 116.526L28.2045 116.527L12.9009 59.2239L88.0295 59.8786L72.8749 116.526Z" fill="url(#paint0_linear_14_1464)"/>
<path d="M78.1161 115.144C77.8179 116.619 77.02 117.888 75.9198 118.788C74.8196 119.687 73.4172 120.218 71.9118 120.218H29.1669C26.1563 120.218 23.5611 118.095 22.9626 115.144H78.1161Z" fill="#C6D3E3"/>
<path d="M71.9116 120.334H29.1668C26.1129 120.334 23.4556 118.161 22.8486 115.168L22.8203 115.028H78.2581L78.2298 115.168C77.9361 116.62 77.1417 117.938 75.9933 118.878C74.8441 119.817 73.3946 120.334 71.9116 120.334ZM23.1062 115.261C23.7444 118.074 26.2705 120.101 29.1668 120.101H71.9116C73.341 120.101 74.7385 119.603 75.8463 118.699C76.9164 117.822 77.6676 116.606 77.9723 115.261H23.1062Z" fill="#000072"/>
<path d="M71.9124 120.915H29.1671C25.8377 120.915 22.9414 118.547 22.2802 115.284C22.2385 115.079 22.2913 114.866 22.4237 114.704C22.5562 114.542 22.7541 114.448 22.9634 114.448H78.1164C78.3257 114.448 78.5236 114.542 78.6561 114.704C78.7886 114.866 78.8413 115.079 78.7996 115.284C78.1382 118.547 75.2417 120.915 71.9124 120.915ZM23.8848 115.842C24.6916 118.017 26.7919 119.521 29.1672 119.521H71.9125C74.2875 119.521 76.3878 118.017 77.1951 115.842H23.8848Z" fill="#000072"/>
<g opacity="0.3">
<path d="M78.116 115.145C77.8178 116.619 77.0199 117.888 75.9197 118.789C74.8195 119.687 73.417 120.218 71.9117 120.218H45.4722C49.8174 120.012 53.6691 118.813 56.984 116.526C56.984 116.526 57.2123 115.969 57.7182 115.145L78.116 115.145Z" fill="#000072"/>
</g>
<path d="M78.0996 88.3407L75.8684 113.783C75.7327 115.335 74.433 116.526 72.8742 116.526H28.2045C26.6478 116.526 25.3481 115.335 25.2103 113.783L22.9811 88.3407C22.7611 85.8421 24.7312 83.6912 27.238 83.6912H73.8407C74.6612 83.6912 75.4242 83.9215 76.0719 84.3183C77.4045 85.1368 78.2477 86.6606 78.0996 88.3407Z" fill="#C6D3E3"/>
<path d="M72.874 116.643H28.2044C26.5756 116.643 25.2385 115.418 25.0945 113.793L22.8653 88.3512C22.7575 87.1279 23.1717 85.9067 24.0014 85.0005C24.8308 84.0948 26.0106 83.5752 27.2379 83.5752H73.8405C74.6518 83.5752 75.4443 83.798 76.1325 84.2196C77.5644 85.0991 78.3623 86.6823 78.2152 88.3513V88.3512L75.9839 113.793C75.8421 115.418 74.5051 116.643 72.874 116.643ZM27.2379 83.8076C26.0755 83.8076 24.9583 84.2996 24.1727 85.1575C23.3868 86.0156 22.9947 87.1723 23.0968 88.3309L25.326 113.773C25.4593 115.276 26.6968 116.41 28.2045 116.41H72.8741C74.3838 116.41 75.6212 115.276 75.7526 113.773L77.9838 88.3308C78.1232 86.7502 77.3673 85.2507 76.011 84.4177C75.3596 84.0186 74.609 83.8077 73.8406 83.8077L27.2379 83.8076Z" fill="#000072"/>
<g opacity="0.75">
<path d="M77.3879 85.5792C76.8429 85.3242 76.2342 85.1823 75.5885 85.1823H28.9857C26.4789 85.1823 24.5088 87.3334 24.7289 89.8319L26.958 115.274C26.993 115.671 27.104 116.043 27.2768 116.378C26.1581 116.016 25.3191 115.013 25.2101 113.783L22.9809 88.341C22.7609 85.8424 24.7309 83.6914 27.2377 83.6914H73.8405C75.3252 83.6914 76.6229 84.4461 77.3879 85.5792Z" fill="white"/>
</g>
<path d="M72.8748 117.223H28.2048C26.2711 117.223 24.6854 115.77 24.5163 113.844L22.2854 88.4011C22.1641 87.016 22.633 85.6334 23.5723 84.6081C24.5117 83.5829 25.848 82.9949 27.2385 82.9949H73.8411C75.2316 82.9949 76.5679 83.5829 77.5073 84.6081C78.4466 85.6335 78.9155 87.016 78.7942 88.4011L76.5633 113.844C76.3944 115.77 74.8087 117.223 72.8748 117.223ZM27.2385 84.3891C26.2232 84.3891 25.2863 84.8015 24.6004 85.5501C23.9147 86.2987 23.5857 87.2679 23.6745 88.2794L25.9053 113.722C26.0108 114.923 26.9993 115.829 28.2048 115.829H72.8748C74.0805 115.829 75.069 114.923 75.1743 113.722L77.4051 88.2794C77.4938 87.268 77.1649 86.2987 76.4792 85.5501C75.7933 84.8015 74.8565 84.3891 73.8411 84.3891H27.2385Z" fill="#000072"/>
<g opacity="0.3">
<path d="M78.0995 88.3411L75.8683 113.783C75.7325 115.336 74.4329 116.526 72.8741 116.526H32.5804C57.3748 114.575 72.7158 104.558 76.0636 84.3167L76.0719 84.3187C77.4044 85.1372 78.2475 86.661 78.0995 88.3411Z" fill="#000072"/>
</g>
<g opacity="0.3">
<path d="M34.2232 105.047L31.425 105.309C30.6994 105.377 30.0562 104.843 29.9882 104.118L29.027 93.8463C28.959 93.1208 29.4922 92.4775 30.2178 92.4096L33.016 92.1477C33.7416 92.0798 34.3849 92.6129 34.4528 93.3385L35.4141 103.61C35.482 104.336 34.9488 104.979 34.2232 105.047Z" fill="white"/>
</g>
<path fill-rule="evenodd" clip-rule="evenodd" d="M54.4053 105.734L53.894 106.144L53.8328 107.441C53.8164 107.79 53.5046 108.063 53.1366 108.053L53.1336 108.053C52.7658 108.044 52.4768 107.755 52.488 107.406L52.5055 106.858C52.509 106.751 52.4204 106.661 52.3078 106.659C52.1951 106.656 52.1014 106.74 52.0985 106.848L52.0833 107.396C52.0737 107.745 51.7683 108.018 51.4013 108.008C51.0345 107.998 50.7408 107.71 50.7451 107.362L50.7509 106.903C50.7529 106.747 50.6211 106.616 50.4566 106.612C50.2922 106.608 50.1581 106.732 50.1572 106.888L50.1545 107.347C50.1525 107.695 49.854 107.968 49.4881 107.958C49.1223 107.949 48.8235 107.661 48.8203 107.312L48.8154 106.765C48.8145 106.658 48.7228 106.569 48.6108 106.566C48.4988 106.563 48.4092 106.648 48.4106 106.755L48.4181 107.302C48.4228 107.65 48.1305 107.923 47.7656 107.913L47.7626 107.913C47.3979 107.903 47.0943 107.616 47.0844 107.268L47.0477 105.975L46.5498 105.543C45.2569 104.42 44.4489 102.798 44.3534 101.067C44.1564 97.4961 46.931 94.4324 50.5685 94.4896C54.2266 94.547 56.9866 97.7286 56.7189 101.325C56.5893 103.068 55.7371 104.666 54.4053 105.734Z" fill="white"/>
<path d="M50.4685 94.4886C50.5018 94.4886 50.5351 94.4889 50.5685 94.4894C54.2265 94.5468 56.9866 97.7285 56.7189 101.325C56.5892 103.067 55.7369 104.666 54.4052 105.734L53.894 106.144L53.8327 107.441C53.8166 107.784 53.5153 108.053 53.1553 108.053C53.1491 108.053 53.1428 108.053 53.1365 108.053L53.1336 108.053C52.7657 108.044 52.4768 107.755 52.4881 107.406L52.5056 106.858C52.509 106.751 52.4205 106.661 52.3079 106.658H52.3077C52.3058 106.658 52.3041 106.658 52.3022 106.658C52.1922 106.658 52.1013 106.742 52.0984 106.847L52.0833 107.396C52.0739 107.739 51.7789 108.008 51.4202 108.008C51.4139 108.008 51.4076 108.008 51.4014 108.008C51.0345 107.998 50.7408 107.71 50.7451 107.362L50.751 106.903C50.7529 106.747 50.6211 106.616 50.4566 106.612C50.4539 106.612 50.4512 106.612 50.4485 106.612C50.2878 106.612 50.1582 106.734 50.1574 106.888L50.1547 107.347C50.1526 107.689 49.8643 107.958 49.5071 107.958C49.5008 107.958 49.4945 107.958 49.4882 107.958C49.1224 107.948 48.8236 107.66 48.8205 107.312L48.8155 106.765C48.8144 106.658 48.723 106.568 48.6108 106.566C48.6092 106.566 48.6073 106.566 48.6056 106.566C48.4962 106.566 48.4093 106.649 48.4108 106.754L48.4181 107.302C48.4229 107.644 48.1405 107.913 47.7843 107.913C47.778 107.913 47.7719 107.913 47.7656 107.913L47.7627 107.913C47.3978 107.903 47.0944 107.616 47.0845 107.268L47.0477 105.975L46.5499 105.543C45.2569 104.42 44.449 102.798 44.3534 101.067C44.1583 97.529 46.8803 94.4888 50.4685 94.4886ZM50.4685 93.3618C48.4659 93.3619 46.6076 94.1604 45.2357 95.6101C43.8475 97.0771 43.1158 99.0886 43.2284 101.129C43.3397 103.146 44.2811 105.065 45.811 106.393L45.9355 106.501L45.9583 107.3C45.9851 108.25 46.7647 109.014 47.7334 109.039C47.7524 109.04 47.7683 109.04 47.7842 109.04C48.073 109.04 48.3498 108.973 48.5972 108.847C48.851 108.991 49.1444 109.076 49.4589 109.084C49.4748 109.085 49.4909 109.085 49.507 109.085C49.8403 109.085 50.153 108.994 50.4202 108.835C50.6939 109.016 51.0206 109.125 51.3719 109.134C51.388 109.135 51.4041 109.135 51.4202 109.135C51.7186 109.135 51.999 109.065 52.2455 108.941C52.5031 109.089 52.7963 109.171 53.1045 109.179C53.1232 109.18 53.1393 109.18 53.1554 109.18C54.1222 109.18 54.914 108.439 54.9583 107.493L54.9956 106.705L55.1107 106.612C56.6951 105.342 57.691 103.445 57.8427 101.409C57.9965 99.3423 57.2848 97.2823 55.8903 95.7563C54.5091 94.2448 52.6253 93.3947 50.5864 93.3627C50.5468 93.3622 50.5079 93.3618 50.4685 93.3618Z" fill="#000072"/>
<path fill-rule="evenodd" clip-rule="evenodd" d="M48.1063 99.5935C47.1388 99.5886 46.394 100.38 46.4416 101.348C46.4882 102.295 47.2844 103.057 48.2211 103.064C49.1591 103.07 49.9079 102.318 49.8918 101.369C49.8754 100.399 49.0751 99.5985 48.1063 99.5935Z" fill="#000072"/>
<path fill-rule="evenodd" clip-rule="evenodd" d="M52.9356 99.5445C51.9604 99.5395 51.1665 100.333 51.162 101.305C51.1576 102.255 51.919 103.02 52.8629 103.027C53.8082 103.034 54.604 102.279 54.6394 101.327C54.6756 100.353 53.9122 99.5494 52.9356 99.5445Z" fill="#000072"/>
<defs>
<linearGradient id="paint0_linear_14_1464" x1="50.4657" y1="59.4847" x2="50.0684" y2="116.678" gradientUnits="userSpaceOnUse">
<stop stop-color="#40E6FF"/>
<stop offset="1" stop-color="#40E6FF"/>
</linearGradient>
</defs>
</svg>
