<svg width="166" height="124" viewBox="0 0 166 124" fill="none" xmlns="http://www.w3.org/2000/svg">
<g opacity="0.44">
<path d="M165.674 94.9104H0.325928V95.3348H165.674V94.9104Z" fill="#006FE6"/>
<path d="M69.1025 95.1225H68.678V67.5565H1.20776V67.1321H69.1025V95.1225Z" fill="#006FE6"/>
<path d="M64.6936 95.1225H64.2691V69.9816H0.766602V69.5571H64.6936V95.1225Z" fill="#006FE6"/>
<path d="M16.4118 69.99H15.9873V95.3434H16.4118V69.99Z" fill="#006FE6"/>
<path d="M11.5695 84.7526C10.6018 84.7526 9.81396 83.9652 9.81396 82.997C9.81396 82.0293 10.6014 81.2415 11.5695 81.2415C12.5377 81.2415 13.3251 82.0289 13.3251 82.997C13.3251 83.9652 12.5377 84.7526 11.5695 84.7526ZM11.5695 81.6663C10.8358 81.6663 10.2384 82.2633 10.2384 82.9974C10.2384 83.7316 10.8354 84.3286 11.5695 84.3286C12.3037 84.3286 12.9007 83.7316 12.9007 82.9974C12.9007 82.2633 12.3037 81.6663 11.5695 81.6663Z" fill="#006FE6"/>
<path d="M19.4655 84.7526C18.4978 84.7526 17.71 83.9652 17.71 82.997C17.71 82.0293 18.4974 81.2415 19.4655 81.2415C20.4333 81.2415 21.2211 82.0289 21.2211 82.997C21.2211 83.9652 20.4337 84.7526 19.4655 84.7526ZM19.4655 81.6663C18.7318 81.6663 18.1344 82.2633 18.1344 82.9974C18.1344 83.7316 18.7314 84.3286 19.4655 84.3286C20.1997 84.3286 20.7967 83.7316 20.7967 82.9974C20.7967 82.2633 20.1997 81.6663 19.4655 81.6663Z" fill="#006FE6"/>
</g>
<path d="M24.4312 49.8815C25.8519 49.8815 27.0036 48.7298 27.0036 47.3091C27.0036 45.8885 25.8519 44.7368 24.4312 44.7368C23.0106 44.7368 21.8589 45.8885 21.8589 47.3091C21.8589 48.7298 23.0106 49.8815 24.4312 49.8815Z" fill="#AFD2F6"/>
<path d="M127.075 5.37718C127.075 6.79784 125.924 7.94992 124.503 7.94992C123.082 7.94992 121.93 6.79825 121.93 5.37718C121.93 3.95652 123.082 2.80444 124.503 2.80444C125.924 2.80444 127.075 3.95652 127.075 5.37718Z" fill="#AFD2F6"/>
<path d="M18.5145 45.7661C19.367 45.7661 20.0581 45.075 20.0581 44.2225C20.0581 43.37 19.367 42.679 18.5145 42.679C17.662 42.679 16.9709 43.37 16.9709 44.2225C16.9709 45.075 17.662 45.7661 18.5145 45.7661Z" fill="#AFD2F6"/>
<path d="M129.905 10.0078C130.758 10.0078 131.449 9.3167 131.449 8.46422C131.449 7.61173 130.758 6.92065 129.905 6.92065C129.053 6.92065 128.362 7.61173 128.362 8.46422C128.362 9.3167 129.053 10.0078 129.905 10.0078Z" fill="#AFD2F6"/>
<path d="M13.5803 47.8239C13.5803 48.3667 13.1404 48.8066 12.5975 48.8066C12.0547 48.8066 11.6147 48.3667 11.6147 47.8239C11.6147 47.281 12.0547 46.8411 12.5975 46.8411C13.1404 46.8411 13.5803 47.281 13.5803 47.8239Z" fill="#AFD2F6"/>
<path d="M129.905 4.55908C130.448 4.55908 130.888 4.11907 130.888 3.57629C130.888 3.03351 130.448 2.59351 129.905 2.59351C129.363 2.59351 128.923 3.03351 128.923 3.57629C128.923 4.11907 129.363 4.55908 129.905 4.55908Z" fill="#AFD2F6"/>
<path d="M36.9747 48.0922C36.9747 48.0922 29.9137 40.6393 37.1997 32.4788C37.1997 32.4788 44.0357 40.6812 36.9747 48.0922Z" fill="#37AA40"/>
<path opacity="0.15" d="M36.9747 48.0922C36.9747 48.0922 29.9137 40.6393 37.1997 32.4788C37.1997 32.4788 44.0357 40.6812 36.9747 48.0922Z" fill="#160833"/>
<path d="M36.9747 48.2955C36.9735 48.2955 36.9719 48.2955 36.9707 48.2955C36.8584 48.2931 36.7692 48.2003 36.7713 48.088L36.9963 36.8464C36.9983 36.7341 37.0952 36.6559 37.2039 36.647C37.3162 36.6494 37.4053 36.7422 37.4033 36.8545L37.1782 48.0961C37.1758 48.2072 37.085 48.2955 36.9747 48.2955Z" fill="#160833"/>
<path d="M39.0981 50.1547C39.0981 50.1547 34.526 40.9625 43.8806 35.29C43.8806 35.29 48.0185 45.1333 39.0981 50.1547Z" fill="#37AA40"/>
<path d="M39.0388 50.3491C39.0376 50.3487 39.036 50.3483 39.0348 50.3479C38.9281 50.3129 38.87 50.1982 38.905 50.0911L42.4084 39.4071C42.4434 39.3 42.5586 39.2536 42.6652 39.2768C42.7718 39.3118 42.83 39.4266 42.795 39.5336L39.2916 50.2177C39.2574 50.3235 39.1446 50.3813 39.0388 50.3491Z" fill="#160833"/>
<path d="M36.0693 50.777C36.0693 50.777 26.7286 46.5158 30.4229 36.2188C30.4229 36.2188 39.8361 41.2588 36.0693 50.777Z" fill="#37AA40"/>
<path d="M36.1457 50.9657C36.1445 50.9662 36.1433 50.967 36.142 50.9674C36.0371 51.0073 35.9195 50.9548 35.8796 50.8498L31.8727 40.3443C31.8324 40.2394 31.8931 40.1307 31.9903 40.0815C32.0953 40.0416 32.2129 40.0941 32.2528 40.1991L36.2597 50.7045C36.2991 50.8083 36.2479 50.9242 36.1457 50.9657Z" fill="#160833"/>
<path d="M115.054 61.4948L125.961 60.2035L125.171 51.914L113.647 52.5106L113.138 49.2631H110.465L110.995 52.6477L106.337 52.8886L107.143 49.2627H104.43L103.593 53.0306L22.2407 57.2426L22.504 64.3479L30.0155 66.0563L19.1861 114.817C19.0107 115.607 19.4417 116.415 20.1441 116.612C20.8465 116.809 21.5647 116.324 21.7401 115.535L25.6098 98.1113L45.294 105.924L47.8297 122.11C47.9554 122.912 48.6416 123.452 49.3545 123.311C50.0675 123.17 50.5481 122.398 50.4224 121.596L42.1535 68.8175L45.9333 69.6773L101.353 63.1169L91.843 105.936C91.6676 106.726 92.0985 107.534 92.8009 107.731C93.5033 107.928 94.2216 107.443 94.397 106.653L98.2667 89.2301L117.951 97.0431L120.487 113.229C120.612 114.03 121.298 114.571 122.011 114.43C122.724 114.288 123.205 113.517 123.079 112.715L115.054 61.4948ZM44.677 101.991L26.2267 95.3307L32.598 66.6443L39.381 68.1871L44.677 101.991ZM98.884 86.449L104.139 62.7869L112.43 61.8053L117.334 93.1091L98.884 86.449Z" fill="#006FE6"/>
<path d="M129.505 52.0428L46.1038 62.0762L19.7583 57.5301L109.492 48.6533L129.505 52.0428Z" fill="white"/>
<g opacity="0.31">
<path d="M87.2118 57.5391H86.7874V64.644H87.2118V57.5391Z" fill="white"/>
</g>
<path d="M19.7583 57.5303V58.9827L46.2263 63.5019L129.343 53.3338L129.505 52.043L46.1038 62.0763L19.7583 57.5303Z" fill="#C6C3C3"/>
<g opacity="0.31">
<path d="M45.893 62.0748L45.7151 69.6755L46.1394 69.6855L46.3173 62.0847L45.893 62.0748Z" fill="white"/>
</g>
<g opacity="0.31">
<path d="M68.9605 64.8224C68.3908 64.8224 67.9272 64.3588 67.9272 63.7891C67.9272 63.2194 68.3908 62.7559 68.9605 62.7559C69.5302 62.7559 69.9937 63.2194 69.9937 63.7891C69.9937 64.3588 69.5302 64.8224 68.9605 64.8224ZM68.9605 63.1803C68.6248 63.1803 68.3517 63.4534 68.3517 63.7891C68.3517 64.1248 68.6248 64.3979 68.9605 64.3979C69.2962 64.3979 69.5693 64.1248 69.5693 63.7891C69.5693 63.4534 69.2962 63.1803 68.9605 63.1803Z" fill="white"/>
</g>
<g opacity="0.31">
<path d="M103.497 60.2957C102.927 60.2957 102.464 59.8322 102.464 59.2625C102.464 58.6928 102.927 58.2292 103.497 58.2292C104.067 58.2292 104.53 58.6928 104.53 59.2625C104.531 59.8318 104.067 60.2957 103.497 60.2957ZM103.497 58.6533C103.161 58.6533 102.888 58.9264 102.888 59.2621C102.888 59.5978 103.161 59.8709 103.497 59.8709C103.833 59.8709 104.106 59.5978 104.106 59.2621C104.106 58.9268 103.833 58.6533 103.497 58.6533Z" fill="white"/>
</g>
<path opacity="0.24" d="M22.4312 59.4331L45.9024 63.7919V69.4921L22.4312 64.1273V59.4331Z" fill="#160833"/>
<path d="M81.5711 40.8037C81.5711 40.8037 80.9257 49.6256 86.0903 49.0103C86.0903 49.0103 87.3815 49.8311 87.0584 50.8566C86.7357 51.8825 69.951 53.3186 69.951 53.3186C69.951 53.3186 66.7231 54.9599 68.0144 42.4449L81.5711 40.8037Z" fill="white"/>
<path opacity="0.32" d="M81.9589 45.4006C81.3977 43.195 81.5711 40.8037 81.5711 40.8037L68.0144 42.4449C67.8296 44.2371 67.7397 45.7307 67.7173 46.9885C72.481 46.6084 77.2257 46.053 81.9589 45.4006Z" fill="#C6C3C3"/>
<path d="M52.1918 6.36549C52.1918 6.36549 46.2263 5.88489 46.8721 12.3403C47.5176 18.7962 49.9385 41.2293 49.9385 41.2293C49.9385 41.2293 50.1001 47.362 60.1062 45.4254L52.1918 6.36549Z" fill="#C6C3C3"/>
<path d="M51.196 40.4025C51.2705 41.0747 51.4495 41.7084 51.7035 42.2911C59.805 42.9345 68.0014 41.9916 76.0562 41.1968C83.7378 40.4387 91.4132 39.5882 99.0232 38.2981C99.0989 37.7544 99.107 37.1802 99.0273 36.5893L95.5088 10.4221C95.1368 7.6552 92.9946 5.43895 90.7308 5.49063L52.1918 6.36558C49.5816 6.42499 47.7015 8.92692 48.0352 11.9335L51.196 40.4025Z" fill="#160833"/>
<path d="M50.8362 37.1607L51.1959 40.4025C51.5402 43.5031 54.001 45.852 56.6417 45.6164L95.584 42.1398C97.8686 41.9359 99.4097 39.4356 99.0272 36.5894L98.6268 33.6125L50.8362 37.1607Z" fill="white"/>
<path d="M76.2953 41.2918C77.0512 41.2918 77.6639 40.6791 77.6639 39.9233C77.6639 39.1674 77.0512 38.5547 76.2953 38.5547C75.5395 38.5547 74.9268 39.1674 74.9268 39.9233C74.9268 40.6791 75.5395 41.2918 76.2953 41.2918Z" fill="#AFD2F6"/>
<path d="M72.19 7.46366C72.19 7.64516 72.0431 7.79207 71.8616 7.79207C71.6801 7.79207 71.5332 7.64516 71.5332 7.46366C71.5332 7.28216 71.6801 7.13525 71.8616 7.13525C72.0431 7.13525 72.19 7.28216 72.19 7.46366Z" fill="white"/>
<path d="M81.5476 19.3547C81.2282 15.0012 77.4399 11.7309 73.0859 12.0504C68.7323 12.3698 65.4621 16.1581 65.7816 20.5121C65.9574 22.9082 67.1855 24.9747 68.979 26.2965C68.9143 26.5659 68.8886 26.8491 68.9098 27.1392L69.0306 28.7866C69.1421 30.3041 70.4749 31.455 71.9928 31.3435L76.9845 30.9772C78.502 30.8657 79.6529 29.5329 79.5413 28.0154L79.4205 26.3681C79.3993 26.0779 79.3326 25.8012 79.2292 25.544C80.8106 23.974 81.7234 21.7508 81.5476 19.3547Z" fill="#FF4270"/>
<path d="M72.9849 21.6641L68.4662 18.9937C68.4662 18.9937 68.211 23.6956 70.6433 24.1176C73.0757 24.5396 72.9849 21.6641 72.9849 21.6641Z" fill="#160833"/>
<path d="M74.9487 21.5201L79.0292 18.2185C79.0292 18.2185 79.9685 22.8329 77.6236 23.6053C75.2788 24.3777 74.9487 21.5201 74.9487 21.5201Z" fill="#160833"/>
<path d="M73.8155 25.3857L73.7809 25.3881C73.5604 25.4044 73.3671 25.2371 73.3508 25.0166L73.2779 24.0265C73.2617 23.8059 73.4289 23.6126 73.6495 23.5963L73.6841 23.5939C73.9047 23.5776 74.098 23.7448 74.1142 23.9654L74.1871 24.9555C74.2034 25.1761 74.0361 25.3694 73.8155 25.3857Z" fill="#160833"/>
<path d="M74.7202 25.4394L74.6856 25.4418C74.465 25.4581 74.2717 25.2908 74.2554 25.0703L74.183 24.0802C74.1667 23.8596 74.334 23.6663 74.5541 23.65L74.5887 23.6476C74.8093 23.6313 75.0026 23.7986 75.0189 24.0191L75.0917 25.0092C75.108 25.2298 74.9407 25.4231 74.7202 25.4394Z" fill="#160833"/>
<path d="M69.031 28.7865L79.5417 28.0149" stroke="#160833" stroke-miterlimit="10"/>
<path d="M70.6497 27.4795L70.8865 30.7042" stroke="#160833" stroke-miterlimit="10"/>
<path d="M72.322 27.3564L72.5585 30.5815" stroke="#160833" stroke-miterlimit="10"/>
<path d="M73.9941 27.2339L74.2306 30.4586" stroke="#160833" stroke-miterlimit="10"/>
<path d="M75.6663 27.1111L75.9027 30.3358" stroke="#160833" stroke-miterlimit="10"/>
<path d="M77.3384 26.9883L77.5748 30.2134" stroke="#160833" stroke-miterlimit="10"/>
<path d="M76.6006 13.715L75.6453 13.7852L75.7154 14.7405L76.6708 14.6704L76.6006 13.715Z" fill="#160833"/>
<path d="M68.9534 15.8337L67.998 15.9038L68.0682 16.8592L69.0235 16.7891L68.9534 15.8337Z" fill="#160833"/>
<path d="M69.1133 13.5048L68.158 13.575L68.2281 14.5303L69.1835 14.4602L69.1133 13.5048Z" fill="#160833"/>
<path d="M69.8243 14.4748L68.8689 14.5449L68.939 15.5003L69.8944 15.4302L69.8243 14.4748Z" fill="#160833"/>
<path d="M67.1736 23.2009L66.2183 23.271L66.2884 24.2264L67.2438 24.1562L67.1736 23.2009Z" fill="#160833"/>
<path d="M67.9517 24.3608L66.9963 24.4309L67.0665 25.3863L68.0218 25.3162L67.9517 24.3608Z" fill="#160833"/>
<path d="M66.9388 16.225L65.9834 16.2952L66.0535 17.2505L67.0089 17.1804L66.9388 16.225Z" fill="#160833"/>
<path d="M77.8675 14.579L76.9121 14.6492L76.9822 15.6045L77.9376 15.5344L77.8675 14.579Z" fill="#160833"/>
<path d="M76.5023 15.6437L75.5469 15.7139L75.617 16.6692L76.5724 16.5991L76.5023 15.6437Z" fill="#160833"/>
<path d="M78.4483 15.9811L77.4929 16.0513L77.563 17.0066L78.5184 16.9365L78.4483 15.9811Z" fill="#160833"/>
<path d="M79.5889 13.4916L78.6335 13.5618L78.7037 14.5171L79.659 14.447L79.5889 13.4916Z" fill="#160833"/>
<path d="M80.5477 15.1027L79.5923 15.1729L79.6624 16.1282L80.6178 16.0581L80.5477 15.1027Z" fill="#160833"/>
<path d="M79.4927 25.2665L78.5374 25.3367L78.6075 26.292L79.5629 26.2219L79.4927 25.2665Z" fill="#160833"/>
<path d="M80.5879 23.8698L79.6326 23.9399L79.7027 24.8953L80.6581 24.8252L80.5879 23.8698Z" fill="#160833"/>
<path d="M79.6873 11.5637L78.7319 11.6338L78.8021 12.5892L79.7574 12.519L79.6873 11.5637Z" fill="#FF4270"/>
<path d="M67.4556 13.4221L66.5002 13.4922L66.5704 14.4476L67.5257 14.3774L67.4556 13.4221Z" fill="#FF4270"/>
<path d="M64.6529 15.8315L63.6975 15.9016L63.7676 16.857L64.723 16.7869L64.6529 15.8315Z" fill="#FF4270"/>
<path d="M64.7171 25.4638L63.7617 25.5339L63.8318 26.4893L64.7872 26.4192L64.7171 25.4638Z" fill="#FF4270"/>
<path d="M62.9073 28.437L61.9519 28.5071L62.022 29.4624L62.9774 29.3923L62.9073 28.437Z" fill="#FF4270"/>
<path d="M65.7728 13.4291L64.8174 13.4993L64.8875 14.4546L65.8429 14.3845L65.7728 13.4291Z" fill="#FF4270"/>
<path d="M60.7117 12.79L59.7563 12.8601L59.8265 13.8155L60.7818 13.7454L60.7117 12.79Z" fill="#FF4270"/>
<path d="M61.4871 11.0449L60.5317 11.115L60.6019 12.0704L61.5572 12.0002L61.4871 11.0449Z" fill="#FF4270"/>
<path d="M66.4752 14.8183L65.5198 14.8884L65.5899 15.8438L66.5453 15.7737L66.4752 14.8183Z" fill="#FF4270"/>
<path d="M81.482 13.1125L80.5266 13.1826L80.5967 14.138L81.5521 14.0679L81.482 13.1125Z" fill="#FF4270"/>
<path d="M84.3711 26.3644L83.4158 26.4346L83.4859 27.3899L84.4413 27.3198L84.3711 26.3644Z" fill="#FF4270"/>
<path d="M81.0516 25.2766L80.0962 25.3467L80.1663 26.3021L81.1217 26.2319L81.0516 25.2766Z" fill="#FF4270"/>
<path d="M81.2205 11.2148L80.2651 11.2849L80.3353 12.2403L81.2906 12.1702L81.2205 11.2148Z" fill="#FF4270"/>
<path d="M77.9661 12.6501L77.0107 12.7202L77.0809 13.6756L78.0362 13.6055L77.9661 12.6501Z" fill="#160833"/>
<path d="M68.0123 14.4619L67.0569 14.532L67.127 15.4874L68.0824 15.4172L68.0123 14.4619Z" fill="#160833"/>
<path opacity="0.24" d="M53.1387 36.9202L85.9881 5.83453L88.4131 5.3938L57.3278 36.6997L53.1387 36.9202Z" fill="white"/>
<path opacity="0.24" d="M62.3984 36.259L89.9563 5.61444L90.7307 5.49072L65.7053 35.8179L62.3984 36.259Z" fill="white"/>
<path d="M67.1655 53.8698L92.0167 50.8042L99.1327 53.5413L74.5004 56.6065L67.1655 53.8698Z" fill="#AFD2F6"/>
<path d="M99.1326 53.5413L74.5003 56.6064L67.1655 53.8697L66.9465 55.5117L74.3909 57.3727L99.3516 54.5265L99.1326 53.5413Z" fill="#C6C3C3"/>
<path opacity="0.29" d="M91.5134 51.509L89.2682 51.8114L89.1583 51.7381L89.094 51.8346L71.1052 54.2559L75.2394 56.0933L96.9701 53.3277L91.5134 51.509ZM86.002 53.2874L82.6524 53.79L81.9069 53.2308L85.3961 52.7612L85.3395 52.8459L86.002 53.2874ZM85.8795 52.6961L89.1665 52.2538L89.8514 52.7104L86.6267 53.1942L85.8795 52.6961ZM82.0632 53.8783L78.6354 54.3927L77.8781 53.7733L81.3071 53.3118L82.0632 53.8783ZM78.0685 54.4777L75.7103 54.8314L74.6245 54.2112L77.3018 53.8506L78.0685 54.4777ZM78.5121 54.8403L78.9447 55.1944L76.8192 55.465L76.3056 55.1716L78.5121 54.8403ZM79.0786 54.7557L82.5401 54.2364L83.1107 54.6641L79.5246 55.1203L79.0786 54.7557ZM83.1294 54.1477L86.5278 53.6378L87.2725 54.1343L83.6861 54.5909L83.6983 54.5746L83.1294 54.1477ZM87.1525 53.5442L90.3772 53.0603L91.2322 53.6301L87.7942 54.0675L87.8386 54.0012L87.1525 53.5442ZM91.0018 52.9667L92.8449 52.6904L92.7993 52.3852L95.0701 53.1421L91.8747 53.5487L91.0018 52.9667ZM91.4731 51.9432L92.5568 52.3046L90.476 52.6168L89.8029 52.1683L91.4731 51.9432ZM74.0788 54.2844L74.0345 54.3626L75.0331 54.9331L74.0161 55.0857L72.6476 54.4773L74.0788 54.2844ZM74.7381 55.4064L75.6277 55.2729L76.1188 55.5537L75.3029 55.6575L74.7381 55.4064Z" fill="#006FE6"/>
<path d="M64.3593 57.6184C64.3645 57.5545 64.3727 57.4914 64.3727 57.4267C64.3727 55.7143 62.4653 54.3262 60.1123 54.3262C57.7886 54.3262 55.9032 55.6805 55.8564 57.3636C58.222 58.7888 62.0018 59.1013 64.3593 57.6184Z" fill="#C6C3C3"/>
<g opacity="0.53">
<path d="M60.966 58.2618C58.2024 58.2618 55.9781 57.2127 55.8491 57.1508C55.7437 57.1 55.6989 56.9734 55.7498 56.8676C55.8006 56.7618 55.9288 56.7174 56.033 56.7679C56.0757 56.7878 60.3446 58.7969 64.2945 57.229C64.4027 57.1858 64.5265 57.2387 64.57 57.3478C64.6131 57.4569 64.5598 57.5802 64.4512 57.6233C63.2698 58.0929 62.0742 58.2618 60.966 58.2618Z" fill="#006FE6"/>
</g>
<g opacity="0.53">
<path d="M57.6746 55.1179C57.5879 55.1179 57.5065 55.0645 57.4752 54.9787C57.4349 54.8688 57.4911 54.7471 57.6009 54.7064C57.7389 54.6556 58.963 54.2254 59.4937 54.7557C59.5767 54.8387 59.5767 54.973 59.4937 55.0556C59.4107 55.1386 59.2764 55.1386 59.1938 55.0556C58.937 54.7992 58.1711 54.9494 57.7479 55.1048C57.7234 55.1138 57.6986 55.1179 57.6746 55.1179Z" fill="#006FE6"/>
</g>
<path d="M32.0061 45.5977L33.8585 57.4985H41.3912L42.5026 45.5977H32.0061Z" fill="#C66B20"/>
<path d="M41.9699 51.3035L42.5026 45.5977H32.0061L32.8945 51.3035H41.9699Z" fill="#C66B20"/>
<path d="M43.116 49.6608L31.3929 49.498L30.4163 45.2649H44.093L43.116 49.6608Z" fill="#C66B20"/>
<path d="M109.324 103.911C109.324 103.911 108.336 105.229 105.809 105.229C103.283 105.229 98.9983 105.779 100.207 109.733L100.537 110.611C100.537 110.611 116.465 110.831 117.343 108.964C118.222 107.096 115.256 102.812 115.256 102.812C115.256 102.812 113.279 104.241 109.324 103.911Z" fill="#160833"/>
<path d="M106.577 106.979C106.477 106.979 106.388 106.907 106.369 106.805C106.122 105.446 107.006 105.05 107.043 105.034C107.15 104.988 107.275 105.037 107.322 105.145C107.368 105.253 107.319 105.376 107.213 105.423C107.184 105.436 106.603 105.718 106.786 106.729C106.807 106.844 106.731 106.955 106.616 106.976C106.603 106.978 106.59 106.979 106.577 106.979Z" fill="white"/>
<path d="M107.786 106.979C107.704 106.979 107.626 106.931 107.591 106.851C107.225 105.996 107.796 104.951 107.82 104.906C107.878 104.804 108.005 104.768 108.109 104.824C108.211 104.88 108.248 105.01 108.192 105.112C108.187 105.121 107.698 106.021 107.982 106.683C108.028 106.791 107.978 106.916 107.87 106.962C107.843 106.974 107.815 106.979 107.786 106.979Z" fill="white"/>
<path d="M109.214 106.65C109.144 106.65 109.075 106.614 109.034 106.55C108.448 105.612 108.666 104.365 108.676 104.312C108.697 104.197 108.807 104.122 108.923 104.141C109.038 104.163 109.115 104.273 109.094 104.388C109.092 104.399 108.896 105.528 109.394 106.325C109.456 106.424 109.426 106.555 109.327 106.617C109.292 106.639 109.253 106.65 109.214 106.65Z" fill="white"/>
<path d="M113.663 107.316C114.239 107.316 114.706 106.849 114.706 106.273C114.706 105.696 114.239 105.229 113.663 105.229C113.087 105.229 112.62 105.696 112.62 106.273C112.62 106.849 113.087 107.316 113.663 107.316Z" fill="white"/>
<path d="M100.207 109.733C100.207 109.733 115.805 109.403 117.453 108.305V109.513C117.453 109.513 109.324 111.71 100.536 110.612L100.207 109.733Z" fill="white"/>
<path d="M105.809 105.229C105.809 105.229 104.601 106.547 105.37 109.623L100.207 109.733C100.207 109.733 98.5588 106.547 102.294 105.449C102.294 105.449 104.821 104.899 105.809 105.229Z" fill="white"/>
<path d="M112.563 76.5313L115.596 103.595L108.13 104.528L98.5645 75.3649C98.5645 75.3649 109.763 72.5651 112.563 76.5313Z" fill="#160833"/>
<g opacity="0.25">
<path d="M107.299 77.2862L106.883 77.3699L112.192 103.765L112.608 103.681L107.299 77.2862Z" fill="#AFD2F6"/>
</g>
<path d="M123.495 114.427H123.169C122.349 114.427 121.677 113.756 121.677 112.935V81.6887C121.677 80.8679 122.348 80.196 123.169 80.196H123.495C124.315 80.196 124.987 80.8679 124.987 81.6887V112.935C124.987 113.756 124.315 114.427 123.495 114.427Z" fill="#160833"/>
<path d="M111.74 112.508L111.649 112.418C111.069 111.837 111.069 110.887 111.649 110.307L120.945 101.01C121.526 100.43 122.476 100.43 123.056 101.01L123.147 101.101C123.727 101.681 123.727 102.632 123.147 103.212L113.851 112.508C113.27 113.089 112.32 113.089 111.74 112.508Z" fill="#160833"/>
<path d="M135.447 111.323L135.361 111.418C134.813 112.029 133.864 112.08 133.253 111.531L123.472 102.747C122.861 102.199 122.81 101.251 123.358 100.64L123.444 100.544C123.993 99.9332 124.941 99.8823 125.552 100.431L135.334 109.215C135.945 109.763 135.996 110.712 135.447 111.323Z" fill="#160833"/>
<path d="M111.852 116.003C113.625 116.003 115.063 114.522 115.063 112.695C115.063 110.868 113.625 109.387 111.852 109.387C110.078 109.387 108.641 110.868 108.641 112.695C108.641 114.522 110.078 116.003 111.852 116.003Z" fill="#160833"/>
<path d="M123.723 119.505C125.496 119.505 126.933 118.024 126.933 116.197C126.933 114.37 125.496 112.889 123.723 112.889C121.949 112.889 120.512 114.37 120.512 116.197C120.512 118.024 121.949 119.505 123.723 119.505Z" fill="#160833"/>
<path d="M135.204 114.835C136.977 114.835 138.415 113.354 138.415 111.527C138.415 109.7 136.977 108.219 135.204 108.219C133.43 108.219 131.993 109.7 131.993 111.527C131.993 113.354 133.43 114.835 135.204 114.835Z" fill="#160833"/>
<path d="M121.971 85.6452C133.524 85.6452 142.89 82.6831 142.89 79.029C142.89 75.375 133.524 72.4128 121.971 72.4128C110.418 72.4128 101.052 75.375 101.052 79.029C101.052 82.6831 110.418 85.6452 121.971 85.6452Z" fill="#006FE6"/>
<path opacity="0.32" d="M138.003 80.6434L137.824 80.258C127.896 84.8516 114.771 82.6386 107.207 80.6849C107.167 80.6128 107.088 80.5665 107.003 80.5746C106.969 80.5774 106.939 80.5905 106.911 80.6076C105.337 80.1945 104.018 79.7973 103.04 79.4836C102.996 79.4286 102.928 79.3944 102.851 79.4018C102.839 79.403 102.83 79.4091 102.819 79.4123C101.77 79.0713 101.163 78.8442 101.127 78.8308L100.976 79.2272C101.011 79.241 101.626 79.4709 102.686 79.8148L102.922 81.828C102.935 81.9358 103.026 82.0152 103.132 82.0152C103.141 82.0152 103.149 82.0148 103.158 82.014C103.274 82.0001 103.357 81.8947 103.344 81.7784L103.13 79.9577C104.095 80.2633 105.35 80.636 106.829 81.0235L107.067 83.7769C107.076 83.8876 107.169 83.971 107.278 83.971C107.284 83.971 107.29 83.9706 107.296 83.9702C107.413 83.9604 107.499 83.8575 107.49 83.7407L107.265 81.1374C108.649 81.4914 110.214 81.8512 111.904 82.1772L112.15 85.0287C112.16 85.1394 112.253 85.2228 112.361 85.2228C112.367 85.2228 112.374 85.2224 112.38 85.222C112.497 85.2122 112.583 85.1092 112.573 84.9924L112.338 82.261C113.544 82.4864 114.812 82.692 116.123 82.8649C116.12 82.8836 116.116 82.9019 116.118 82.9215L116.374 85.3461C116.386 85.4551 116.478 85.5361 116.585 85.5361C116.592 85.5361 116.6 85.5357 116.608 85.5349C116.724 85.5227 116.809 85.4181 116.796 85.3017L116.544 82.9194C117.779 83.0745 119.05 83.1994 120.344 83.2816C120.344 83.2922 120.34 83.3024 120.341 83.313L120.598 85.7376C120.61 85.8466 120.702 85.9272 120.809 85.9272C120.816 85.9272 120.824 85.9268 120.831 85.926C120.948 85.9134 121.033 85.8092 121.02 85.6924L120.767 83.3056C121.749 83.3606 122.741 83.3927 123.739 83.3927C124.227 83.3927 124.716 83.3834 125.205 83.3683L125.448 85.659C125.459 85.7681 125.551 85.8487 125.658 85.8487C125.665 85.8487 125.673 85.8483 125.681 85.8474C125.797 85.8348 125.882 85.7306 125.87 85.6139L125.63 83.3545C127.033 83.2987 128.438 83.1754 129.829 82.9752L130.062 85.0348C130.075 85.143 130.166 85.2228 130.272 85.2228C130.28 85.2228 130.289 85.2224 130.297 85.2216C130.413 85.2081 130.497 85.1031 130.484 84.9867L130.249 82.9137C131.694 82.6879 133.122 82.3749 134.512 81.9582L134.754 84.251C134.766 84.36 134.858 84.441 134.964 84.441C134.972 84.441 134.98 84.4406 134.987 84.4398C135.104 84.4276 135.188 84.323 135.176 84.2066L134.924 81.8292C135.976 81.4947 137.006 81.1044 138.003 80.6434Z" fill="#160833"/>
<path d="M109.063 59.0332C109.063 59.0332 87.5992 65.0992 87.1324 69.0653C86.6656 73.0315 91.5287 110.118 91.5287 110.118C91.5287 110.118 96.0605 110.652 97.4604 109.019C97.4604 109.019 101.831 78.3979 101.364 76.998C100.897 75.5981 139.86 84.9303 137.293 65.7992L109.063 59.0332Z" fill="#160833"/>
<path d="M107.897 29.1698C107.897 29.1698 112.563 37.802 114.196 43.4017C115.829 49.0009 113.03 54.8337 111.863 56.2336C110.696 57.6335 107.663 59.0334 107.897 60.4333C108.13 61.8333 129.828 73.2653 137.294 65.7994C137.294 65.7994 144.76 38.5024 121.196 22.6375C121.196 22.6375 112.096 23.337 107.897 29.1698Z" fill="#160833"/>
<g opacity="0.25">
<path d="M94.2833 110.024C94.276 109.93 93.5516 100.56 93.1174 91.1867C92.2319 72.0848 93.3709 71.5863 93.8003 71.3987C94.5552 71.0683 97.1361 70.9556 100.707 70.7997C108.049 70.479 119.145 69.9939 120.665 67.0488L121.042 67.2438C119.409 70.4074 108.611 70.879 100.726 71.2237C97.4673 71.3658 94.6532 71.4891 93.9704 71.7874C92.3991 72.4751 93.5883 95.5854 94.7066 109.991L94.2833 110.024Z" fill="#AFD2F6"/>
</g>
<path d="M91.5287 110.118C91.5287 110.118 90.5402 111.436 88.0135 111.436C85.4871 111.436 81.2032 111.985 82.4114 115.939L82.741 116.818C82.741 116.818 98.6691 117.038 99.5477 115.17C100.426 113.303 97.4604 109.019 97.4604 109.019C97.4604 109.019 95.4835 110.447 91.5287 110.118Z" fill="#160833"/>
<path d="M82.4114 115.939C82.4114 115.939 98.0098 115.61 99.6575 114.511V115.72C99.6575 115.72 91.5287 117.916 82.741 116.818L82.4114 115.939Z" fill="white"/>
<path d="M88.0138 111.436C88.0138 111.436 86.8056 112.754 87.5743 115.829L82.4114 115.939C82.4114 115.939 80.7636 112.754 84.4986 111.655C84.4986 111.655 87.0249 111.106 88.0138 111.436Z" fill="white"/>
<path d="M88.7821 113.186C88.6816 113.186 88.5921 113.114 88.5738 113.011C88.3268 111.652 89.2107 111.256 89.2481 111.24C89.3551 111.195 89.4801 111.244 89.5269 111.352C89.5724 111.459 89.5236 111.583 89.4174 111.629C89.3893 111.643 88.8074 111.924 88.9913 112.935C89.0121 113.051 88.936 113.161 88.8204 113.182C88.8078 113.184 88.7952 113.186 88.7821 113.186Z" fill="white"/>
<path d="M89.9908 113.185C89.9086 113.185 89.8304 113.137 89.7954 113.057C89.4296 112.202 90.0001 111.157 90.0245 111.112C90.0819 111.01 90.2097 110.974 90.3131 111.03C90.4156 111.086 90.4523 111.216 90.3961 111.318C90.3912 111.327 89.9021 112.228 90.1861 112.89C90.2321 112.997 90.1824 113.122 90.0746 113.168C90.0473 113.18 90.0193 113.185 89.9908 113.185Z" fill="white"/>
<path d="M91.4188 112.856C91.3483 112.856 91.2792 112.821 91.2389 112.756C90.6529 111.819 90.871 110.571 90.8804 110.519C90.9015 110.404 91.011 110.328 91.127 110.348C91.2421 110.369 91.3191 110.479 91.2983 110.594C91.2963 110.605 91.1009 111.735 91.5986 112.532C91.6609 112.63 91.6308 112.761 91.5311 112.824C91.4965 112.846 91.4574 112.856 91.4188 112.856Z" fill="white"/>
<path d="M95.8679 113.522C96.4442 113.522 96.9113 113.055 96.9113 112.479C96.9113 111.903 96.4442 111.436 95.8679 111.436C95.2916 111.436 94.8245 111.903 94.8245 112.479C94.8245 113.055 95.2916 113.522 95.8679 113.522Z" fill="white"/>
<path d="M110.955 27.8416C110.955 27.8416 108.373 27.8416 106.795 33.4359C105.217 39.0302 100.34 50.7931 84.991 51.7971C84.991 51.7971 85.1342 56.5307 85.9949 57.1045C86.8556 57.6783 113.106 59.2561 115.688 36.3045C115.688 36.3045 116.406 30.28 110.955 27.8416Z" fill="#160833"/>
<path d="M84.9166 52.4522C84.9166 52.4522 80.8801 50.5599 79.8708 50.732C78.8616 50.9042 76.507 52.9682 76.6751 54.3445C76.8431 55.7208 77.8524 54.3445 79.0297 53.4846C80.207 52.6243 82.0574 56.7528 85.4212 56.2368L84.9166 52.4522Z" fill="#F9B781"/>
<g opacity="0.39">
<path d="M114.196 43.6138C114.146 43.6138 114.095 43.5959 114.055 43.5597C113.967 43.4811 113.96 43.3472 114.038 43.2602C114.098 43.1934 119.998 36.5475 118.714 32.9098C118.675 32.7995 118.733 32.6782 118.844 32.6388C118.953 32.6001 119.075 32.6575 119.114 32.7682C120.482 36.6419 114.605 43.263 114.354 43.543C114.312 43.5902 114.254 43.6138 114.196 43.6138Z" fill="#AFD2F6"/>
</g>
<g opacity="0.39">
<path d="M88.0659 56.7452C87.9633 56.7452 87.873 56.6707 87.8567 56.5661L87.1865 52.3192C87.1682 52.2032 87.2475 52.095 87.3631 52.0767C87.4766 52.0571 87.5877 52.1373 87.606 52.2529L88.2763 56.4998C88.2946 56.6158 88.2152 56.7244 88.0997 56.7423C88.0883 56.7444 88.0773 56.7452 88.0659 56.7452Z" fill="#AFD2F6"/>
</g>
<g opacity="0.25">
<path d="M104.245 50.7593L104.245 50.3349C104.354 50.3345 106.93 50.3044 107.39 48.1553L107.806 48.2444C107.273 50.7309 104.276 50.7593 104.245 50.7593Z" fill="#AFD2F6"/>
</g>
<path d="M99.4979 2.80615C99.4979 2.80615 90.8657 3.73929 91.7988 20.3042C91.7988 20.3042 93.1987 33.3693 107.897 29.17L99.4979 2.80615Z" fill="#006FE6"/>
<path d="M95.9983 4.20595C95.9983 4.20595 99.4981 -1.39328 111.63 1.63972C111.63 1.63972 118.163 3.03963 119.329 8.17249C120.495 13.3054 120.729 22.1708 122.129 23.3375C123.529 24.5042 108.659 29.1703 108.659 29.1703C108.659 29.1703 96.4651 24.9702 95.9983 4.20595Z" fill="#160833"/>
<g opacity="0.25">
<path d="M110.477 28.2927L110.42 27.8719C110.481 27.8637 116.519 27.0067 117.964 23.4756L118.357 23.6363C116.819 27.3945 110.735 28.2577 110.477 28.2927Z" fill="#AFD2F6"/>
</g>
<g opacity="0.25">
<path d="M111.539 26.097L111.369 25.7083C111.394 25.6969 113.971 24.5546 114.438 23.1531L114.841 23.2874C114.314 24.8676 111.652 26.0477 111.539 26.097Z" fill="#AFD2F6"/>
</g>
<path d="M112.096 12.8382L112.05 12.8414C112.08 12.533 112.096 12.2208 112.096 11.9046C112.096 6.62161 107.814 2.33887 102.531 2.33887C97.2476 2.33887 92.9648 6.62161 92.9648 11.9046C92.9648 13.0412 93.1642 14.1307 93.5277 15.1419C93.9529 18.5066 96.0459 30.0326 104.63 28.2359C104.63 28.2368 114.663 26.6033 112.096 12.8382Z" fill="#F9B781"/>
<path d="M105.228 2.68844C104.404 1.27754 102.877 0.326904 101.125 0.326904C99.5943 0.326904 98.2359 1.05413 97.3667 2.17853C96.7725 1.80454 96.071 1.58519 95.3169 1.58519C93.1857 1.58519 91.4578 3.3127 91.4578 5.44389C91.4578 7.57509 93.1857 9.303 95.3169 9.303C96.2431 9.303 97.0928 8.97581 97.7582 8.43172C98.6185 9.29568 99.8092 9.83082 101.125 9.83082C103.038 9.83082 104.682 8.69827 105.436 7.06925C105.968 7.92425 108.888 12.3482 112.096 11.905C112.096 11.905 111.716 4.70772 105.228 2.68844Z" fill="#FFE225"/>
<path d="M92.9417 13.7908L100.57 15.6388L110.347 13.2809L112.709 12.8381L113.102 17.2226C113.102 17.2226 109.638 23.4868 101.464 17.9429L99.7528 18.0145C99.7528 18.0145 94.576 24.6149 92.9417 13.7908Z" fill="#160833"/>
<path d="M101.126 21.9233C101.122 21.9233 101.118 21.9229 101.113 21.9229C99.7026 21.8399 98.8322 21.435 98.5249 20.7191C98.0101 19.5174 99.3233 17.9446 99.3791 17.8782C99.4544 17.7887 99.5895 17.7781 99.6778 17.853C99.7673 17.9287 99.7783 18.0626 99.703 18.1521C99.6908 18.1663 98.5025 19.5915 98.9152 20.5527C99.154 21.1082 99.9016 21.4268 101.138 21.4993C101.255 21.5062 101.344 21.6067 101.337 21.7235C101.331 21.8362 101.237 21.9233 101.126 21.9233Z" fill="#FF4270"/>
<path d="M101.512 24.452C100.901 24.452 100.434 24.3995 100.387 24.3938C100.271 24.3804 100.187 24.275 100.201 24.1586C100.215 24.0418 100.322 23.9584 100.436 23.9722C101.196 24.061 103.325 24.1326 104.049 23.4159C104.242 23.2243 104.32 22.9899 104.29 22.6993C104.277 22.5829 104.361 22.4783 104.478 22.4657C104.594 22.4539 104.699 22.5373 104.711 22.6541C104.756 23.0753 104.634 23.4334 104.347 23.7175C103.73 24.3279 102.451 24.452 101.512 24.452Z" fill="#FF4270"/>
<path d="M103.318 16.7022L109.168 15.3174C109.168 15.3174 107.241 20.447 103.318 16.7022Z" fill="white"/>
<path d="M97.6142 16.9389L94.4583 15.7197C94.4583 15.7197 95.6059 19.8796 97.6142 16.9389Z" fill="white"/>
<path d="M102.741 14.0651L108.591 11.2462L108.116 10.6064L102.215 13.0779L102.741 14.0651Z" fill="#160833"/>
<path d="M92.9089 11.5676C92.9236 11.8924 92.9427 12.2171 92.9663 12.5423L97.0419 14.5058L97.5681 13.5185L92.9089 11.5676Z" fill="#160833"/>
<g opacity="0.5">
<path d="M95.2503 7.41608C94.8364 7.41608 94.486 7.29074 94.2044 7.04128C93.3799 6.3108 93.4874 4.78108 93.4927 4.71597C93.5012 4.59917 93.605 4.51005 93.7201 4.52063C93.8369 4.52958 93.9244 4.63132 93.9159 4.74852C93.9147 4.76236 93.8198 6.13459 94.4868 6.72426C94.766 6.97169 95.1555 7.0482 95.6471 6.94931C95.7561 6.92611 95.8733 7.00058 95.8965 7.11575C95.9197 7.23092 95.8452 7.34242 95.7297 7.36562C95.562 7.39939 95.4017 7.41608 95.2503 7.41608Z" fill="#C66B20"/>
</g>
<g opacity="0.5">
<path d="M100.476 8.48419C99.8068 8.48419 99.2652 8.28235 98.8631 7.88313C98.0211 7.04685 98.118 5.65671 98.1225 5.59811C98.131 5.48131 98.223 5.39178 98.35 5.40277C98.4663 5.41131 98.5538 5.51346 98.5457 5.63025C98.5445 5.64287 98.4611 6.88692 99.1639 7.58321C99.5321 7.94783 100.064 8.10451 100.742 8.04835C100.856 8.03655 100.961 8.12486 100.971 8.24206C100.98 8.35886 100.894 8.46141 100.777 8.47117C100.674 8.47972 100.574 8.48419 100.476 8.48419Z" fill="#C66B20"/>
</g>
<path d="M131.506 73.7748C140.158 73.7748 147.171 63.7554 147.171 51.3958C147.171 39.0363 140.158 29.0168 131.506 29.0168C122.855 29.0168 115.841 39.0363 115.841 51.3958C115.841 63.7554 122.855 73.7748 131.506 73.7748Z" fill="#006FE6"/>
<path opacity="0.29" d="M132.806 72.5471C140.293 72.5471 146.362 62.96 146.362 51.1338C146.362 39.3075 140.293 29.7205 132.806 29.7205C125.319 29.7205 119.25 39.3075 119.25 51.1338C119.25 62.96 125.319 72.5471 132.806 72.5471Z" fill="white"/>
<path d="M141.669 58.4931L133.358 59.447C132.135 59.5874 131.019 58.7015 130.878 57.4782L130.856 57.2869C130.716 56.0636 131.602 54.9478 132.825 54.8074L141.136 53.8535C142.36 53.7131 143.476 54.599 143.616 55.8223L143.638 56.0136C143.778 57.2369 142.892 58.3527 141.669 58.4931Z" fill="#160833"/>
<path d="M136.274 56.8445C136.274 56.8445 138.998 81.1696 136.858 83.5046C136.858 83.5046 140.555 83.1156 140.944 81.7531C141.334 80.3911 139.388 56.4551 139.388 56.4551C139.388 56.4551 137.441 54.704 136.274 56.8445Z" fill="#160833"/>
<path d="M139.34 56.4314C139.34 56.9791 138.897 57.4235 138.348 57.4235C137.8 57.4235 137.356 56.9795 137.356 56.4314C137.356 55.8832 137.8 55.4392 138.348 55.4392C138.897 55.4392 139.34 55.8832 139.34 56.4314Z" fill="#006FE6"/>
</svg>
