<svg width="21" height="21" viewBox="0 0 21 21" fill="none" xmlns="http://www.w3.org/2000/svg">
<path d="M20.2175 10.8701C20.2175 16.2204 15.8803 20.5576 10.53 20.5576C5.17976 20.5576 0.842529 16.2204 0.842529 10.8701C0.842529 5.51984 5.17976 1.18262 10.53 1.18262C15.8803 1.18262 20.2175 5.51984 20.2175 10.8701ZM9.40948 15.9996L16.597 8.81207C16.841 8.56801 16.841 8.17227 16.597 7.9282L15.7131 7.04434C15.4691 6.80023 15.0733 6.80023 14.8292 7.04434L8.96753 12.906L6.23085 10.1693C5.98679 9.92523 5.59104 9.92523 5.34694 10.1693L4.46308 11.0532C4.21901 11.2972 4.21901 11.693 4.46308 11.937L8.52558 15.9995C8.76968 16.2436 9.16538 16.2436 9.40948 15.9996Z" fill="#FF7D16"/>
</svg>
