<svg width="35" height="48" viewBox="0 0 35 48" fill="none" xmlns="http://www.w3.org/2000/svg">
<path d="M24.3749 46.7818L23.7401 47.7351C23.9127 47.85 24.1131 47.9158 24.3202 47.9257C24.5272 47.9356 24.733 47.8892 24.9157 47.7914C25.0985 47.6936 25.2512 47.548 25.3578 47.3702C25.4643 47.1924 25.5206 46.9891 25.5207 46.7818H24.3749ZM17.4999 42.1985L18.1347 41.2451C17.9466 41.12 17.7258 41.0532 17.4999 41.0532C17.274 41.0532 17.0532 41.12 16.8651 41.2451L17.4999 42.1985ZM10.6249 46.7818H9.47908C9.47918 46.9891 9.53551 47.1924 9.64205 47.3702C9.74859 47.548 9.90135 47.6936 10.0841 47.7914C10.2668 47.8892 10.4726 47.9356 10.6797 47.9257C10.8867 47.9158 11.0872 47.85 11.2597 47.7351L10.6249 46.7818ZM25.0097 45.8285L18.1347 41.2451L16.8651 43.1518L23.7401 47.7351L25.0097 45.8285ZM16.8651 41.2451L9.99012 45.8285L11.2597 47.7351L18.1347 43.1518L16.8651 41.2451ZM20.1193 3.5014L20.2155 3.61598L21.9595 2.13098L21.8632 2.0164L20.1193 3.5014ZM25.0372 5.61431L25.1862 5.60056L25.0028 3.31806L24.8539 3.32952L25.0372 5.61431ZM28.8872 9.30389L28.878 9.45285L31.1605 9.63619L31.172 9.48723L28.8872 9.30389ZM30.8741 14.2745L30.9887 14.3731L32.4737 12.6268L32.3591 12.5306L30.8741 14.2745ZM30.9887 19.6095L30.8741 19.7058L32.3591 21.4497L32.4737 21.3535L30.9887 19.6095ZM28.878 24.5274L28.8895 24.6764L31.172 24.4931L31.1605 24.3441L28.878 24.5274ZM25.1885 28.3774L25.0372 28.366L24.8539 30.6508L25.0028 30.6622L25.1885 28.3774ZM20.2155 30.3643L20.117 30.4789L21.8632 31.9639L21.9595 31.8493L20.2155 30.3643ZM14.8828 30.4789L14.7843 30.3643L13.0403 31.8493L13.1366 31.9639L14.8828 30.4789ZM9.96262 28.3683L9.81366 28.3797L9.99699 30.6622L10.146 30.6508L9.96262 28.3683ZM6.11262 24.6787L6.12408 24.5274L3.83929 24.3441L3.82783 24.4931L6.11262 24.6787ZM4.12574 19.7058L4.01116 19.6072L2.52616 21.3535L2.64074 21.4497L4.12574 19.7058ZM4.01116 14.3731L4.12574 14.2745L2.64074 12.5306L2.52616 12.6268L4.01116 14.3731ZM6.12408 9.45285L6.11033 9.30389L3.82783 9.48723L3.83929 9.63619L6.12408 9.45285ZM9.81366 5.60285L9.96262 5.61431L10.146 3.32952L9.99699 3.31806L9.81366 5.60285ZM14.7866 3.61598L14.8805 3.5014L13.1366 2.0164L13.0403 2.13098L14.7866 3.61598ZM9.96262 5.61431C10.8675 5.68724 11.7768 5.54409 12.6155 5.19665C13.4542 4.84921 14.1983 4.30744 14.7866 3.61598L13.0403 2.13098C12.6873 2.54577 12.2408 2.87075 11.7376 3.07913C11.2344 3.28751 10.6888 3.37333 10.146 3.32952L9.96262 5.61431ZM6.11033 9.30389C6.07027 8.8078 6.14072 8.30892 6.31237 7.84174C6.48401 7.37456 6.75507 6.95023 7.10679 6.59808C7.4585 6.24592 7.8825 5.97435 8.34946 5.80212C8.81643 5.62989 9.31522 5.56112 9.81137 5.60056L9.99699 3.31806C9.16999 3.25168 8.33615 3.36572 7.55754 3.65227C6.77894 3.93883 6.07186 4.39107 5.4852 4.97773C4.89855 5.56439 4.4463 6.27147 4.15975 7.05007C3.87319 7.82867 3.76145 8.66023 3.82783 9.48723L6.11033 9.30389ZM4.12574 14.2745C4.8172 13.6863 5.35898 12.9444 5.70641 12.1057C6.05385 11.267 6.197 10.3577 6.12408 9.45285L3.83929 9.63619C3.8831 10.1791 3.79728 10.7246 3.5889 11.2278C3.38051 11.7311 3.05554 12.1776 2.64074 12.5306L4.12574 14.2745ZM4.01116 19.6072C3.63222 19.2845 3.32789 18.8834 3.11919 18.4315C2.91049 17.9797 2.8024 17.4879 2.8024 16.9901C2.8024 16.4924 2.91049 16.0006 3.11919 15.5488C3.32789 15.0969 3.63222 14.6958 4.01116 14.3731L2.52616 12.6268C1.89408 13.1647 1.38639 13.8334 1.03824 14.5868C0.690082 15.3402 0.509766 16.1602 0.509766 16.9901C0.509766 17.8201 0.690082 18.6401 1.03824 19.3935C1.38639 20.1469 1.89408 20.8156 2.52616 21.3535L4.01116 19.6072ZM6.12408 24.5274C6.19663 23.6229 6.0533 22.7141 5.70587 21.8758C5.35845 21.0375 4.81687 20.2938 4.12574 19.7058L2.64074 21.4497C3.05554 21.8027 3.38051 22.2492 3.5889 22.7524C3.79728 23.2557 3.8831 23.8012 3.83929 24.3441L6.12408 24.5274ZM9.81366 28.3774C9.31735 28.4175 8.81826 28.3493 8.35091 28.1776C7.88356 28.0058 7.4591 27.7345 7.10691 27.3825C6.75471 27.0306 6.48319 26.6063 6.31112 26.139C6.13905 25.6718 6.07054 25.1727 6.11033 24.6764L3.82783 24.4931C3.7611 25.3202 3.87487 26.1521 4.16127 26.9309C4.44767 27.7098 4.89986 28.4172 5.48656 29.0041C6.07326 29.591 6.78046 30.0435 7.55924 30.3302C8.33802 30.6169 9.16978 30.7309 9.99699 30.6645L9.81366 28.3774ZM20.117 30.4789C19.7943 30.8578 19.3931 31.1622 18.9413 31.3709C18.4894 31.5796 17.9976 31.6877 17.4999 31.6877C17.0022 31.6877 16.5104 31.5796 16.0585 31.3709C15.6067 31.1622 15.2055 30.8578 14.8828 30.4789L13.1366 31.9639C13.6744 32.596 14.3432 33.1037 15.0966 33.4518C15.8499 33.8 16.67 33.9803 17.4999 33.9803C18.3299 33.9803 19.1499 33.8 19.9033 33.4518C20.6567 33.1037 21.3254 32.596 21.8632 31.9639L20.117 30.4789ZM28.8895 24.6764C28.9296 25.1729 28.8614 25.6722 28.6895 26.1397C28.5176 26.6073 28.2461 27.0319 27.8939 27.3841C27.5416 27.7363 27.117 28.0078 26.6495 28.1797C26.182 28.3516 25.6827 28.4199 25.1862 28.3797L25.0028 30.6622C25.83 30.729 26.6618 30.6152 27.4407 30.3288C28.2196 30.0424 28.927 29.5902 29.5139 29.0035C30.1008 28.4168 30.5533 27.7096 30.8399 26.9308C31.1266 26.152 31.2384 25.3203 31.172 24.4931L28.8895 24.6764ZM30.8741 19.7035C30.183 20.292 29.6417 21.0362 29.2947 21.8749C28.9476 22.7136 28.8048 23.6227 28.878 24.5274L31.1605 24.3441C31.1167 23.8012 31.2025 23.2557 31.4109 22.7524C31.6193 22.2492 31.9443 21.8027 32.3591 21.4497L30.8741 19.7035ZM30.9887 14.3731C31.3676 14.6958 31.6719 15.0969 31.8806 15.5488C32.0893 16.0006 32.1974 16.4924 32.1974 16.9901C32.1974 17.4879 32.0893 17.9797 31.8806 18.4315C31.6719 18.8834 31.3676 19.2868 30.9887 19.6095L32.4737 21.3535C33.1057 20.8156 33.6134 20.1469 33.9616 19.3935C34.3097 18.6401 34.4901 17.8201 34.4901 16.9901C34.4901 16.1602 34.3097 15.3402 33.9616 14.5868C33.6134 13.8334 33.1057 13.1647 32.4737 12.6268L30.9887 14.3731ZM28.878 9.45285C28.8052 10.3572 28.9482 11.2659 29.2952 12.1041C29.6422 12.9424 30.1834 13.6863 30.8741 14.2745L32.3591 12.5306C31.9443 12.1776 31.6193 11.7311 31.4109 11.2278C31.2025 10.7246 31.1167 10.1791 31.1605 9.63619L28.878 9.45285ZM25.1885 5.60285C25.6846 5.56311 26.1834 5.63157 26.6505 5.80351C27.1176 5.97544 27.5417 6.24676 27.8937 6.5987C28.2456 6.95063 28.5169 7.37479 28.6888 7.84186C28.8608 8.30894 28.927 8.80777 28.8872 9.30389L31.172 9.48723C31.2384 8.66002 31.1266 7.82825 30.8399 7.04947C30.5533 6.27069 30.1008 5.56349 29.5139 4.97679C28.927 4.39009 28.2196 3.9379 27.4407 3.6515C26.6618 3.3651 25.83 3.25133 25.0028 3.31806L25.1885 5.60285ZM20.2155 3.61598C20.8035 4.30711 21.5473 4.84868 22.3856 5.19611C23.2239 5.54353 24.1327 5.68687 25.0372 5.61431L24.8539 3.32952C24.311 3.37333 23.7654 3.28751 23.2622 3.07913C22.759 2.87075 22.3125 2.54577 21.9595 2.13098L20.2155 3.61598ZM21.8632 2.0164C21.3254 1.38431 20.6567 0.876629 19.9033 0.528473C19.1499 0.180317 18.3299 0 17.4999 0C16.67 0 15.8499 0.180317 15.0966 0.528473C14.3432 0.876629 13.6744 1.38431 13.1366 2.0164L14.8805 3.5014C15.2032 3.12246 15.6067 2.81812 16.0585 2.60942C16.5104 2.40072 17.0022 2.29263 17.4999 2.29263C17.9976 2.29263 18.4894 2.40072 18.9413 2.60942C19.3931 2.81812 19.7966 3.12246 20.1193 3.5014L21.8632 2.0164ZM14.7866 30.3643C14.2762 29.7648 13.6477 29.2769 12.9403 28.9311C12.233 28.5853 11.4619 28.3867 10.6753 28.3522L10.5745 30.6439C11.0463 30.6647 11.5087 30.7824 11.9329 30.9898C12.3572 31.1972 12.7342 31.4898 13.0403 31.8493L14.7866 30.3643ZM10.6753 28.3522C10.4377 28.3437 10.1998 28.3498 9.96262 28.366L10.146 30.6508C10.2896 30.6385 10.4324 30.6363 10.5745 30.6439L10.6753 28.3522ZM11.7707 46.7818V29.4981H9.47908V46.7818H11.7707ZM25.0395 28.366C24.8015 28.3498 24.5629 28.3459 24.3245 28.3545L24.4253 30.6439C24.5674 30.6363 24.7103 30.6385 24.8539 30.6508L25.0395 28.366ZM24.3245 28.3545C23.5383 28.3893 22.7677 28.5858 22.0607 28.9316C21.3538 29.2773 20.7257 29.7651 20.2155 30.3643L21.9595 31.8493C22.2657 31.4898 22.6426 31.1972 23.0669 30.9898C23.4911 30.7824 23.9536 30.6647 24.4253 30.6439L24.3245 28.3545ZM23.2291 29.5004V46.7818H25.5207V29.4981L23.2291 29.5004Z" fill="white"/>
<path d="M22.0827 14.6982L15.2077 21.5732L12.916 19.2816" stroke="white" stroke-linecap="round" stroke-linejoin="round"/>
</svg>
