<svg xmlns="http://www.w3.org/2000/svg" version="1.1" viewBox="-5.0 -10.0 110.0 135.0" fill="black">
 <path d="m92 29.637c0-4.0898-3.1055-7.5156-7.2734-8.4258 1.0898-4.0469 0.089844-8.3789-2.5312-10.816-1.8633-1.7266-5.2422-1.4688-6.6836-1.2578 0.015625-0.51562 0.03125-1.0469 0.046875-1.5742h0.003906c0.015625-1.0898-0.41016-2.1211-1.1836-2.9102-0.77344-0.78906-1.8164-1.2266-2.9258-1.2266h-40.391c-2.6953 0-4.9844 1.9258-5.5742 4.5-1.8047-0.25781-3.6523-0.33203-4.7578-0.30469-2.7734 0.03125-5.4258 2.1211-6.4531 5.0625-0.75781 2.1953-0.69531 4.8047 0.19531 7.7422 0.089844 0.30469 0.19531 0.60547 0.30469 0.89453-6.7578 1.6836-6.7891 9.0312-6.7891 12.773 0 2.0898 0 5.6211-0.015625 9.6836-0.003906 9.0859-0.019531 20.375 0.058594 24.676l0.0625 1.5312c0.15234 1.9375 0.45312 3.5156 0.89453 4.8477 0.21094 0.62109 0.4375 1.1836 0.71094 1.6836 0 0.015625 0.015625 0.03125 0.03125 0.046875 1.4844 2.8047 3.9375 4.3164 7.3164 4.5 0.22656 0.015625 0.45312 0.03125 0.72656 0.03125 0 0 2.3047-0.046875 6.0312-0.089844l17.484-0.27344-2.2266 5.5742h-3.7266c-1.3633 0-2.6523 0.53125-3.6211 1.5s-1.5 2.2578-1.5 3.6211c0 2.832 2.3047 5.1367 5.1211 5.1367h28.453c1.3633 0 2.6523-0.53125 3.6211-1.5s1.5-2.2578 1.5-3.6367c0-2.8164-2.3047-5.1211-5.1211-5.1211h-3.7266l-2.332-5.832 18.562-0.28906c6.9102-0.10547 7.168-0.13672 7.1953-0.13672 1.832-0.13672 3.4258-0.69531 4.7109-1.6523 0.089843-0.0625 0.16797-0.12109 0.22656-0.16797 0.03125-0.03125 0.074219-0.046874 0.12109-0.089843 1.2734-0.66797 2.2266-2.0156 2.832-4 0.015625-0.046875 0.03125-0.074219 0.046875-0.12109 0.39453-1.3945 0.54688-2.8477 0.60547-3.832 0.03125-0.5625 0.03125-0.92578 0.03125-1-0.0625-11.184-0.0625-28.379-0.0625-39.547zm-31.379 30.531c-2.0312 0.63672-19.91 0.28906-21.926-0.68359-0.98437-0.58984-2.1055-1.5312-1.8789-2.6953 0.27344-1.4375 2.3633-2.9531 4.5625-3.332 1.4102-0.24219 3.6953-0.33203 6.1953-0.33203 5.4531 0 12 0.4375 13 0.72656 1.2734 0.34766 2.1836 1.8945 2.332 3.168 0.14062 1.3438-1.0742 2.6172-2.2852 3.1484zm-6.0742-13.305c-0.45312 1.1367-0.71094 2.3477-0.80469 3.5625-2.5625-0.12109-5.3633-0.16797-7.8164-0.12109 0.015625-0.28906 0.03125-0.57422 0.03125-0.81641-0.0625-2.4375-1.4688-4.8633-3.9531-6.8477-1.0898-0.86328-2.2578-1.5625-3.3945-2.2266-0.87891-0.53125-1.6953-1.0156-2.5-1.5742-2.3164-1.6211-4.3047-3.832-5.8945-6.5742-2.2422-3.832-3.2109-8.4531-2.8164-13.348l0.41016-5.0469c4.3438 0.054687 16.48 0.21875 27.344 0.21875 7.2266 0 13.863-0.074219 17.242-0.30469-0.39453 6.0312-1.1953 11.621-2.4531 16.562-1.332 5.1836-6.5 10.848-11.062 12.121-1.8633 0.54688-3.4102 2.0938-4.332 4.3945zm-28.184-15.984c-2.9531-1.7266-5.4844-4.168-7.2422-7.0742 1.8047-0.0625 3.6211-0.10547 5.4688-0.13672 0.24219 2.5273 0.83594 4.9531 1.7734 7.2109zm47.82-7.0625c2.0898 0.015625 4.1523 0.03125 6.2266 0.03125-0.91016 1.4102-2.1211 2.7734-3.6523 4.0898-1.2422 1.0625-2.5625 1.9688-3.9375 2.7734 0.52734-2.1797 0.98438-4.5 1.3633-6.8945zm1.6953-11.816c2.2734-0.33203 3.832 0.015625 4.3633 0.51562 1.8477 1.7109 2.5312 5.0156 1.6953 8.0312-0.046875 0.15234-0.089844 0.28906-0.15234 0.4375-2.3789 0-4.7734-0.015625-7.1836-0.03125 0.36328-2.7734 0.63672-5.6211 0.78906-8.6211 0-0.074219 0-0.15234 0.015625-0.21094 0.15625-0.046875 0.30469-0.089844 0.47266-0.12109zm-44.816-5.6836h40.395c0.33203 0 0.65234 0.13672 0.87891 0.36328 0.22656 0.22656 0.34766 0.53125 0.34766 0.84766-0.015625 1.168-0.0625 2.3047-0.12109 3.4258-6.2734 0.32031-37.637 0.39453-44.531 0.12109l0.16797-2.1211c0.13281-1.5 1.3633-2.6367 2.8633-2.6367zm-14.062 7.3203c0.53125-1.5469 2-3.1055 3.7578-3.1211 1.332-0.015625 2.9688 0.074219 4.4102 0.28906l-0.63672 7.8477c-0.0625 0.71094-0.089844 1.4375-0.089844 2.1367-2.2578 0.046876-4.5 0.089844-6.6953 0.16797-0.18359-0.45312-0.36328-0.89453-0.5-1.3633-0.73047-2.3359-0.80859-4.3516-0.24609-5.957zm-6.1367 30.152c0-4.0625 0.015625-7.6055 0.015625-9.6953 0-5.8789 0.86328-9.3477 5.0742-10.09 2.6523 5.0898 7.332 9.1211 12.727 11.121 1.6367 2.4258 3.5625 4.4688 5.7734 6.0156 0.87891 0.62109 1.8047 1.168 2.6836 1.6953 1.1055 0.65234 2.1367 1.2734 3.0742 2.0156 1.0469 0.83203 2.8047 2.5625 2.8633 4.6953 0.015625 0.28906-0.015625 0.5625-0.046875 0.84766-0.83203 0.0625-1.5625 0.13672-2.1523 0.22656-3 0.5-6.332 2.5898-6.9102 5.6211-0.24219 1.2578-0.13672 3.6836 3.2422 5.6953 1.5469 0.92578 9.7891 1.4102 16.332 1.4102 3.9688 0 7.332-0.18359 8.1953-0.54688 2.6367-1.1367 4.2891-3.6367 4.0156-6.1055-0.25781-2.2578-1.8477-4.9102-4.3945-5.6211-0.62109-0.18359-2.4258-0.37891-4.7422-0.53125 0.074219-0.89453 0.25781-1.8047 0.58984-2.6367s1.1055-2.3047 2.4531-2.6836c4.7734-1.332 9.2422-5.9531 11.621-10.531 2.6211-1.1523 5.1055-2.6836 7.332-4.5898 2.2578-1.9258 3.9258-4 5.0312-6.168 3.0898 0.46875 5.4531 2.832 5.4531 5.6836 0 10.031 0 24.91 0.015625 35.953l-78.23 0.003907c-0.046875-5.2695-0.03125-14.285-0.015625-21.785zm55.168 47.637c0 0.60547-0.22656 1.168-0.65234 1.5898-0.42578 0.42578-0.98438 0.66797-1.5898 0.66797h-28.457c-1.2422 0-2.2422-1.0156-2.2422-2.2578 0-0.58984 0.22656-1.168 0.66797-1.5898 0.42578-0.42578 0.98438-0.65234 1.5898-0.65234h28.453c1.2148 0 2.2305 1 2.2305 2.2422zm-9.0781-5.1211h-14.789l2.2578-5.6211 10.211-0.16797zm32.168-16.289c-0.046875 0.81641-0.18359 2.0156-0.48438 3.1523-0.015625 0.03125-0.015625 0.0625-0.03125 0.074219-0.36328 1.2578-0.89453 2.0898-1.4688 2.3633-0.15234 0.074219-0.30469 0.15234-0.42578 0.27344-0.03125 0.015625-0.074219 0.046875-0.10547 0.074219-0.03125 0.015625-0.0625 0.046875-0.089844 0.0625-0.86328 0.66797-1.9258 1.0469-3.2734 1.1523-0.36328 0.015625-4.5 0.089843-7.0312 0.13672l-52.453 0.81641c-3.7266 0.0625-6.0312 0.089844-6.0312 0.089844-0.16797 0-0.33203-0.015626-0.54687-0.03125-2.332-0.11719-3.8906-1.0586-4.9062-2.9531 0-0.015624-0.015626-0.03125-0.015626-0.03125-0.19531-0.37891-0.37891-0.80469-0.54687-1.2891-0.37891-1.1055-0.62109-2.4688-0.75781-4.1055l-0.046875-1.0469h0.15234c0.015625-0.089844 0.03125-0.18359 0.046875-0.27344h78.016v0.27344h0.03125v0.4375c0 0.050782 0 0.37109-0.03125 0.82422z"/>
 <path d="m36.348 27.168c-0.089844-0.089844-0.10547-0.19531-0.10547-0.25781 0-0.074218 0.015624-0.16797 0.10547-0.25781l5.7422-5.7578c0.5625-0.5625 0.5625-1.4688 0-2.0312s-1.4688-0.5625-2.0312 0l-5.7422 5.7422c-0.62109 0.60547-0.95312 1.4258-0.95312 2.3047 0 0.86328 0.33203 1.6836 0.95312 2.2891l6.832 6.832c0.28906 0.28906 0.65234 0.42578 1.0156 0.42578 0.36328 0 0.74219-0.13672 1.0156-0.42578 0.5625-0.5625 0.5625-1.4688 0-2.0312z"/>
 <path d="m64.848 24.621-5.7422-5.7578c-0.5625-0.5625-1.4688-0.5625-2.0312 0s-0.5625 1.4688 0 2.0312l5.7422 5.7578c0.13672 0.13672 0.13672 0.37891 0 0.51562l-6.832 6.832c-0.5625 0.5625-0.5625 1.4688 0 2.0312 0.28906 0.28906 0.65234 0.42578 1.0156 0.42578s0.74219-0.13672 1.0156-0.42578l6.832-6.832c1.2578-1.2617 1.2734-3.3203 0-4.5781z"/>
 <path d="m53.742 18.684c-0.72656-0.30469-1.5742 0.03125-1.8945 0.75781-0.62109 1.4531-1.3164 3.3477-2.0469 5.3633-1.1523 3.1836-2.4688 6.8047-3.9531 9.9102-0.34766 0.71094-0.03125 1.5742 0.68359 1.9258 0.19531 0.089844 0.41016 0.13672 0.62109 0.13672 0.54688 0 1.0625-0.30469 1.3047-0.81641 1.5469-3.2422 2.8789-6.9258 4.0625-10.168 0.71094-1.9688 1.3945-3.832 1.9844-5.2109 0.3125-0.73438-0.019531-1.582-0.76172-1.8984z"/>
</svg>