<svg width="35" height="34" viewBox="0 0 35 34" fill="none" xmlns="http://www.w3.org/2000/svg">
<path d="M15.9117 31.3635H13.6685C7.93249 31.3635 5.06529 31.3635 3.28289 29.5475C1.50049 27.7315 1.50049 24.8083 1.50049 18.9635C1.50049 13.1187 1.50049 10.1955 3.28289 8.37948C5.06529 6.56348 7.93249 6.56348 13.6685 6.56348H19.7533C25.4893 6.56348 28.3581 6.56348 30.1405 8.37948C31.5117 9.77628 31.8269 11.8291 31.9005 15.3635" stroke="white" stroke-width="1.5" stroke-linecap="round" stroke-linejoin="round"/>
<path d="M30.3267 29.8007L33.4995 32.9639M23.8995 6.56387L23.7395 6.06787C22.9475 3.60387 22.5523 2.37187 21.6099 1.66787C20.6659 0.963867 19.4147 0.963867 16.9075 0.963867H16.4867C13.9827 0.963867 12.7299 0.963867 11.7875 1.66787C10.8435 2.37187 10.4483 3.60387 9.65631 6.06787L9.49951 6.56387M31.9843 25.8055C31.9969 25.0565 31.8603 24.3125 31.5824 23.6169C31.3045 22.9213 30.8909 22.288 30.3657 21.7538C29.8405 21.2197 29.2142 20.7955 28.5234 20.5059C27.8326 20.2164 27.091 20.0672 26.3419 20.0672C25.5928 20.0672 24.8513 20.2164 24.1604 20.5059C23.4696 20.7955 22.8433 21.2197 22.3181 21.7538C21.7929 22.288 21.3793 22.9213 21.1014 23.6169C20.8235 24.3125 20.6869 25.0565 20.6995 25.8055C20.7244 27.2855 21.3299 28.6964 22.3853 29.7342C23.4407 30.7721 24.8617 31.3537 26.3419 31.3537C27.8221 31.3537 29.2431 30.7721 30.2985 29.7342C31.354 28.6964 31.9594 27.2855 31.9843 25.8055Z" stroke="white" stroke-width="1.5" stroke-linecap="round" stroke-linejoin="round"/>
</svg>
