<svg width="17" height="17" viewBox="0 0 17 17" fill="none" xmlns="http://www.w3.org/2000/svg">
<path d="M8.61011 0.5C12.8914 0.5 16.3601 3.96875 16.3601 8.25C16.3601 12.5312 12.8914 16 8.61011 16C4.32886 16 0.860107 12.5312 0.860107 8.25C0.860107 3.96875 4.32886 0.5 8.61011 0.5ZM12.1695 7.71875L7.93511 3.48438C7.64136 3.19062 7.16636 3.19062 6.87573 3.48438L6.34448 4.01562C6.05073 4.30938 6.05073 4.78437 6.34448 5.075L9.51948 8.25L6.34448 11.425C6.05073 11.7188 6.05073 12.1938 6.34448 12.4844L6.87573 13.0156C7.16948 13.3094 7.64448 13.3094 7.93511 13.0156L12.1695 8.78125C12.4632 8.4875 12.4632 8.0125 12.1695 7.71875Z" fill="black"/>
</svg>
