<svg width="136" height="126" viewBox="0 0 136 126" fill="none" xmlns="http://www.w3.org/2000/svg">
<path d="M87.269 119.947H50.2261V79.2568C50.2261 76.8364 52.1881 74.874 54.6089 74.874H82.8862C85.3069 74.874 87.269 76.8364 87.269 79.2568V119.947Z" fill="#333333"/>
<path d="M87.151 77.9033C87.151 77.9033 110.368 103.705 115.269 109.234C120.169 114.763 116.525 120.292 109.524 120.292C102.522 120.292 84.3635 120.292 84.3635 120.292V109.971L102.947 110.34L87.1404 93.0697L87.151 77.9033Z" fill="#333333"/>
<path d="M50.3284 77.8765C50.3284 77.8765 27.1112 103.679 22.2108 109.207C17.3104 114.736 20.954 120.265 27.9556 120.265C34.9571 120.265 53.1156 120.265 53.1156 120.265V109.944L34.5316 110.313L50.3387 93.0432L50.3284 77.8765Z" fill="#333333"/>
<path d="M55.6035 68.1237C53.1086 68.1237 51.0673 66.0824 51.0673 63.5875V52.8875C51.0673 50.3926 53.1086 48.3513 55.6035 48.3513C58.0984 48.3513 60.1397 50.3926 60.1397 52.8875V63.5875C60.1401 66.082 58.0988 68.1237 55.6035 68.1237Z" fill="#4C2D1D"/>
<path d="M81.2729 68.1237C78.778 68.1237 76.7363 66.0824 76.7363 63.5875V52.8875C76.7363 50.3926 78.7776 48.3513 81.2729 48.3513C83.7678 48.3513 85.8091 50.3926 85.8091 52.8875V63.5875C85.8091 66.082 83.7678 68.1237 81.2729 68.1237Z" fill="#4C2D1D"/>
<path d="M54.7945 57.8675C55.6393 60.6941 55.2328 63.3113 53.8861 63.7138C52.5399 64.1163 50.7634 62.1514 49.9186 59.3248C49.0738 56.4982 49.4803 53.881 50.8266 53.4785C52.1732 53.0764 53.9497 55.041 54.7945 57.8675Z" fill="#EE997A"/>
<path d="M69.0526 80.4606H67.8867C65.0386 80.4606 62.7296 78.1516 62.7296 75.3035V69.2874H74.2097V75.3035C74.2101 78.1516 71.901 80.4606 69.0526 80.4606Z" fill="#333333"/>
<path d="M42.7584 120.266C42.7584 114.546 47.3955 109.909 53.1154 109.909C58.8354 109.909 63.4724 114.546 63.4724 120.266" fill="#EE997A"/>
<path d="M74.21 120.266C74.21 114.546 78.847 109.909 84.5669 109.909C90.2869 109.909 94.9239 114.546 94.9239 120.266" fill="#EE997A"/>
<path d="M82.1287 57.8675C81.2839 60.6941 81.6904 63.3113 83.0367 63.7138C84.3833 64.1163 86.1594 62.1514 87.0046 59.3248C87.8497 56.4982 87.4429 53.881 86.0962 53.4785C84.75 53.0764 82.9738 55.041 82.1287 57.8675Z" fill="#EE997A"/>
<path d="M68.47 74.1832C59.8395 74.1832 52.8434 67.1867 52.8434 58.5566V50.9027C52.8434 42.2722 59.8398 35.2761 68.47 35.2761C77.1005 35.2761 84.0966 42.2726 84.0966 50.9027V58.5566C84.0966 67.1867 77.1001 74.1832 68.47 74.1832Z" fill="#F2AE99"/>
<path d="M79.6213 49.2329L72.8358 51.2612L73.4196 53.2142L80.2051 51.1858L79.6213 49.2329Z" fill="#4C2D1D"/>
<path d="M56.7744 51.1872L63.5599 53.2156L64.1437 51.2626L57.3582 49.2342L56.7744 51.1872Z" fill="#4C2D1D"/>
<path d="M84.0966 51.5691C84.0966 51.5691 73.5924 53.1637 68.4839 53.1637C63.3753 53.1637 52.843 51.5691 52.843 51.5691V61.3395H62.9527C63.6215 61.3395 64.276 61.1489 64.8399 60.7898L66.5317 59.7124C67.7158 58.9582 69.2359 58.9816 70.3966 59.7719L71.8039 60.7303C72.3868 61.1273 73.076 61.3395 73.7812 61.3395H84.0966V51.5691Z" fill="#333333"/>
<path d="M51.455 42.4839C51.455 33.0867 59.0727 25.469 68.4698 25.469C77.867 25.469 85.4847 33.0867 85.4847 42.4839" fill="#231F20"/>
<path d="M85.0774 50.9819H51.8622C50.6518 50.9819 49.6708 50.0009 49.6708 48.7905V44.6751C49.6708 43.4647 50.6518 42.4836 51.8622 42.4836H85.0774C86.2878 42.4836 87.2688 43.4647 87.2688 44.6751V48.7905C87.2688 50.0006 86.2875 50.9819 85.0774 50.9819Z" fill="#434345"/>
<path d="M67.7609 43.6869C67.7609 45.6957 67.7609 47.7049 67.7609 49.7141C67.7609 50.419 68.8566 50.4204 68.8566 49.7141C68.8566 47.7053 68.8566 45.6961 68.8566 43.6869C68.8566 42.982 67.7609 42.9806 67.7609 43.6869Z" fill="#231F20"/>
<path d="M52.295 43.6869C52.295 45.6957 52.295 47.7049 52.295 49.7141C52.295 50.419 53.3908 50.4204 53.3908 49.7141C53.3908 47.7053 53.3908 45.6961 53.3908 43.6869C53.3908 42.982 52.295 42.9806 52.295 43.6869Z" fill="#231F20"/>
<path d="M83.5486 43.6869C83.5486 45.6957 83.5486 47.7049 83.5486 49.7141C83.5486 50.419 84.6443 50.4204 84.6443 49.7141C84.6443 47.7053 84.6443 45.6961 84.6443 43.6869C84.6443 42.982 83.5486 42.9806 83.5486 43.6869Z" fill="#231F20"/>
<path d="M75.6548 43.6869C75.6548 45.6957 75.6548 47.7049 75.6548 49.7141C75.6548 50.419 76.7505 50.4204 76.7505 49.7141C76.7505 47.7053 76.7505 45.6961 76.7505 43.6869C76.7505 42.982 75.6548 42.9806 75.6548 43.6869Z" fill="#231F20"/>
<path d="M60.0281 43.6869C60.0281 45.6957 60.0281 47.7049 60.0281 49.7141C60.0281 50.419 61.1238 50.4204 61.1238 49.7141C61.1238 47.7053 61.1238 45.6961 61.1238 43.6869C61.1238 42.982 60.0281 42.9806 60.0281 43.6869Z" fill="#231F20"/>
<path d="M56.1614 43.6869C56.1614 45.6957 56.1614 47.7049 56.1614 49.7141C56.1614 50.419 57.2571 50.4204 57.2571 49.7141C57.2571 47.7053 57.2571 45.6961 57.2571 43.6869C57.2571 42.982 56.1614 42.9806 56.1614 43.6869Z" fill="#231F20"/>
<path d="M63.8945 43.6869C63.8945 45.6957 63.8945 47.7049 63.8945 49.7141C63.8945 50.419 64.9902 50.4204 64.9902 49.7141C64.9902 47.7053 64.9902 45.6961 64.9902 43.6869C64.9902 42.982 63.8945 42.9806 63.8945 43.6869Z" fill="#231F20"/>
<path d="M71.708 43.6869C71.708 45.6957 71.708 47.7049 71.708 49.7141C71.708 50.419 72.8037 50.4204 72.8037 49.7141C72.8037 47.7053 72.8037 45.6961 72.8037 43.6869C72.8037 42.982 71.708 42.9806 71.708 43.6869Z" fill="#231F20"/>
<path d="M79.6014 43.6869C79.6014 45.6957 79.6014 47.7049 79.6014 49.7141C79.6014 50.419 80.6971 50.4204 80.6971 49.7141C80.6971 47.7053 80.6971 45.6961 80.6971 43.6869C80.6971 42.982 79.6014 42.9806 79.6014 43.6869Z" fill="#231F20"/>
<path d="M65.1599 62.9144C65.1599 61.1752 66.5701 59.7654 68.3093 59.7654C70.0486 59.7654 71.4584 61.1752 71.4584 62.9144" fill="#EE997A"/>
<path d="M59.9775 59.7521C61.8488 59.7521 63.3658 58.2886 63.3658 56.4832C63.3658 54.6779 61.8488 53.2144 59.9775 53.2144C58.1062 53.2144 56.5892 54.6779 56.5892 56.4832C56.5892 58.2886 58.1062 59.7521 59.9775 59.7521Z" fill="#F2AE99"/>
<path d="M76.7364 59.7521C78.6077 59.7521 80.1247 58.2886 80.1247 56.4832C80.1247 54.6779 78.6077 53.2144 76.7364 53.2144C74.8651 53.2144 73.3481 54.6779 73.3481 56.4832C73.3481 58.2886 74.8651 59.7521 76.7364 59.7521Z" fill="#F2AE99"/>
<path d="M61.5187 57.4399C61.5187 58.7314 60.8288 59.7785 59.9775 59.7785C59.1261 59.7785 58.4362 58.7314 58.4362 57.4399C58.4362 56.1484 59.1261 55.1013 59.9775 55.1013C60.8284 55.1013 61.5187 56.1484 61.5187 57.4399Z" fill="#333333"/>
<path d="M78.2353 57.4399C78.2353 58.7314 77.5454 59.7785 76.694 59.7785C75.8426 59.7785 75.1527 58.7314 75.1527 57.4399C75.1527 56.1484 75.8426 55.1013 76.694 55.1013C77.5454 55.1013 78.2353 56.1484 78.2353 57.4399Z" fill="#333333"/>
<path d="M65.1599 68.2803C68.3758 68.2803 71.5913 68.2803 74.8068 68.2803C75.5117 68.2803 75.5132 67.1846 74.8068 67.1846C71.5913 67.1846 68.3754 67.1846 65.1599 67.1846C64.4546 67.1846 64.4535 68.2803 65.1599 68.2803Z" fill="#C94958"/>
<path d="M130.875 125.207H6.58921C5.32331 125.207 4.29663 124.042 4.29663 122.604C4.29663 121.167 5.32294 120.002 6.58921 120.002H130.875C132.141 120.002 133.168 121.167 133.168 122.604C133.168 124.042 132.141 125.207 130.875 125.207Z" fill="#C8B28F"/>
<path d="M95.9123 110.831H41.9156C41.3436 110.831 40.8801 110.367 40.8801 109.795V78.6333C40.8801 78.0614 41.3436 77.5979 41.9156 77.5979H95.9127C96.4843 77.5979 96.9482 78.0614 96.9482 78.6333V109.795C96.9478 110.367 96.4843 110.831 95.9123 110.831Z" fill="#C8B28F"/>
<path d="M95.9125 112.988H41.9157C41.3437 112.988 40.8802 112.525 40.8802 111.953V80.7911C40.8802 80.2195 41.3437 79.7556 41.9157 79.7556H95.9128C96.4844 79.7556 96.9483 80.2191 96.9483 80.7911V111.953C96.9479 112.525 96.4844 112.988 95.9125 112.988Z" fill="#D4EDF2"/>
<path d="M91.6612 120.04H46.2445C45.6393 120.04 45.1488 119.549 45.1488 118.944V116.361C45.1488 115.756 45.6393 115.265 46.2445 115.265H91.6612C92.2664 115.265 92.7569 115.756 92.7569 116.361V118.944C92.7569 119.549 92.2664 120.04 91.6612 120.04Z" fill="#D4EDF2"/>
<path d="M74.0564 120.04H62.7162L64.6297 100.361H72.4541L74.0564 120.04Z" fill="#C8B28F"/>
<path d="M68.4701 106.858C69.306 106.858 69.9836 106.18 69.9836 105.344C69.9836 104.508 69.306 103.831 68.4701 103.831C67.6342 103.831 66.9565 104.508 66.9565 105.344C66.9565 106.18 67.6342 106.858 68.4701 106.858Z" fill="#D4EDF2"/>
<path d="M37.7816 31.1746C43.9412 31.1746 48.9344 26.1813 48.9344 20.0217C48.9344 13.8622 43.9412 8.8689 37.7816 8.8689C31.6221 8.8689 26.6288 13.8622 26.6288 20.0217C26.6288 26.1813 31.6221 31.1746 37.7816 31.1746Z" fill="#E9DBC5"/>
<path d="M37.914 25.1327C39.8546 25.1327 41.4279 23.035 41.4279 20.4474C41.4279 17.8599 39.8546 15.7622 37.914 15.7622C35.9733 15.7622 34.4 17.8599 34.4 20.4474C34.4 23.035 35.9733 25.1327 37.914 25.1327Z" fill="#C8B28F"/>
<path d="M37.914 17.9951C39.1232 17.9951 40.1035 17.0148 40.1035 15.8056C40.1035 14.5963 39.1232 13.616 37.914 13.616C36.7047 13.616 35.7244 14.5963 35.7244 15.8056C35.7244 17.0148 36.7047 17.9951 37.914 17.9951Z" fill="#C8B28F"/>
<path d="M32.4006 14.0663C32.4006 15.0788 32.4006 16.0912 32.4006 17.1036C32.4006 17.3476 32.5376 17.6325 32.767 17.7424C33.5011 18.0945 34.2352 18.447 34.9693 18.7991C35.8236 19.2089 36.5753 17.9338 35.7162 17.5215C34.9821 17.1694 34.248 16.8169 33.5139 16.4648C33.6359 16.6778 33.7582 16.8907 33.8802 17.1036C33.8802 16.0912 33.8802 15.0788 33.8802 14.0663C33.8802 13.1145 32.4006 13.1127 32.4006 14.0663Z" fill="#C8B28F"/>
<path d="M33.8802 26.8462C33.8802 25.8338 33.8802 24.8214 33.8802 23.8086C33.7582 24.0215 33.6359 24.2344 33.5139 24.4474C34.248 24.0953 34.9821 23.7428 35.7162 23.3907C36.5745 22.9791 35.8247 21.703 34.9693 22.1132C34.2352 22.4652 33.5011 22.8177 32.767 23.1698C32.5376 23.2797 32.4006 23.5646 32.4006 23.8086C32.4006 24.821 32.4006 25.8334 32.4006 26.8462C32.4006 27.798 33.8802 27.7999 33.8802 26.8462Z" fill="#C8B28F"/>
<path d="M35.1407 20.3255C34.1954 20.1472 33.2502 19.9694 32.305 19.7911C32.4525 19.9043 32.5997 20.0179 32.7473 20.1312C32.3364 19.172 31.9251 18.2133 31.5142 17.2542C31.1402 16.3816 29.8652 17.1344 30.2366 18.0011C30.4529 18.5055 30.6691 19.0095 30.8849 19.5139C31.0745 19.9562 31.2235 20.5749 31.5274 20.9529C31.8484 21.3521 32.6322 21.3536 33.0942 21.4409C33.6454 21.5446 34.1965 21.6487 34.7477 21.7524C35.6776 21.9274 36.0764 20.5019 35.1407 20.3255Z" fill="#C8B28F"/>
<path d="M42.0006 14.0663C42.0006 15.0788 42.0006 16.0912 42.0006 17.1036C42.1226 16.8907 42.2449 16.6778 42.3669 16.4648C41.6328 16.8169 40.8987 17.169 40.1645 17.5215C39.3062 17.9331 40.0561 19.2092 40.9114 18.7991C41.6456 18.447 42.3797 18.0945 43.1138 17.7424C43.3432 17.6325 43.4801 17.3476 43.4801 17.1036C43.4801 16.0912 43.4801 15.0788 43.4801 14.0663C43.4801 13.1145 42.0006 13.1127 42.0006 14.0663Z" fill="#C8B28F"/>
<path d="M43.4801 26.8462C43.4801 25.8337 43.4801 24.8213 43.4801 23.8085C43.4801 23.5645 43.3432 23.2796 43.1138 23.1697C42.3797 22.8176 41.6456 22.4652 40.9114 22.1131C40.0571 21.7033 39.3055 22.9783 40.1645 23.3907C40.8986 23.7428 41.6328 24.0952 42.3669 24.4473C42.2449 24.2344 42.1225 24.0214 42.0006 23.8085C42.0006 24.8209 42.0006 25.8334 42.0006 26.8462C42.0006 27.798 43.4801 27.7998 43.4801 26.8462Z" fill="#C8B28F"/>
<path d="M41.1334 21.7521C41.6845 21.6483 42.2357 21.5442 42.7868 21.4405C43.2532 21.3525 44.0315 21.3536 44.3537 20.9525C44.6568 20.5753 44.8077 19.9529 44.9961 19.5135C45.2124 19.0091 45.4282 18.5051 45.6444 18.0007C46.0155 17.1351 44.7412 16.3805 44.3668 17.2538C43.9559 18.2129 43.5447 19.1717 43.1338 20.1308C43.2814 20.0175 43.4285 19.904 43.5757 19.7907C42.6305 19.969 41.6853 20.1468 40.74 20.3251C39.8054 20.5015 40.2013 21.9277 41.1334 21.7521Z" fill="#C8B28F"/>
<path d="M98.1798 31.1746C104.339 31.1746 109.333 26.1813 109.333 20.0217C109.333 13.8622 104.339 8.8689 98.1798 8.8689C92.0203 8.8689 87.027 13.8622 87.027 20.0217C87.027 26.1813 92.0203 31.1746 98.1798 31.1746Z" fill="#E9DBC5"/>
<path d="M104.415 24.3166H91.4716C90.6648 24.3166 90.0106 23.6625 90.0106 22.8557V21.9656C90.0106 21.1588 90.6648 20.5046 91.4716 20.5046H104.415C105.222 20.5046 105.876 21.1588 105.876 21.9656V22.8557C105.876 23.6625 105.222 24.3166 104.415 24.3166Z" fill="#C8B28F"/>
<path d="M104.415 19.7124H91.4716C90.6648 19.7124 90.0106 19.0582 90.0106 18.2514V17.3613C90.0106 16.5545 90.6648 15.9004 91.4716 15.9004H104.415C105.222 15.9004 105.876 16.5545 105.876 17.3613V18.2514C105.876 19.0582 105.222 19.7124 104.415 19.7124Z" fill="#C8B28F"/>
<path d="M93.2131 22.4108C93.2131 22.9057 92.8121 23.3067 92.3172 23.3067C91.8223 23.3067 91.4213 22.9057 91.4213 22.4108C91.4213 21.9159 91.8223 21.5149 92.3172 21.5149C92.8117 21.5149 93.2131 21.9159 93.2131 22.4108Z" fill="#333333"/>
<path d="M96.0736 22.4108C96.0736 22.9057 95.6725 23.3067 95.1777 23.3067C94.6828 23.3067 94.2817 22.9057 94.2817 22.4108C94.2817 21.9159 94.6828 21.5149 95.1777 21.5149C95.6725 21.5149 96.0736 21.9159 96.0736 22.4108Z" fill="#333333"/>
<path d="M98.934 22.4108C98.934 22.9057 98.533 23.3067 98.0381 23.3067C97.5432 23.3067 97.1422 22.9057 97.1422 22.4108C97.1422 21.9159 97.5432 21.5149 98.0381 21.5149C98.533 21.5149 98.934 21.9159 98.934 22.4108Z" fill="#333333"/>
<path d="M101.795 22.4108C101.795 22.9057 101.394 23.3067 100.899 23.3067C100.404 23.3067 100.003 22.9057 100.003 22.4108C100.003 21.9159 100.404 21.5149 100.899 21.5149C101.394 21.5149 101.795 21.9159 101.795 22.4108Z" fill="#333333"/>
<path d="M93.2131 17.8068C93.2131 18.3017 92.8121 18.7027 92.3172 18.7027C91.8223 18.7027 91.4213 18.3017 91.4213 17.8068C91.4213 17.3119 91.8223 16.9109 92.3172 16.9109C92.8117 16.9105 93.2131 17.3119 93.2131 17.8068Z" fill="#333333"/>
<path d="M96.0736 17.8068C96.0736 18.3017 95.6725 18.7027 95.1777 18.7027C94.6828 18.7027 94.2817 18.3017 94.2817 17.8068C94.2817 17.3119 94.6828 16.9109 95.1777 16.9109C95.6725 16.9105 96.0736 17.3119 96.0736 17.8068Z" fill="#333333"/>
<path d="M98.934 17.8068C98.934 18.3017 98.533 18.7027 98.0381 18.7027C97.5432 18.7027 97.1422 18.3017 97.1422 17.8068C97.1422 17.3119 97.5432 16.9109 98.0381 16.9109C98.533 16.9105 98.934 17.3119 98.934 17.8068Z" fill="#333333"/>
<path d="M101.795 17.8068C101.795 18.3017 101.394 18.7027 100.899 18.7027C100.404 18.7027 100.003 18.3017 100.003 17.8068C100.003 17.3119 100.404 16.9109 100.899 16.9109C101.394 16.9105 101.795 17.3119 101.795 17.8068Z" fill="#333333"/>
<path d="M104.659 17.8068C104.659 18.3017 104.258 18.7027 103.763 18.7027C103.268 18.7027 102.867 18.3017 102.867 17.8068C102.867 17.3119 103.268 16.9109 103.763 16.9109C104.258 16.9105 104.659 17.3119 104.659 17.8068Z" fill="#333333"/>
<path d="M102.657 20.8977V23.8751" stroke="#333333" stroke-miterlimit="10"/>
<path d="M11.4426 48.1665C17.6022 48.1665 22.5955 43.1732 22.5955 37.0137C22.5955 30.8541 17.6022 25.8608 11.4426 25.8608C5.28309 25.8608 0.289795 30.8541 0.289795 37.0137C0.289795 43.1732 5.28309 48.1665 11.4426 48.1665Z" fill="#E9DBC5"/>
<path d="M18.9036 40.427L12.7538 29.7753C12.2224 28.8549 10.8937 28.8549 10.3622 29.7753L4.21241 40.427C3.68099 41.3474 4.34535 42.4982 5.40819 42.4982H17.7079C18.7707 42.4982 19.4351 41.3477 18.9036 40.427Z" fill="#C8B28F"/>
<path d="M10.9032 32.56C10.9032 31.7159 12.2129 31.7174 12.2129 32.56C12.2129 34.5246 12.2129 36.4896 12.2129 38.4542C12.2129 39.2982 10.9032 39.2971 10.9032 38.4542C10.9032 36.4896 10.9032 34.525 10.9032 32.56Z" fill="#333333"/>
<path d="M11.5581 41.4809C11.9908 41.4809 12.3415 41.1302 12.3415 40.6975C12.3415 40.2648 11.9908 39.9141 11.5581 39.9141C11.1254 39.9141 10.7747 40.2648 10.7747 40.6975C10.7747 41.1302 11.1254 41.4809 11.5581 41.4809Z" fill="#333333"/>
<path d="M124.557 48.1665C130.717 48.1665 135.71 43.1732 135.71 37.0137C135.71 30.8541 130.717 25.8608 124.557 25.8608C118.398 25.8608 113.405 30.8541 113.405 37.0137C113.405 43.1732 118.398 48.1665 124.557 48.1665Z" fill="#E9DBC5"/>
<path d="M128.096 32.2309C127.85 28.5814 122.722 27.2896 121.318 30.965C120.937 31.9606 121.077 33.1472 121.077 34.1922C121.077 35.1995 121.077 36.2068 121.077 37.2141C121.077 38.2591 122.701 38.2609 122.701 37.2141C122.701 35.8821 122.701 34.5505 122.701 33.2185C122.701 32.6491 122.638 32.0384 122.864 31.504C123.67 29.5906 126.341 30.2885 126.472 32.2305C126.541 33.2681 128.166 33.2758 128.096 32.2309Z" fill="#C8B28F"/>
<path d="M124.586 34.8047C121.911 34.8047 119.744 36.9727 119.744 39.647C119.744 42.3212 121.912 44.4893 124.586 44.4893C127.26 44.4893 129.428 42.3212 129.428 39.647C129.429 36.9727 127.261 34.8047 124.586 34.8047Z" fill="#C8B28F"/>
<path d="M125.254 39.6686C125.254 40.4049 125.254 41.1416 125.254 41.8782C125.254 42.7767 123.86 42.7753 123.86 41.8782C123.86 41.1416 123.86 40.4052 123.86 39.6686C123.501 39.4385 123.263 39.0371 123.263 38.5791C123.263 37.8643 123.842 37.2847 124.557 37.2847C125.272 37.2847 125.851 37.8643 125.851 38.5791C125.852 39.0367 125.613 39.4385 125.254 39.6686Z" fill="#333333"/>
<path d="M68.5 22.7585C74.6595 22.7585 79.6528 17.7652 79.6528 11.6057C79.6528 5.44617 74.6595 0.452881 68.5 0.452881C62.3405 0.452881 57.3472 5.44617 57.3472 11.6057C57.3472 17.7652 62.3405 22.7585 68.5 22.7585Z" fill="#E9DBC5"/>
<path d="M66.8396 8.60791C63.7018 8.60791 61.158 11.1518 61.158 14.2895C61.158 17.4272 63.7018 19.9711 66.8396 19.9711C69.9777 19.9711 72.5212 17.4272 72.5212 14.2895C72.5212 11.1518 69.9777 8.60791 66.8396 8.60791Z" fill="#C8B28F"/>
<path d="M67.3681 8.92792C68.1074 6.51882 70.443 5.17074 72.8989 5.74672C73.5848 5.90742 73.8773 4.85152 73.1903 4.69009C70.1424 3.97532 67.2308 5.64116 66.3115 8.63646C66.104 9.31251 67.1614 9.60141 67.3681 8.92792Z" fill="#C8B28F"/>
<path d="M71.0698 8.60791H62.6099V10.4936H71.0698V8.60791Z" fill="#C8B28F"/>
<path d="M74.1257 2.97144L74.0231 4.48205L75.5501 4.06641L74.7115 5.16029L75.6502 6.17309H74.3985L73.774 7.63147L73.1472 5.99595H71.5953L72.5716 5.04889L72.1209 3.98533L73.3222 4.39038L74.1257 2.97144Z" fill="#C8B28F"/>
<path d="M65.4124 11.7955C64.1519 12.5074 63.615 13.9596 64.2451 15.296C64.6267 16.1053 63.4222 16.8135 63.0391 16.0009C62.0902 13.9884 62.745 11.6977 64.7074 10.5895C65.4916 10.1465 66.1951 11.3536 65.4124 11.7955Z" fill="#333333"/>
</svg>
