<svg width="38" height="34" viewBox="0 0 38 34" fill="none" xmlns="http://www.w3.org/2000/svg">
<path d="M1.00439 9.01793C1.00439 7.10639 1.00439 6.15062 1.22034 5.36681C1.49639 4.36632 2.02731 3.45457 2.76119 2.72068C3.49507 1.98679 4.40681 1.45587 5.40729 1.17981C6.1911 0.963867 7.14686 0.963867 9.05838 0.963867H27.3978C30.757 0.963867 32.4365 0.963867 33.7202 1.61771C34.8489 2.1928 35.7665 3.11043 36.3416 4.23908C36.9954 5.52277 36.9954 7.20236 36.9954 10.5616V23.3585C36.9954 26.7177 36.9954 28.3973 36.3416 29.6809C35.7665 30.8096 34.8489 31.7272 33.7202 32.3023C32.4365 32.9562 30.757 32.9562 27.3978 32.9562H23.2928" stroke="white" stroke-width="1.5" stroke-linecap="round" stroke-linejoin="round"/>
<path d="M17.0004 32.9561C17.0004 28.7137 15.3151 24.645 12.3153 21.6451C9.31545 18.6453 5.2468 16.96 1.00439 16.96M1.00439 32.9641L1.71022 32.2563M9.0024 32.9561C9.0024 30.8349 8.15975 28.8005 6.65984 27.3006C5.15992 25.8007 3.1256 24.958 1.00439 24.958" stroke="white" stroke-width="1.5" stroke-linecap="round" stroke-linejoin="round"/>
</svg>
