<svg width="27" height="26" viewBox="0 0 27 26" fill="none" xmlns="http://www.w3.org/2000/svg">
<path d="M8.02984 20.2635C7.83181 20.2537 7.67225 20.2382 7.46849 20.1899C7.26473 20.1416 7.10516 20.1261 6.93987 20.072C6.57081 19.9698 6.23449 19.8233 5.89244 19.6384C5.21407 19.3069 4.62817 18.8045 4.14046 18.1695C3.65848 17.573 3.31315 16.8381 3.16585 16.1131C3.07011 15.7343 3.05702 15.3824 3.0382 14.9921C3.04801 14.794 3.06356 14.6345 3.07338 14.4364C3.0832 14.2384 3.13721 14.0731 3.14702 13.8751L3.26568 14.4078C3.29432 14.6001 3.35569 14.7482 3.4228 14.9348C3.51281 15.2752 3.64128 15.6099 3.76403 15.9061C4.01525 16.537 4.33766 17.118 4.76973 17.6433C5.20179 18.1687 5.66659 18.6499 6.24104 19.0754C6.50617 19.2718 6.80976 19.4624 7.11335 19.6531C7.24591 19.7513 7.41694 19.8437 7.58796 19.9362L8.02984 20.2635ZM8.12068 21.6653C8.01676 21.7594 7.86864 21.8208 7.72053 21.8821C7.57242 21.9435 7.46277 21.9991 7.30893 22.0221C7.04544 22.1006 6.74349 22.1849 6.43008 22.1923C5.84745 22.2397 5.20917 22.1775 4.6691 21.9828C4.09056 21.7938 3.56603 21.4394 3.18388 20.9853C2.99567 20.7774 2.80173 20.5311 2.64625 20.2791C2.59061 20.1694 2.52923 20.0213 2.46786 19.8732C2.45068 19.7578 2.39503 19.6482 2.37212 19.4944C2.50468 19.5925 2.59879 19.6965 2.68717 19.7619C2.81973 19.8601 2.91384 19.9641 3.00221 20.0295C3.22315 20.1932 3.40563 20.3626 3.62085 20.4878C4.057 20.7766 4.48743 21.027 4.98332 21.189C5.44075 21.3568 5.96937 21.4746 6.4538 21.5597C6.69602 21.6023 6.97097 21.6006 7.25165 21.6375C7.37276 21.6587 7.5266 21.6358 7.6477 21.6571C7.84573 21.6669 7.96111 21.6497 8.12068 21.6653ZM14.0287 1.67911C14.2267 1.68892 14.392 1.74293 14.5958 1.79121C14.7996 1.83949 14.9648 1.8935 15.1301 1.9475C15.5049 2.08825 15.8413 2.23472 16.1833 2.41966C16.8674 2.78953 17.459 3.33042 17.9083 3.97115C18.3575 4.61187 18.6644 5.35243 18.7732 6.08317C18.8305 6.46777 18.8436 6.81964 18.824 7.2157C18.8142 7.41373 18.7986 7.57329 18.7503 7.77705C18.702 7.98081 18.6865 8.14038 18.6325 8.30567L18.5138 7.77296C18.4852 7.58066 18.4623 7.42682 18.3952 7.24025L18.1251 6.21901C17.9124 5.58238 17.5842 4.96293 17.1849 4.39339C16.7856 3.82386 16.3208 3.3427 15.7848 2.91146C15.5139 2.67661 15.2103 2.48594 14.9395 2.25109C14.8069 2.1529 14.6359 2.06043 14.4649 1.96796L14.0287 1.67911ZM17.3518 1.02691C17.5114 1.04245 17.6325 1.06373 17.7593 1.12346C17.8804 1.14474 18.0457 1.19875 18.1726 1.25848C18.4263 1.37795 18.6799 1.49742 18.9393 1.65535C19.4197 1.97694 19.8346 2.38691 20.107 2.89671C20.418 3.40078 20.5808 3.96622 20.5899 4.55458C20.5915 4.82953 20.5547 5.11021 20.5178 5.39088C20.4966 5.51199 20.4426 5.67729 20.4213 5.7984C20.3616 5.92523 20.3403 6.04634 20.2421 6.17891L20.1848 5.79431L20.1275 5.40971C20.0874 5.14049 20.0146 4.91545 19.9802 4.68469C19.8288 4.19617 19.6832 3.74611 19.4279 3.35169C19.1668 2.91881 18.8788 2.56858 18.5465 2.18561C18.3641 2.01623 18.1759 1.80838 17.9934 1.63899C17.8993 1.53507 17.8109 1.4696 17.6783 1.37141C17.5728 1.19057 17.4402 1.09237 17.3518 1.02691Z" fill="#42ADE2"/>
<path d="M3.93656 8.88284C3.21891 9.34354 3.08717 10.3067 3.54788 11.0243L9.90037 20.4176L12.4035 18.7474L6.04532 9.31571C5.58461 8.59806 4.64848 8.38367 3.93656 8.88284ZM17.864 15.0249L20.5096 13.2549L13.2529 2.54179C12.7537 1.82988 11.7791 1.62121 11.0287 2.12611C10.3168 2.62527 10.1082 3.59987 10.613 4.35025L17.864 15.0249Z" fill="#FFDD67"/>
<path d="M11.0615 2.08173C10.9903 2.13165 10.9192 2.18157 10.8537 2.26994C11.5558 1.96881 12.3765 2.20038 12.8258 2.84111L20.0825 13.5542L20.5481 13.249L13.2914 2.53588C12.7865 1.7855 11.8119 1.57684 11.0615 2.08173Z" fill="#EBA352"/>
<path d="M12.3977 18.708L15.1472 16.8439L7.74069 5.91716C7.2358 5.16678 6.17855 4.93112 5.42817 5.43601C4.6778 5.9409 4.48059 6.99242 4.98548 7.7428L12.3977 18.708Z" fill="#FFDD67"/>
<path d="M5.43397 5.47448C5.36278 5.52439 5.29159 5.57431 5.22613 5.66269C5.92822 5.36155 6.8259 5.58167 7.28088 6.26086L11.8748 13.0855L12.7954 13.4594L7.74649 5.95563C7.23587 5.16679 6.22281 4.96385 5.43397 5.47448Z" fill="#EBA352"/>
<path d="M14.5483 15.9901L17.2978 14.126L9.89132 3.19928C9.38643 2.4489 8.32919 2.21324 7.58454 2.75659C6.83416 3.26148 6.63695 4.313 7.14185 5.06338L14.5483 15.9901Z" fill="#FFDD67"/>
<path d="M7.57869 2.7182C7.50749 2.76812 7.44203 2.8565 7.37084 2.90641C8.07294 2.60527 8.97061 2.82539 9.42559 3.50458L14.6243 11.2219L15.5449 11.5959L9.8912 3.19935C9.38058 2.41051 8.32907 2.21331 7.57869 2.7182ZM3.93646 8.88247C3.86527 8.93238 3.79408 8.9823 3.72862 9.07068C4.39226 8.77527 5.17455 9.01257 5.58534 9.65902L9.36918 15.2676L10.2898 15.6416L6.05095 9.3538C5.58452 8.59769 4.64838 8.3833 3.93646 8.88247Z" fill="#EBA352"/>
<path d="M23.3023 4.81907C22.1436 4.16607 20.5831 5.3027 20.1494 8.19784C19.859 10.2068 19.868 10.7951 18.7232 11.5553L17.8189 10.2354C17.8189 10.2354 7.68106 17.1313 8.23014 17.9144C8.23014 17.9144 10.145 21.7964 12.6563 23.3487C16.3878 25.7021 23.6657 21.5124 22.9178 14.115C22.4742 9.81725 24.5494 5.53753 23.3023 4.81907Z" fill="#FFDD67"/>
<path d="M23.3023 4.8182C23.0871 4.693 22.8449 4.65045 22.6084 4.64636C22.6526 4.6791 22.7295 4.66764 22.7737 4.70037C24.0593 5.4131 23.1706 7.62906 22.7917 9.57252C22.471 11.1142 22.2329 12.6829 22.5275 14.1329C23.786 20.4714 17.8157 24.4664 13.7979 23.8854C17.8018 24.9009 24.3547 20.8585 23.0561 14.2507C22.7615 12.8007 22.9726 11.3147 23.3204 9.69036C23.6608 7.75262 24.5494 5.53666 23.3023 4.8182Z" fill="#EBA352"/>
<path d="M19.0464 11.3495C16.7019 11.9738 13.7119 15.918 16.729 19.2821C14.36 15.7822 16.9433 12.8028 18.6961 11.6375C18.8655 11.455 19.0464 11.3495 19.0464 11.3495Z" fill="#EBA352"/>
</svg>
