<svg width="25" height="24" viewBox="0 0 25 24" fill="none" xmlns="http://www.w3.org/2000/svg">
<path d="M7.48918 13.878L6.86263 16.217L4.57258 16.2654C3.8882 14.996 3.5 13.5437 3.5 12.0003C3.5 10.5079 3.86295 9.10055 4.50631 7.86133H4.5068L6.54559 8.23511L7.4387 10.2617C7.25177 10.8066 7.14989 11.3916 7.14989 12.0003C7.14996 12.661 7.26963 13.294 7.48918 13.878Z" fill="#FBBB00"/>
<path d="M21.3426 10.3184C21.446 10.8628 21.4999 11.425 21.4999 11.9997C21.4999 12.644 21.4321 13.2725 21.3031 13.8788C20.865 15.9419 19.7202 17.7434 18.1343 19.0182L18.1338 19.0177L15.5659 18.8867L15.2024 16.6179C16.2547 16.0007 17.0771 15.035 17.5103 13.8788H12.6978V10.3184H17.5805H21.3426Z" fill="#518EF8"/>
<path d="M18.1341 19.0183L18.1346 19.0188C16.5922 20.2585 14.633 21.0003 12.5002 21.0003C9.07275 21.0003 6.09288 19.0846 4.57275 16.2654L7.48935 13.8779C8.24939 15.9064 10.2062 17.3503 12.5002 17.3503C13.4862 17.3503 14.41 17.0838 15.2026 16.6185L18.1341 19.0183Z" fill="#28B446"/>
<path d="M18.2447 5.07197L15.3291 7.45894C14.5087 6.94615 13.539 6.64992 12.5 6.64992C10.1541 6.64992 8.16073 8.16013 7.43877 10.2613L4.50684 7.86098H4.50635C6.00421 4.97307 9.02168 3 12.5 3C14.6838 3 16.686 3.77787 18.2447 5.07197Z" fill="#F14336"/>
</svg>
