<svg width="669" height="492" viewBox="0 0 669 492" fill="none" xmlns="http://www.w3.org/2000/svg">
<path d="M668.262 430.821H0V431.155H668.262V430.821Z" fill="#EBEBEB"/>
<path d="M601.304 452.336H527.481V452.67H601.304V452.336Z" fill="#EBEBEB"/>
<path d="M441.721 445.327H430.103V445.661H441.721V445.327Z" fill="#EBEBEB"/>
<path d="M523.471 439.924H497.82V440.258H523.471V439.924Z" fill="#EBEBEB"/>
<path d="M127.841 442.169H70.1128V442.503H127.841V442.169Z" fill="#EBEBEB"/>
<path d="M348.906 450.801H287.798V451.135H348.906V450.801Z" fill="#EBEBEB"/>
<path d="M312.934 445.16H187.733V445.494H312.934V445.16Z" fill="#EBEBEB"/>
<path d="M368.714 192.03H127.869C123.883 192.03 120.651 188.799 120.651 184.813V72.4116C120.651 68.4261 123.882 65.1943 127.869 65.1943H368.714C372.7 65.1943 375.931 68.4261 375.931 72.4116V184.813C375.93 188.799 372.7 192.03 368.714 192.03Z" fill="#F5F5F5"/>
<path d="M358.084 181.401H117.238C113.253 181.401 110.021 178.17 110.021 174.183V61.7817C110.021 57.7962 113.251 54.5645 117.238 54.5645H358.084C362.069 54.5645 365.301 57.7962 365.301 61.7817V174.183C365.301 178.169 362.071 181.401 358.084 181.401Z" fill="#E0E0E0"/>
<path d="M347.177 170.494H106.332C102.346 170.494 99.1147 167.263 99.1147 163.277V50.8754C99.1147 46.8899 102.346 43.6582 106.332 43.6582H347.177C351.163 43.6582 354.395 46.8886 354.395 50.8754V163.277C354.395 167.264 351.164 170.494 347.177 170.494Z" fill="#EBEBEB"/>
<path d="M332.117 97.6982H121.393C117.438 97.6982 114.233 94.4932 114.233 90.5384V65.0816C114.233 61.1269 117.438 57.9219 121.393 57.9219H332.117C336.072 57.9219 339.277 61.1269 339.277 65.0816V90.5384C339.277 94.4918 336.071 97.6982 332.117 97.6982Z" fill="white"/>
<path d="M290.359 148.634H163.151C160.279 148.634 157.95 146.305 157.95 143.432V119.505C157.95 116.633 160.278 114.304 163.151 114.304H290.359C293.231 114.304 295.561 116.632 295.561 119.505V143.433C295.559 146.304 293.231 148.634 290.359 148.634Z" fill="#E0E0E0"/>
<path d="M226.755 89.9411C225.511 89.9411 224.503 88.9333 224.503 87.689V67.9259C224.503 66.6829 225.512 65.6738 226.755 65.6738C227.998 65.6738 229.007 66.6816 229.007 67.9259V87.689C229.007 88.9333 227.998 89.9411 226.755 89.9411Z" fill="#E0E0E0"/>
<path d="M236.636 80.0588H216.873C215.63 80.0588 214.621 79.051 214.621 77.8067C214.621 76.5638 215.63 75.5547 216.873 75.5547H236.636C237.881 75.5547 238.888 76.5624 238.888 77.8067C238.888 79.0497 237.881 80.0588 236.636 80.0588Z" fill="#E0E0E0"/>
<path d="M233.743 87.0461C233.167 87.0461 232.59 86.8269 232.151 86.3872L218.175 72.4125C217.295 71.5331 217.295 70.107 218.175 69.2289C219.054 68.3495 220.48 68.3495 221.358 69.2289L235.334 83.2036C236.214 84.083 236.214 85.5078 235.334 86.3872C234.895 86.8269 234.319 87.0461 233.743 87.0461Z" fill="#E0E0E0"/>
<path d="M219.767 87.0461C219.19 87.0461 218.614 86.8269 218.175 86.3872C217.295 85.5078 217.295 84.0817 218.175 83.2036L232.151 69.2289C233.03 68.3495 234.456 68.3495 235.334 69.2289C236.214 70.1083 236.214 71.5344 235.334 72.4125L221.358 86.3872C220.92 86.8269 220.343 87.0461 219.767 87.0461Z" fill="#E0E0E0"/>
<path d="M283.043 89.9411C281.8 89.9411 280.791 88.9333 280.791 87.689V67.9259C280.791 66.6829 281.8 65.6738 283.043 65.6738C284.286 65.6738 285.295 66.6816 285.295 67.9259V87.689C285.295 88.9333 284.286 89.9411 283.043 89.9411Z" fill="#E0E0E0"/>
<path d="M292.924 80.0588H273.161C271.918 80.0588 270.909 79.051 270.909 77.8067C270.909 76.5638 271.918 75.5547 273.161 75.5547H292.924C294.167 75.5547 295.176 76.5624 295.176 77.8067C295.176 79.0497 294.168 80.0588 292.924 80.0588Z" fill="#E0E0E0"/>
<path d="M290.031 87.0461C289.455 87.0461 288.879 86.8269 288.439 86.3872L274.463 72.4125C273.583 71.5331 273.583 70.107 274.463 69.2289C275.342 68.3495 276.768 68.3495 277.646 69.2289L291.622 83.2036C292.502 84.083 292.502 85.5078 291.622 86.3872C291.184 86.8269 290.607 87.0461 290.031 87.0461Z" fill="#E0E0E0"/>
<path d="M276.056 87.0461C275.48 87.0461 274.904 86.8269 274.464 86.3872C273.585 85.5078 273.585 84.0817 274.464 83.2036L288.44 69.2289C289.32 68.3495 290.746 68.3495 291.624 69.2289C292.503 70.1083 292.503 71.5344 291.624 72.4125L277.648 86.3872C277.208 86.8269 276.632 87.0461 276.056 87.0461Z" fill="#E0E0E0"/>
<path d="M170.468 89.9411C169.224 89.9411 168.216 88.9333 168.216 87.689V67.9259C168.216 66.6829 169.225 65.6738 170.468 65.6738C171.711 65.6738 172.72 66.6816 172.72 67.9259V87.689C172.72 88.9333 171.711 89.9411 170.468 89.9411Z" fill="#E0E0E0"/>
<path d="M180.349 80.0588H160.586C159.343 80.0588 158.333 79.051 158.333 77.8067C158.333 76.5638 159.343 75.5547 160.586 75.5547H180.349C181.593 75.5547 182.601 76.5624 182.601 77.8067C182.601 79.0497 181.593 80.0588 180.349 80.0588Z" fill="#E0E0E0"/>
<path d="M177.455 87.0461C176.879 87.0461 176.303 86.8269 175.864 86.3872L161.888 72.4125C161.008 71.5331 161.008 70.107 161.888 69.2289C162.767 68.3495 164.193 68.3495 165.071 69.2289L179.047 83.2036C179.927 84.083 179.927 85.5078 179.047 86.3872C178.608 86.8269 178.031 87.0461 177.455 87.0461Z" fill="#E0E0E0"/>
<path d="M163.479 87.0461C162.903 87.0461 162.327 86.8269 161.888 86.3872C161.008 85.5078 161.008 84.0817 161.888 83.2036L175.864 69.2289C176.743 68.3495 178.169 68.3495 179.047 69.2289C179.927 70.1083 179.927 71.5344 179.047 72.4125L165.071 86.3872C164.633 86.8269 164.055 87.0461 163.479 87.0461Z" fill="#E0E0E0"/>
<path d="M91.8713 327.432L74.1824 271.253C73.4874 269.046 74.8293 266.717 77.088 266.211L79.3534 265.705C85.7634 264.265 92.5476 261.492 99.0123 257.656C103.871 254.775 110.156 249.259 114.468 242.822C115.647 241.062 117.976 240.538 119.795 241.625C126.448 245.6 134.496 247.898 140.126 248.428C147.608 249.133 154.928 248.742 161.338 247.304L163.602 246.793C165.86 246.285 168.068 247.817 168.383 250.109L176.4 308.459C176.567 309.679 176.156 310.907 175.289 311.78L142.368 344.914C141.285 346.004 139.668 346.367 138.222 345.844L94.2984 329.957C93.137 329.543 92.2415 328.607 91.8713 327.432Z" fill="#F0F0F0"/>
<path d="M128.915 277.635L128.253 293.137L136.411 321.96L124.856 292.957L123.45 279.25L115.751 270.92L117.882 243.454C117.983 242.149 119.404 241.409 120.542 242.059C122.409 243.127 124.375 244.066 126.357 244.871C126.961 245.117 127.296 245.76 127.137 246.392L121.866 267.361L128.915 277.635Z" fill="#E0E0E0"/>
<path d="M480.707 54.8218L406.552 78.8592C403.512 79.8455 401.83 83.1387 402.815 86.1807L419.348 137.184C420.335 140.224 423.628 141.906 426.668 140.921L500.823 116.883C503.863 115.897 505.545 112.604 504.56 109.562L488.027 58.5587C487.042 55.5181 483.747 53.8368 480.707 54.8218Z" fill="#F5F5F5"/>
<path d="M457.706 95.8035L465.939 114.169L453.331 118.256L449.224 98.5527C445.701 97.982 442.61 95.5148 441.435 91.8915C439.761 86.7285 442.583 81.198 447.747 79.5247C452.901 77.854 458.43 80.6767 460.105 85.8397C461.279 89.463 460.234 93.2721 457.706 95.8035Z" fill="#E0E0E0"/>
<path d="M392.053 16.5005C380.6 32.627 384.59 55.102 399.916 67.6065L403.568 70.587C405.775 72.3873 409.024 72.0585 410.824 69.8505C412.625 67.6439 412.295 64.3962 410.088 62.5946L405.418 58.7841C393.042 48.6867 392.014 29.7588 403.997 18.3957C413.902 9.00531 429.526 9.12292 440.102 17.7515L445.898 9.16837C429.365 -4.31983 404.612 -1.18701 392.053 16.5005Z" fill="#EBEBEB"/>
<path d="M503.534 361.44C495.175 361.44 486.815 358.259 480.452 351.894C467.724 339.167 467.724 318.459 480.452 305.731C493.178 293.004 513.889 293.003 526.616 305.731C539.342 318.459 539.342 339.168 526.616 351.894C520.252 358.258 511.894 361.44 503.534 361.44ZM489.368 342.978C497.18 350.789 509.89 350.79 517.702 342.978C525.513 335.168 525.513 322.457 517.702 314.645C509.888 306.833 497.179 306.836 489.368 314.645C481.557 322.457 481.557 335.168 489.368 342.978Z" fill="#EBEBEB"/>
<path d="M568.521 400.104C566.908 400.104 565.293 399.489 564.064 398.257L517.701 351.894C515.239 349.432 515.239 345.44 517.701 342.978C520.161 340.516 524.155 340.516 526.616 342.978L572.977 389.341C575.44 391.803 575.44 395.795 572.977 398.257C571.749 399.489 570.134 400.104 568.521 400.104Z" fill="#EBEBEB"/>
<path d="M544.349 408.822C542.735 408.822 541.121 408.207 539.891 406.974C537.429 404.513 537.429 400.52 539.891 398.059L556.336 381.614C558.796 379.152 562.79 379.152 565.251 381.614C567.714 384.076 567.714 388.068 565.251 390.53L548.806 406.974C547.576 408.205 545.962 408.822 544.349 408.822Z" fill="#EBEBEB"/>
<path d="M536.671 390.741C535.058 390.741 533.444 390.127 532.214 388.894C529.751 386.432 529.751 382.44 532.214 379.978L543.458 368.734C545.919 366.272 549.912 366.272 552.373 368.734C554.836 371.196 554.836 375.188 552.373 377.65L541.129 388.894C539.899 390.125 538.285 390.741 536.671 390.741Z" fill="#EBEBEB"/>
<path d="M334.131 491.185C477.249 491.185 593.268 484.409 593.268 476.051C593.268 467.693 477.249 460.918 334.131 460.918C191.014 460.918 74.9941 467.693 74.9941 476.051C74.9941 484.409 191.014 491.185 334.131 491.185Z" fill="#F5F5F5"/>
<path d="M432.339 266.477C427.505 273.392 413.792 289.884 401.73 294.334C382.725 332.034 408.911 385.964 434.361 403.517C434.361 403.517 505.322 366.673 516.625 276.53L432.339 266.477Z" fill="#263238"/>
<path d="M522.859 48.5968C508.461 45.9719 475.061 44.4977 472.553 83.3077C470.046 122.118 457.447 147.739 489.459 154.576C490.331 150.483 491.71 144.007 491.71 144.007L522.859 48.5968Z" fill="#263238"/>
<path opacity="0.2" d="M522.859 48.5968C508.461 45.9719 475.061 44.4977 472.553 83.3077C470.046 122.118 457.447 147.739 489.459 154.576C490.331 150.483 491.71 144.007 491.71 144.007L522.859 48.5968Z" fill="white"/>
<path d="M468.604 143.225C461.169 139.979 452.511 143.374 449.265 150.809L449.193 150.976L442.875 165.445C440.765 170.301 438.584 175.109 436.418 179.867C435.329 182.242 434.217 184.596 433.08 186.902C431.972 189.226 430.841 191.519 429.677 193.726C428.525 195.941 427.307 198.071 426.145 200.086C425.671 200.891 425.19 201.665 424.716 202.401C423.977 202.52 423.222 202.632 422.441 202.73C419.898 203.033 417.171 203.18 414.36 203.186C411.543 203.164 408.649 203.082 405.716 202.92C402.777 202.738 399.81 202.448 396.814 202.137C390.822 201.5 384.758 200.624 378.669 199.627C375.627 199.123 372.567 198.615 369.521 198.046L360.446 196.362L360.19 196.312C357.05 195.731 353.781 197.265 352.295 200.268C350.5 203.894 351.983 208.29 355.609 210.085C361.661 213.081 367.611 215.517 373.798 217.835C376.886 218.955 379.989 220.065 383.145 221.062C386.303 222.048 389.49 222.985 392.723 223.858C399.21 225.512 405.855 226.969 412.881 227.742C416.4 228.125 420.023 228.357 423.812 228.336C427.609 228.316 431.568 227.981 435.87 227.028C438.018 226.555 440.048 225.474 441.696 223.779L442.303 223.155C444.967 220.416 446.964 217.864 448.851 215.327C450.72 212.809 452.34 210.277 453.927 207.777C457.088 202.777 459.885 197.776 462.511 192.73C463.845 190.218 465.116 187.693 466.335 185.151C467.555 182.61 468.792 180.083 469.929 177.517C471.073 174.953 472.229 172.4 473.3 169.806C474.404 167.199 475.409 164.666 476.461 161.893C479.203 154.627 475.806 146.37 468.604 143.225Z" fill="#263238"/>
<path opacity="0.2" d="M468.604 143.225C461.169 139.979 452.511 143.374 449.265 150.809L449.193 150.976L442.875 165.445C440.765 170.301 438.584 175.109 436.418 179.867C435.329 182.242 434.217 184.596 433.08 186.902C431.972 189.226 430.841 191.519 429.677 193.726C428.525 195.941 427.307 198.071 426.145 200.086C425.671 200.891 425.19 201.665 424.716 202.401C423.977 202.52 423.222 202.632 422.441 202.73C419.898 203.033 417.171 203.18 414.36 203.186C411.543 203.164 408.649 203.082 405.716 202.92C402.777 202.738 399.81 202.448 396.814 202.137C390.822 201.5 384.758 200.624 378.669 199.627C375.627 199.123 372.567 198.615 369.521 198.046L360.446 196.362L360.19 196.312C357.05 195.731 353.781 197.265 352.295 200.268C350.5 203.894 351.983 208.29 355.609 210.085C361.661 213.081 367.611 215.517 373.798 217.835C376.886 218.955 379.989 220.065 383.145 221.062C386.303 222.048 389.49 222.985 392.723 223.858C399.21 225.512 405.855 226.969 412.881 227.742C416.4 228.125 420.023 228.357 423.812 228.336C427.609 228.316 431.568 227.981 435.87 227.028C438.018 226.555 440.048 225.474 441.696 223.779L442.303 223.155C444.967 220.416 446.964 217.864 448.851 215.327C450.72 212.809 452.34 210.277 453.927 207.777C457.088 202.777 459.885 197.776 462.511 192.73C463.845 190.218 465.116 187.693 466.335 185.151C467.555 182.61 468.792 180.083 469.929 177.517C471.073 174.953 472.229 172.4 473.3 169.806C474.404 167.199 475.409 164.666 476.461 161.893C479.203 154.627 475.806 146.37 468.604 143.225Z" fill="white"/>
<path d="M357.831 195.565L346.846 192.297L346.75 211.373C346.75 211.373 353.759 212.564 358.827 210.744C361.871 209.65 363.566 206.382 363.073 203.186L362.771 201.226C362.355 198.542 360.433 196.339 357.831 195.565Z" fill="#CE7A63"/>
<path d="M332.257 200.051L333.35 206.742C333.786 209.406 336.086 211.362 338.785 211.365L346.749 211.373L346.845 192.297L336.922 193.704C333.865 194.139 331.759 197.001 332.257 200.051Z" fill="#CE7A63"/>
<path d="M526.542 138.667C507.223 135.887 485.159 134.86 465.876 136.565C456.357 137.407 448.887 145.087 448.414 154.631C447.364 175.833 445.346 216.235 430.133 273.616C438.678 283.358 467.965 301.317 515.584 289.896C531.018 263.861 541.77 224.772 552.062 175.11C555.697 157.567 544.276 141.22 526.542 138.667Z" fill="#263238"/>
<path opacity="0.4" d="M526.542 138.667C507.223 135.887 485.159 134.86 465.876 136.565C456.357 137.407 448.887 145.087 448.414 154.631C447.364 175.833 445.346 216.235 430.133 273.616C438.678 283.358 467.965 301.317 515.584 289.896C531.018 263.861 541.77 224.772 552.062 175.11C555.697 157.567 544.276 141.22 526.542 138.667Z" fill="white"/>
<path opacity="0.4" d="M484.93 147.463C475.641 173.521 476.383 190.543 474.258 209.037C472.132 227.53 462.544 270.017 451.964 282.186" stroke="#263238" stroke-width="0.9434" stroke-miterlimit="10"/>
<path d="M202.701 91.392C216.384 97.3716 229.932 103.576 243.402 109.978C256.885 116.345 270.279 122.901 283.61 129.586C310.264 142.972 336.607 156.99 362.628 171.614C388.611 186.308 414.143 201.82 439.241 218.058C464.197 234.523 488.547 251.959 511.967 270.721C513.98 272.333 514.304 275.274 512.691 277.286C511.078 279.299 508.139 279.624 506.126 278.012C506.11 277.999 506.094 277.987 506.078 277.973L506.001 277.908C483.25 258.985 459.448 241.258 434.97 224.452C410.34 207.866 385.222 191.959 359.608 176.844C333.958 161.799 307.949 147.336 281.605 133.49C268.429 126.575 255.185 119.786 241.847 113.184C228.529 106.55 215.101 100.098 201.597 93.898L201.579 93.89C200.892 93.5746 200.592 92.762 200.907 92.075C201.22 91.3961 202.018 91.094 202.701 91.392Z" fill="#263238"/>
<path d="M473.527 255.094C452.424 239.414 430.719 224.55 408.578 210.372C397.513 203.273 386.354 196.321 375.094 189.537C363.85 182.726 352.513 176.067 341.102 169.54C318.298 156.452 295.19 143.898 271.874 131.748C248.542 119.635 225.01 107.874 201.167 96.8301L201.357 96.8822C193.422 96.0576 185.393 96.1364 177.429 96.7486C169.463 97.3834 161.529 98.5729 153.772 100.459C149.896 101.408 146.065 102.538 142.345 103.948C138.637 105.365 135.002 107.046 131.801 109.316C130.215 110.453 128.738 111.758 127.623 113.296C126.506 114.822 125.816 116.632 125.927 118.463C126.019 120.294 126.851 122.06 127.993 123.59C129.141 125.13 130.574 126.48 132.106 127.708C135.192 130.151 138.667 132.129 142.222 133.909C145.761 135.692 149.545 137.133 153.101 139.126C156.642 141.085 160.118 143.365 162.837 146.546C164.181 148.133 165.296 149.981 165.9 152.037C166.479 154.097 166.491 156.295 166.07 158.357C165.155 162.496 162.903 166.038 160.551 169.316C158.161 172.598 155.538 175.654 152.986 178.742C150.435 181.825 147.924 184.934 145.808 188.27C143.716 191.591 141.976 195.213 141.626 199.034C141.249 202.852 142.568 206.644 144.887 209.734C147.178 212.867 150.28 215.396 153.508 217.65C159.984 222.117 168.073 223.651 175.939 223.464C183.861 223.292 191.722 221.628 199.369 219.407C207.027 217.167 214.511 214.313 221.879 211.199C236.625 204.956 250.881 197.592 265.335 190.577C272.581 187.104 279.845 183.617 287.525 180.968C289.449 180.319 291.406 179.733 293.418 179.296C295.429 178.867 297.505 178.561 299.663 178.7C300.739 178.771 301.844 178.984 302.902 179.438C303.961 179.875 304.937 180.634 305.645 181.567C307.061 183.492 307.352 185.788 307.367 187.873C307.371 188.417 306.934 188.859 306.39 188.864C305.847 188.868 305.402 188.431 305.4 187.887L305.398 187.873C305.4 185.988 305.085 184.089 304.08 182.743C303.09 181.395 301.371 180.754 299.521 180.639C297.668 180.514 295.728 180.78 293.824 181.187C291.914 181.599 290.016 182.16 288.138 182.791C280.628 185.365 273.376 188.823 266.151 192.27C251.719 199.243 237.415 206.601 222.577 212.852C215.159 215.972 207.613 218.835 199.857 221.089C192.11 223.321 184.119 225.008 175.968 225.172C171.902 225.241 167.796 224.921 163.808 223.947C159.821 222.993 155.968 221.357 152.564 219.026C149.241 216.691 146.019 214.073 143.561 210.703C142.338 209.027 141.317 207.165 140.685 205.147C140.048 203.136 139.824 200.985 140.014 198.888C140.418 194.664 142.298 190.845 144.461 187.418C146.655 183.977 149.209 180.833 151.778 177.742C154.346 174.651 156.959 171.614 159.301 168.41C161.614 165.215 163.753 161.796 164.582 158.047C164.964 156.181 164.951 154.26 164.45 152.448C163.922 150.643 162.934 148.976 161.693 147.506C159.189 144.553 155.843 142.323 152.392 140.409C148.943 138.463 145.203 137.029 141.577 135.198C137.968 133.381 134.427 131.363 131.218 128.814C129.627 127.53 128.111 126.108 126.861 124.424C125.622 122.756 124.643 120.738 124.532 118.533C124.401 116.326 125.252 114.174 126.499 112.485C127.749 110.771 129.333 109.392 131.001 108.199C134.363 105.828 138.084 104.125 141.864 102.687C145.653 101.258 149.536 100.122 153.456 99.1703C161.3 97.2792 169.296 96.0977 177.327 95.4735C185.36 94.8721 193.45 94.8079 201.485 95.658C201.55 95.6646 201.618 95.6847 201.675 95.7101C225.536 106.822 249.042 118.631 272.365 130.802C295.668 143.007 318.762 155.614 341.55 168.756C352.953 175.311 364.281 181.997 375.518 188.835C386.77 195.646 397.92 202.625 408.976 209.75C431.1 223.983 452.785 238.901 473.87 254.635C473.998 254.73 474.023 254.91 473.928 255.038C473.836 255.164 473.656 255.189 473.527 255.094Z" fill="#263238"/>
<path d="M222.337 103.279L220.862 105.913C220.404 106.728 219.363 107.022 218.548 106.565C217.733 106.108 217.439 105.067 217.896 104.252L219.371 101.617C219.828 100.802 220.868 100.509 221.685 100.965C222.5 101.422 222.794 102.463 222.337 103.279Z" fill="#263238"/>
<path d="M300.14 143.19L298.665 145.825C298.208 146.64 297.166 146.933 296.351 146.477C295.536 146.02 295.243 144.979 295.699 144.163L297.174 141.529C297.632 140.714 298.673 140.42 299.488 140.877C300.305 141.334 300.597 142.375 300.14 143.19Z" fill="#263238"/>
<path d="M381.211 188.611L379.736 191.245C379.278 192.061 378.237 192.355 377.422 191.898C376.607 191.441 376.313 190.399 376.77 189.584L378.245 186.95C378.702 186.135 379.744 185.841 380.559 186.298C381.374 186.755 381.668 187.796 381.211 188.611Z" fill="#263238"/>
<path d="M458.891 240.083L457.416 242.717C456.959 243.532 455.917 243.826 455.102 243.369C454.287 242.912 453.993 241.871 454.45 241.056L455.925 238.422C456.383 237.606 457.424 237.312 458.239 237.769C459.054 238.226 459.347 239.268 458.891 240.083Z" fill="#263238"/>
<path d="M499.704 254.904L488.463 274.97C487.855 276.055 486.443 276.38 485.421 275.671L456.611 255.644C455.719 255.025 455.445 253.83 455.975 252.884L467.216 232.818C467.824 231.732 469.236 231.408 470.258 232.117L499.068 252.144C499.96 252.763 500.235 253.956 499.704 254.904Z" fill="#263238"/>
<path d="M473.15 276.407C470.789 276.407 468.455 275.69 466.487 274.322L464.495 272.939C459.541 269.493 458.026 262.927 460.976 257.662L463.394 253.348C463.871 252.496 464.692 251.882 465.642 251.662C466.598 251.443 467.6 251.637 468.402 252.194L483.912 262.976C485.388 264.003 485.837 265.957 484.96 267.522L483.32 270.449C481.716 273.311 478.962 275.376 475.762 276.113C474.897 276.309 474.022 276.407 473.15 276.407ZM466.823 256.783L465.053 259.944C463.284 263.1 464.19 267.038 467.162 269.103L469.153 270.487C470.793 271.627 472.767 272.008 474.713 271.561C476.659 271.113 478.268 269.906 479.242 268.164L480.35 266.188L466.823 256.783Z" fill="#263238"/>
<path d="M498.14 247.933L495.266 253.062C494.99 253.556 494.386 253.694 493.918 253.368L474.74 239.98C474.272 239.654 474.119 238.987 474.395 238.492L477.268 233.364C477.546 232.869 478.15 232.732 478.617 233.058L497.797 246.446C498.263 246.772 498.418 247.437 498.14 247.933Z" fill="#263238"/>
<path d="M516.063 99.3906L491.738 116.409C493.674 125.036 493.741 134.053 481.821 136.717C482.803 140.765 485.98 143.278 491.71 144.008C499.23 145.478 504.961 146.154 511.235 141.737C513.689 140.009 516.661 138.406 515.339 135.542C510.83 125.767 513.587 109.072 516.063 99.3906Z" fill="#CE7A63"/>
<path opacity="0.2" d="M506.146 106.334L491.75 116.398C492.241 118.547 492.6 120.718 492.676 122.808C497.883 123.85 505.682 118.929 506.449 113.853C506.831 111.323 506.545 107.554 506.146 106.334Z" fill="black"/>
<path d="M523.662 84.5877C520.036 99.7412 518.683 108.803 509.567 115.242C495.853 124.929 478.169 114.422 477.194 98.4474C476.316 84.0691 482.393 61.7024 498.461 58.3691C514.289 55.0839 527.288 69.4329 523.662 84.5877Z" fill="#CE7A63"/>
<path d="M480.252 96.0822C480.252 96.0822 486.386 95.4741 503.195 97.2035C500.68 101.494 496.562 104.783 487.961 103.826C479.361 102.869 480.252 96.0822 480.252 96.0822Z" fill="white"/>
<path d="M521.389 55.6948C506.123 46.3284 485.715 51.2549 482.156 61.4098C482.156 61.4098 485.758 59.1096 489.389 59.8367C486.324 61.3643 482.151 65.0865 483.683 69.9395C487.389 65.6051 491.27 65.4835 491.27 65.4835C491.27 65.4835 494.098 70.7734 503.212 72.0124C502.526 69.5599 502.16 67.1849 502.16 67.1849C502.16 67.1849 506.152 75.8482 516.092 77.3946C513.466 80.3015 512.608 90.8721 519.19 95.018C528.538 94.4192 536.279 91.2891 535.751 85.542C536.82 87.766 537.507 89.8831 537.507 89.8831C537.507 89.8831 543.443 81.9789 536.407 72.948C539.786 68.7366 532.623 62.5886 521.389 55.6948Z" fill="#263238"/>
<path d="M479.817 75.0403C479.817 75.0403 476.598 81.5224 477.123 86.3753C480.719 86.3807 489.303 85.1163 489.303 85.1163C489.303 85.1163 494.2 89.5669 499.917 91.0558C505.635 92.5447 524.257 91.2951 524.257 91.2951L525.027 85.9076C525.027 85.9076 500.038 77.7253 490.388 76.0266C480.738 74.3266 479.817 75.0403 479.817 75.0403Z" fill="#263238"/>
<path d="M528.287 100.937C525.724 104.249 521.86 106.055 518.428 106.417C513.263 106.961 511.499 102.125 513.619 97.6961C515.528 93.7092 520.514 88.6224 525.368 90.1354C530.15 91.6229 531.218 97.1494 528.287 100.937Z" fill="#CE7A63"/>
<path d="M500.084 83.401C499.865 84.6493 499.027 85.5394 498.212 85.3884C497.396 85.2374 496.912 84.104 497.13 82.8557C497.35 81.6074 498.188 80.7172 499.003 80.8683C499.819 81.0193 500.303 82.1527 500.084 83.401Z" fill="white"/>
<path d="M485.144 80.5006C484.925 81.7489 484.087 82.639 483.272 82.488C482.456 82.3383 481.973 81.2036 482.19 79.9553C482.41 78.707 483.248 77.8168 484.063 77.9679C484.878 78.1189 485.362 79.2523 485.144 80.5006Z" fill="white"/>
<path d="M490.635 80.4932C490.635 80.4932 486.537 87.1704 482.805 90.068C484.651 92.5366 488.57 92.2867 488.57 92.2867L490.635 80.4932Z" fill="#BA4D3C"/>
<path d="M498.63 73.5109C498.534 73.5885 498.455 73.6914 498.407 73.8143C498.256 74.1952 498.447 74.6256 498.83 74.7766C502.684 76.2816 505.514 74.3302 505.633 74.2474C505.97 74.0095 506.046 73.547 505.807 73.2142C505.568 72.8814 505.103 72.8026 504.767 73.0378C504.674 73.102 502.45 74.5989 499.376 73.3987C499.115 73.2958 498.832 73.3479 498.63 73.5109Z" fill="#263238"/>
<path d="M484.915 72.5026C484.867 72.266 484.705 72.0589 484.466 71.964C481.425 70.7531 480.853 68.1335 480.83 68.0226C480.747 67.6216 480.357 67.3623 479.956 67.4465C479.555 67.5307 479.295 67.9223 479.373 68.3246C479.406 68.4703 480.099 71.8357 483.91 73.3526C484.291 73.5037 484.724 73.3166 484.877 72.933C484.932 72.79 484.943 72.6416 484.915 72.5026Z" fill="#263238"/>
<path d="M548.64 152.895C549.948 155.622 551.081 158.062 552.203 160.668C553.329 163.235 554.395 165.821 555.428 168.427C557.523 173.627 559.401 178.933 561.186 184.342C562.896 189.778 564.532 195.303 565.791 201.142C566.417 204.071 566.979 207.063 567.403 210.225C567.823 213.393 568.137 216.702 568.026 220.489C567.966 222.388 567.815 224.413 567.379 226.718C567.15 227.882 566.872 229.086 566.426 230.422L566.083 231.415L565.651 232.475C565.343 233.228 565.061 233.724 564.758 234.319L564.101 235.494C563.809 235.979 563.515 236.477 563.212 236.94C562.604 237.866 561.973 238.743 561.327 239.551C560.041 241.183 558.677 242.577 557.311 243.832C551.83 248.798 546.289 251.831 540.765 254.377C538.017 255.658 535.244 256.724 532.48 257.697C529.722 258.685 526.953 259.532 524.175 260.276C521.407 261.048 518.615 261.676 515.821 262.248C512.99 262.812 510.28 263.248 507.249 263.613C503.216 264.098 499.553 261.222 499.068 257.19C498.692 254.065 500.335 251.16 502.971 249.787L503.343 249.597C512.392 244.906 521.813 239.939 529.578 234.425C533.419 231.678 536.974 228.712 539.082 225.992C539.601 225.321 540.008 224.677 540.317 224.139C540.473 223.865 540.584 223.615 540.678 223.392L540.787 223.081L541.035 222.449C541.02 222.435 541.072 222.342 540.988 222.46C540.963 222.497 540.941 222.537 540.925 222.579C540.908 222.588 540.894 222.596 540.884 222.607C540.845 222.659 540.837 222.539 540.837 222.376C540.837 222.022 540.83 221.347 540.763 220.553C540.626 218.948 540.328 216.884 539.879 214.736C539.432 212.579 538.843 210.303 538.179 207.999C536.826 203.38 535.268 198.602 533.483 193.842C531.771 189.055 529.841 184.273 527.925 179.471L524.966 172.292L522.003 165.274L521.87 164.963C518.716 157.49 522.217 148.875 529.689 145.721C536.932 142.661 545.264 145.891 548.64 152.895Z" fill="#263238"/>
<path opacity="0.2" d="M548.64 152.895C549.948 155.622 551.081 158.062 552.203 160.668C553.329 163.235 554.395 165.821 555.428 168.427C557.523 173.627 559.401 178.933 561.186 184.342C562.896 189.778 564.532 195.303 565.791 201.142C566.417 204.071 566.979 207.063 567.403 210.225C567.823 213.393 568.137 216.702 568.026 220.489C567.966 222.388 567.815 224.413 567.379 226.718C567.15 227.882 566.872 229.086 566.426 230.422L566.083 231.415L565.651 232.475C565.343 233.228 565.061 233.724 564.758 234.319L564.101 235.494C563.809 235.979 563.515 236.477 563.212 236.94C562.604 237.866 561.973 238.743 561.327 239.551C560.041 241.183 558.677 242.577 557.311 243.832C551.83 248.798 546.289 251.831 540.765 254.377C538.017 255.658 535.244 256.724 532.48 257.697C529.722 258.685 526.953 259.532 524.175 260.276C521.407 261.048 518.615 261.676 515.821 262.248C512.99 262.812 510.28 263.248 507.249 263.613C503.216 264.098 499.553 261.222 499.068 257.19C498.692 254.065 500.335 251.16 502.971 249.787L503.343 249.597C512.392 244.906 521.813 239.939 529.578 234.425C533.419 231.678 536.974 228.712 539.082 225.992C539.601 225.321 540.008 224.677 540.317 224.139C540.473 223.865 540.584 223.615 540.678 223.392L540.787 223.081L541.035 222.449C541.02 222.435 541.072 222.342 540.988 222.46C540.963 222.497 540.941 222.537 540.925 222.579C540.908 222.588 540.894 222.596 540.884 222.607C540.845 222.659 540.837 222.539 540.837 222.376C540.837 222.022 540.83 221.347 540.763 220.553C540.626 218.948 540.328 216.884 539.879 214.736C539.432 212.579 538.843 210.303 538.179 207.999C536.826 203.38 535.268 198.602 533.483 193.842C531.771 189.055 529.841 184.273 527.925 179.471L524.966 172.292L522.003 165.274L521.87 164.963C518.716 157.49 522.217 148.875 529.689 145.721C536.932 142.661 545.264 145.891 548.64 152.895Z" fill="white"/>
<path d="M502.861 248.763L491.994 248.957L497.665 267.17C497.665 267.17 503.049 266.418 507.264 264.045C510.903 261.996 512.214 257.384 510.359 253.641L510.133 253.186C508.769 250.43 505.937 248.708 502.861 248.763Z" fill="#CE7A63"/>
<path d="M480.43 260.757L483.495 266.805C484.715 269.213 487.499 270.382 490.072 269.57L497.666 267.171L491.995 248.958L482.962 253.298C480.176 254.634 479.034 258.001 480.43 260.757Z" fill="#CE7A63"/>
<path opacity="0.2" d="M525.913 54.4901C513.963 50.1037 504.392 50.2173 498.168 51.2237C495.872 51.5952 495.572 54.8122 497.758 55.6128C507.032 59.0103 514.626 69.1358 512.765 84.6889C509.059 115.659 491.612 144.47 491.612 144.47L513.836 144.651C513.836 144.651 530.142 136.515 540.059 115.442C549.974 94.3693 547.824 62.5307 525.913 54.4901Z" fill="black"/>
<path d="M491.709 144.008C491.709 144.008 518.664 108.956 519.543 81.0724C520.421 53.1872 490.677 51.5659 490.677 51.5659C490.677 51.5659 499.959 44.2739 522.859 48.5975C545.793 52.9265 553.149 83.9767 546.833 106.394C540.515 128.812 526.861 144.059 526.861 144.059L489.461 154.577L491.709 144.008Z" fill="#263238"/>
<path opacity="0.4" d="M491.709 144.008C491.709 144.008 518.664 108.956 519.543 81.0724C520.421 53.1872 490.677 51.5659 490.677 51.5659C490.677 51.5659 499.959 44.2739 522.859 48.5975C545.793 52.9265 553.149 83.9767 546.833 106.394C540.515 128.812 526.861 144.059 526.861 144.059L489.461 154.577L491.709 144.008Z" fill="white"/>
<path d="M155.588 376.542V214.096C155.588 206.38 161.843 200.124 169.56 200.124H431.177C438.893 200.124 445.149 206.379 445.149 214.096V376.542C445.149 384.258 438.894 390.514 431.177 390.514H169.56C161.843 390.513 155.588 384.258 155.588 376.542Z" fill="#57E7F5"/>
<path d="M168.768 395.746C161.5 395.746 153.985 397.696 151.992 400.122L98.4096 460.102C95.5788 463.548 100.426 471.623 109.259 471.623H429.128C437.961 471.623 445.147 468.778 445.147 465.332V400.122C445.147 397.696 439.234 395.746 431.966 395.746H168.768Z" fill="#57E7F5"/>
<path opacity="0.2" d="M168.768 395.746C161.5 395.746 153.985 397.696 151.992 400.122L98.4096 460.102C95.5788 463.548 100.426 471.623 109.259 471.623H429.128C437.961 471.623 445.147 468.778 445.147 465.332V400.122C445.147 397.696 439.234 395.746 431.966 395.746H168.768Z" fill="black"/>
<path d="M168.769 390.514C161.501 390.514 153.985 392.464 151.993 394.889L98.4101 460.1C95.5793 463.545 100.427 466.389 109.26 466.389H429.129C437.962 466.389 445.147 463.545 445.147 460.1V394.891C445.147 392.465 439.234 390.515 431.966 390.515H168.769V390.514Z" fill="#57E7F5"/>
<path opacity="0.2" d="M162.525 400.395L140.066 429.184C138.526 431.158 141.682 432.774 147.129 432.774H418.883C424.331 432.774 428.814 431.159 428.895 429.184L430.091 400.395C430.161 398.718 426.197 397.368 421.238 397.368H173.865C168.907 397.368 163.833 398.717 162.525 400.395Z" fill="black"/>
<path opacity="0.2" d="M227.219 440.601L217.574 458.414C217.057 459.371 218.621 460.149 221.071 460.149H322.447C324.897 460.149 327.101 459.371 327.368 458.414L332.36 440.601C332.605 439.728 330.916 439.022 328.589 439.022H232.287C229.96 439.022 227.692 439.728 227.219 440.601Z" fill="black"/>
<path opacity="0.7" d="M431.402 386.748H169.334C163.845 386.748 159.354 382.258 159.354 376.769V213.87C159.354 208.381 163.845 203.891 169.334 203.891H431.402C436.892 203.891 441.382 208.381 441.382 213.87V376.769C441.382 382.258 436.892 386.748 431.402 386.748Z" fill="white"/>
<path d="M373.984 271.97H226.755V359.619H373.984V271.97Z" fill="#57E7F5"/>
<path opacity="0.1" d="M373.984 271.97H226.755V359.619H373.984V271.97Z" fill="black"/>
<path opacity="0.1" d="M300.369 319.776L373.984 271.969H226.755L300.369 319.776Z" fill="#263238"/>
<path d="M309.569 230.138L373.982 271.969H226.755L291.17 230.138C296.765 226.504 303.974 226.504 309.569 230.138Z" fill="#57E7F5"/>
<path opacity="0.2" d="M232.224 271.97L293.427 232.223C297.649 229.48 303.09 229.48 307.312 232.223L368.516 271.97H232.224Z" fill="#263238"/>
<path d="M306.382 239.453C305.839 239.453 305.398 239.012 305.398 238.47V193.998C305.398 193.454 305.839 193.015 306.382 193.015C306.925 193.015 307.366 193.456 307.366 193.998V238.47C307.366 239.012 306.925 239.453 306.382 239.453Z" fill="#263238"/>
<path d="M306.383 194.983C304.14 194.983 302.317 193.159 302.317 190.917C302.317 188.676 304.141 186.852 306.383 186.852C308.625 186.852 310.448 188.676 310.448 190.917C310.448 193.159 308.625 194.983 306.383 194.983ZM306.383 188.819C305.225 188.819 304.284 189.76 304.284 190.917C304.284 192.075 305.225 193.016 306.383 193.016C307.54 193.016 308.481 192.075 308.481 190.917C308.481 189.76 307.54 188.819 306.383 188.819Z" fill="#263238"/>
<path d="M262.529 227.979L242.868 233.878L239.827 280.46L300.369 319.778L360.911 280.46L364.018 236.813L262.529 227.979Z" fill="white"/>
<path opacity="0.6" d="M324.883 279.633C324.604 283.346 323.398 286.76 321.513 289.677C317.381 296.104 309.936 300.126 301.764 299.508C293.591 298.892 286.834 293.799 283.713 286.825C282.287 283.658 281.608 280.102 281.887 276.389C282.783 264.514 293.132 255.617 305.007 256.512C316.882 257.408 325.779 267.758 324.883 279.633Z" fill="#57E7F5"/>
<path d="M319.475 288.631C315.804 294.342 309.188 297.916 301.925 297.368C294.663 296.82 288.659 292.294 285.884 286.097C290.936 283.248 296.849 281.807 303.063 282.276C309.279 282.744 314.908 285.054 319.475 288.631Z" fill="white"/>
<path d="M312.37 272.371C312.016 277.07 307.918 280.593 303.219 280.239C298.52 279.885 294.997 275.787 295.351 271.088C295.705 266.389 299.803 262.866 304.502 263.22C309.201 263.574 312.724 267.67 312.37 272.371Z" fill="white"/>
<path d="M296.726 249.112C291.598 249.112 287.305 245.465 286.305 240.628L285.264 241.67C284.88 242.055 284.256 242.055 283.873 241.67C283.489 241.287 283.489 240.664 283.873 240.279L286.375 237.777C286.655 237.495 287.079 237.411 287.448 237.563C287.814 237.716 288.055 238.074 288.055 238.472C288.055 243.254 291.944 247.145 296.727 247.145C297.27 247.145 297.711 247.586 297.711 248.128C297.71 248.671 297.269 249.112 296.726 249.112Z" fill="#263238"/>
<path d="M262.53 227.979L259.106 238.472L242.868 233.878" fill="#E0E0E0"/>
<path d="M262.53 227.979L260.871 236.596L242.868 233.878" fill="#F0F0F0"/>
<path d="M287.815 311.61L226.755 359.618H373.984L312.923 311.61C305.555 305.819 295.182 305.819 287.815 311.61Z" fill="#57E7F5"/>
</svg>
