<svg width="19" height="19" viewBox="0 0 19 19" fill="none" xmlns="http://www.w3.org/2000/svg">
<path d="M11.5256 1.43087C11.551 1.33569 11.595 1.24645 11.6549 1.16827C11.7149 1.09008 11.7897 1.02448 11.875 0.975199C11.9603 0.925922 12.0545 0.893939 12.1522 0.881078C12.2499 0.868217 12.3491 0.87473 12.4443 0.900245C13.8347 1.26301 15.1032 1.98985 16.1193 3.0059C17.1353 4.02196 17.8622 5.2905 18.2249 6.68087C18.2505 6.77604 18.257 6.8753 18.2441 6.97299C18.2312 7.07067 18.1993 7.16487 18.15 7.25019C18.1007 7.33551 18.0351 7.41028 17.9569 7.47024C17.8787 7.5302 17.7895 7.57416 17.6943 7.59962C17.631 7.61626 17.5658 7.62477 17.5003 7.62493C17.335 7.62493 17.1743 7.57033 17.0433 7.46963C16.9122 7.36893 16.8181 7.22776 16.7756 7.06806C16.4797 5.93305 15.8865 4.89747 15.0571 4.06808C14.2277 3.23869 13.1921 2.64548 12.0571 2.34962C11.9619 2.32426 11.8725 2.28037 11.7942 2.22046C11.7159 2.16054 11.6502 2.08578 11.6009 2.00045C11.5515 1.91512 11.5194 1.82089 11.5065 1.72316C11.4936 1.62542 11.5001 1.5261 11.5256 1.43087ZM11.3071 5.34962C12.5999 5.69462 13.4306 6.52524 13.7756 7.81806C13.8181 7.97776 13.9122 8.11893 14.0433 8.21963C14.1743 8.32033 14.335 8.37493 14.5003 8.37493C14.5658 8.37477 14.631 8.36626 14.6943 8.34962C14.7895 8.32416 14.8787 8.2802 14.9569 8.22024C15.0351 8.16028 15.1007 8.08551 15.15 8.00019C15.1993 7.91487 15.2312 7.82067 15.2441 7.72299C15.257 7.6253 15.2505 7.52604 15.2249 7.43087C14.7449 5.63462 13.4906 4.38024 11.6943 3.90024C11.5021 3.8489 11.2974 3.87601 11.1252 3.97561C10.953 4.07521 10.8274 4.23914 10.776 4.43134C10.7247 4.62354 10.7518 4.82826 10.8514 5.00047C10.951 5.17268 11.1149 5.29828 11.3071 5.34962ZM18.989 14.2887C18.8218 15.559 18.198 16.7251 17.2339 17.5691C16.2699 18.413 15.0315 18.8772 13.7503 18.8749C6.3065 18.8749 0.250253 12.8187 0.250253 5.37493C0.247956 4.09364 0.712147 2.85533 1.55613 1.89127C2.40011 0.927215 3.56616 0.303345 4.8365 0.136182C5.15774 0.0969582 5.48305 0.162678 5.76387 0.323531C6.04468 0.484384 6.26595 0.731743 6.39463 1.02868L8.37463 5.449V5.46025C8.47315 5.68755 8.51383 5.93571 8.49306 6.18257C8.47228 6.42943 8.39069 6.6673 8.25557 6.87493C8.23869 6.90025 8.22088 6.92368 8.20213 6.94712L6.25025 9.26087C6.95244 10.6877 8.44494 12.1671 9.89057 12.8712L12.1724 10.9296C12.1948 10.9108 12.2183 10.8933 12.2428 10.8771C12.4502 10.7387 12.6889 10.6543 12.9372 10.6314C13.1855 10.6084 13.4357 10.6478 13.6649 10.7459L13.6771 10.7515L18.0937 12.7306C18.3912 12.8588 18.6391 13.0799 18.8005 13.3607C18.9619 13.6416 19.028 13.9671 18.989 14.2887ZM17.5003 14.1012C17.5003 14.1012 17.4937 14.1012 17.4899 14.1012L13.0837 12.1277L10.8009 14.0693C10.7787 14.0881 10.7556 14.1056 10.7315 14.1218C10.5156 14.2658 10.2661 14.3514 10.0073 14.3701C9.74852 14.3888 9.48928 14.3401 9.25494 14.2287C7.499 13.3802 5.74869 11.6431 4.89931 9.90587C4.78684 9.67323 4.73637 9.41549 4.7528 9.15761C4.76922 8.89974 4.85199 8.65048 4.99306 8.43399C5.00897 8.40858 5.02683 8.38444 5.0465 8.36181L7.00025 6.04525L5.0315 1.639C5.03113 1.63525 5.03113 1.63149 5.0315 1.62774C4.12237 1.74634 3.28764 2.19227 2.68364 2.88204C2.07964 3.57181 1.7478 4.4581 1.75025 5.37493C1.75373 8.55646 3.01912 11.6067 5.26881 13.8564C7.51849 16.1061 10.5687 17.3715 13.7503 17.3749C14.6665 17.3781 15.5526 17.0474 16.2427 16.4447C16.9329 15.842 17.3799 15.0086 17.5003 14.1002V14.1012Z" fill="white"/>
</svg>
