<svg width="18" height="16" viewBox="0 0 18 16" fill="none" xmlns="http://www.w3.org/2000/svg">
<path d="M1 3.99961L7.53194 8.57196C8.06087 8.94222 8.32534 9.12735 8.61301 9.19906C8.86712 9.2624 9.13288 9.2624 9.38699 9.19906C9.67466 9.12735 9.93913 8.94222 10.4681 8.57196L17 3.99961M4.84 14.3996H13.16C14.5041 14.3996 15.1762 14.3996 15.6896 14.138C16.1412 13.9079 16.5083 13.5408 16.7384 13.0892C17 12.5758 17 11.9037 17 10.5596V5.43961C17 4.09548 17 3.42342 16.7384 2.91003C16.5083 2.45844 16.1412 2.09129 15.6896 1.86119C15.1762 1.59961 14.5041 1.59961 13.16 1.59961H4.84C3.49587 1.59961 2.82381 1.59961 2.31042 1.86119C1.85883 2.09129 1.49168 2.45844 1.26158 2.91003C1 3.42342 1 4.09548 1 5.43961V10.5596C1 11.9037 1 12.5758 1.26158 13.0892C1.49168 13.5408 1.85883 13.9079 2.31042 14.138C2.82381 14.3996 3.49587 14.3996 4.84 14.3996Z" stroke="#828282" stroke-width="1.5" stroke-linecap="round" stroke-linejoin="round"/>
</svg>
