<svg width="55" height="55" viewBox="0 0 55 55" fill="none" xmlns="http://www.w3.org/2000/svg">
<g clip-path="url(#clip0_116_3252)">
<path d="M16.5 38.5L14.861 37.6787C14.6894 38.0225 14.6301 38.4117 14.6917 38.791C14.7532 39.1704 14.9324 39.5209 15.204 39.7928C15.4756 40.0648 15.8258 40.2445 16.205 40.3067C16.5843 40.3688 16.9735 40.3101 17.3177 40.139L16.5 38.5ZM23.8333 23.8333L23.012 22.1943C22.6584 22.3715 22.3715 22.6584 22.1943 23.012L23.8333 23.8333ZM38.5 16.5L40.139 17.3213C40.3106 16.9775 40.3699 16.5883 40.3083 16.209C40.2468 15.8296 40.0676 15.4791 39.796 15.2072C39.5244 14.9352 39.1743 14.7555 38.795 14.6933C38.4157 14.6312 38.0265 14.6899 37.6823 14.861L38.5 16.5ZM31.1667 31.1667L31.988 32.8057C32.3416 32.6285 32.6285 32.3416 32.8057 31.988L31.1667 31.1667ZM27.5 51.3333C21.179 51.3333 15.1169 48.8223 10.6473 44.3527C6.17767 39.8831 3.66667 33.821 3.66667 27.5H0C0 34.7935 2.89731 41.7882 8.05456 46.9454C13.2118 52.1027 20.2065 55 27.5 55V51.3333ZM51.3333 27.5C51.3333 30.6298 50.7169 33.729 49.5191 36.6206C48.3214 39.5122 46.5658 42.1396 44.3527 44.3527C42.1396 46.5658 39.5122 48.3214 36.6206 49.5191C33.729 50.7169 30.6298 51.3333 27.5 51.3333V55C34.7935 55 41.7882 52.1027 46.9454 46.9454C52.1027 41.7882 55 34.7935 55 27.5H51.3333ZM27.5 3.66667C30.6298 3.66667 33.729 4.28313 36.6206 5.48087C39.5122 6.67861 42.1396 8.43416 44.3527 10.6473C46.5658 12.8604 48.3214 15.4878 49.5191 18.3794C50.7169 21.271 51.3333 24.3702 51.3333 27.5H55C55 20.2065 52.1027 13.2118 46.9454 8.05456C41.7882 2.89731 34.7935 0 27.5 0V3.66667ZM27.5 0C20.2065 0 13.2118 2.89731 8.05456 8.05456C2.89731 13.2118 0 20.2065 0 27.5H3.66667C3.66667 21.179 6.17767 15.1169 10.6473 10.6473C15.1169 6.17767 21.179 3.66667 27.5 3.66667V0ZM18.139 39.3213L25.4723 24.6547L22.1943 23.012L14.861 37.6787L18.139 39.3213ZM24.6547 25.4723L39.3213 18.139L37.6787 14.861L23.012 22.1943L24.6547 25.4723ZM36.861 15.6823L29.5277 30.349L32.8057 31.988L40.139 17.3213L36.861 15.6823ZM30.3453 29.524L15.6787 36.8573L17.3213 40.1353L31.988 32.8057L30.3453 29.524Z" fill="white"/>
</g>
<defs>
<clipPath id="clip0_116_3252">
<rect width="55" height="55" fill="white"/>
</clipPath>
</defs>
</svg>
