<svg width="33" height="32" viewBox="0 0 33 32" fill="none" xmlns="http://www.w3.org/2000/svg">
<path d="M22.9503 17.3013C22.8712 17.2219 22.8125 17.1244 22.7791 17.0174C22.7458 16.9103 22.7388 16.7967 22.7588 16.6864C22.7787 16.576 22.8251 16.4722 22.8939 16.3836C22.9626 16.295 23.0518 16.2244 23.1537 16.1777L31.2049 13.0835L31.2327 13.0731C31.6161 12.9021 31.9391 12.6193 32.1593 12.2617C32.3795 11.9041 32.4868 11.4884 32.4671 11.0688C32.4473 10.6493 32.3016 10.2454 32.0488 9.9101C31.796 9.57477 31.4479 9.32354 31.0502 9.18925L3.2179 0.0979631C2.85342 -0.0178739 2.46413 -0.0312565 2.09257 0.0592778C1.721 0.149812 1.38146 0.34078 1.11105 0.611313C0.840632 0.881846 0.649747 1.22154 0.559252 1.59326C0.468757 1.96499 0.482134 2.35444 0.597921 2.71908L9.68526 30.5634C9.81381 30.966 10.0628 31.3193 10.3986 31.5756C10.7345 31.8319 11.1409 31.9789 11.5629 31.9966H11.6637C12.0702 32 12.4686 31.8831 12.8089 31.6606C13.1491 31.438 13.4161 31.1199 13.5761 30.7461L13.5865 30.7182L16.6794 22.6636C16.726 22.5613 16.7966 22.4718 16.8853 22.4027C16.9739 22.3337 17.078 22.2872 17.1886 22.2672C17.2991 22.2472 17.4129 22.2543 17.5201 22.2879C17.6273 22.3215 17.7248 22.3806 17.8042 22.4601L26.7247 31.3861C26.9185 31.5807 27.1488 31.7351 27.4024 31.8404C27.656 31.9458 27.9278 32 28.2024 32C28.477 32 28.7489 31.9458 29.0025 31.8404C29.2561 31.7351 29.4864 31.5807 29.6802 31.3861L31.8864 29.179C32.0809 28.9851 32.2352 28.7546 32.3405 28.5009C32.4458 28.2473 32.5 27.9753 32.5 27.7006C32.5 27.4259 32.4458 27.1539 32.3405 26.9002C32.2352 26.6465 32.0809 26.4161 31.8864 26.2222L22.9503 17.3013ZM30.8885 28.1945L28.6823 30.4017C28.6177 30.4664 28.541 30.5177 28.4566 30.5527C28.3721 30.5877 28.2816 30.6057 28.1903 30.6057C28.0989 30.6057 28.0084 30.5877 27.924 30.5527C27.8395 30.5177 27.7628 30.4664 27.6983 30.4017L18.7778 21.4774C18.3869 21.0858 17.8567 20.8656 17.3035 20.8651C17.1729 20.8651 17.0425 20.8773 16.9141 20.9017C16.58 20.9649 16.2665 21.1089 16.0007 21.3211C15.735 21.5333 15.5251 21.8073 15.3894 22.1192L15.379 22.147L12.2861 30.2017C12.2259 30.3245 12.1308 30.4269 12.0126 30.496C11.8945 30.5651 11.7587 30.5978 11.6221 30.59C11.4855 30.5822 11.3543 30.5342 11.2448 30.4522C11.1353 30.3701 11.0524 30.2576 11.0065 30.1286L1.91921 2.28773C1.88201 2.16685 1.87844 2.03812 1.90891 1.91536C1.93937 1.79261 2.0027 1.68049 2.0921 1.59105C2.18149 1.50162 2.29357 1.43825 2.41627 1.40778C2.53897 1.3773 2.66765 1.38087 2.78848 1.41809L30.6173 10.5111C30.7461 10.557 30.8586 10.6399 30.9407 10.7494C31.0227 10.859 31.0706 10.9903 31.0784 11.1269C31.0862 11.2636 31.0535 11.3995 30.9845 11.5176C30.9155 11.6358 30.8131 11.731 30.6903 11.7912L22.6391 14.8837L22.6113 14.8959C22.2994 15.0313 22.0253 15.241 21.8128 15.5067C21.6004 15.7724 21.4561 16.0859 21.3926 16.4201C21.329 16.7543 21.348 17.099 21.448 17.4242C21.548 17.7493 21.7259 18.0451 21.9663 18.2858L30.8885 27.2101C30.9531 27.2747 31.0044 27.3514 31.0394 27.4359C31.0744 27.5203 31.0924 27.6109 31.0924 27.7023C31.0924 27.7937 31.0744 27.8843 31.0394 27.9687C31.0044 28.0532 30.9531 28.1299 30.8885 28.1945Z" fill="white"/>
</svg>
